<?xml version="1.0" encoding="UTF-8"?>
<svg width="238" height="21" id="Layer_1" xmlns="http://www.w3.org/2000/svg" version="1.1" viewBox="0 0 238 21">
  <!-- Generator: Adobe Illustrator 29.5.0, SVG Export Plug-In . SVG Version: 2.1.0 Build 137)  -->
  <defs>
    <style>
      .st0 {
        fill-rule: evenodd;
      }

      .st0, .st1 {
        fill: #fff;
      }

      .st2 {
        fill: #618e1a;
      }
    </style>
  </defs>
  <g>
    <g>
      <g>
        <polygon class="st0" points="7.7212661 6.8484799 8.2794293 4.3832566 13.8610673 4.3832566 14.884368 .9877601 4.1862285 .9877601 0 15.4069918 5.1630153 15.4069918 6.7909931 10.0114082 12.2330896 10.0114082 13.1633626 6.8484799 7.7212661 6.8484799"/>
        <polygon class="st0" points="15.1634492 4.8018795 12.2330896 15.4069918 17.2100505 15.4069918 20.1869248 4.8018795 15.1634492 4.8018795"/>
        <polygon class="st0" points="21.4427919 .9877601 16.2797775 .9877601 15.3960174 3.7320655 20.6520613 3.7320655 21.4427919 .9877601"/>
        <path class="st0" d="M29.5826806.9877601l-1.4419224,5.0699878c-.4651365-.790732-1.4419224-1.3954095-2.8838466-1.3954095s-3.1629278.790732-3.9536602,2.1861415c-1.0698136,1.8140326-1.8140331,4.5583378-1.8140331,6.3723699s1.0698136,2.3721963,2.6977913,2.3721963,2.6977913-.5116503,3.721092-1.3954095l-.3721088,1.2093551h5.0699868L34.745695.9877601h-5.1630144ZM26.5127804,11.8254404c-.2790812.1860544-.5116494.2790821-.8837601.2790821-.5116494,0-.7907324-.3721088-.7907324-.6977047,0-.8837592.3721088-1.7675183.7442177-2.6047646.2790812-.6046775.7442177-.790732,1.1628412-.790732s.6046771.1860544.7907324.4186231l-.9767859,3.395497s-.0465129,0-.0465129-.0000009Z"/>
        <path class="st0" d="M44.978698,10.709113c.2790812-.8837592.5581624-2.2791687.5581624-2.8838462,0-2.6047641-2.0931142-3.2094419-5.2560439-3.2094419s-4.3722838.6046773-5.6281509,2.1861417c-1.0698154,1.3954095-1.9070589,4.0001741-1.9070589,5.4886112,0,2.8838466,2.3721954,3.3024693,5.4420956,3.3024693s5.8607192-1.0233007,6.511911-4.0001741h-4.9769591c-.3721106.9767868-.6511918,1.3023818-1.3488966,1.3023818s-.7442177-.6046771-.7442177-.7907324c0-.4186227.0930259-.7907324.2790812-1.3954095h7.0700769ZM39.8156836,7.2205892c.5581624,0,.8837601.1860544.8837601.6977047s-.0930259.5116503-.0930259.7907324h-2.1861401c.2790812-1.0233002.7442177-1.4884367,1.3488966-1.4884367,0,0,.0465129,0,.0465094-.0000004Z"/>
        <polygon class="st0" points="49.3044689 .9877601 45.2112663 15.4069918 50.2812548 15.4069918 54.4209704 .9877601 49.3044689 .9877601"/>
        <polygon class="st0" points="61.1189331 .9877601 55.9094057 .9877601 55.1186751 3.7320655 60.3282025 3.7320655 61.1189331 .9877601"/>
        <polygon class="st0" points="54.8395939 4.8018795 51.7231773 15.4069918 56.8861952 15.4069918 60.0491248 4.8018795 54.8395939 4.8018795"/>
        <path class="st0" d="M76.4219282,4.8949067l-2.8373355,5.7676924.0930259-5.7676924h-7.0700734l.7442212-2.3721961h-5.163018l-2.8373319,9.535298c-.1860553.5116503-.1860553,1.0698136-.1860553,1.4884372,0,1.0233007.5581624,1.8140322,2.0931142,1.8140322h4.5583391l.7907306-2.6512784h-1.0698154c-.7442212,0-.8837565-.1860544-.8837565-.6046771s.0930259-.6046771.1860518-.9767868l1.0698154-3.9536602h2.790819l.7442212,8.1398887c-.0930259.604678-.2790847.9767868-.7442212,1.0698145-.4651365.2790812-1.441926.1860553-1.7210036.1860553h-.0930259l-.7907306,2.8838466h3.5350402c2.0000884,0,3.0699037-1.0233007,4.5118226-3.2559555l7.5352099-11.3958442h-5.2560439s0,.0930272,0,.0930259Z"/>
      </g>
      <g>
        <path class="st1" d="M121.1215415,6.2903162c-1.0698083-.930273-2.5117343-1.3488957-4.4187967-1.3488957h-3.3954979v10.5120851h3.5350402c1.8140295,0,3.2559626-.4651365,4.3257709-1.3954095s1.5814613-2.2326548,1.5814613-3.8606326-.511653-2.9768734-1.5814613-3.9071464c0,0-.0465165,0-.0465165-.0000009ZM120.0982497,13.2673637c-.7907377.6977047-1.9535719,1.0698136-3.3954979,1.0698136h-2.0000884V6.0112342h2.0465978c1.441926,0,2.5582507.3721093,3.3489885,1.1163274.83724.7442186,1.2093577,1.7210054,1.2093577,3.0699011s-.41862,2.3721963-1.2093577,3.116414c0,0,0-.0465138,0-.0465129Z"/>
        <rect class="st1" x="125.4008029" y="4.8949067" width="1.348893" height="10.5120851"/>
        <path class="st1" d="M139.1223296,9.77884h-3.7676085v1.0698136h2.4652178v3.1629278c-.3721035.1860544-.7907377.3255959-1.2093577.4186227-.41862.0930277-.8837565.1395406-1.3954095.1395406-1.3023765,0-2.372199-.4186227-3.1629225-1.2093551-.7907377-.8372453-1.1628412-1.9070598-1.1628412-3.2094417s.41862-2.3256825,1.2093577-3.1629283c.83724-.8372458,1.860546-1.2558685,3.1629225-1.2558685s1.1628412.0930272,1.767513.3255955,1.2093577.5116503,1.8140295.930273v-1.4884367c-.511653-.2790821-1.0698083-.5116503-1.7210107-.6511909-.6046718-.139541-1.3023765-.2325682-1.953579-.2325682-1.6744942,0-3.0699037.5116503-4.139712,1.5349505s-1.5814613,2.3721959-1.5814613,4.0001745.511653,2.9768734,1.5814613,4.0001741,2.4652178,1.5349501,4.1862285,1.5349501,1.441926-.0930277,2.1861472-.2790821c.6977047-.1860544,1.3954095-.4651365,2.0000813-.7907324l-.2325682-.5116503v-4.32577h-.0465165l.0000284.0000018Z"/>
        <rect class="st1" x="142.2387357" y="4.8949067" width="1.348893" height="10.5120851"/>
        <polygon class="st1" points="153.7741294 4.8949067 145.6342406 4.8949067 145.6342406 6.0112342 149.0297314 6.0112342 149.0297314 15.4069918 150.3786244 15.4069918 150.3786244 6.0112342 153.7741294 6.0112342 153.7741294 4.8949067"/>
        <path class="st1" d="M157.9603579,4.8949067l-4.6048485,10.5120851h1.3954095l1.0698083-2.6047646h5.3490697l1.023306,2.6047646h1.441926l-4.5118297-10.5120851h-1.2093577.0465165ZM156.2858636,11.7789266l2.279166-5.4886108,2.1861472,5.4886108h-4.5118297.0465165Z"/>
        <polygon class="st1" points="166.9840031 4.8949067 165.6351101 4.8949067 165.6351101 15.4069918 171.7749034 15.4069918 171.7749034 14.3371773 166.9840031 14.3371773 166.9840031 4.8949067"/>
        <path class="st1" d="M181.4962675,4.8949067l-4.6048485,10.5120851h1.3954095l1.0698083-2.6047646h5.3490697l1.023306,2.6047646h1.441926l-4.5118297-10.5120851h-1.2093577.0465165ZM179.8217733,11.7789266l2.279166-5.4886108,2.1861472,5.4886108h-4.5118297.0465165Z"/>
        <path class="st1" d="M192.4269753,9.5462717c-.83724-.2325682-1.441926-.5116503-1.767513-.8372453-.3256012-.3255959-.4651365-.6977047-.4651365-1.2093551s.1860518-1.0233002.5581695-1.3488957c.3721035-.3255955.8837565-.5116503,1.5349448-.5116503s.9767895.0930272,1.4884425.3255955,1.023306.5581637,1.5349448,1.0233002v-1.4884367c-.4651365-.3255955-.930273-.5581637-1.3954095-.6977047-.511653-.139541-1.023306-.2325682-1.5814613-.2325682-1.023306,0-1.9070625.2790821-2.5582507.8372458-.6511883.5116503-.9767895,1.2558685-.9767895,2.1396281,0,.8837601.2325682,1.4419233.6977047,1.9070598s1.2558742.8837592,2.372199,1.1628412c.8837565.2790821,1.4884425.5581642,1.8140295.8837592.3256012.3255959.511653.6977047.511653,1.2093551s-.1860518,1.0698136-.6046718,1.3954095c-.41862.3721088-.930273.5116503-1.6279777.5116503s-1.023306-.1395406-1.5814613-.3721088c-.5581695-.2325682-1.1163248-.6046771-1.7210107-1.1163274v1.5349501c.511653.3255959,1.0698083.5581642,1.6279777.7442186s1.1163248.2325682,1.6744942.2325682c1.023306,0,1.9070625-.2790821,2.5582507-.8372453.6977047-.5581642,1.023306-1.3023818,1.023306-2.2326548s-.2325682-1.3954095-.7442212-1.860546c-.4651365-.4651365-1.3023765-.8837592-2.4652178-1.2093551l.093033.0465138-.0000284-.0000018Z"/>
        <path class="st1" d="M201.5901558,9.5462717c-.83724-.2325682-1.441926-.5116503-1.767513-.8372453-.3256012-.3255959-.4651365-.6977047-.4651365-1.2093551s.1860518-1.0233002.5581695-1.3488957c.3721035-.3255955.8837565-.5116503,1.5349448-.5116503s.9767895.0930272,1.4884425.3255955,1.023306.5581637,1.5349448,1.0233002v-1.4884367c-.4651365-.3255955-.930273-.5581637-1.3954095-.6977047-.511653-.139541-1.023306-.2325682-1.5814613-.2325682-1.023306,0-1.9070625.2790821-2.5582507.8372458-.6511883.5116503-.9767895,1.2558685-.9767895,2.1396281,0,.8837601.2325682,1.4419233.6977047,1.9070598s1.2558742.8837592,2.372199,1.1628412c.8837565.2790821,1.4884425.5581642,1.8140295.8837592.3256012.3255959.511653.6977047.511653,1.2093551s-.1860518,1.0698136-.6046718,1.3954095c-.41862.3721088-.930273.5116503-1.6279777.5116503s-1.023306-.1395406-1.5814613-.3721088c-.5581695-.2325682-1.1163248-.6046771-1.7210107-1.1163274v1.5349501c.511653.3255959,1.0698083.5581642,1.6279777.7442186s1.1163248.2325682,1.6744942.2325682c1.023306,0,1.9070625-.2790821,2.5582507-.8372453.6977047-.5581642,1.023306-1.3023818,1.023306-2.2326548s-.2325682-1.3954095-.7442212-1.860546c-.4651365-.4651365-1.3023765-.8837592-2.4652178-1.2093551l.093033.0465138-.0000284-.0000018Z"/>
        <polygon class="st1" points="208.846288 10.5695724 213.8697565 10.5695724 213.8697565 9.4532441 208.846288 9.4532441 208.846288 6.0112342 214.1953577 6.0112342 214.1953577 4.8949067 207.497395 4.8949067 207.497395 15.4069918 214.427926 15.4069918 214.427926 14.3371773 208.846288 14.3371773 208.846288 10.5695724"/>
        <polygon class="st1" points="215.9163684 6.0112342 219.3118592 6.0112342 219.3118592 15.4069918 220.6607522 15.4069918 220.6607522 6.0112342 224.0562572 6.0112342 224.0562572 4.8949067 215.9163684 4.8949067 215.9163684 6.0112342"/>
        <path class="st1" d="M231.8240282,10.7556268c-.4651365-.4651365-1.3023765-.8837592-2.4652178-1.2093551-.83724-.2325682-1.441926-.5116503-1.767513-.8372453-.3256012-.3255959-.4651365-.6977047-.4651365-1.2093551s.1860518-1.0233002.5581695-1.3488957c.3721035-.3255955.8837565-.5116503,1.5349448-.5116503s.9767895.0930272,1.4884425.3255955,1.023306.5581637,1.5349448,1.0233002v-1.4884367c-.4651365-.3255955-.930273-.5581637-1.3954095-.6977047-.511653-.139541-1.023306-.2325682-1.5814613-.2325682-1.023306,0-1.9070625.2790821-2.5582507.8372458-.6511883.5116503-.9767895,1.2558685-.9767895,2.1396281,0,.8837601.2325682,1.4419233.6977047,1.9070598s1.2558742.8837592,2.372199,1.1628412c.8837565.2790821,1.4884425.5581642,1.8140295.8837592.3256012.3255959.511653.6977047.511653,1.2093551s-.1860518,1.0698136-.6046718,1.3954095c-.41862.3721088-.930273.5116503-1.6279777.5116503s-1.023306-.1395406-1.5814613-.3721088c-.5581695-.2325682-1.1163248-.6046771-1.7210107-1.1163274v1.5349501c.511653.3255959,1.0698083.5581642,1.6279777.7442186s1.1163248.2325682,1.6744942.2325682c1.023306,0,1.9070625-.2790821,2.5582507-.8372453.6977047-.5581642,1.023306-1.3023818,1.023306-2.2326548s-.2325682-1.3954095-.7442212-1.860546l.093033.0465138-.0000284-.0000018Z"/>
      </g>
    </g>
    <path class="st2" d="M94.7948199.9412465l-13.1168478,18.60546,13.1168478-4.9769609,13.1168478,4.9769609L94.7948199.9412465ZM94.7948199,13.2673637l-7.1165899,2.6512784,7.1165899-5.1165015,7.442184,5.2095291s-7.442184-2.7443052-7.442184-2.7443061ZM94.7948199,9.5462717l-8.1398887,5.8607201,8.1864052-8.6515391,8.2329146,8.5585114-8.2794311-5.7676924ZM103.3998451,14.5232326l-8.6050252-8.9306211-8.88411,9.4422706,8.9306194-12.6517131,8.5585087,12.1865766v-.0465138l.0000071.0000009Z"/>
  </g>
  <path class="st1" d="M235.4521014,8.1369083c-.47909,0-.8884124-.162798-1.2233113-.4930449-.3395548-.3302469-.5069971-.7302642-.5069971-1.2047036s.1674423-.8791081.5069971-1.2140061c.3395548-.3348984.7442212-.5023474,1.2233113-.5023474s.8791148.167449,1.2139994.5023474c.3348988.3348984.5023412.7395671.5023412,1.2140061s-.1674423.8744567-.5023412,1.2047036-.7395653.4930444-1.2139994.4930449ZM235.4521014,4.9135122c-.4279318,0-.7907377.1488435-1.0930736.4511825s-.451183.6558424-.451183,1.0744651.1488471.776778.451183,1.069814c.3023359.2976875.6651418.4465311,1.0884177.4465311s.7674724-.1488435,1.0651666-.4511825c.2976942-.2976875.4465271-.6558424.4465271-1.069814s-.1488471-.776778-.4465271-1.0744651c-.2976942-.2976875-.6511883-.4511825-1.0651666-.4511825l.0046559.0046515ZM235.759079,6.5368385l.5349041.8372458h-.390713l-.4837459-.790732h-.3023359v.790732h-.3488524v-1.9349678h.7163142c.2279123,0,.4046665.0511649.5302624.1488435.1302377.1023302.1907077.2418712.1907077.4232741,0,.1348896-.0418606.2511737-.1255817.3488524s-.1907077.153495-.3302429.1721005l.0092834.0046515ZM235.1172026,5.7135471v.6279345h.3023359c.1441912,0,.2558194-.0279084.3302429-.0837247s.1116282-.139541.1116282-.2511737c0-.0976787-.032563-.167449-.0976747-.2186143-.0651259-.0511649-.1581447-.0744218-.2697729-.0744218h-.3767594Z"/>
</svg>