<svg width="97" height="30" viewBox="0 0 97 30" fill="none" xmlns="http://www.w3.org/2000/svg">
<g clip-path="url(#clip0_676_2937)">
<path fill-rule="evenodd" clip-rule="evenodd" d="M7.485 30H9.73125V18H7.485V30ZM15.7191 29.82H17.7309V22.2488L26.1994 30V18.18H24.1931V25.6219L15.7191 18V29.82ZM30.7922 26.9138C31.8872 27.7669 33.2016 28.26 34.6106 28.26C35.9831 28.26 36.9459 27.7875 36.9459 26.7441C36.9459 25.8347 36.3319 25.4784 35.2566 25.08L33.5156 24.4753C31.9106 23.9053 30.69 23.0728 30.69 21.1594C30.69 19.1128 32.5378 18 34.7475 18C36.1012 18 37.335 18.3403 38.2988 18.9431V20.9728C37.2966 20.2322 36.1997 19.7222 34.7906 19.7222C33.5775 19.7222 32.6709 20.175 32.6709 21.1191C32.6709 21.9722 33.24 22.3134 34.2422 22.6566L36.1819 23.3372C38.0616 23.9981 38.9241 25.0228 38.9241 26.7084C38.9241 28.8291 37.0584 30 34.6106 30C33.0019 30 31.6341 29.55 30.7922 28.9819V26.9138ZM44.1647 30H46.41V18H44.1647V30ZM56.9438 28.1841C59.475 28.1841 60.8278 26.5603 60.8278 23.9972C60.8278 21.4153 59.4741 19.7972 56.9438 19.7972H54.4406V28.1841H56.9438V28.1841ZM52.3969 18H57.0187C60.5766 18 62.8772 20.3438 62.8772 23.9972C62.8772 27.6534 60.5766 30 57.0187 30H52.3969V18ZM74.1066 18V19.7972H68.6719V22.6847H73.5459V24.4612H68.6709V28.1841H74.1066V30H66.6206V18H74.1066ZM82.0772 23.4338H84.3056C85.6247 23.4338 86.3681 22.71 86.3681 21.5972C86.3681 20.4844 85.6247 19.7597 84.3056 19.7597H82.0772V23.4347V23.4338ZM82.0772 25.1306V30H80.0944V18H84.3431C86.7656 18 88.3331 19.2478 88.3331 21.5972C88.3331 23.6063 87.4631 24.7603 85.6097 25.0566L89.8256 30H87.57L83.4881 25.1316H82.0781L82.0772 25.1306ZM6.70031 6.17813C7.57875 5.85656 8.26313 4.89187 8.26313 3.56531C8.26313 1.35469 6.70031 0.209063 4.2 0.209063H0V12.5494H4.59C7.09031 12.5494 8.65312 11.3231 8.65312 9.01219C8.65312 7.70531 7.83281 6.55969 6.70031 6.17813ZM1.9725 5.39438V2.01844H4.18125C5.56875 2.01844 6.31031 2.52094 6.31031 3.68625C6.31031 4.85156 5.56781 5.39438 4.18125 5.39438H1.9725ZM1.9725 7.12313H4.55063C5.91938 7.12313 6.66094 7.80563 6.66094 8.93156C6.66094 10.0369 5.91844 10.7409 4.55156 10.7409H1.97344V7.12219L1.9725 7.12313ZM17.8172 12.75C20.6887 12.75 22.6228 11.0212 22.6228 7.64531V0.209063H20.5913V7.40344C20.5913 9.77531 19.6144 10.8816 17.8172 10.8816C16.02 10.8816 15.0441 9.77531 15.0441 7.40344V0.209063H13.0125V7.62469C13.0125 11.0213 14.9653 12.75 17.8172 12.75V12.75ZM27.4059 11.6644C28.2459 12.2681 29.6138 12.75 31.215 12.75C33.6572 12.75 35.5125 11.5031 35.5125 9.25312C35.5125 7.46437 34.6538 6.37875 32.7778 5.67562L30.8447 4.95188C29.8481 4.59094 29.2819 4.22906 29.2819 3.32438C29.2819 2.31937 30.18 1.8375 31.3913 1.8375C32.7975 1.8375 33.8916 2.37937 34.8881 3.16406V1.0125C33.9309 0.370313 32.7 0.0084375 31.3519 0.0084375C29.145 0.0084375 27.3084 1.19437 27.3084 3.36469C27.3084 5.39437 28.5197 6.27844 30.1209 6.88125L31.86 7.52438C32.9344 7.94625 33.54 8.32875 33.54 9.29344C33.54 10.3988 32.5828 10.9013 31.215 10.9013C29.8088 10.9013 28.5 10.3781 27.4059 9.47437V11.6644V11.6644ZM42.7716 0.209063H40.7409V12.5484H42.7716V0.209063ZM48.5672 12.5334H50.5247V4.50563L58.7634 12.7247V0.190312H56.8116V8.08125L48.5672 0V12.5334V12.5334ZM71.4581 0.211875V2.05969H66.1838V5.02969H70.9134V6.85688H66.1838V10.6847H71.4581V12.5522H64.1925V0.211875H71.4581ZM76.1878 11.6559C77.0278 12.2597 78.3947 12.7416 79.9969 12.7416C82.4381 12.7416 84.2944 11.4956 84.2944 9.24469C84.2944 7.45594 83.4347 6.37125 81.5597 5.66719L79.6256 4.94438C78.6291 4.5825 78.0628 4.22062 78.0628 3.31594C78.0628 2.31094 78.9609 1.82906 80.1722 1.82906C81.5784 1.82906 82.6725 2.37187 83.6691 3.15562V1.005C82.7119 0.361875 81.4809 0 80.1328 0C77.9259 0 76.0894 1.18594 76.0894 3.35625C76.0894 5.38594 77.3006 6.27 78.9019 6.87281L80.6409 7.51594C81.7153 7.93781 82.3209 8.32031 82.3209 9.285C82.3209 10.3903 81.3647 10.8928 79.9959 10.8928C78.5897 10.8928 77.2809 10.3706 76.1878 9.46594V11.6559V11.6559ZM88.4559 11.6559C89.2959 12.2597 90.6638 12.7416 92.265 12.7416C94.7072 12.7416 96.5625 11.4956 96.5625 9.24469C96.5625 7.45594 95.7028 6.37125 93.8278 5.66719L91.8937 4.94438C90.8981 4.5825 90.3309 4.22062 90.3309 3.31594C90.3309 2.31094 91.23 1.82906 92.4403 1.82906C93.8466 1.82906 94.9416 2.37187 95.9372 3.15562V1.005C94.9809 0.361875 93.75 0 92.4019 0C90.1941 0 88.3584 1.18594 88.3584 3.35625C88.3584 5.38594 89.5697 6.27 91.1709 6.87281L92.91 7.51594C93.9844 7.93781 94.59 8.32031 94.59 9.285C94.59 10.3903 93.6328 10.8928 92.265 10.8928C90.8588 10.8928 89.55 10.3706 88.4559 9.46594V11.6559V11.6559Z" fill="white"/>
</g>
<defs>
<clipPath id="clip0_676_2937">
<rect width="96.5625" height="30" fill="white"/>
</clipPath>
</defs>
</svg>
