<svg width="70" height="65" viewBox="0 0 70 65" fill="none" xmlns="http://www.w3.org/2000/svg">
<g clip-path="url(#clip0_593_53)">
<path d="M67.7 15.0002H64.2C62.9 15.0002 61.9 16.0002 61.9 17.3002H48.3C48.1 17.3002 47.9 17.3002 47.8 17.2002L40.1 13.4002C39.2 12.9002 38.2 12.7002 37.2 12.7002C35.7 12.7002 34.2 13.2002 33 14.2002C31.3 14.0002 29.6 13.8002 27.9 13.8002C23.3 13.8002 19.4 16.4002 17.5 18.0002C17.1 18.3002 16.6 18.5002 16 18.5002H8C8 17.2002 7 16.2002 5.7 16.2002H2.3C1 16.2002 0 17.2002 0 18.5002V33.7002C0 35.0002 1 36.0002 2.3 36.0002H5.8C7 36.0002 8 35.1002 8.1 33.9002C10.8 34.4002 13.4 35.5002 15.7 37.0002L15.5 37.5002C14.3 39.4002 15 41.9002 16.9 43.1002C17.5 43.5002 18.3 43.7002 19 43.7002C19.3 43.7002 19.7 43.7002 20 43.6002C20.4 45.4002 22.1 46.7002 24 46.7002C24.3 46.7002 24.7 46.7002 25 46.6002C25.4 48.4002 27.1 49.7002 29 49.7002C29.3 49.7002 29.5 49.7002 29.8 49.6002C30.2 51.5002 32.1 52.7002 34 52.2002C34.9 52.0002 35.7 51.4002 36.2 50.6002L37.2 48.9002L40.6 51.4002C42.2 52.5002 44.4 52.2002 45.5 50.6002C45.9 50.1002 46.1 49.4002 46.2 48.7002C47.5 48.8002 48.8 48.1002 49.6 47.0002C50.1 46.3002 50.4 45.5002 50.4 44.6002C52.6 44.8002 54.6 43.1002 54.8 40.8002C54.8 40.2002 54.8 39.6002 54.5 39.0002C54.8 38.9002 55.2 38.7002 55.5 38.5002C56.9 37.5002 57.6 35.8002 57.2 34.1002C58.8 33.8002 60.4 33.6002 62 33.4002C62 34.7002 63.1 35.7002 64.3 35.7002H67.8C69.1 35.7002 70.1 34.7002 70.1 33.4002V17.3002C70 16.0002 69 15.0002 67.7 15.0002ZM5.8 33.7002H2.3V18.5002H5.8V33.7002ZM39.1 15.4002L46.8 19.2002C47.3 19.5002 47.8 19.6002 48.4 19.6002H61.9V31.3002C59.8 31.5002 57.8 31.7002 55.8 32.2002C55.7 32.1002 55.6 32.0002 55.6 32.0002L38.8 20.4002C37.9 19.8002 36.7 19.9002 35.9 20.6002L30 26.1002C29.3 26.8002 28.2 26.8002 27.4 26.1002C27.1 25.8002 26.9 25.3002 26.9 24.8002C26.9 24.4002 27 23.9002 27.3 23.6002L34.3 16.2002C35.5 15.0002 37.5 14.7002 39.1 15.4002ZM18.1 41.1002C17.3 40.6002 17 39.5002 17.5 38.7002L19.7 35.1002C19.9 34.7002 20.3 34.4002 20.8 34.3002C20.9 34.3002 21.1 34.2002 21.2 34.2002C22.2 34.2002 23 35.0002 23 35.9002C23 36.2002 22.9 36.5002 22.8 36.8002L20.5 40.5002C20 41.3002 18.9 41.6002 18.1 41.1002ZM23.1 44.1002C22.3 43.6002 22 42.6002 22.5 41.7002L24.7 38.1002C24.7 38.1002 24.7 38.1002 24.7 38.0002L25.3 37.1002C25.5 36.7002 25.9 36.4002 26.4 36.3002C27.3 36.1002 28.3 36.6002 28.5 37.6002C28.6 38.1002 28.5 38.5002 28.3 38.9002L25.5 43.5002C25.3 43.9002 24.9 44.2002 24.4 44.3002C23.9 44.4002 23.5 44.3002 23.1 44.1002ZM28.1 47.1002C27.3 46.6002 27 45.5002 27.5 44.7002L29.7 41.1002C29.9 40.7002 30.3 40.4002 30.8 40.3002C30.9 40.3002 31.1 40.2002 31.2 40.2002C31.5 40.2002 31.8 40.3002 32.1 40.5002C32.9 41.0002 33.2 42.1002 32.7 42.9002L31.6 44.7002L30.5 46.5002C30 47.3002 28.9 47.6002 28.1 47.1002ZM34.1 49.4002C33.8 50.0002 33.1 50.1002 32.5 49.8002C31.9 49.5002 31.8 48.8002 32.1 48.2002L32.4 47.7002L34 45.1002L34.3 44.6002C34.6 44.0002 35.4 43.9002 35.9 44.2002C36.5 44.5002 36.6 45.3002 36.3 45.8002L34.1 49.4002ZM54 36.8002C53.3 37.2002 52.5 37.1002 51.9 36.7002L48.5 34.2002C48 33.8002 47.2 33.9002 46.9 34.5002C46.5 35.0002 46.6 35.8002 47.2 36.1002L50.6 38.6002L51.6 39.3002C52.1 39.6002 52.3 40.2002 52.3 40.7002C52.3 41.7002 51.5 42.5002 50.6 42.5002C50.2 42.5002 49.9 42.4002 49.6 42.2002L48.6 41.5002L44.6 38.6002C44.1 38.2002 43.3 38.3002 43 38.9002C42.6 39.4002 42.7 40.2002 43.3 40.5002L47.3 43.4002C47.7 43.7002 47.9 44.1002 48 44.5002C48.1 45.0002 47.9 45.4002 47.7 45.8002C47.1 46.6002 46 46.7002 45.3 46.2002L44.9 45.9002L42.9 44.5002C42.4 44.1002 41.6 44.2002 41.3 44.8002C40.9 45.3002 41 46.1002 41.6 46.4002L43.5 47.8002C43.5 47.8002 43.5 47.8002 43.6 47.8002C43.6 47.8002 43.7 47.8002 43.6 47.8002C44.1 48.2002 44.2 48.9002 43.8 49.4002C43.4 49.9002 42.7 50.0002 42.2 49.6002L38.6 47.0002C39.6 45.3002 39 43.2002 37.4 42.2002C36.8 41.9002 36.2 41.7002 35.5 41.7002C35.4 39.5002 33.4 37.8002 31.2 37.9002H31.1C31.1 35.7002 29.3 33.8002 27 33.9002C26.7 33.9002 26.4 33.9002 26.1 34.0002C25.8 34.1002 25.5 34.2002 25.2 34.3002C24.3 32.2002 21.9 31.3002 19.8 32.2002C19 32.5002 18.4 33.1002 17.9 33.8002L17.2 35.0002C14.5 33.3002 11.6 32.1002 8.4 31.5002V20.8002H16.4C17.5 20.8002 18.5 20.4002 19.3 19.8002C21.8 17.6002 24.9 16.4002 28.2 16.2002C29.3 16.2002 30.3 16.2002 31.3 16.3002L25.8 22.1002C24.3 23.8002 24.4 26.4002 26.1 27.9002C26.9 28.6002 27.9 29.0002 28.9 29.0002C30 29.0002 31 28.6002 31.8 27.8002L37.7 22.3002L54.4 33.9002C54.8 34.2002 55.1 34.8002 55.1 35.3002C54.8 36.0002 54.5 36.5002 54 36.8002ZM67.7 33.7002H64.2V17.3002H67.7V33.7002Z" fill="white"/>
</g>
<defs>
<clipPath id="clip0_593_53">
<rect width="70" height="65" fill="white"/>
</clipPath>
</defs>
</svg>
