<svg width="80" height="80" viewBox="0 0 80 80" fill="none" xmlns="http://www.w3.org/2000/svg">
<path d="M61.7143 5.59998H18.2857C12.5715 5.59998 7.88574 10.2857 7.88574 16V59.4285C7.88574 64.6857 11.7715 69.1428 17.0286 69.8285V70.8571C17.0286 72.8 18.6286 74.4 20.5715 74.4H29.7143C31.6572 74.4 33.2572 72.8 33.2572 70.8571V69.8285H46.7429V70.8571C46.7429 72.8 48.3429 74.4 50.2857 74.4H59.4286C61.3715 74.4 62.9715 72.8 62.9715 70.8571V69.8285C68.2286 69.1428 72.1143 64.8 72.1143 59.4285V16C72.1143 10.2857 67.4286 5.59998 61.7143 5.59998ZM29.7143 71.8857H20.5715C20 71.8857 19.5429 71.4285 19.5429 70.8571V69.8285H30.7429V70.8571C30.7429 71.4285 30.2857 71.8857 29.7143 71.8857ZM18.2857 8.11426H61.7143C66.0572 8.11426 69.6 11.6571 69.6 16V59.4285C69.6 63.7714 66.0572 67.3143 61.7143 67.3143H18.2857C13.9429 67.3143 10.4 63.7714 10.4 59.4285V16C10.4 11.6571 13.9429 8.11426 18.2857 8.11426ZM49.2572 69.8285H60.4572V70.8571C60.4572 71.4285 60 71.8857 59.4286 71.8857H50.2857C49.7143 71.8857 49.2572 71.4285 49.2572 70.8571V69.8285Z" fill="white"/>
<path d="M18.2857 65.2571H61.7143C64.9143 65.2571 67.5429 62.6285 67.5429 59.4285V16C67.5429 12.8 64.9143 10.1714 61.7143 10.1714H18.2857C15.0857 10.1714 12.4572 12.8 12.4572 16V59.4285C12.4572 62.6285 15.0857 65.2571 18.2857 65.2571ZM65.0286 59.4285C65.0286 61.2571 63.5429 62.7428 61.7143 62.7428H18.2857C16.4572 62.7428 14.9714 61.2571 14.9714 59.4285V16C14.9714 14.1714 16.4572 12.6857 18.2857 12.6857H61.7143C63.5429 12.6857 65.0286 14.1714 65.0286 16V59.4285Z" fill="white"/>
<path d="M40 21.6001C31.0857 21.6001 23.8857 28.8001 23.8857 37.7144C23.8857 46.6287 31.0857 53.8287 40 53.8287C48.9143 53.8287 56.1143 46.6287 56.1143 37.7144C56.1143 28.8001 48.9143 21.6001 40 21.6001ZM40 51.3144C32.5715 51.3144 26.4 45.2572 26.4 37.7144C26.4 30.2858 32.4572 24.1144 40 24.1144C47.4286 24.1144 53.6 30.1715 53.6 37.7144C53.6 45.143 47.4286 51.3144 40 51.3144Z" fill="white"/>
<path d="M49.1429 36.4571H48C47.7714 35.1999 47.3143 34.0571 46.5143 33.0285L47.3143 32.2285C47.5429 31.9999 47.6571 31.6571 47.6571 31.3142C47.6571 30.9714 47.5429 30.6285 47.3143 30.3999C47.0857 30.1714 46.7429 30.0571 46.4 30.0571C46.0571 30.0571 45.7143 30.1714 45.4857 30.3999L44.6857 31.1999C43.6571 30.3999 42.5143 29.9428 41.2571 29.7142V28.5714C41.2571 27.8856 40.6857 27.3142 40 27.3142C39.3143 27.3142 38.7429 27.8856 38.7429 28.5714V29.7142C37.4857 29.9428 36.3429 30.3999 35.3143 31.1999L34.4 30.2856C34.1714 30.0571 33.8286 29.9428 33.4857 29.9428C33.1429 29.9428 32.8 30.0571 32.5714 30.2856C32.3429 30.5142 32.2286 30.8571 32.2286 31.1999C32.2286 31.5428 32.3429 31.8856 32.5714 32.1142L33.3714 32.9142C32.5714 33.9428 32.1143 35.0856 31.8857 36.3428H30.7429C30.0571 36.3428 29.4857 36.9142 29.4857 37.5999C29.4857 38.2856 30.0571 38.8571 30.7429 38.8571H31.8857C32.1143 40.1142 32.5714 41.2571 33.3714 42.2856L32.5714 43.0856C32.1143 43.5428 32 44.3428 32.5714 44.9142C32.8 45.1428 33.1429 45.2571 33.4857 45.2571C33.8286 45.2571 34.1714 45.1428 34.4 44.9142L35.2 44.1142C36.2286 44.9142 37.3714 45.3714 38.6286 45.5999V46.7428C38.6286 47.4285 39.2 47.9999 39.8857 47.9999C40.5714 47.9999 41.1429 47.4285 41.1429 46.7428V45.5999C42.4 45.3714 43.5429 44.9142 44.5714 44.1142L45.3714 44.9142C45.6 45.1428 45.9429 45.2571 46.2857 45.2571C46.6286 45.2571 46.9714 45.1428 47.2 44.9142C47.6571 44.4571 47.6571 43.6571 47.2 43.0856L46.4 42.2856C47.2 41.2571 47.6572 40.1142 47.8857 38.8571H49.0286C49.7143 38.8571 50.2857 38.2856 50.2857 37.5999C50.2857 36.9142 49.8286 36.4571 49.1429 36.4571ZM45.6 37.7142C45.6 40.7999 43.0857 43.3142 40 43.3142C36.9143 43.3142 34.4 40.7999 34.4 37.7142C34.4 34.6285 36.9143 32.1142 40 32.1142C43.0857 32.1142 45.6 34.6285 45.6 37.7142Z" fill="white"/>
</svg>
