<svg width="360" height="53" viewBox="0 0 360 53" fill="none" xmlns="http://www.w3.org/2000/svg">
<g clip-path="url(#clip0_1128_736)">
<path d="M64.8555 12.092C64.8555 11.6798 65.23 11.3076 65.6472 11.3076H70.646C71.062 11.3076 71.4377 11.6786 71.4377 12.092V39.4135C71.4377 39.8257 71.0632 40.198 70.646 40.198H65.6472C65.2312 40.198 64.8555 39.8269 64.8555 39.4135V12.092Z" fill="white"/>
<path d="M82.349 17.3738H76.3926C75.9339 17.3738 75.6009 17.0027 75.6009 16.5894V12.0908C75.6009 11.6786 75.9339 11.3064 76.3926 11.3064H94.8863C95.345 11.3064 95.678 11.6774 95.678 12.0908V16.5894C95.678 17.0015 95.345 17.3738 94.8863 17.3738H88.9299V39.4123C88.9299 39.8245 88.5554 40.1968 88.1383 40.1968H83.1394C82.7235 40.1968 82.3478 39.8257 82.3478 39.4123V17.3738H82.349Z" fill="white"/>
<path d="M99.8424 12.092C99.8424 11.6798 100.175 11.3076 100.634 11.3076H113.088C118.087 11.3076 122.169 15.3106 122.169 20.2226C122.169 24.019 119.628 27.0732 116.004 28.5176L121.71 39.0002C122.002 39.5368 121.71 40.1968 121.003 40.1968H115.463C115.13 40.1968 114.88 39.9901 114.797 39.8257L109.258 28.8886H106.384V39.4123C106.384 39.8245 106.01 40.1968 105.593 40.1968H100.637C100.178 40.1968 99.8449 39.8257 99.8449 39.4123V12.092H99.8424ZM112.547 23.6479C114.255 23.6479 115.712 22.0791 115.712 20.3459C115.712 18.6127 114.255 17.2094 112.547 17.2094H106.382V23.6479H112.547Z" fill="white"/>
<path d="M127.334 12.092C127.334 11.6798 127.708 11.3076 128.125 11.3076H133.248C133.707 11.3076 134.04 11.6786 134.04 12.092V28.8064C134.04 31.6951 136.207 34.006 139.163 34.006C142.12 34.006 144.37 31.6951 144.37 28.8064V12.092C144.37 11.6798 144.703 11.3076 145.161 11.3076H150.285C150.7 11.3076 151.076 11.6786 151.076 12.092V29.1364C151.076 35.4093 145.744 40.6101 139.163 40.6101C132.582 40.6101 127.335 35.4105 127.335 29.1364V12.092H127.334Z" fill="white"/>
<path d="M156.114 36.2759L158.072 32.8506C158.405 32.3139 159.197 32.3961 159.488 32.6028C159.655 32.685 162.654 34.8726 165.403 34.8726C167.069 34.8726 168.277 33.8405 168.277 32.3961C168.277 30.6629 166.819 29.3419 163.987 28.2275C160.404 26.8242 155.907 24.0588 155.907 19.107C155.907 15.0218 159.114 10.8942 165.529 10.8942C169.86 10.8942 173.193 13.0819 174.442 13.9896C174.942 14.2784 174.858 15.0218 174.692 15.3106L172.568 18.4882C172.277 18.9426 171.526 19.3137 171.152 19.0248C170.778 18.8181 167.737 16.5483 165.196 16.5483C163.696 16.5483 162.572 17.5382 162.572 18.6525C162.572 20.1791 163.821 21.3345 167.112 22.6556C170.36 23.9356 175.526 26.452 175.526 32.0649C175.526 36.3158 171.819 40.6077 165.697 40.6077C160.282 40.6077 157.283 38.3789 156.325 37.4302C155.909 37.0168 155.783 36.8524 156.116 36.2747L156.114 36.2759Z" fill="white"/>
<path d="M184.354 17.3738H178.398C177.939 17.3738 177.606 17.0027 177.606 16.5894V12.0908C177.606 11.6786 177.939 11.3064 178.398 11.3064H196.891C197.35 11.3064 197.683 11.6774 197.683 12.0908V16.5894C197.683 17.0015 197.35 17.3738 196.891 17.3738H190.935V39.4123C190.935 39.8245 190.561 40.1968 190.143 40.1968H185.145C184.729 40.1968 184.353 39.8257 184.353 39.4123V17.3738H184.354Z" fill="white"/>
<path d="M214.594 10.8942C218.759 10.8942 221.84 12.1742 224.673 14.7329C225.047 15.0628 225.047 15.5584 224.714 15.8884L221.466 19.2315C221.174 19.5204 220.716 19.5204 220.424 19.2315C218.884 17.8693 216.842 17.1272 214.801 17.1272C210.095 17.1272 206.637 21.007 206.637 25.6289C206.637 30.2508 210.135 34.0073 214.842 34.0073C216.8 34.0073 218.924 33.305 220.424 32.0263C220.716 31.7785 221.257 31.7785 221.507 32.0674L224.756 35.4927C225.047 35.7816 225.006 36.3182 224.714 36.6071C221.882 39.3314 218.301 40.6101 214.594 40.6101C206.263 40.6101 199.557 34.0483 199.557 25.7945C199.557 17.5406 206.263 10.8954 214.594 10.8954V10.8942Z" fill="#79A617"/>
<path d="M225.965 39.1235L239.002 11.3487C239.127 11.1009 239.418 10.8942 239.71 10.8942H240.126C240.417 10.8942 240.709 11.1009 240.834 11.3487L253.872 39.1235C254.122 39.6601 253.789 40.1968 253.164 40.1968H248.541C247.791 40.1968 247.458 39.949 247.084 39.1646L245.584 35.9036H234.255L232.756 39.2057C232.547 39.7012 232.089 40.1968 231.256 40.1968H226.675C226.05 40.1968 225.717 39.6601 225.966 39.1235H225.965ZM243.084 30.2919L239.918 23.4823H239.877L236.753 30.2919H243.084Z" fill="#79A617"/>
<path d="M257.286 12.092C257.286 11.6798 257.619 11.3076 258.078 11.3076H268.116C273.239 11.3076 277.446 15.4351 277.446 20.4281C277.446 25.421 273.239 29.7141 268.157 29.7141H263.784V39.4123C263.784 39.8245 263.41 40.1968 262.992 40.1968H258.078C257.619 40.1968 257.286 39.8257 257.286 39.4123V12.092ZM267.741 23.689C269.532 23.689 271.032 22.2858 271.032 20.4281C271.032 18.6948 269.533 17.3738 267.741 17.3738H263.784V23.6878H267.741V23.689Z" fill="#79A617"/>
<path d="M281.695 12.092C281.695 11.6798 282.069 11.3076 282.486 11.3076H287.485C287.901 11.3076 288.277 11.6786 288.277 12.092V39.4135C288.277 39.8257 287.902 40.198 287.485 40.198H282.486C282.069 40.198 281.695 39.8269 281.695 39.4135V12.092Z" fill="#79A617"/>
<path d="M299.188 17.3738H293.232C292.773 17.3738 292.44 17.0027 292.44 16.5894V12.0908C292.44 11.6786 292.773 11.3064 293.232 11.3064H311.726C312.184 11.3064 312.517 11.6774 312.517 12.0908V16.5894C312.517 17.0015 312.184 17.3738 311.726 17.3738H305.769V39.4123C305.769 39.8245 305.395 40.1968 304.977 40.1968H299.979C299.561 40.1968 299.187 39.8257 299.187 39.4123V17.3738H299.188Z" fill="#79A617"/>
<path d="M311.434 39.1235L324.471 11.3487C324.596 11.1009 324.887 10.8942 325.179 10.8942H325.595C325.886 10.8942 326.178 11.1009 326.304 11.3487L339.341 39.1235C339.591 39.6601 339.258 40.1968 338.634 40.1968H334.01C333.26 40.1968 332.927 39.949 332.553 39.1646L331.054 35.9036H319.724L318.225 39.2057C318.016 39.7012 317.559 40.1968 316.726 40.1968H312.144C311.519 40.1968 311.186 39.6601 311.435 39.1235H311.434ZM328.553 30.2919L325.388 23.4823H325.346L322.222 30.2919H328.553Z" fill="#79A617"/>
<path d="M342.755 12.092C342.755 11.6798 343.088 11.3076 343.547 11.3076H348.503C348.92 11.3076 349.295 11.6786 349.295 12.092V34.1305H359.208C359.667 34.1305 360 34.5016 360 34.9149V39.4135C360 39.8257 359.667 40.198 359.208 40.198H343.547C343.088 40.198 342.755 39.8269 342.755 39.4135V12.092Z" fill="#79A617"/>
<path d="M52.6963 0.496185H0V52.7099H52.6963V0.496185Z" fill="white"/>
<path d="M23.0339 46.4382H8.9047V44.6796C9.35969 44.6446 9.82933 44.6083 10.3148 44.5733C10.7991 44.5382 11.2199 44.4669 11.5761 44.3606C12.1299 44.201 12.541 43.9218 12.8081 43.523C13.0753 43.1241 13.2095 42.6044 13.2095 41.9662V25.7606C13.2095 25.1926 13.0655 24.674 12.7789 24.2039C12.4922 23.7337 12.0909 23.3397 11.5773 23.0206C11.2016 22.8079 10.6576 22.6254 9.94521 22.4755C9.23283 22.3244 8.58023 22.2314 7.98618 22.1963V20.4377L18.3156 19.8515L18.7316 20.225V41.6459C18.7316 42.2684 18.8645 42.7833 19.1293 43.1906C19.394 43.5991 19.8123 43.9013 20.382 44.0971C20.8138 44.2566 21.2371 44.3859 21.6494 44.4838C22.0617 44.5817 22.524 44.6482 23.0351 44.6833V46.4419L23.0339 46.4382Z" fill="black"/>
<path d="M19.3244 9.48613C19.3244 10.499 18.9536 11.3825 18.2119 12.1367C17.4703 12.8921 16.5542 13.2692 15.4661 13.2692C14.4573 13.2692 13.5815 12.909 12.8386 12.1899C12.097 11.4707 11.7261 10.6489 11.7261 9.72544C11.7261 8.74885 12.097 7.89676 12.8386 7.16794C13.5803 6.44033 14.4561 6.07532 15.4661 6.07532C16.5944 6.07532 17.5191 6.41737 18.2412 7.10146C18.9633 7.78556 19.3244 8.57964 19.3244 9.48613Z" fill="black"/>
<path d="M45.8653 39.173H38.6684V46.3041H45.8653V39.173Z" fill="black"/>
</g>
<defs>
<clipPath id="clip0_1128_736">
<rect width="360" height="52.2137" fill="white" transform="translate(0 0.496185)"/>
</clipPath>
</defs>
</svg>
