<svg width="87" height="30" viewBox="0 0 87 30" fill="none" xmlns="http://www.w3.org/2000/svg">
<g clip-path="url(#clip0_676_2924)">
<path fill-rule="evenodd" clip-rule="evenodd" d="M52.5398 9.85365C51.1662 9.85365 50.0788 10.1389 48.9914 10.7664C48.9914 7.629 48.9914 4.71974 49.1058 3.75L42.4096 4.94791V5.51835L43.0964 5.63244C44.0121 5.80358 44.2982 6.31697 44.47 7.51485C44.6417 9.91073 44.5844 22.5174 44.47 24.628C46.2442 25.0273 48.1329 25.3125 50.0215 25.3125C55.287 25.3125 58.4348 22.061 58.4348 16.9271C58.4921 12.82 55.9166 9.85365 52.5398 9.85365ZM50.2505 24.1716C49.8499 24.1716 49.3348 24.1716 49.0486 24.0575C48.9341 22.6885 48.8769 16.8701 48.9341 11.7361C49.5064 11.565 49.9071 11.4509 50.4222 11.4509C52.5971 11.4509 53.7989 14.0179 53.7989 17.1553C53.7989 21.1483 52.3109 24.1716 50.2505 24.1716Z" fill="white"/>
<path fill-rule="evenodd" clip-rule="evenodd" d="M17.456 4.14923H0V5.06193L0.97296 5.17601C2.28931 5.34715 2.74718 6.14575 2.97611 8.02817C3.26227 11.5649 3.14781 18.0108 2.97611 21.0912C2.80441 22.9736 2.28931 23.8293 0.97296 23.9434L0 24.1145V24.9131H11.2177V24.1145L10.0157 23.9434C8.6994 23.8293 8.24153 22.9736 8.01263 21.0912C7.89818 19.7792 7.84088 17.7256 7.84088 15.1586L10.2447 15.2727C11.7328 15.2727 12.4196 16.4706 12.7057 18.1249H13.6214V11.0515H12.7057C12.4196 12.7058 11.7328 13.9037 10.2447 13.9037L7.84088 14.0177C7.84088 10.6522 7.9554 7.5148 8.01263 5.63236H11.5038C14.1937 5.63236 15.5674 7.28663 16.5403 10.2529L17.5132 9.96767L17.456 4.14923Z" fill="white"/>
<path fill-rule="evenodd" clip-rule="evenodd" d="M23.0649 9.68256C28.0442 9.68256 30.5051 13.0481 30.5051 17.4976C30.5051 21.7188 27.758 25.3125 22.7787 25.3125C17.7995 25.3125 15.3384 21.9469 15.3384 17.4976C15.3384 13.2193 18.1428 9.68256 23.0649 9.68256ZM22.7787 10.6523C20.6039 10.6523 20.0315 13.6186 20.0315 17.4405C20.0315 21.2054 21.0045 24.2287 23.0076 24.2287C25.297 24.2287 25.8693 21.2624 25.8693 17.4405C25.8693 13.7326 24.8963 10.6523 22.7787 10.6523Z" fill="white"/>
<path fill-rule="evenodd" clip-rule="evenodd" d="M59.7512 17.5546C59.7512 13.5045 62.3267 9.62555 67.3631 9.62555C71.5412 9.62555 73.487 12.7059 73.487 16.756H64.2725C64.1581 20.4068 65.9324 23.0878 69.538 23.0878C71.1405 23.0878 71.9417 22.6885 72.9147 22.004L73.3154 22.5175C72.3424 23.8865 70.1675 25.2555 67.3631 25.2555C62.9562 25.3125 59.7512 22.1181 59.7512 17.5546ZM64.3298 15.7292L68.9657 15.6151C68.9657 13.6186 68.6795 10.6523 66.9625 10.6523C65.3027 10.6523 64.4443 13.4475 64.3298 15.7292Z" fill="white"/>
<path fill-rule="evenodd" clip-rule="evenodd" d="M85.3342 10.4812C84.132 9.96778 82.587 9.68256 80.7555 9.68256C77.0925 9.68256 74.8034 11.8502 74.8034 14.4172C74.8034 16.9842 76.4632 18.068 78.867 18.8666C81.3277 19.7793 82.0147 20.4638 82.0147 21.6047C82.0147 22.8026 81.099 23.8864 79.554 23.8864C77.6647 23.8864 76.2915 22.8026 75.204 19.8364L74.5172 20.0074L74.6317 24.3428C75.8332 24.8562 78.0082 25.2555 79.8975 25.2555C83.7892 25.2555 86.25 23.259 86.25 20.2357C86.25 18.1821 85.1625 16.9842 82.587 16.0144C79.8397 14.9306 78.81 14.2461 78.81 12.934C78.81 11.6221 79.7257 10.7664 80.8702 10.7664C82.644 10.7664 83.8462 11.8502 84.762 14.5313L85.449 14.3602L85.3342 10.4812Z" fill="white"/>
<path fill-rule="evenodd" clip-rule="evenodd" d="M43.3825 10.082C41.7228 9.11222 38.7466 9.56859 37.1441 13.1623L37.2586 9.68267L30.6196 10.9946V11.5651L31.3064 11.6792C32.2221 11.7932 32.6227 12.2496 32.68 13.5616C32.8517 15.9575 32.7944 20.0646 32.68 22.1752C32.5655 23.3732 32.1649 23.9435 31.3064 24.0577L30.6196 24.1718V24.9704H39.8341V24.1718L38.6322 24.0577C37.6592 23.9435 37.3159 23.3732 37.2586 22.1752C37.0869 20.2928 37.0869 16.5279 37.1441 14.1891C37.6592 13.5046 39.8341 12.8771 41.78 14.1891L43.3825 10.082Z" fill="white"/>
</g>
<defs>
<clipPath id="clip0_676_2924">
<rect width="86.25" height="30" fill="white"/>
</clipPath>
</defs>
</svg>
