<svg width="136" height="30" viewBox="0 0 136 30" fill="none" xmlns="http://www.w3.org/2000/svg">
<g clip-path="url(#clip0_676_2932)">
<path d="M121.652 23.9362H126.53C126.719 24.5512 127.362 25.1661 128.568 25.1661C130.201 25.1661 130.764 24.152 130.764 22.6523V21.5842H130.656C129.85 22.5228 128.779 23.2133 127.2 23.2133C124.091 23.2133 121.387 20.9153 121.387 16.4216C121.387 12.3057 123.609 9.09593 126.963 9.09593C128.893 9.09593 130.071 9.87278 130.851 11.1027H130.932V9.52748H135.755V21.9834C135.755 24.2814 134.949 26.0724 133.743 27.1459C132.483 28.2679 130.688 28.7211 128.649 28.7211C124.815 28.7211 122.139 27.1405 121.652 23.9362ZM130.98 16.1789C130.98 14.3879 130.126 12.9422 128.649 12.9422C127.227 12.9422 126.319 14.2261 126.319 16.1789C126.319 18.1048 127.233 19.4911 128.649 19.4911C130.12 19.4965 130.98 18.0778 130.98 16.1789ZM116.001 11.982H116.082C117.126 9.97522 118.494 9.23078 120.235 9.23078C120.636 9.23078 120.906 9.28478 121.068 9.3657V13.7783H120.96C117.986 13.2443 116.244 14.663 116.244 17.8943V23.9092H111.177V9.52748H116.001V11.982ZM0.749512 3.75H10.667C12.5434 3.75 13.9872 4.20314 15.0093 5.03389C16.1611 5.96714 16.7775 7.35892 16.7775 9.015C16.7775 10.9409 15.9989 12.1439 14.3928 12.8937V12.9746C16.4856 13.6705 17.6914 15.5423 17.6914 17.8135C17.6914 19.9766 16.8587 21.6651 15.4959 22.6793C14.3442 23.51 12.8463 23.9092 10.8617 23.9092H0.749512V3.75ZM10.1857 19.4426C11.3916 19.4426 12.273 18.7197 12.273 17.3819C12.273 15.9901 11.3105 15.3211 10.1587 15.3211H6.2436V19.4372H10.1857V19.4426ZM9.67203 11.6368C10.7427 11.6368 11.5214 11.0488 11.5214 9.87278C11.5214 8.7237 10.7157 8.1627 9.64495 8.1627H6.2436V11.6368H9.67203Z" fill="white"/>
<path d="M18.5999 3.75H23.7965V23.9092H18.5999V3.75ZM24.7916 16.7399C24.7916 12.1978 27.7387 9.12293 32.2973 9.12293C36.8558 9.12293 39.7489 12.1978 39.7489 16.7399C39.7489 21.3145 36.8558 24.3569 32.2973 24.3569C27.7387 24.3623 24.7916 21.3145 24.7916 16.7399ZM34.6009 16.7399C34.6009 14.2261 33.7952 12.6509 32.2432 12.6509C30.6912 12.6509 29.9396 14.2261 29.9396 16.7399C29.9396 19.2808 30.6912 20.8559 32.2432 20.8559C33.7952 20.8613 34.6009 19.2808 34.6009 16.7399ZM40.3383 16.7399C40.3383 12.1978 43.2854 9.12293 47.844 9.12293C52.4026 9.12293 55.2956 12.1978 55.2956 16.7399C55.2956 21.3145 52.4026 24.3569 47.844 24.3569C43.2854 24.3623 40.3383 21.3145 40.3383 16.7399ZM50.1476 16.7399C50.1476 14.2261 49.3419 12.6509 47.7899 12.6509C46.238 12.6509 45.4863 14.2261 45.4863 16.7399C45.4863 19.2808 46.238 20.8559 47.7899 20.8559C49.3419 20.8613 50.1476 19.2808 50.1476 16.7399ZM56.2852 9.52748H61.1087V11.6907H61.1899C62.1524 10.0076 63.4664 9.09593 65.5322 9.09593C67.3545 9.09593 68.7227 10.0022 69.4202 11.5828H69.5013C70.6802 9.68392 72.2105 9.09593 73.9788 9.09593C77.3312 9.09593 78.775 11.5559 78.775 14.8681V23.9038H73.7084V15.7797C73.7084 14.307 73.2542 13.3468 71.9672 13.3468C70.7072 13.3468 70.0637 14.5228 70.0637 16.0764V23.9092H64.9914V15.7797C64.9914 14.307 64.5371 13.3468 63.2501 13.3468C61.9902 13.3468 61.3467 14.5228 61.3467 16.0764V23.9092H56.2852V9.52748ZM84.9617 22.0373H84.9077V23.9092H80.0837V3.75H85.1507V11.0218H85.2317C86.1947 9.76485 87.4817 9.09593 89.3305 9.09593C92.9485 9.09593 95.041 12.3596 95.041 16.686C95.041 21.5788 92.7647 24.3839 89.0117 24.3839C87.4547 24.3893 85.8482 23.6395 84.9617 22.0373ZM89.893 16.6375C89.893 14.3124 89.0387 12.8128 87.5087 12.8128C85.9562 12.8128 84.9617 14.3124 84.9617 16.6375C84.9617 18.9355 85.951 20.4621 87.5087 20.4621C89.0605 20.4568 89.893 18.9625 89.893 16.6375ZM95.6845 16.6914C95.6845 12.1978 98.659 9.07433 102.974 9.07433C105.116 9.07433 106.781 9.74325 108.041 10.9463C109.701 12.5484 110.453 15.0622 110.399 18.0292H100.724C100.941 19.8202 101.795 20.7319 103.325 20.7319C104.213 20.7319 104.986 20.3327 105.31 19.367H110.188C109.334 22.6523 106.787 24.3138 103.169 24.3138C98.686 24.3084 95.6845 21.2875 95.6845 16.6914ZM100.724 15.1917H105.332C105.251 13.4547 104.288 12.543 103.082 12.543C101.687 12.543 100.908 13.5356 100.724 15.1917Z" fill="white"/>
</g>
<defs>
<clipPath id="clip0_676_2932">
<rect width="135.75" height="30" fill="white" transform="translate(0.25)"/>
</clipPath>
</defs>
</svg>
