<svg width="108" height="55" viewBox="0 0 108 55" fill="none" xmlns="http://www.w3.org/2000/svg">
<g clip-path="url(#clip0_1639_998)">
<path fill-rule="evenodd" clip-rule="evenodd" d="M0.462891 3.76449V1.09961H10.2012V3.76449H7.4493L10.9049 16.1004L15.0907 1.1286H19.4716L23.7035 16.2823L27.084 3.76449H24.1858V1.1286H49.5931V7.9819H47.3961C46.8307 5.93645 46.6211 3.76449 43.7349 3.76449H38.902V10.0471H44.9065C45.439 10.8735 45.3968 12.2982 44.9065 13.0204H38.902V19.4493H44.3741C46.6752 19.4493 47.1589 17.251 47.6887 14.9248H49.8857V22.1445H31.8734V19.4506H34.4355V3.76449H30.3551L25.0913 22.1419H20.8897L16.6578 7.01453L12.3362 22.1419H8.10431L2.84968 3.76449H0.462891Z" fill="white"/>
<path fill-rule="evenodd" clip-rule="evenodd" d="M52.0469 3.76454V1.12866H61.9407V3.76454H59.0794V19.448H63.5182C65.8194 19.448 66.303 17.2497 66.8329 14.9236H69.0299V22.1432H52.0508V19.4494H54.6129V3.76454H52.0469Z" fill="white"/>
<path fill-rule="evenodd" clip-rule="evenodd" d="M70.9028 3.76454V1.12866H80.7966V3.76454H77.9354V19.448H82.3742C84.6753 19.448 85.159 17.2497 85.6888 14.9236H87.8858V22.1432H70.9068V19.4494H73.4689V3.76454H70.9028Z" fill="white"/>
<path fill-rule="evenodd" clip-rule="evenodd" d="M3.76147 32.8318V35.4676H6.30378V51.1946H3.7417V53.845H13.8622V51.1946H10.7716V45.1321H16.962C17.4522 44.4099 17.4944 42.9865 16.962 42.1588H10.7716V35.4663H15.9735C18.8598 35.4663 19.0694 37.6396 19.6347 39.6837H21.8318V32.8304H3.76147V32.8318ZM28.2725 32.8318L20.9408 51.1946H18.8413V53.845H26.8663V51.1946H24.3319L25.725 47.5044H33.402L34.7739 51.1946H32.3581V53.845H51.2047V51.1946H48.3777V44.8975H50.1793C53.4676 44.8975 54.4139 46.4145 54.6419 49.505C54.9108 52.5547 55.9743 54.1178 59.5235 54.1178C60.5489 54.1178 61.7166 53.99 61.7166 53.99C61.9947 53.3257 62.1884 52.452 61.7034 51.4912C59.3456 51.7442 59.2784 50.0612 59.1664 48.2372C59.053 45.3061 57.3555 43.9565 54.8857 43.7285C58.1265 43.6626 60.5252 41.3918 60.5252 38.5187C60.5252 34.7731 57.2962 32.8304 53.5493 32.8304H41.2925V35.5401H43.8849V51.1946H39.8045L32.2712 32.8318H28.2752H28.2725ZM48.3764 35.5415H51.496C54.4772 35.5415 55.9098 36.5444 55.9098 38.9088C55.9098 41.2732 53.8287 42.205 51.948 42.205H48.3777V35.5415H48.3764ZM29.5457 37.1243L32.4596 44.9581H26.6317L29.5457 37.1243Z" fill="white"/>
<path fill-rule="evenodd" clip-rule="evenodd" d="M89.8628 20.7647V14.8643H92.1112C92.844 18.1907 94.3108 19.9581 98.2251 19.9581C100.861 19.9581 102.548 19.1028 102.548 16.9453C102.548 11.5668 89.8496 15.7605 89.8496 6.96057C89.8496 3.00543 93.2038 0.501343 98.2831 0.501343C102.647 0.501343 105.927 2.37414 105.927 2.37414V7.60241H103.691C103.132 4.42881 101.426 3.25057 98.4742 3.25057C95.9003 3.25057 94.3477 4.38532 94.3477 6.10655C94.3477 11.2162 107.087 7.11609 107.087 16.2586C107.087 19.1871 105.119 22.7047 98.5348 22.7047C92.9138 22.7047 89.8641 20.7647 89.8641 20.7647H89.8628Z" fill="white"/>
<path fill-rule="evenodd" clip-rule="evenodd" d="M74.0172 54.4948C66.9597 54.4948 62.9399 49.708 62.9399 43.4465C62.9399 37.1849 66.6974 32.1833 74.0976 32.1833C78.4534 32.1833 81.9987 34.0878 81.9987 34.0878V39.4505H79.7582C78.9081 37.069 77.6653 34.9906 74.2215 34.9906C69.5613 34.9906 67.9639 38.9299 67.9639 43.4109C67.9639 48.1357 69.9105 51.7297 74.5233 51.7297C76.4093 51.7297 78.0014 50.9891 78.0014 50.9891V45.8056H74.4192C73.9184 44.6511 74.062 43.5519 74.4192 42.8481H82.4679V52.1647C82.4679 52.1647 78.6406 54.4948 74.0172 54.4948Z" fill="white"/>
<path fill-rule="evenodd" clip-rule="evenodd" d="M96.6372 32.1913C90.3374 32.1913 85.4663 36.4588 85.4663 43.4307C85.4663 50.4026 90.2808 54.4987 96.6095 54.4987C103.343 54.4987 107.79 49.6764 107.79 43.37C107.79 36.6024 102.875 32.1899 96.6372 32.1899V32.1913ZM96.5634 35.0156C100.483 35.0156 102.804 37.9269 102.804 43.32C102.804 48.713 100.648 51.6942 96.6385 51.6942C92.6293 51.6942 90.4363 48.4876 90.4363 43.4399C90.4363 38.3922 92.2867 35.0169 96.5634 35.0169V35.0156Z" fill="white"/>
</g>
<defs>
<clipPath id="clip0_1639_998">
<rect width="107.325" height="54" fill="white" transform="translate(0.462891 0.5)"/>
</clipPath>
</defs>
</svg>
