<svg width="159" height="30" viewBox="0 0 159 30" fill="none" xmlns="http://www.w3.org/2000/svg">
<g clip-path="url(#clip0_676_2942)">
<path d="M44.7688 21.2187C41.8476 21.2187 40.0373 18.5969 40.0373 14.9694C40.0373 11.3779 41.5608 8.70214 44.7508 8.70214C46.8476 8.70214 48.2276 10.049 48.4788 11.8268H53.3536C53.1024 9.61798 52.1168 7.67858 50.3964 6.38562C48.9984 5.30814 47.0628 4.64374 44.7688 4.64374C38.8903 4.64374 35.0729 9.09722 35.0729 14.9694C35.0729 20.8775 39.0158 25.2053 44.8048 25.2053C47.5824 25.2053 49.6076 24.4331 51.1132 22.9605C52.4572 21.6676 53.3536 19.8718 53.4788 17.9145H48.604C48.3892 19.8359 46.9552 21.2187 44.7688 21.2187Z" fill="white"/>
<path d="M62.476 10.2645C57.9596 10.2645 54.9308 13.4969 54.9308 17.7528C54.9308 22.0088 57.9596 25.2412 62.476 25.2412C67.028 25.2412 70.0032 22.0088 70.0032 17.7528C70.0032 13.4969 67.028 10.2645 62.476 10.2645ZM62.458 22.0267C60.5044 22.0267 59.4828 20.3208 59.4828 17.7528C59.4828 15.1849 60.5044 13.443 62.458 13.443C64.4116 13.443 65.4688 15.1849 65.4688 17.7528C65.4512 20.3208 64.4116 22.0267 62.458 22.0267Z" fill="white"/>
<path d="M76.38 8.76148C77.3388 7.80072 77.3388 6.24304 76.38 5.28228C75.4208 4.32152 73.8664 4.32152 72.9076 5.28228C71.9488 6.24304 71.9488 7.80072 72.9076 8.76148C73.8664 9.72224 75.4208 9.72224 76.38 8.76148Z" fill="white"/>
<path d="M70.738 13.8201H72.6196V24.7922H77.1004V10.6416H70.738V13.8201Z" fill="white"/>
<path d="M88.1224 10.2285C86.1692 10.2285 84.8068 11.0546 83.7676 12.581H83.678V10.6416H79.3588V24.7742H83.8572V16.9626C83.8572 15.2208 84.8428 13.9817 86.3304 13.9817C87.8 13.9817 88.5348 15.0052 88.5348 16.4958V24.7742H93.0332V15.5799C93.0332 12.4373 91.2052 10.2285 88.1224 10.2285Z" fill="white"/>
<path d="M103.571 5.0387H95.166V24.7742H103.267C105.74 24.7742 107.729 24.1457 109.271 22.9784C111.475 21.2904 112.694 18.507 112.694 15.0232C112.694 8.98938 109.02 5.0387 103.571 5.0387ZM102.908 20.6799H100.041V9.13306H102.962C106.027 9.13306 107.765 11.4496 107.765 15.0411C107.747 18.6506 106.098 20.6799 102.908 20.6799Z" fill="white"/>
<path d="M126.01 12.0961C124.791 11.0007 123.196 10.3362 121.189 10.3362C116.887 10.3362 113.948 13.5686 113.948 17.7887C113.948 22.0626 116.816 25.295 121.476 25.295C123.268 25.295 124.701 24.8281 125.884 24.002C127.121 23.1401 127.945 21.9369 128.25 20.6619H123.877C123.483 21.5418 122.712 22.0626 121.529 22.0626C119.683 22.0626 118.644 20.8774 118.357 18.9739H128.501C128.519 16.0827 127.694 13.6404 126.01 12.0961ZM118.375 16.2802C118.68 14.5922 119.558 13.5148 121.26 13.5148C122.712 13.5148 123.77 14.5922 123.931 16.2802H118.375Z" fill="white"/>
<path d="M137.354 15.9391C135.562 15.6158 133.967 15.4721 133.967 14.4845C133.967 13.6045 134.827 13.1915 135.92 13.1915C137.157 13.1915 138.018 13.5866 138.179 14.8436H142.319C142.104 12.0602 139.953 10.3183 135.956 10.3183C132.623 10.3183 129.863 11.8627 129.863 14.8436C129.863 18.1658 132.48 18.8123 134.935 19.2253C136.817 19.5485 138.519 19.6922 138.519 20.9672C138.519 21.883 137.659 22.3679 136.315 22.3679C134.827 22.3679 133.895 21.6855 133.716 20.2669H129.469C129.612 23.3915 132.193 25.295 136.333 25.295C140.025 25.295 142.749 23.6968 142.749 20.6081C142.767 16.9985 139.846 16.3521 137.354 15.9391Z" fill="white"/>
<path d="M153.323 15.957L158.288 10.6415H153.108L148.914 15.4183V5.0387H144.488V24.7921H148.914V20.4464L150.276 19.0098L153.664 24.7921H158.861L153.323 15.957Z" fill="white"/>
<path d="M15.3229 16.2803C16.0752 16.2803 16.685 15.6693 16.685 14.9155C16.685 14.1618 16.0752 13.5508 15.3229 13.5508C14.5707 13.5508 13.9608 14.1618 13.9608 14.9155C13.9608 15.6693 14.5707 16.2803 15.3229 16.2803Z" fill="white"/>
<path d="M26.1839 16.2803C26.9361 16.2803 27.5459 15.6693 27.5459 14.9155C27.5459 14.1618 26.9361 13.5508 26.1839 13.5508C25.4316 13.5508 24.8218 14.1618 24.8218 14.9155C24.8218 15.6693 25.4316 16.2803 26.1839 16.2803Z" fill="white"/>
<path d="M26.1839 27.1806C26.9361 27.1806 27.5459 26.5696 27.5459 25.8158C27.5459 25.0621 26.9361 24.451 26.1839 24.451C25.4316 24.451 24.8218 25.0621 24.8218 25.8158C24.8218 26.5696 25.4316 27.1806 26.1839 27.1806Z" fill="white"/>
<path d="M30.1803 3.76379C30.0369 1.77049 28.4419 0.154298 26.4525 0.0106362C25.18 -0.0791524 24.033 0.405704 23.2265 1.23176C22.6171 1.86028 21.7927 2.23739 20.9145 2.23739H20.5919C19.6959 2.23739 18.8535 1.86028 18.2262 1.2138C17.4914 0.459576 16.4699 0.0106362 15.3408 0.0106362C14.2117 0.0106362 13.1901 0.477536 12.4553 1.2138C11.828 1.86028 10.9857 2.23739 10.0896 2.23739H9.7849C8.90674 2.23739 8.06438 1.89619 7.45502 1.26768C7.32958 1.14197 7.2041 1.01627 7.07866 0.90852C5.5553 -0.33056 3.31502 -0.294645 1.84541 1.01627C0.0711141 2.57858 -0.00057431 5.30816 1.64826 6.96024C1.66619 6.9782 1.68411 6.99616 1.70203 7.01412C2.34723 7.62468 2.68775 8.48668 2.68775 9.3666V9.67188C2.68775 10.5698 2.31138 11.4138 1.66618 12.0423C0.913454 12.7786 0.465401 13.8021 0.465401 14.9335C0.465401 16.0648 0.931378 17.0884 1.66618 17.8247C2.31138 18.4532 2.68775 19.2972 2.68775 20.1951V20.6081C2.68775 21.488 2.31138 22.3141 1.68411 22.9246C0.895534 23.6968 0.411635 24.7922 0.465401 25.9954C0.555012 28.1144 2.27553 29.8204 4.37243 29.8922C5.59114 29.9282 6.68438 29.4433 7.45502 28.6352C8.06438 28.0067 8.88878 27.6116 9.76698 27.6116H10.1075C10.9857 27.6116 11.8101 27.9887 12.4195 28.6352C13.2259 29.4792 14.3909 29.964 15.6634 29.8743C17.6527 29.7306 19.2657 28.1144 19.4091 26.1032C19.5704 23.7148 17.7065 21.7394 15.3587 21.7394C14.2475 21.7394 13.2259 22.1884 12.4911 22.9246C11.8639 23.5532 11.0215 23.9303 10.1433 23.9303H9.76698C8.88878 23.9303 8.02854 23.5891 7.40126 22.9426C7.38334 22.9246 7.38334 22.9246 7.36542 22.9067C6.72022 22.2782 6.34386 21.4342 6.34386 20.5363V20.1771C6.34386 19.2792 6.72022 18.4352 7.36542 17.8067C8.11814 17.0704 8.56622 16.0468 8.56622 14.9155C8.56622 13.7842 8.10022 12.7606 7.36542 12.0243C6.72022 11.3958 6.34386 10.5518 6.34386 9.65392V9.33068C6.34386 8.4328 6.72022 7.58876 7.3475 6.96024C7.36542 6.94232 7.36542 6.94232 7.38334 6.92436C7.40126 6.9064 7.40126 6.9064 7.41918 6.88844C8.04646 6.25992 8.88878 5.8828 9.7849 5.8828H10.1075C11.0036 5.8828 11.8459 6.25992 12.4732 6.9064C13.208 7.6606 14.2296 8.10956 15.3587 8.10956C16.4878 8.10956 17.5093 7.64264 18.2441 6.9064C18.8714 6.25992 19.7138 5.8828 20.6099 5.8828H20.8966C21.7927 5.8828 22.6351 6.25992 23.2623 6.9064C23.9971 7.6606 25.0187 8.10956 26.1478 8.10956C28.4777 8.12752 30.3416 6.15216 30.1803 3.76379Z" fill="white"/>
</g>
<defs>
<clipPath id="clip0_676_2942">
<rect width="158.4" height="30" fill="white" transform="translate(0.461182)"/>
</clipPath>
</defs>
</svg>
