<svg width="200" height="32" viewBox="0 0 200 32" fill="none" xmlns="http://www.w3.org/2000/svg">
<path fill-rule="evenodd" clip-rule="evenodd" d="M39.0272 23.2346C39.0309 23.3439 39.0762 23.4477 39.1537 23.525C39.2312 23.6023 39.3352 23.6473 39.4447 23.6509H42.0825C42.192 23.6473 42.296 23.6023 42.3735 23.525C42.451 23.4477 42.4962 23.3439 42.5 23.2346V8.72751C42.4962 8.61822 42.451 8.51444 42.3735 8.43717C42.296 8.35989 42.192 8.31489 42.0825 8.31126H39.4447C39.3352 8.31489 39.2312 8.35989 39.1537 8.43717C39.0762 8.51444 39.0309 8.61822 39.0272 8.72751V23.2346ZM48.6984 23.2346C48.7022 23.344 48.7475 23.4478 48.825 23.5251C48.9026 23.6024 49.0067 23.6473 49.1162 23.6509H51.7538C51.8632 23.6473 51.9673 23.6023 52.0448 23.525C52.1223 23.4477 52.1675 23.3439 52.1713 23.2346V11.5325H55.3146C55.3694 11.5326 55.4237 11.5219 55.4743 11.501C55.525 11.4801 55.571 11.4495 55.6098 11.4108C55.6486 11.3721 55.6793 11.3262 55.7003 11.2757C55.7213 11.2251 55.7321 11.171 55.7321 11.1162V8.72751C55.7321 8.6728 55.7213 8.61862 55.7003 8.56808C55.6793 8.51754 55.6486 8.47163 55.6098 8.43297C55.571 8.39431 55.525 8.36366 55.4743 8.34278C55.4237 8.32189 55.3694 8.31118 55.3146 8.31126H45.5557C45.5009 8.31118 45.4466 8.32189 45.3959 8.34277C45.3452 8.36365 45.2992 8.39429 45.2604 8.43295C45.2216 8.47161 45.1908 8.51752 45.1698 8.56806C45.1487 8.6186 45.1379 8.67279 45.1379 8.72751V11.1162C45.1379 11.171 45.1487 11.2252 45.1698 11.2757C45.1908 11.3262 45.2216 11.3722 45.2604 11.4108C45.2992 11.4495 45.3452 11.4801 45.3959 11.501C45.4466 11.5219 45.5009 11.5326 45.5557 11.5325H48.6987V23.2346H48.6984ZM58.3697 23.2346C58.3697 23.2894 58.3805 23.3435 58.4014 23.3941C58.4224 23.4446 58.4532 23.4905 58.492 23.5292C58.5308 23.5679 58.5768 23.5985 58.6274 23.6194C58.6781 23.6403 58.7324 23.651 58.7872 23.6509H61.4028C61.5123 23.6473 61.6164 23.6024 61.694 23.5251C61.7716 23.4478 61.8168 23.344 61.8206 23.2346V17.6477H63.3373L66.2592 23.4549C66.2953 23.5154 66.3467 23.5655 66.4082 23.6001C66.4697 23.6347 66.5392 23.6526 66.6098 23.6521H69.5316C69.6081 23.6568 69.6844 23.6402 69.7521 23.6043C69.8198 23.5684 69.8762 23.5145 69.9151 23.4485C69.954 23.3826 69.9739 23.3072 69.9725 23.2307C69.9711 23.1542 69.9486 23.0795 69.9074 23.015L66.8955 17.4494C68.8079 16.6825 70.1487 15.0606 70.1487 13.0447C70.1394 11.7834 69.63 10.5772 68.7319 9.69004C67.8339 8.8029 66.6203 8.30713 65.3569 8.31126H58.7848C58.7299 8.31103 58.6755 8.32162 58.6248 8.34244C58.574 8.36325 58.5278 8.39388 58.4889 8.43256C58.45 8.47123 58.4191 8.5172 58.3981 8.56781C58.377 8.61843 58.3661 8.6727 58.3661 8.72751V23.2346H58.3697ZM61.8206 14.8628V11.445H65.0738C65.5154 11.4483 65.9381 11.6247 66.2506 11.9363C66.5631 12.2479 66.7404 12.6697 66.7442 13.1106C66.7435 13.5608 66.5699 13.9935 66.2591 14.3197C65.9484 14.6458 65.5241 14.8406 65.0738 14.8637H61.8183L61.8206 14.8628ZM73.3148 17.7775C73.3148 21.1084 76.1063 23.8697 79.5573 23.8697C83.0302 23.8697 85.8436 21.1084 85.8436 17.7775V8.72751C85.8398 8.61817 85.7945 8.51435 85.717 8.43707C85.6394 8.35979 85.5353 8.31482 85.4258 8.31126H82.7222C82.6674 8.31118 82.6131 8.32189 82.5625 8.34278C82.5118 8.36366 82.4658 8.39431 82.427 8.43297C82.3882 8.47163 82.3575 8.51754 82.3365 8.56808C82.3155 8.61862 82.3047 8.6728 82.3047 8.72751V17.6028C82.31 17.9635 82.2434 18.3216 82.1088 18.6563C81.9742 18.9911 81.7743 19.2958 81.5207 19.5527C81.2671 19.8096 80.9648 20.0137 80.6315 20.1529C80.2982 20.2922 79.9405 20.3639 79.5792 20.3639C79.2179 20.3639 78.8602 20.2922 78.5269 20.1529C78.1936 20.0137 77.8913 19.8096 77.6377 19.5527C77.3841 19.2958 77.1842 18.9911 77.0496 18.6563C76.915 18.3216 76.8484 17.9635 76.8537 17.6028V8.72751C76.8537 8.67279 76.8428 8.6186 76.8218 8.56806C76.8008 8.51752 76.77 8.47161 76.7312 8.43295C76.6924 8.39429 76.6464 8.36365 76.5957 8.34277C76.545 8.32189 76.4907 8.31118 76.4359 8.31126H73.7323C73.6229 8.31489 73.5188 8.35989 73.4413 8.43717C73.3638 8.51444 73.3186 8.61822 73.3148 8.72751V17.7781V17.7775ZM89.0509 22.1822C89.5564 22.6862 91.1391 23.8697 93.9964 23.8697C97.2276 23.8697 99.1838 21.5906 99.1838 19.3334C99.1838 16.3531 96.4583 15.0163 94.7426 14.3369C93.0062 13.6368 92.3467 13.0222 92.3467 12.2113C92.3467 11.6197 92.9401 11.0938 93.7317 11.0938C95.0725 11.0938 96.6769 12.2991 96.8747 12.4088C97.0725 12.5622 97.4681 12.365 97.6221 12.1238L98.7432 10.4363C98.8071 10.3227 98.8289 10.1903 98.8047 10.0623C98.7806 9.93424 98.712 9.8188 98.6111 9.73621C97.9517 9.25403 96.1933 8.09277 93.907 8.09277C90.522 8.09277 88.8297 10.284 88.8297 12.4537C88.8297 15.0834 91.2034 16.5515 93.0938 17.2959C94.5886 17.8875 95.358 18.5887 95.358 19.5093C95.358 20.2762 94.7204 20.8243 93.8412 20.8243C92.3905 20.8243 90.8078 19.6628 90.7198 19.619C90.601 19.545 90.459 19.5174 90.321 19.5417C90.1831 19.566 90.059 19.6404 89.9727 19.7506L88.9396 21.5693C88.7628 21.8774 88.8288 21.9649 89.0485 22.1828L89.0509 22.1822ZM104.282 23.2341C104.286 23.3434 104.331 23.4471 104.408 23.5244C104.486 23.6017 104.59 23.6467 104.699 23.6503H107.336C107.445 23.6467 107.549 23.6017 107.627 23.5244C107.704 23.4471 107.75 23.3434 107.754 23.2341V11.5325H110.897C110.952 11.5326 111.006 11.5219 111.057 11.501C111.107 11.4801 111.153 11.4495 111.192 11.4108C111.231 11.3721 111.262 11.3262 111.283 11.2757C111.304 11.2251 111.314 11.171 111.314 11.1162V8.72751C111.314 8.6728 111.304 8.61862 111.283 8.56808C111.262 8.51754 111.231 8.47163 111.192 8.43297C111.153 8.39431 111.107 8.36366 111.057 8.34278C111.006 8.32189 110.952 8.31118 110.897 8.31126H101.138C101.083 8.31118 101.029 8.32189 100.978 8.34278C100.928 8.36366 100.881 8.39431 100.843 8.43297C100.804 8.47163 100.773 8.51754 100.752 8.56808C100.731 8.61862 100.72 8.6728 100.72 8.72751V11.1162C100.72 11.171 100.731 11.2251 100.752 11.2757C100.773 11.3262 100.804 11.3721 100.843 11.4108C100.881 11.4495 100.928 11.4801 100.978 11.501C101.029 11.5219 101.083 11.5326 101.138 11.5325H104.281V23.2346L104.282 23.2341Z" fill="black"/>
<path fill-rule="evenodd" clip-rule="evenodd" d="M112.702 16.0037C112.702 17.0416 112.907 18.0695 113.306 19.0279C113.705 19.9863 114.29 20.8563 115.028 21.5877C115.766 22.319 116.641 22.8974 117.604 23.2892C118.567 23.6811 119.598 23.8788 120.637 23.8709C122.629 23.8935 124.549 23.1294 125.978 21.7452C126.056 21.6673 126.101 21.5633 126.105 21.4538C126.109 21.3442 126.072 21.2371 126.001 21.1537L124.286 19.3349C124.21 19.2629 124.11 19.221 124.004 19.217C123.899 19.2129 123.796 19.2471 123.715 19.313C122.884 19.9926 121.843 20.3642 120.769 20.3649C118.286 20.3649 116.439 18.3487 116.439 15.9165C116.439 13.4621 118.263 11.4021 120.747 11.4021C121.839 11.4023 122.894 11.7995 123.715 12.5196C123.75 12.5561 123.793 12.585 123.84 12.6048C123.887 12.6246 123.938 12.6347 123.989 12.6347C124.04 12.6347 124.091 12.6246 124.138 12.6048C124.185 12.585 124.228 12.5561 124.264 12.5196L125.978 10.7446C126.021 10.7048 126.054 10.6564 126.076 10.6028C126.098 10.5491 126.108 10.4914 126.106 10.4334C126.104 10.3755 126.09 10.3186 126.064 10.2667C126.038 10.2147 126.001 10.1688 125.956 10.1321C125.249 9.45796 124.415 8.93069 123.502 8.58083C122.589 8.23097 121.616 8.06549 120.639 8.09396C119.597 8.09073 118.564 8.29302 117.601 8.68921C116.638 9.08541 115.762 9.6677 115.025 10.4027C114.287 11.1376 113.702 12.0108 113.304 12.9719C112.905 13.9331 112.701 14.9634 112.702 16.0037ZM127.45 23.6515H129.867C130.038 23.6571 130.205 23.6095 130.347 23.5154C130.489 23.4213 130.598 23.2853 130.659 23.1264L131.45 21.3733H137.428L138.22 23.1031C138.417 23.5194 138.593 23.6509 138.989 23.6509H141.429C141.499 23.6568 141.569 23.6438 141.631 23.6132C141.694 23.5827 141.748 23.5357 141.786 23.4773C141.824 23.4189 141.846 23.3513 141.849 23.2815C141.852 23.2118 141.836 23.1426 141.802 23.0812L134.923 8.33374C134.887 8.26447 134.834 8.20576 134.768 8.16349C134.702 8.12121 134.627 8.09683 134.549 8.09279H134.329C134.251 8.09683 134.176 8.12121 134.11 8.16349C134.045 8.20576 133.991 8.26447 133.956 8.33374L127.076 23.0818C127.043 23.1432 127.026 23.2124 127.029 23.2822C127.032 23.352 127.054 23.4196 127.092 23.478C127.131 23.5364 127.184 23.5834 127.247 23.6139C127.31 23.6445 127.38 23.6575 127.45 23.6515ZM132.767 18.3921L134.416 14.7751H134.438L136.108 18.3921H132.769H132.767ZM144.041 23.2344C144.041 23.2891 144.052 23.3433 144.073 23.3938C144.094 23.4443 144.125 23.4903 144.164 23.5289C144.203 23.5676 144.249 23.5982 144.299 23.6191C144.35 23.64 144.404 23.6507 144.459 23.6506H147.053C147.162 23.647 147.266 23.602 147.344 23.5247C147.421 23.4474 147.466 23.3437 147.47 23.2344V18.0859H149.778C151.077 18.083 152.321 17.5653 153.236 16.6468C154.152 15.7283 154.665 14.4841 154.662 13.1881C154.66 11.892 154.141 10.6502 153.221 9.73574C152.301 8.82133 151.055 8.30925 149.757 8.31215H144.459C144.404 8.31207 144.35 8.32278 144.3 8.34367C144.249 8.36455 144.203 8.3952 144.164 8.43386C144.125 8.47252 144.095 8.51844 144.074 8.56898C144.053 8.61952 144.042 8.67369 144.042 8.72841V23.2352L144.041 23.2344ZM147.472 14.8859V11.5331H149.56C149.781 11.525 150.001 11.5606 150.208 11.6378C150.415 11.7151 150.605 11.8324 150.766 11.9831C150.928 12.1339 151.057 12.315 151.148 12.516C151.239 12.7171 151.29 12.9341 151.296 13.1547C151.298 13.3826 151.254 13.6085 151.167 13.8193C151.08 14.0301 150.952 14.2216 150.791 14.3827C150.629 14.5438 150.437 14.6712 150.226 14.7576C150.015 14.8439 149.788 14.8876 149.56 14.8859H147.472ZM157.361 23.2352C157.365 23.3445 157.41 23.4483 157.488 23.5256C157.565 23.6029 157.67 23.6479 157.779 23.6515H160.417C160.526 23.6479 160.63 23.6029 160.708 23.5256C160.785 23.4483 160.831 23.3445 160.834 23.2352V8.72811C160.831 8.61882 160.785 8.51504 160.708 8.43777C160.63 8.36049 160.526 8.31549 160.417 8.31186H157.779C157.67 8.31549 157.565 8.36049 157.488 8.43777C157.41 8.51504 157.365 8.61882 157.361 8.72811V23.2352ZM167.033 23.2352C167.037 23.3446 167.082 23.4484 167.159 23.5257C167.237 23.603 167.341 23.6479 167.451 23.6515H170.088C170.198 23.6479 170.302 23.6029 170.379 23.5256C170.457 23.4483 170.502 23.3445 170.506 23.2352V11.5331H173.649C173.704 11.5332 173.758 11.5225 173.809 11.5016C173.859 11.4807 173.905 11.4501 173.944 11.4114C173.983 11.3727 174.014 11.3268 174.035 11.2763C174.056 11.2257 174.066 11.1716 174.066 11.1168V8.72811C174.066 8.6734 174.056 8.61923 174.035 8.56869C174.014 8.51815 173.983 8.47223 173.944 8.43357C173.905 8.39491 173.859 8.36426 173.809 8.34338C173.758 8.32249 173.704 8.31178 173.649 8.31186H163.89C163.835 8.31178 163.781 8.32249 163.73 8.34338C163.68 8.36426 163.634 8.39491 163.595 8.43357C163.556 8.47223 163.525 8.51815 163.504 8.56869C163.483 8.61923 163.472 8.6734 163.472 8.72811V11.1168C163.472 11.1716 163.483 11.2257 163.504 11.2763C163.525 11.3268 163.556 11.3727 163.595 11.4114C163.634 11.4501 163.68 11.4807 163.73 11.5016C163.781 11.5225 163.835 11.5332 163.89 11.5331H167.033V23.2352H167.033ZM174.308 23.6515H176.726C176.896 23.6571 177.064 23.6095 177.206 23.5154C177.347 23.4213 177.456 23.2853 177.517 23.1264L178.307 21.3724H184.285L185.076 23.1037C185.274 23.5199 185.45 23.6515 185.846 23.6515H188.286C188.355 23.6574 188.425 23.6443 188.488 23.6138C188.551 23.5832 188.604 23.5362 188.642 23.4779C188.681 23.4195 188.702 23.3519 188.705 23.2821C188.708 23.2124 188.692 23.1432 188.659 23.0818L181.779 8.33374C181.743 8.26447 181.69 8.20576 181.625 8.16348C181.559 8.1212 181.484 8.09683 181.406 8.09279H181.186C181.108 8.09686 181.032 8.12125 180.967 8.16352C180.901 8.2058 180.848 8.26448 180.812 8.33374L173.932 23.0818C173.899 23.1432 173.883 23.2124 173.886 23.2821C173.889 23.3519 173.911 23.4195 173.949 23.4779C173.987 23.5362 174.041 23.5832 174.104 23.6138C174.166 23.6443 174.236 23.6574 174.306 23.6515H174.308ZM179.626 18.3921L181.274 14.7751H181.296L182.967 18.3921H179.625H179.626ZM190.9 23.2344C190.9 23.2891 190.911 23.3433 190.932 23.3938C190.953 23.4443 190.983 23.4903 191.022 23.5289C191.061 23.5676 191.107 23.5982 191.158 23.6191C191.208 23.64 191.263 23.6507 191.317 23.6506H199.582C199.637 23.6507 199.691 23.64 199.742 23.6191C199.793 23.5982 199.839 23.5676 199.877 23.5289C199.916 23.4903 199.947 23.4444 199.968 23.3938C199.989 23.3433 200 23.2891 200 23.2344V20.8465C200 20.7918 199.989 20.7376 199.968 20.6871C199.947 20.6365 199.916 20.5906 199.877 20.552C199.839 20.5133 199.793 20.4826 199.742 20.4618C199.691 20.4409 199.637 20.4302 199.582 20.4303H194.352V8.72811C194.348 8.61882 194.303 8.51504 194.226 8.43777C194.148 8.36049 194.044 8.31549 193.935 8.31186H191.319C191.264 8.31167 191.209 8.32229 191.159 8.34313C191.108 8.36396 191.062 8.39459 191.023 8.43326C190.984 8.47193 190.953 8.51789 190.932 8.56848C190.911 8.61908 190.9 8.67333 190.9 8.72811V23.2352L190.9 23.2344Z" fill="#79A617"/>
<path fill-rule="evenodd" clip-rule="evenodd" d="M0 0H31.5405V31.5535H0V0Z" fill="black"/>
<path fill-rule="evenodd" clip-rule="evenodd" d="M10.1633 12.3287C9.67261 12.4693 9.13821 12.592 8.56008 12.6968C8.06921 12.802 7.50851 12.9028 6.87798 12.9993C6.24745 13.0958 5.59033 13.179 4.90663 13.249V14.1693C5.55469 14.1693 6.02345 14.3402 6.3129 14.6821C6.60236 15.024 6.74679 15.6857 6.74621 16.6671V24.6871L4.90546 25.0815V26.0018H12.0029V25.0815C11.6983 25.0883 11.394 25.0574 11.0971 24.9893C10.8769 24.9387 10.6786 24.8191 10.5311 24.6481C10.3767 24.4492 10.2771 24.2135 10.2422 23.9643C10.1835 23.5948 10.1571 23.2209 10.1633 22.8468V12.3287ZM6.95658 9.35742C7.15154 9.55518 7.38509 9.71089 7.64276 9.8149C7.90043 9.91891 8.17675 9.96902 8.4546 9.96211C8.7325 9.96707 9.00855 9.91602 9.26624 9.81203C9.52393 9.70803 9.75797 9.55323 9.95435 9.35686C10.1507 9.1605 10.3054 8.92661 10.4092 8.66919C10.513 8.41177 10.5637 8.1361 10.5583 7.85866C10.5637 7.58123 10.513 7.30556 10.4092 7.04813C10.3054 6.79071 10.1507 6.55683 9.95435 6.36046C9.75797 6.1641 9.52393 6.00929 9.26624 5.9053C9.00855 5.8013 8.7325 5.75026 8.4546 5.75521C8.1767 5.75026 7.90065 5.8013 7.64296 5.9053C7.38527 6.00929 7.15124 6.1641 6.95485 6.36046C6.75846 6.55683 6.60375 6.79071 6.49998 7.04813C6.39621 7.30556 6.3455 7.58123 6.35088 7.85866C6.34403 8.13653 6.39423 8.41285 6.4984 8.67061C6.60257 8.92837 6.7585 9.1621 6.95658 9.35742Z" fill="white"/>
<path fill-rule="evenodd" clip-rule="evenodd" d="M21.611 20.1592H26.8688V25.4182H21.611V20.1592Z" fill="white"/>
</svg>
