<svg width="80" height="80" viewBox="0 0 80 80" fill="none" xmlns="http://www.w3.org/2000/svg">
<path d="M72.2772 62.6931H70.0059V46.6141C70.7231 46.1579 71.2013 45.3597 71.2013 44.5614V41.2544C72.5163 41.1404 73.5922 40.114 73.5922 38.8597V36.693C74.6681 36.5789 75.5049 35.8947 75.8636 34.9824C76.2222 33.9561 75.8636 32.7017 74.9072 32.1315L41.5541 9.55246C41.0759 9.21035 40.5977 9.09631 40 9.09631C39.4023 9.09631 38.9241 9.21035 38.4459 9.55246L5.09278 32.0175C4.13642 32.7017 3.77778 33.8421 4.13642 34.8684C4.49505 35.8947 5.33187 36.5789 6.40778 36.5789V38.7456C6.40778 40 7.48368 41.1404 8.79868 41.1404V44.4474C8.79868 45.2457 9.27686 46.0439 9.99414 46.5V62.5791H7.72278C5.69051 62.5791 4.01687 64.1756 4.01687 66.1142V68.3949C4.01687 69.7633 5.09278 70.9037 6.52732 70.9037H73.4727C74.9072 70.9037 75.9831 69.7633 75.9831 68.509V66.2282C75.9831 64.2896 74.3095 62.6931 72.2772 62.6931ZM73.3531 34.1842H6.64687L40 11.6051L73.3531 34.1842ZM70.9622 36.693V38.7456H9.03777V36.693H70.9622ZM67.3759 46.9562V62.6931H62.8331V46.9562H67.3759ZM68.5713 41.2544V44.3334H61.6377V41.2544H68.5713ZM60.2032 46.6141V62.6931H44.9014V46.6141C45.6186 46.1579 46.0968 45.3597 46.0968 44.5614V41.2544H59.0077V44.5614C59.0077 45.3597 59.4859 46.1579 60.2032 46.6141ZM42.2714 46.9562V62.6931H37.7286V46.9562H42.2714ZM43.4668 41.2544V44.3334H36.5332V41.2544H43.4668ZM35.0986 46.6141V62.6931H19.7968V46.6141C20.5141 46.1579 20.9923 45.3597 20.9923 44.5614V41.2544H33.9032V44.5614C33.9032 45.3597 34.3814 46.1579 35.0986 46.6141ZM17.1669 46.9562V62.6931H12.6241V46.9562H17.1669ZM18.3623 41.2544V44.3334H11.4287V41.2544H18.3623ZM6.64687 66.2282C6.64687 65.6581 7.12505 65.2019 7.72278 65.2019H72.2772C72.875 65.2019 73.3531 65.6581 73.3531 66.2282V68.3949H6.64687V66.2282Z" fill="white"/>
<path d="M33.3055 25.4033C33.3055 28.9384 36.2941 31.7893 40 31.7893C43.7059 31.7893 46.6945 28.9384 46.6945 25.4033C46.6945 21.8682 43.7059 19.0173 40 19.0173C36.2941 19.0173 33.3055 21.8682 33.3055 25.4033ZM40 29.2806C37.7286 29.2806 35.9354 27.57 35.9354 25.4033C35.9354 23.2367 37.7286 21.5261 40 21.5261C42.2713 21.5261 44.0645 23.2367 44.0645 25.4033C44.0645 27.57 42.2713 29.2806 40 29.2806Z" fill="white"/>
</svg>
