<?xml version="1.0" encoding="utf-8"?>
<!-- Generator: Adobe Illustrator 28.0.0, SVG Export Plug-In . SVG Version: 6.00 Build 0)  -->
<svg version="1.1" id="Layer_1" xmlns="http://www.w3.org/2000/svg" xmlns:xlink="http://www.w3.org/1999/xlink" x="0px" y="0px"
	 viewBox="0 0 320 65" style="enable-background:new 0 0 320 65;" xml:space="preserve">
<style type="text/css">
	.st0{fill-rule:evenodd;clip-rule:evenodd;fill:#FFFFFF;}
</style>
<path class="st0" d="M231.8,47.9c-0.8,6.9-2.6,6.7-4.8,7.3c-2,0.5-1.2,1.7,0.1,1.5c0.5-0.1,4.1-0.4,6.5-0.4c3.4,0,6.6,0.3,8.2,0.3
	c0.7,0,1.6-0.9-0.1-1.4c-2-0.5-6.8,0-7.3-8.3c-0.3-6.1,0.2-26.8,0.2-26.8c0-1.4,0.2-1.7,0.5-1.7c0.5,0,1,0.8,1.5,1.4l30,36.7
	c3.2,3.6,3.4,2.5,3.3-1.1c-0.2-11.5,0.2-43.4,0.2-43.4c0.1-6.3,6-3.7,6-5.6c0-0.4-0.3-0.7-0.7-0.7c-1.7,0-6.5,0.5-8.9,0.5
	c-2.2,0-3.6-0.3-5.7-0.3c-0.4,0-0.8,0.2-0.8,0.7c0,2,7.6-1.3,7.3,9l0.1,30c0,0.6,0,1.7-1.1,0L235,7.7c-0.4-0.5-1.1-1.7-1.8-1.7
	c-1.1,0-4.5,0.3-5.6,0.3c-1.1,0-2.2-0.3-3.3-0.3c-0.4,0-1.1,0.3-1.1,0.7c0.4,2.5,8.6-0.5,8.8,11.4C232,18.1,232.2,44.9,231.8,47.9z"
	/>
<path class="st0" d="M280.7,0.1c-0.9,0.3-2.5,1.5-3.1,1.9c-0.7,0.5-0.7,1.3-0.3,1.9c1.8,3.3,3.5,8.6-0.8,15.1
	c-0.7,1.1-1.8,1.4-1.2,1.8c0.6,0.5,2.6-0.8,3.5-1.6c4.7-4.5,6.4-12,3.7-17.6C281.9,0.5,281.7-0.2,280.7,0.1z"/>
<path class="st0" d="M286.9,52.8c0.3,1.3,6.4,3.8,11.8,3.8c16.6,0,20.6-8.7,20.6-14.7c0-19.1-28.2-12.1-28.2-25.6
	c0-6.6,5.3-9.4,11.1-9.4c6.5,0,11.7,4,13.6,8.9c0.2,0.6,0.6,2.1,1.4,2.1c0.7,0,0.6-0.5,0.5-1.1l-1.1-10c-0.1-0.8-0.4-1-0.9-1
	c-0.7,0-1.2,1.3-2.5,1c-1-0.2-2.8-2.2-10.4-2.2c-8.4-0.1-15.6,4.9-15.6,14.1c0,18.1,27.4,11.2,27.6,24.5c0.1,7.5-4.9,11.4-11.9,11.4
	c-10.1,0-14.6-7.5-15.5-10.8c-0.4-1.5-0.5-2.3-1.3-2.2c-0.7,0.1-0.7,0.9-0.4,2.4C285.7,43.7,286.7,46.8,286.9,52.8z"/>
<path class="st0" d="M198.5,58c16.7,0,28.3-10.7,28.3-27.2c0-15.2-11.8-26-27-26c-15.3,0-27.5,11.1-27.5,26.4
	C172.3,46.7,182.2,58,198.5,58z M197.9,7.7c14.6,0,23.4,12.5,23.4,25.9c0,13.6-9.2,21.9-20.1,21.9c-14.8,0-23.5-12.9-23.5-26.5
	C177.7,17.5,185.3,7.7,197.9,7.7z"/>
<path class="st0" d="M154,30.5c4.7-2,9.2-6.6,9.2-12.2c0-13.9-15.7-13.2-16.7-13.2c-3.5,0-8.1,0.6-12,0.6c-3.5,0-4.9-0.4-6.1-0.4
	c-0.8,0-1.4,0.4-1.4,0.9c0,2.5,7.8-1.2,7.6,6.5v36.7c0,5.5-4,5-4.8,5.7c-0.4,0.3-0.7,1.3-0.3,1.3c2.6,0,5.5-0.3,8-0.3
	c5.6,0,9.1,0.3,9.7,0.4c1,0.3,1.4-0.9,0.3-1.3c-1.4-0.5-7.5,0.3-7.6-5.6V34.4c0-0.7-0.4-2,1.8-2c6.8-0.1,6.7-0.6,7.9,1.1
	c0,0,13,15.4,20.1,21.8c6.2,5.6,13.9,9.5,18.8,9.7c6.7,0.3,10.3-0.8,10.3-1.6c0-1.7-5.8,3.1-21.6-9c-9.5-7.3-21.3-21.1-23.1-23.4
	C153.8,30.7,154,30.5,154,30.5z M139.9,10.1c0-2.8,1.6-2.5,4-2.5c6.6,0,13.3,3.2,13.3,12c0,8.9-7.1,10.3-10,10.3
	c-3.2,0-7.4,0.4-7.4-1L139.9,10.1z"/>
<path class="st0" d="M110.2,30.4c4.8-2,9.9-6.7,9.9-12.4c0-13.9-16.8-12.9-17.9-12.9c-3.6,0-7.7,0.6-11.7,0.6
	c-3.5,0-4.7-0.4-5.9-0.4c-0.8,0-1.4,0.4-1.4,0.9c0,2,7.6-1.2,7.4,6.5v36.7c0,5.7-4.1,5.5-5.5,5.5c-1.7,0,0.8,1.6,1.2,1.6
	c2.6,0,4.7-0.7,7.3-0.7c5.7,0,9.6,0.6,10.2,0.7c1.6,0.3,1.9-0.9,0.4-1.2c-2.5-0.6-8-0.5-8.1-6.5l0-14.5c0-0.7-0.4-2,1.8-2
	c7.8,0,7.2-0.4,9.7,3.7l8.6,12.7c2.6,4.1,5.3,7.8,10.4,7.8c0.6,0,5.4,0.1,5.3-0.8c0-0.9,0.9-1.4-1.1-1c-1.7,0.3-4.8-0.9-8.1-6
	l-12.5-17.8C109.9,30.7,110.2,30.4,110.2,30.4z M96.2,10.2c0-2.8,1.5-2.6,3.9-2.7c7.2-0.3,13.8,3,13.8,11.8c0,8.9-6.6,10.5-9.5,10.5
	c-3.3,0-8.2,0.4-8.2-0.9L96.2,10.2z"/>
<path class="st0" d="M73.4,45c0.7,2,1.3,4.3,1.9,5.8c1.4,3.3-2.2,4.5-3.5,4.3C70.7,55,71,56.9,73,56.6c1.8-0.3,4.2-0.5,6.1-0.5
	c2.8,0,5.2,0.5,8.1,0.5c0.5,0,1.9-1.2,0.7-1.5c-0.9-0.2-3.5-0.2-5.1-2.9c-1.5-2.6-2.6-5.6-3.7-8.3L64.1,5.7
	c-0.2-0.6-0.7-2.7-1.5-2.7c-0.9,0-1.1,1.2-5.2,10.5L40.8,51.3c-1.8,4.2-5.5,2.8-5.5,4.4c0,0.4,0.7,0.9,1.1,0.9
	c1.8,0,3.9-0.5,5.7-0.5c1.9,0,3.9,0.1,6.4,0.5c1.7,0.3,2.1-1.1,0.6-1.5c-2-0.4-4.9-1.3-4.5-4.5c0.6-4.4,4.6-12.1,4.6-12.1
	c0.7-1.6,2.3-2.1,3.6-2.1h15.3c1.9,0,2.3,0.7,3,2.4L73.4,45z M60.3,13.5c0.4-0.9,0.8-0.9,1.1,0l7.2,18.9c0.3,1,0.4,1.5-1.1,1.5H53
	c-0.9,0-1.4-0.3-0.9-1.3L60.3,13.5z"/>
<path class="st0" d="M6.2,48.3c0,5.6-2.5,6.3-3.3,6.5c-1.3,0.4-2.7,0.1-2.6,1.3c0.1,0.6,1.8,0.5,2.2,0.5c3.4,0,5.5-0.2,8.9-0.2
	c2.5,0,8.7,0.6,11.3,0.6C36.9,57.1,40,46.7,40,41.3c0-10.3-11.5-11.8-11.5-12.9c0-0.5,7.2-3.2,7.2-10.6c0-5.3-3.5-12.3-16.4-12.3
	c-5.9,0-7,0.5-10,0.5c-2.9,0-7-0.7-8.5-0.7C-0.1,5.4-0.5,6.4,1,7c1.4,0.6,5.2,0.3,5.2,5.8V48.3z M11.5,31.5c0-0.6-0.4-1.7,5.3-1.7
	c16.8,0,17.1,9.6,17.1,14.2c0,4.3-1.5,11-12.7,11.1c-10.4,0.1-9.7-1.9-9.7-7.1V31.5z M11.5,13.4c0-4.2-0.4-5.3,4.2-5.4
	c8.8-0.2,15,4.6,14.9,12.3c-0.1,4.2-3,7.9-12.6,7.8c-6.6-0.1-6.5-0.5-6.5-2.8V13.4z"/>
</svg>
