<svg width="131" height="30" viewBox="0 0 131 30" fill="none" xmlns="http://www.w3.org/2000/svg">
<g clip-path="url(#clip0_676_2958)">
<path d="M19.6538 21.8294L14.2509 24.1514V23.9192C13.2091 24.1829 12.0551 24.3348 10.962 24.3837C5.88088 24.3348 1.84782 21.706 1.80088 18.5777V17.4164C3.46975 19.8155 6.86701 21.4229 10.962 21.3648C12.3473 21.4229 13.7646 21.2061 14.9554 20.9003L15.4252 19.739C14.0128 20.1556 12.4712 20.4455 10.962 20.4358C5.88088 20.4455 1.84782 17.8166 1.80088 14.6303V13.7013C3.46975 15.9189 6.85975 17.5268 10.962 17.4169C12.8075 17.5268 14.6123 17.1431 16.1298 16.4879L16.3649 15.3266C14.8823 16.0998 12.9609 16.5489 10.962 16.4879C5.88088 16.5489 1.84782 13.92 1.80088 10.6824V9.75339C3.46975 12.0227 6.86701 13.6302 10.962 13.7013C13.2894 13.6302 15.4959 13.0219 17.3046 12.0755L17.5398 10.6819C15.898 11.8848 13.5014 12.66 10.962 12.7723C5.88088 12.66 1.8483 10.0306 1.80088 6.73452C1.84782 3.59952 5.88088 0.970645 10.962 0.929032C13.991 0.970645 16.8043 2.02064 18.4794 3.71564L18.6425 3.98419L19.827 3.98903L19.6538 3.71564C17.9878 1.47726 14.6559 0 10.962 0C5.33992 0 0.861206 3.06339 0.861206 6.73452V18.81C1.05863 22.3935 5.43524 25.3123 10.962 25.3123C14.6123 25.3123 17.893 23.8931 19.6538 21.8294Z" fill="white"/>
<path d="M17.4561 30L19.3529 22.0311L13.9001 24.375L17.2195 10.5469H10.8179L12.4775 3.75H32.8659L31.2063 10.5469H24.5685L23.1459 14.2969L30.495 11.25L17.4561 30ZM20.7755 20.3903L19.8271 25.0781L27.6503 13.3597L21.2492 16.1724L24.0943 9.60969H30.495L31.6804 4.68775H13.1888L12.0034 9.60969H18.4045L15.3222 22.7347L20.7755 20.3913V20.3903ZM46.9117 8.23888C46.8556 9.01598 46.5687 9.62759 46.051 10.0747C45.5332 10.5213 44.851 10.7444 44.0042 10.7444C43.0786 10.7444 42.3493 10.4327 41.819 9.80904C41.2882 9.18581 41.0225 8.32985 41.0225 7.24162V6.79985C41.0225 6.10549 41.145 5.49339 41.3899 4.96404C41.6347 4.43516 41.9845 4.02871 42.4389 3.74613C42.8937 3.46307 43.4221 3.32178 44.0245 3.32178C44.8577 3.32178 45.5293 3.54533 46.0388 3.99194C46.5479 4.43807 46.8421 5.06517 46.9219 5.87227H45.4335C45.3972 5.40581 45.2671 5.06759 45.044 4.85759C44.8204 4.64758 44.4808 4.54258 44.0245 4.54258C43.528 4.54258 43.1569 4.72016 42.9106 5.07581C42.6638 5.43146 42.5375 5.98307 42.5308 6.73065V7.27646C42.5308 8.05694 42.6493 8.62743 42.8854 8.98791C43.1225 9.3484 43.4951 9.52888 44.0046 9.52888C44.4643 9.52888 44.8074 9.42388 45.0338 9.21388C45.2608 9.00388 45.3905 8.67872 45.4234 8.23888H46.9117ZM54.5975 7.1971C54.5975 7.90839 54.4717 8.53162 54.2201 9.06727C53.9689 9.60339 53.6094 10.0166 53.141 10.3079C52.6731 10.5987 52.1365 10.7444 51.5312 10.7444C50.9327 10.7444 50.3985 10.6007 49.9286 10.3127C49.4593 10.0248 49.095 9.61404 48.8371 9.07985C48.5792 8.54565 48.4485 7.93114 48.4451 7.2363V6.8792C48.4451 6.16791 48.5734 5.54227 48.8298 5.00178C49.0863 4.46081 49.4481 4.04565 49.9165 3.75581C50.3844 3.46645 50.9196 3.32178 51.5215 3.32178C52.1235 3.32178 52.6586 3.46694 53.1265 3.75581C53.5944 4.04565 53.9569 4.46081 54.2128 5.0013C54.4693 5.54227 54.5975 6.16646 54.5975 6.87436V7.1971ZM53.0893 6.86952C53.0893 6.11178 52.9538 5.53646 52.6828 5.14259C52.4114 4.7492 52.0243 4.55226 51.5215 4.55226C51.0217 4.55226 50.6365 4.74678 50.3651 5.13533C50.0941 5.52388 49.9567 6.09339 49.9538 6.84485V7.1971C49.9538 7.93452 50.0893 8.50694 50.3602 8.91339C50.6312 9.32033 51.0217 9.52404 51.5312 9.52404C52.0306 9.52404 52.4143 9.32807 52.6828 8.93614C52.9504 8.5442 53.0859 7.97275 53.0893 7.22178V6.86952ZM58.0354 10.6452H56.547V3.42097H58.0354V10.6452ZM66.0638 10.6452H64.5749L61.6775 5.8921V10.6452H60.1891V3.42097H61.6775L64.5802 8.1842V3.42097H66.0638V10.6452ZM73.4322 4.62678H71.2194V10.6452H69.731V4.62678H67.5478V3.42097H73.4322V4.62678ZM79.4012 7.51452H76.5435V9.44952H79.8972V10.6452H75.0546V3.42097H79.8875V4.62678H76.5435V6.34839H79.4012V7.51452ZM83.0331 9.44952H86.1938V10.6452H81.5448V3.42097H83.0331V9.45001V9.44952ZM92.1677 7.51404H89.3099V9.44952H92.6636V10.6452H87.8215V3.42097H92.6539V4.62678H89.3099V6.34839H92.1677V7.51452V7.51404ZM100.027 9.7321C99.7591 10.0529 99.3802 10.3021 98.8906 10.4787C98.4014 10.6558 97.8589 10.7448 97.2633 10.7448C96.6381 10.7448 96.0899 10.6079 95.6186 10.335C95.1473 10.0621 94.7835 9.6663 94.527 9.14662C94.2706 8.62743 94.1394 8.01727 94.1327 7.31614V6.82452C94.1327 6.10356 94.2541 5.47936 94.4975 4.95194C94.7404 4.42452 95.0912 4.02049 95.5489 3.74129C96.0072 3.46162 96.5438 3.32178 97.1593 3.32178C98.0157 3.32178 98.6859 3.52597 99.1688 3.93484C99.6517 4.34323 99.9376 4.93791 100.027 5.71839H98.578C98.5122 5.30469 98.3656 5.00227 98.1391 4.81016C97.9127 4.61855 97.6006 4.52274 97.2038 4.52274C96.6977 4.52274 96.3125 4.71291 96.0473 5.09323C95.7831 5.47356 95.6491 6.0392 95.6457 6.79017V7.2513C95.6457 8.00904 95.7899 8.58098 96.0773 8.96807C96.3652 9.35517 96.7872 9.54872 97.3427 9.54872C97.9015 9.54872 98.3007 9.42969 98.5383 9.19162V7.94614H97.1839V6.84969H100.027V9.7321ZM104.681 8.00081H103.496V10.6452H102.007V3.42097H104.691C105.544 3.42097 106.203 3.61113 106.665 3.99194C107.129 4.37226 107.36 4.90936 107.36 5.6042C107.36 6.09727 107.254 6.50807 107.04 6.8371C106.827 7.16614 106.503 7.42839 106.07 7.62339L107.633 10.5755V10.6452H106.035L104.681 8.00081ZM103.496 6.79501H104.696C105.07 6.79501 105.359 6.69969 105.564 6.50952C105.769 6.31936 105.872 6.05759 105.872 5.72323C105.872 5.38259 105.775 5.11452 105.582 4.91952C105.388 4.72452 105.091 4.62678 104.691 4.62678H103.495V6.79501H103.496ZM113.344 9.1563H110.734L110.238 10.6452H108.656L111.345 3.42097H112.724L115.428 10.6452H113.846L113.344 9.15678V9.1563ZM111.136 7.95146H112.942L112.034 5.24662L111.136 7.95146ZM118.365 8.10001V10.6452H116.877V3.42097H119.695C120.237 3.42097 120.715 3.52016 121.126 3.71904C121.539 3.91742 121.855 4.19904 122.077 4.56484C122.298 4.93017 122.409 5.3463 122.409 5.81275C122.409 6.52065 122.167 7.07856 121.682 7.48694C121.197 7.89581 120.527 8.10001 119.67 8.10001H118.365ZM118.365 6.8942H119.695C120.089 6.8942 120.389 6.80178 120.596 6.61646C120.803 6.43114 120.906 6.16646 120.906 5.82291C120.906 5.46872 120.802 5.18227 120.593 4.96404C120.385 4.74629 120.097 4.63355 119.73 4.62678H118.365V6.8942ZM130.085 10.6452H128.596V7.54936H125.694V10.6452H124.205V3.42097H125.694V6.34839H128.596V3.42097H130.085V10.6452Z" fill="white"/>
<path d="M45.116 17.3371H43.5067V21.7742H42.6173V17.3371H41.0225V16.6142H45.116V17.3371ZM46.8483 18.358C47.1294 18.0319 47.485 17.8688 47.9152 17.8688C48.7329 17.8688 49.1471 18.3353 49.1588 19.2687V21.7742H48.2979V19.3006C48.2979 19.0359 48.2408 18.8487 48.1262 18.7388C48.0115 18.629 47.8431 18.5743 47.621 18.5743C47.276 18.5743 47.0186 18.7277 46.8483 19.0345V21.7742H45.987V16.3306H46.8483V18.358ZM52.0083 21.8448C51.4625 21.8448 51.0202 21.673 50.681 21.3295C50.3423 20.9859 50.1725 20.5277 50.1725 19.9563V19.8498C50.1725 19.4671 50.2465 19.125 50.3941 18.824C50.5305 18.5353 50.7463 18.2914 51.0158 18.1205C51.2834 17.9526 51.5936 17.8652 51.9091 17.8688C52.4312 17.8688 52.8347 18.0353 53.1192 18.3682C53.4038 18.7016 53.5465 19.1729 53.5465 19.7826V20.13H51.0405C51.0667 20.4464 51.1726 20.6966 51.3579 20.8809C51.5433 21.0653 51.7765 21.1577 52.0576 21.1577C52.4525 21.1577 52.7738 20.998 53.022 20.6787L53.4865 21.1219C53.3326 21.3515 53.1202 21.5358 52.871 21.6556C52.6146 21.7814 52.3271 21.8448 52.0083 21.8448ZM51.9057 18.5593C51.6691 18.5593 51.4784 18.6426 51.3333 18.808C51.1881 18.973 51.0952 19.2034 51.055 19.499H52.6954V19.4351C52.677 19.1467 52.6 18.929 52.4655 18.7814C52.3305 18.6338 52.1442 18.5598 51.9057 18.5598V18.5593ZM56.9055 21.7742V18.5777H56.3205V17.9395H56.9055V17.5887C56.9055 17.1634 57.0236 16.8348 57.2597 16.6035C57.4963 16.3717 57.8268 16.2561 58.2521 16.2561C58.4036 16.2561 58.5642 16.2774 58.7341 16.32L58.7128 16.9935C58.6039 16.9733 58.4936 16.9637 58.3833 16.965C57.972 16.965 57.7668 17.1764 57.7668 17.5993V17.9395H58.5458V18.5777H57.7668V21.7742H56.9055ZM61.7888 21.3987C61.5362 21.6963 61.1767 21.8448 60.7112 21.8448C60.2955 21.8448 59.9805 21.7234 59.7671 21.48C59.5533 21.2366 59.4463 20.8848 59.4463 20.4237V17.9395H60.3076V20.413C60.3076 20.8998 60.5094 21.1437 60.9134 21.1437C61.3315 21.1437 61.6141 20.9937 61.7602 20.6937V17.9395H62.6215V21.7742H61.81L61.7888 21.3987ZM64.8681 17.0076V17.9395H65.5455V18.5777H64.8681V20.7179C64.8681 20.8645 64.8971 20.9705 64.9552 21.0353C65.0133 21.1001 65.1163 21.1326 65.2649 21.1326C65.3646 21.1326 65.4647 21.1209 65.5663 21.0972V21.7635C65.382 21.8162 65.1908 21.8435 64.9992 21.8448C64.3378 21.8448 64.0073 21.48 64.0073 20.7498V18.5772H63.3763V17.9395H64.0068V17.008H64.8681V17.0076ZM68.816 21.3987C68.5629 21.6963 68.2039 21.8448 67.7384 21.8448C67.3223 21.8448 67.0078 21.7234 66.7939 21.48C66.58 21.2366 66.4731 20.8848 66.4731 20.4237V17.9395H67.3344V20.413C67.3344 20.8998 67.5367 21.1437 67.9407 21.1437C68.3587 21.1437 68.6408 20.9937 68.7875 20.6937V17.9395H69.6487V21.7742H68.8373L68.816 21.3987ZM72.8239 18.7263C72.7078 18.7072 72.5907 18.6979 72.4731 18.6982C72.0783 18.6982 71.8126 18.8492 71.6757 19.1516V21.7742H70.8144V17.9395H71.637L71.6578 18.3682C71.8658 18.0353 72.1542 17.8688 72.5225 17.8688C72.6454 17.8688 72.747 17.8853 72.8273 17.9182L72.8239 18.7263ZM75.2796 21.8448C74.7338 21.8448 74.2915 21.673 73.9523 21.3295C73.6136 20.9859 73.4437 20.5277 73.4437 19.9563V19.8498C73.4437 19.4671 73.5178 19.125 73.6654 18.824C73.8018 18.5353 74.0176 18.2914 74.2871 18.1205C74.5547 17.9526 74.8649 17.8652 75.1804 17.8688C75.7025 17.8688 76.106 18.0353 76.3905 18.3682C76.675 18.7016 76.8178 19.1729 76.8178 19.7826V20.13H74.3118C74.3379 20.4464 74.4439 20.6966 74.6292 20.8809C74.8146 21.0653 75.0478 21.1577 75.3289 21.1577C75.7237 21.1577 76.045 20.998 76.2933 20.6787L76.7578 21.1219C76.6039 21.3515 76.3915 21.5358 76.1423 21.6556C75.8858 21.7814 75.5984 21.8448 75.2796 21.8448ZM75.177 18.5593C74.9404 18.5593 74.7497 18.6426 74.6046 18.808C74.4594 18.973 74.3665 19.2034 74.3263 19.499H75.9667V19.4351C75.9483 19.1467 75.8713 18.929 75.7368 18.7814C75.6018 18.6338 75.4155 18.5598 75.177 18.5598V18.5593ZM79.7123 19.8213C79.7123 19.4458 79.7868 19.1076 79.9358 18.8061C80.0723 18.5182 80.2905 18.2766 80.5629 18.1113C80.8325 17.9497 81.1417 17.8688 81.492 17.8688C82.0087 17.8688 82.4288 18.0353 82.7515 18.3682C83.0738 18.7016 83.2484 19.1434 83.2741 19.694L83.2779 19.8958C83.2779 20.2737 83.2054 20.6119 83.0602 20.9095C82.9247 21.1962 82.7075 21.4366 82.436 21.6005C82.1655 21.7635 81.8529 21.8448 81.4988 21.8448C80.9578 21.8448 80.5247 21.6648 80.1996 21.3048C79.8754 20.9443 79.7123 20.4638 79.7123 19.8638V19.8213ZM80.5736 19.8958C80.5736 20.2906 80.6554 20.5993 80.8184 20.8224C80.981 21.0459 81.2079 21.1577 81.4988 21.1577C81.7891 21.1577 82.0155 21.044 82.1771 20.8171C82.3392 20.5906 82.42 20.2587 82.42 19.8213C82.42 19.4342 82.3368 19.1269 82.1704 18.9C82.0034 18.673 81.7775 18.5598 81.4915 18.5598C81.2108 18.5598 80.9873 18.6711 80.8218 18.8947C80.6563 19.1182 80.5736 19.4516 80.5736 19.8963V19.8958ZM84.5999 21.7742V18.5777H84.0149V17.9395H84.5999V17.5887C84.5999 17.1634 84.7179 16.8348 84.9541 16.6035C85.1907 16.3717 85.5212 16.2561 85.9465 16.2561C86.0979 16.2561 86.2586 16.2774 86.4284 16.32L86.4071 16.9935C86.2987 16.9733 86.1884 16.9638 86.0781 16.965C85.6668 16.965 85.4612 17.1764 85.4612 17.5993V17.9395H86.2407V18.5777H85.4612V21.7742H84.5999ZM90.0676 17.9395L90.0923 18.3401C90.3618 18.0256 90.7305 17.8688 91.1979 17.8688C91.7108 17.8688 92.0617 18.0648 92.2508 18.4572C92.5296 18.0648 92.9215 17.8688 93.4271 17.8688C93.85 17.8688 94.165 17.9855 94.3717 18.2197C94.5783 18.4534 94.6842 18.7984 94.6891 19.2542V21.7742H93.8278V19.2793C93.8278 19.0359 93.7746 18.8574 93.6681 18.7442C93.5617 18.6305 93.386 18.5738 93.1407 18.5738C92.9442 18.5738 92.7841 18.6266 92.6602 18.7316C92.5339 18.84 92.4429 18.9838 92.3994 19.1443L92.4033 21.7742H91.542V19.2508C91.5299 18.7998 91.3 18.5738 90.851 18.5738C90.506 18.5738 90.2612 18.7142 90.1175 18.9958V21.7742H89.2562V17.9395H90.0676ZM95.7023 19.8217C95.7023 19.4458 95.7768 19.1076 95.9254 18.8061C96.0623 18.5181 96.2805 18.2766 96.5529 18.1113C96.822 17.9497 97.1317 17.8688 97.4815 17.8688C97.9988 17.8688 98.4188 18.0353 98.741 18.3682C99.0638 18.7016 99.2379 19.1434 99.2636 19.694L99.2675 19.8958C99.2675 20.2737 99.1949 20.6119 99.0497 20.9095C98.9142 21.1962 98.697 21.4366 98.4255 21.6005C98.155 21.7635 97.8429 21.8448 97.4883 21.8448C96.9473 21.8448 96.5142 21.6648 96.1896 21.3048C95.8649 20.9443 95.7023 20.4638 95.7023 19.8638V19.8213V19.8217ZM96.5636 19.8958C96.5636 20.2906 96.6449 20.5993 96.8079 20.8224C96.971 21.0459 97.1979 21.1577 97.4883 21.1577C97.7786 21.1577 98.005 21.044 98.1671 20.8171C98.3287 20.5906 98.41 20.2587 98.41 19.8213C98.41 19.4342 98.3263 19.1269 98.1599 18.9C97.9934 18.673 97.767 18.5598 97.4815 18.5598C97.2004 18.5598 96.9768 18.6711 96.8113 18.8947C96.6463 19.1182 96.5636 19.4516 96.5636 19.8963V19.8958ZM101.085 17.9395L101.11 18.3827C101.394 18.0401 101.766 17.8688 102.226 17.8688C103.025 17.8688 103.431 18.3261 103.446 19.2401V21.7742H102.584V19.29C102.584 19.0466 102.532 18.8661 102.427 18.7495C102.322 18.6324 102.15 18.5738 101.911 18.5738C101.564 18.5738 101.305 18.7311 101.135 19.0451V21.7742H100.273V17.9395H101.085ZM106.301 21.8448C105.756 21.8448 105.313 21.673 104.975 21.3295C104.636 20.9859 104.466 20.5277 104.466 19.9563V19.8498C104.466 19.4671 104.54 19.125 104.687 18.824C104.824 18.5353 105.04 18.2913 105.31 18.1205C105.577 17.9527 105.887 17.8653 106.202 17.8688C106.725 17.8688 107.128 18.0353 107.413 18.3682C107.697 18.7016 107.84 19.1729 107.84 19.7826V20.13H105.334C105.36 20.4464 105.466 20.6966 105.651 20.8809C105.837 21.0653 106.07 21.1577 106.351 21.1577C106.746 21.1577 107.067 20.998 107.315 20.6787L107.78 21.1219C107.626 21.3515 107.413 21.5357 107.165 21.6556C106.908 21.7814 106.621 21.8448 106.301 21.8448ZM106.199 18.5593C105.963 18.5593 105.772 18.6426 105.626 18.808C105.481 18.973 105.388 19.2034 105.348 19.499H106.989V19.4351C106.97 19.1467 106.894 18.929 106.759 18.7814C106.624 18.6338 106.437 18.5598 106.199 18.5598V18.5593ZM110.094 20.5408L110.873 17.9395H111.791L110.267 22.3553C110.033 23.0003 109.636 23.323 109.076 23.323C108.936 23.3208 108.796 23.2993 108.662 23.2592V22.5929L108.825 22.6035C109.042 22.6035 109.206 22.5638 109.316 22.485C109.425 22.4056 109.512 22.2726 109.576 22.0863L109.7 21.7563L108.354 17.9395H109.282L110.094 20.5408Z" fill="white"/>
</g>
<defs>
<clipPath id="clip0_676_2958">
<rect width="129.677" height="30" fill="white" transform="translate(0.861206)"/>
</clipPath>
</defs>
</svg>
