<svg width="30" height="30" viewBox="0 0 30 30" fill="none" xmlns="http://www.w3.org/2000/svg">
<path fill-rule="evenodd" clip-rule="evenodd" d="M23 5.44571C22 5.44571 21.1882 6.23682 21.1882 7.2105C21.1882 8.1842 22 8.97531 23 8.97531C24.0007 8.97531 24.8125 8.1842 24.8125 7.2105C24.8125 6.23682 24.0007 5.44571 23 5.44571ZM15 19.8684C12.25 19.8684 10 17.6782 10 15C10 12.3223 12.25 10.1316 15 10.1316C17.7506 10.1316 20 12.3223 20 15C20 17.6782 17.7506 19.8684 15 19.8684ZM15 7.51479C10.75 7.51479 7.3125 10.8618 7.3125 15C7.3125 19.1382 10.75 22.4852 15 22.4852C19.25 22.4852 22.6875 19.1382 22.6875 15C22.6875 10.8618 19.25 7.51479 15 7.51479ZM27.1875 20.8421C27.1256 22.4852 26.75 24.068 25.5631 25.2237C24.375 26.3799 22.7506 26.745 21.0625 26.8065C19.5 26.8668 19.0006 26.8668 15 26.8668C11 26.8668 10.5 26.8668 8.9375 26.8065C7.25 26.745 5.625 26.3799 4.4375 25.2237C3.25 24.068 2.875 22.4852 2.8125 20.8421C2.75 19.3207 2.75 18.8339 2.75 14.9392C2.75 11.0444 2.75 10.5576 2.8125 9.03616C2.875 7.45393 3.1875 5.87169 4.4375 4.71545C5.6875 3.55919 7.25 3.19406 8.9375 3.1332C10.5 3.01149 11 3.01149 15 3.01149C19.0006 3.01149 19.5 3.01149 21.0625 3.07235C22.7506 3.1332 24.375 3.49834 25.5631 4.65458C26.75 5.81084 27.1256 7.39307 27.1875 9.03616C27.25 10.5576 27.25 11.0444 27.25 14.9392C27.25 18.8339 27.25 19.3207 27.1875 20.8421ZM29.9381 8.97531C29.8125 6.60196 29.1875 4.53288 27.5 2.82892C25.75 1.12498 23.625 0.57728 21.1882 0.455571C19.5625 0.394714 19.0625 0.394714 15 0.394714C10.9375 0.394714 10.4375 0.394714 8.8125 0.455571C6.375 0.57728 4.25 1.18583 2.5 2.82892C0.75 4.53288 0.1875 6.60196 0.0625 8.97531C0 10.5576 0 11.0444 0 15C0 18.9556 0 19.4424 0.0625 21.0253C0.1875 23.398 0.8125 25.467 2.5 27.1711C4.25 28.875 6.375 29.4227 8.8125 29.545C10.4375 29.6052 10.9375 29.6052 15 29.6052C19.0625 29.6052 19.5625 29.6052 21.1882 29.545C23.625 29.4227 25.75 28.875 27.5 27.1711C29.25 25.467 29.8125 23.398 29.9381 21.0253C30 19.4424 30 18.9556 30 15C30 11.0444 30 10.5576 29.9381 8.97531Z" fill="white"/>
</svg>
