<svg width="30" height="30" viewBox="0 0 30 30" fill="none" xmlns="http://www.w3.org/2000/svg">
<path d="M27.7793 0H2.21484C0.990234 0 0 0.966801 0 2.16211V27.832C0 29.0274 0.990234 30 2.21484 30H27.7793C29.0039 30 30 29.0274 30 27.8379V2.16211C30 0.966801 29.0039 0 27.7793 0ZM8.90039 25.5645H4.44726V11.2441H8.90039V25.5645ZM6.67382 9.29297C5.24414 9.29297 4.08985 8.13868 4.08985 6.71484C4.08985 5.29102 5.24414 4.13672 6.67382 4.13672C8.09766 4.13672 9.25195 5.29102 9.25195 6.71484C9.25195 8.13282 8.09766 9.29297 6.67382 9.29297ZM25.5645 25.5645H21.1171V18.6035C21.1171 16.9454 21.0879 14.8066 18.8028 14.8066C16.4883 14.8066 16.1367 16.6172 16.1367 18.4864V25.5645H11.6953V11.2441H15.9609V13.2011H16.0195C16.6114 12.0761 18.0645 10.8867 20.2266 10.8867C24.7324 10.8867 25.5645 13.8516 25.5645 17.707V25.5645Z" fill="white"/>
</svg>
