<svg width="650" height="350" viewBox="0 0 650 350" fill="none" xmlns="http://www.w3.org/2000/svg">
<g clip-path="url(#clip0_348_1659)">
<path d="M649.17 189.85C648.41 189.89 646.91 190.14 644.75 190.78C642.61 191.43 639.74 192.46 637.03 193.7C634.29 194.95 631.73 196.43 629.34 198.44C626.93 200.45 624.91 203 623.2 205.36C621.54 207.74 620.4 209.97 619.27 212.48C618.93 213.29 618.58 214.13 618.24 214.96C618.99 210.98 619.61 206.96 620.12 202.94C620.66 198.28 620.99 193.62 621.15 188.96C621.27 188.95 621.39 188.93 621.54 188.91C623.12 188.7 626.31 188.2 628.92 187.32C631.53 186.43 633.57 185.17 635.71 183.47C637.81 181.77 640.03 179.61 641.85 176.33C643.59 173.05 644.96 168.63 645.76 164.67C645.97 163.68 646.17 162.71 646.34 161.79C646.5 160.86 646.61 159.98 646.72 159.14C646.93 157.46 647.06 155.97 647.1 154.75C647.17 152.3 646.86 150.93 646.72 150.17C646.56 149.42 646.52 149.29 645.84 149.46C645.15 149.62 643.83 150.08 641.97 151.01C640.11 151.94 637.72 153.32 635.48 154.89C633.2 156.46 631.05 158.22 629.25 160.43C627.49 162.64 625.92 165.29 624.85 167.71C623.81 170.13 623.04 172.35 622.51 174.82C622.05 177.03 621.55 179.43 621.25 181.31C621.24 176.22 621.07 171.15 620.79 166.14C620.64 163.11 620.39 160.1 620.35 157.09C620.32 155.81 620.24 154.53 620.16 153.25C620.29 153.21 620.44 153.16 620.61 153.11C622.02 152.66 624.84 151.69 627.07 150.47C629.31 149.24 630.96 147.78 632.6 145.91C634.23 144.04 635.97 141.74 637.07 138.51C638.16 135.29 638.72 131.11 638.85 127.42C639.07 123.71 638.87 120.52 638.6 118.31C638.33 116.09 637.87 114.9 637.61 114.25C637.35 113.6 637.3 113.49 636.7 113.74C636.1 113.99 634.96 114.6 633.41 115.7C631.86 116.81 629.9 118.4 628.04 120.16C626.2 121.91 624.51 123.82 623.21 126.09C621.94 128.35 620.89 131 620.3 133.35C619.72 135.71 619.37 137.84 619.26 140.16C619.21 141.56 619.17 143.04 619.15 144.39C618.87 142.7 618.56 141.03 618.19 139.37C617.59 136.49 616.85 133.67 616.13 130.87C615.23 127.58 614.32 124.34 613.38 121.15C613.56 121.07 613.84 120.94 614.27 120.72C615.48 120.11 617.9 118.82 619.75 117.39C621.6 115.96 622.89 114.39 624.15 112.46C625.41 110.52 626.57 108.23 627.16 105.15C627.31 104.38 627.42 103.56 627.49 102.72C627.55 101.88 627.57 101.01 627.57 100.13C627.57 98.37 627.46 96.58 627.32 94.89C626.97 91.54 626.43 88.67 625.91 86.71C625.36 84.76 624.78 83.75 624.47 83.2C624.16 82.65 624.09 82.55 623.58 82.86C623.06 83.16 622.1 83.86 620.82 85.06C619.54 86.27 617.95 87.97 616.52 89.79C615.07 91.62 613.76 93.59 612.86 95.82C611.96 98.06 611.48 100.56 611.19 102.81C610.92 105.06 611.01 107 611.19 109.14C611.37 111.28 611.73 113.58 612.04 115.22C612.31 116.87 612.51 117.87 612.67 118.65C612.7 118.78 612.72 118.89 612.74 119C610.69 112.12 608.54 105.48 606.17 99.14C605.7 97.9 605.24 96.67 604.78 95.45C604.38 94.43 603.96 93.43 603.54 92.43C603.67 92.34 603.82 92.24 604.01 92.11C605.04 91.4 607.08 89.9 608.59 88.36C610.1 86.82 611.08 85.23 611.99 83.31C612.87 81.41 613.67 79.16 613.83 76.3C614.03 73.42 613.41 70.02 612.76 67C612.12 63.98 611.24 61.49 610.55 59.78C609.84 58.08 609.25 57.2 608.89 56.75C608.54 56.29 608.47 56.21 608.04 56.55C607.6 56.88 606.8 57.63 605.77 58.86C604.74 60.1 603.44 61.85 602.33 63.68C601.21 65.52 600.25 67.45 599.69 69.58C599.16 71.71 598.94 74.08 598.97 76.15C598.99 78.23 599.32 79.99 599.74 81.92C600.13 83.67 600.67 85.49 601.12 86.91C600.81 86.24 600.49 85.58 600.18 84.92C599.64 83.8 599.11 82.68 598.58 81.58C598.01 80.5 597.45 79.42 596.89 78.36C595.77 76.23 594.67 74.15 593.5 72.16C592.6 70.59 591.69 69.07 590.79 67.57C590.9 67.48 591.02 67.37 591.19 67.22C592.05 66.45 593.74 64.86 594.95 63.29C596.15 61.72 596.86 60.16 597.48 58.32C598.09 56.48 598.65 54.31 598.45 51.73C598.26 49.15 597.48 46.03 596.54 43.4C595.6 40.77 594.64 38.54 593.84 37.06C593.03 35.59 592.37 34.89 592.02 34.5C591.66 34.11 591.59 34.05 591.23 34.4C590.86 34.75 590.2 35.51 589.36 36.74C588.53 37.98 587.53 39.68 586.7 41.45C585.85 43.24 585.15 45.11 584.84 47.12C584.53 49.14 584.61 51.3 584.87 53.18C585.1 55.08 585.53 56.69 586.15 58.4C586.46 59.25 586.82 60.13 587.18 60.95C587.52 61.78 587.85 62.57 588.14 63.22C588.18 63.31 588.21 63.38 588.25 63.47C585.39 58.95 582.54 54.81 579.79 51.06C578.63 49.4 577.47 47.85 576.34 46.35C576.45 46.24 576.6 46.08 576.83 45.83C577.54 45.04 578.95 43.42 579.9 41.86C580.85 40.3 581.36 38.81 581.76 37.07C581.96 36.2 582.13 35.26 582.21 34.24C582.27 33.24 582.24 32.15 582.05 30.97C581.66 28.63 580.67 25.86 579.6 23.55C578.52 21.24 577.46 19.3 576.61 18.03C575.77 16.75 575.12 16.16 574.76 15.84C574.4 15.52 574.33 15.47 574.02 15.82C573.71 16.17 573.16 16.92 572.5 18.11C571.84 19.31 571.07 20.95 570.42 22.66C569.78 24.37 569.3 26.13 569.19 28.01C569.08 29.88 569.34 31.85 569.74 33.55C570.12 35.27 570.65 36.71 571.37 38.22C572.08 39.73 573.02 41.28 573.65 42.44C574.16 43.35 574.54 43.95 574.84 44.42C574.38 43.82 573.93 43.23 573.5 42.65C571.53 40.08 569.63 37.79 567.98 35.67C565.37 32.52 563.22 29.85 561.51 27.79C561.57 27.71 561.65 27.61 561.73 27.5C562.32 26.72 563.47 25.11 564.22 23.61C564.96 22.1 565.31 20.7 565.54 19.08C565.76 17.45 565.87 15.6 565.36 13.45C564.82 11.34 563.67 8.95 562.55 6.89C561.45 4.82 560.31 3.16 559.43 2.08C558.56 0.990001 557.93 0.500001 557.59 0.230001C557.25 -0.0399993 557.18 -0.0799993 556.92 0.260001C556.66 0.600001 556.21 1.33 555.68 2.48C555.15 3.63 554.55 5.2 554.09 6.8C553.63 8.4 553.33 10.05 553.37 11.76C553.42 13.47 553.76 15.3 554.25 16.84C554.74 18.38 555.35 19.65 556.14 20.96C556.46 21.48 556.8 22.02 557.13 22.55C556.39 21.68 555.2 21.44 554.5 21.96C554.44 22.01 554.39 22.06 554.34 22.11C554.14 21.79 553.9 21.41 553.59 20.94C552.96 19.98 552.03 18.67 551.08 17.52C550.14 16.35 549.13 15.39 547.81 14.42C546.49 13.46 544.86 12.5 543.18 11.86C541.51 11.21 539.72 10.95 537.98 10.8C536.23 10.66 534.48 10.66 533.17 10.74C531.87 10.82 531 10.97 530.58 11.07C530.16 11.17 530.17 11.24 530.31 11.58C530.45 11.92 530.71 12.54 531.44 13.51C532.17 14.49 533.38 15.81 534.9 17.28C536.43 18.74 538.17 20.44 539.97 21.55C541.76 22.67 543.54 23.28 545.14 23.78C546.75 24.26 548.22 24.58 549.99 24.67C551.6 24.75 553.47 24.64 554.55 24.58C554.63 24.68 554.72 24.77 554.8 24.86C554.8 24.86 555.9 25.91 557.91 27.94C559.36 29.36 561.19 31.34 563.37 33.8C562.6 33.14 561.72 32.42 560.85 31.78C559.59 30.84 558.3 30.14 556.76 29.57C555.21 29 553.4 28.55 551.65 28.49C549.91 28.42 548.22 28.77 546.57 29.27C544.93 29.78 543.33 30.45 542.17 31.03C541.01 31.61 540.26 32.1 539.91 32.38C539.56 32.66 539.59 32.72 539.84 33.04C540.08 33.36 540.54 33.94 541.55 34.73C542.58 35.51 544.08 36.58 545.98 37.66C547.87 38.75 550.11 39.9 552.1 40.54C554.11 41.16 555.97 41.21 557.63 41.13C559.29 41.05 560.78 40.85 562.41 40.31C564.05 39.75 565.89 38.82 566.79 38.34C566.91 38.28 567.01 38.22 567.1 38.17C568.55 39.95 570.12 41.86 571.73 43.98C573.64 46.56 575.76 49.31 577.81 52.41C578.01 52.7 578.22 53.01 578.42 53.31C577.56 52.39 576.5 51.31 575.43 50.36C574.13 49.24 572.82 48.36 571.22 47.58C569.61 46.81 567.73 46.13 565.82 45.94C563.92 45.74 562.06 45.94 560.25 46.34C558.44 46.74 556.66 47.32 555.35 47.84C554.04 48.36 553.2 48.83 552.8 49.1C552.39 49.37 552.43 49.44 552.66 49.8C552.89 50.17 553.31 50.83 554.31 51.77C555.31 52.72 556.93 53.92 558.8 55.29C560.68 56.65 563.02 58.06 565.09 58.94C567.19 59.8 569.17 60.03 570.98 60.12C572.78 60.21 574.4 60.14 576.23 59.71C578.06 59.28 580.14 58.47 581.17 58.05C581.29 58 581.39 57.96 581.48 57.92C584.55 62.68 587.67 67.94 590.74 73.67C590.83 73.83 590.92 74 591.01 74.16C590.42 73.43 589.77 72.67 589.13 71.97C588.5 71.29 587.87 70.67 587.2 70.08C586.5 69.51 585.76 68.98 584.94 68.48C583.29 67.47 581.3 66.56 579.31 66.12C577.28 65.7 575.26 65.73 573.26 65.97C571.26 66.21 569.29 66.66 567.82 67.09C566.36 67.52 565.4 67.94 564.94 68.19C564.47 68.43 564.5 68.51 564.71 68.93C564.91 69.35 565.29 70.1 566.27 71.2C566.76 71.75 567.39 72.4 568.15 73.1C568.88 73.82 569.73 74.61 570.68 75.43C571.63 76.25 572.67 77.1 573.76 77.89C574.82 78.7 575.91 79.44 576.99 80.02C579.15 81.17 581.31 81.62 583.2 81.94C585.1 82.25 586.83 82.38 588.87 82.14C590.91 81.89 593.26 81.27 594.41 80.94C594.46 80.93 594.49 80.92 594.54 80.9C594.9 81.61 595.26 82.31 595.62 83.03C596.14 84.12 596.66 85.22 597.19 86.32C597.72 87.43 598.26 88.54 598.8 89.67C599.31 90.81 599.83 91.95 600.35 93.11C600.87 94.27 601.42 95.42 601.93 96.6C602.43 97.79 602.93 98.98 603.43 100.18C603.55 100.47 603.67 100.77 603.79 101.07C603.06 99.8 602.15 98.29 601.2 96.93C600.02 95.3 598.75 93.94 597.14 92.63C595.54 91.31 593.47 90.1 591.36 89.39C589.25 88.68 587.09 88.46 584.93 88.46C582.76 88.47 580.55 88.73 578.92 89.02C577.29 89.31 576.2 89.65 575.67 89.86C575.14 90.07 575.16 90.16 575.33 90.62C575.49 91.09 575.86 91.91 576.72 93.21C577.58 94.52 579.07 96.27 580.9 98.24C582.65 100.24 584.91 102.41 587.03 103.93C589.18 105.44 591.38 106.23 593.42 106.81C595.43 107.4 597.25 107.78 599.48 107.81C601.7 107.83 604.32 107.49 605.61 107.31C605.85 107.27 606.04 107.25 606.2 107.22C608.86 114.41 611.14 122.04 612.56 130.05C612.01 128.63 611.25 126.99 610.49 125.49C609.52 123.55 608.35 121.91 606.8 120.26C606.02 119.44 605.14 118.62 604.19 117.88C603.21 117.14 602.16 116.47 601.08 115.94C598.92 114.87 596.63 114.33 594.31 114.03C591.96 113.74 589.57 113.71 587.77 113.79C585.97 113.88 584.76 114.09 584.16 114.24C583.56 114.39 583.57 114.48 583.68 115C583.78 115.52 584.04 116.44 584.79 117.94C585.51 119.45 586.87 121.5 588.49 123.86C590.11 126.22 592.14 128.86 594.18 130.8C595.22 131.76 596.31 132.53 597.4 133.18C598.47 133.83 599.53 134.37 600.56 134.83C602.62 135.77 604.54 136.46 606.93 136.84C609.33 137.21 612.19 137.27 613.59 137.28C613.65 137.28 613.69 137.28 613.75 137.28C613.89 138.21 614.03 139.13 614.14 140.07C614.6 142.92 614.91 145.8 615.34 148.68C615.56 150.12 615.77 151.57 615.99 153.02C616.21 154.47 616.49 155.92 616.69 157.39C616.96 159.45 617.19 161.53 617.31 163.62C616.97 161.85 616.39 159.59 615.75 157.55C615.01 155.31 614.05 153.35 612.71 151.33C611.34 149.31 609.41 147.26 607.31 145.76C605.22 144.26 602.77 143.32 600.33 142.64C597.87 141.96 595.33 141.53 593.4 141.34C591.47 141.15 590.14 141.18 589.47 141.25C588.8 141.31 588.8 141.41 588.82 141.98C588.85 142.54 588.9 143.56 589.48 145.26C590.09 146.95 591.06 149.35 592.46 152.1C593.17 153.48 593.86 154.95 594.7 156.38C595.11 157.09 595.55 157.8 596 158.47C596.44 159.14 596.88 159.79 597.35 160.39C599.23 162.78 601.46 164.42 603.46 165.78C605.49 167.14 607.42 168.22 609.91 169.05C612.41 169.87 615.45 170.46 616.95 170.73C617.16 170.77 617.33 170.8 617.49 170.82C617.51 178.86 616.79 186.95 615.72 194.98C615.65 194.24 615.57 193.49 615.45 192.77C615.26 191.51 615.04 190.31 614.72 189.12C614.37 187.93 613.94 186.76 613.39 185.55C612.33 183.14 610.66 180.6 608.67 178.61C606.7 176.62 604.31 175.19 601.79 174.02C599.28 172.85 596.64 171.95 594.61 171.4C592.58 170.86 591.15 170.65 590.42 170.6C589.69 170.55 589.67 170.65 589.59 171.25C589.52 171.85 589.39 172.93 589.71 174.82C589.88 175.76 590.11 176.91 590.42 178.22C590.72 179.52 591.17 180.99 591.62 182.57C592.06 184.15 592.59 185.84 593.22 187.5C593.8 189.16 594.47 190.78 595.27 192.23C596.86 195.12 598.79 197.26 600.75 199.11C602.7 200.95 604.48 202.47 606.97 203.85C609.3 205.14 612.2 206.3 613.84 206.92C613.03 211.27 612.1 215.6 611.09 219.89C609.99 224.36 608.88 228.81 607.75 233.25C607.88 232.23 607.98 231.18 608.01 230.16C608.08 228.78 608.08 227.45 608.01 226.13C607.89 224.8 607.67 223.46 607.34 222.07C606.72 219.3 605.44 216.24 603.75 213.74C602.05 211.23 599.76 209.22 597.34 207.48C594.92 205.74 592.29 204.26 590.21 203.27C588.14 202.29 586.65 201.79 585.88 201.59C585.11 201.39 585.07 201.5 584.89 202.11C584.72 202.73 584.38 203.83 584.31 205.87C584.28 207.91 584.41 210.86 584.8 214.37C584.95 216.11 585.16 217.99 585.49 219.87C585.76 221.73 586.14 223.58 586.69 225.27C587.72 228.62 589.4 231.33 591.05 233.69C592.67 236.04 594.29 238.06 596.64 240.06C599 242.06 602.03 244.06 603.55 245.03C603.71 245.13 603.84 245.21 603.97 245.29C600.69 253.63 596.4 261.43 591.92 268.72C591.67 269.15 591.39 269.57 591.13 270C591.34 269.36 591.54 268.71 591.72 268.06C592.57 265.2 592.95 262.45 592.92 259.37C592.9 257.83 592.7 256.16 592.4 254.53C592.1 252.9 591.65 251.28 591 249.74C589.7 246.68 587.85 244.1 585.61 241.7C583.4 239.31 580.92 237.17 578.95 235.68C576.98 234.19 575.51 233.34 574.74 232.97C573.97 232.59 573.89 232.69 573.56 233.28C573.22 233.87 572.63 234.94 572.16 237.05C571.62 239.13 571.21 242.26 570.79 245.96C570.41 249.67 570 253.96 570.35 257.71C570.56 259.61 570.86 261.31 571.34 262.95C571.8 264.58 572.42 266.13 572.97 267.55C574.11 270.4 575.34 272.93 577.32 275.63C579.2 278.19 581.73 280.91 583.14 282.38C583.08 282.47 583.02 282.56 582.96 282.65C580.01 287.18 576.94 291.51 573.68 295.52C569.51 300.5 565.23 305.11 560.86 309.23C561.26 308.73 561.67 308.21 562.08 307.66C563.03 306.36 563.97 304.93 564.81 303.56C565.67 302.2 566.33 300.78 566.95 299.36C567.57 297.94 568.07 296.45 568.43 294.81C568.79 293.17 569.11 291.45 569.19 289.64C569.28 287.83 569.22 286.01 568.95 284.27C568.39 280.75 567.01 277.51 565.31 274.48C563.58 271.42 561.48 268.54 559.76 266.49C558.04 264.44 556.7 263.18 555.98 262.58C555.26 261.99 555.16 262.07 554.68 262.58C554.18 263.08 553.37 264.07 552.33 266.05C551.8 267.04 551.27 268.32 550.68 269.79C550.06 271.23 549.47 272.95 548.79 274.76C548.11 276.56 547.47 278.6 546.82 280.58C546.51 281.58 546.23 282.61 546 283.63C545.74 284.63 545.52 285.62 545.37 286.6C545.22 287.58 545.13 288.56 545.08 289.51C545.02 290.44 545 291.36 545.02 292.27C545.06 294.07 545.25 295.84 545.46 297.48C545.85 300.75 546.4 303.73 547.66 307.13C548.91 310.5 550.85 314.32 551.84 316.2C551.94 316.39 552.02 316.54 552.1 316.69C545.38 321.94 538.68 326.04 532.51 329.2C530.91 330.06 529.31 330.79 527.78 331.51C527.01 331.87 526.26 332.22 525.52 332.56C524.77 332.87 524.03 333.18 523.31 333.49C520.45 334.77 517.74 335.71 515.32 336.63C510.42 338.31 506.55 339.49 503.88 340.22C501.22 340.95 499.8 341.34 499.8 341.34C496.86 342.06 494.89 344.56 495.41 346.92C495.92 349.24 498.84 350.52 501.96 349.83C501.96 349.83 503.48 349.43 506.32 348.61C509.15 347.77 513.25 346.37 518.32 344.22C520.82 343.07 523.61 341.86 526.53 340.3C527.26 339.92 528.01 339.53 528.77 339.13C529.52 338.71 530.28 338.27 531.05 337.83C532.25 337.14 533.49 336.42 534.74 335.66C534.8 335.74 534.86 335.8 534.93 335.88C536.37 337.56 539.38 340.88 542.46 343.2C545.56 345.54 548.66 346.82 552.41 347.82C554.29 348.33 556.35 348.77 558.59 348.93C560.83 349.09 563.35 349.1 566.04 348.61C568.74 348.13 571.75 347.31 574.68 346.15C576.15 345.58 577.65 344.98 579.09 344.31C580.52 343.63 581.93 342.93 583.28 342.23C586.01 340.84 588.4 339.32 590.57 337.96C592.71 336.57 594.49 335.21 595.93 334.05C598.79 331.71 600.05 330.01 600.77 329.11C601.48 328.2 601.59 328.02 600.77 327.47C599.97 326.91 598.24 325.98 595.53 324.94C592.81 323.9 589.11 322.74 585.37 321.86C581.57 320.94 577.75 320.35 573.73 320.45C571.7 320.48 569.64 320.7 567.64 321.03C565.63 321.35 563.64 321.74 561.84 322.22C560.05 322.72 558.34 323.18 556.73 323.77C555.92 324.06 555.13 324.38 554.34 324.71C553.53 325.02 552.73 325.35 551.92 325.71C549.49 326.81 546.91 328 544.73 329.04C548.53 326.34 552.43 323.35 556.4 320.06C561.99 315.41 567.67 310.12 573.23 304.2C573.41 304.31 573.6 304.43 573.84 304.58C575.59 305.63 579.22 307.7 582.54 308.84C585.87 309.98 588.95 310.27 592.5 310.17C594.25 310.1 596.13 309.92 598.14 309.51C599.14 309.3 600.18 309.03 601.25 308.68C602.3 308.32 603.38 307.88 604.49 307.34C605.6 306.8 606.75 306.17 607.91 305.46C609.05 304.74 610.18 303.94 611.31 303.1C613.6 301.43 615.76 299.53 617.75 297.67C621.71 293.95 624.83 290.38 626.72 287.7C628.65 285.04 629.37 283.3 629.75 282.34C630.14 281.39 630.19 281.21 629.35 280.91C628.51 280.6 626.76 280.16 624.12 279.85C621.48 279.55 617.94 279.36 614.38 279.41C610.81 279.46 607.34 279.86 603.76 280.88C601.99 281.39 600.22 282.09 598.55 282.87C596.83 283.63 595.2 284.48 593.73 285.35C592.28 286.23 590.9 287.09 589.63 288.02C588.35 288.94 587.18 289.95 585.91 290.98C584.66 292.02 583.42 293.17 582.24 294.26C581.9 294.57 581.56 294.87 581.23 295.16C583.62 292.35 586.02 289.46 588.25 286.36C589.94 284.12 591.43 281.7 592.99 279.3C594.43 276.82 595.94 274.36 597.25 271.75C598.12 270.11 598.94 268.43 599.75 266.74C599.84 266.77 599.91 266.79 600.01 266.82C601.82 267.35 605.5 268.32 608.75 268.6C612.02 268.87 614.8 268.43 617.9 267.55C619.45 267.11 621.1 266.55 622.8 265.76C624.47 264.95 626.19 263.9 627.94 262.49C631.42 259.67 634.88 255.32 637.6 251.25C639.01 249.23 640.12 247.25 641.14 245.46C642.16 243.68 642.94 242.05 643.5 240.68C644.63 237.95 644.99 236.29 645.12 235.36C645.27 234.44 645.28 234.27 644.46 234.17C643.64 234.06 641.99 234.01 639.56 234.25C637.13 234.49 633.87 235 630.71 235.76C627.54 236.52 624.48 237.56 621.49 239.2C620.01 240.02 618.58 241 617.24 242.04C615.87 243.07 614.58 244.17 613.45 245.25C611.22 247.44 609.37 249.51 607.7 251.97C606.24 253.92 604.87 256.09 603.71 257.89C606.32 251.65 608.73 245.24 611.21 238.8C612.8 235.1 614.11 231.27 615.25 227.38C616.98 227.49 620.48 227.63 623.45 227.23C626.41 226.82 628.88 225.9 631.48 224.51C634.06 223.11 636.95 221.27 639.5 218.09C640.77 216.5 642.03 214.59 643.13 212.56C644.21 210.52 645.21 208.36 646.08 206.31C647.72 202.19 648.93 198.48 649.42 195.84C649.96 193.21 649.97 191.66 649.92 190.82C649.89 189.97 649.87 189.82 649.11 189.88L649.17 189.85Z" fill="white" fill-opacity="0.5"/>
<path d="M3.86995 206.28C4.73995 208.33 5.73995 210.49 6.81995 212.53C7.91995 214.57 9.17995 216.48 10.45 218.06C13 221.24 15.89 223.08 18.47 224.48C21.08 225.87 23.55 226.79 26.5 227.2C29.47 227.6 32.97 227.46 34.7 227.35C35.83 231.25 37.14 235.08 38.74 238.77C41.22 245.21 43.63 251.62 46.24 257.86C45.08 256.07 43.71 253.89 42.25 251.94C40.57 249.49 38.73 247.41 36.5 245.22C35.37 244.14 34.08 243.04 32.71 242.01C31.37 240.96 29.94 239.99 28.46 239.17C25.47 237.53 22.41 236.49 19.24 235.73C16.08 234.97 12.82 234.46 10.39 234.22C7.95995 233.98 6.30995 234.03 5.48995 234.14C4.66995 234.24 4.67995 234.41 4.82995 235.33C4.95995 236.25 5.31995 237.91 6.44995 240.65C7.00995 242.02 7.78995 243.64 8.80995 245.43C9.81995 247.21 10.94 249.2 12.35 251.22C15.07 255.3 18.53 259.64 22.01 262.46C23.76 263.87 25.49 264.92 27.15 265.73C28.84 266.53 30.49 267.08 32.05 267.52C35.15 268.41 37.93 268.85 41.2 268.57C44.45 268.3 48.13 267.32 49.94 266.79C50.04 266.76 50.11 266.74 50.2 266.71C51.01 268.4 51.83 270.08 52.7 271.72C54.01 274.32 55.52 276.79 56.96 279.27C58.51 281.67 60 284.09 61.7 286.33C63.93 289.43 66.33 292.32 68.72 295.13C68.39 294.83 68.06 294.53 67.71 294.23C66.53 293.14 65.29 292 64.04 290.95C62.78 289.92 61.6 288.91 60.32 287.99C59.05 287.06 57.67 286.21 56.22 285.32C54.75 284.45 53.12 283.6 51.4 282.84C49.72 282.06 47.96 281.37 46.19 280.85C42.61 279.83 39.14 279.44 35.57 279.38C32 279.32 28.47 279.52 25.83 279.82C23.19 280.13 21.44 280.56 20.6 280.88C19.75 281.18 19.81 281.36 20.2 282.31C20.58 283.26 21.3 285.01 23.23 287.67C25.12 290.35 28.24 293.92 32.2 297.64C34.18 299.5 36.35 301.4 38.64 303.07C39.77 303.91 40.91 304.71 42.04 305.43C43.2 306.14 44.34 306.77 45.46 307.31C46.57 307.85 47.65 308.29 48.7 308.65C49.77 309 50.81 309.27 51.81 309.48C53.82 309.9 55.7 310.07 57.45 310.14C61.01 310.25 64.08 309.96 67.41 308.81C70.73 307.67 74.36 305.6 76.11 304.55C76.35 304.41 76.55 304.28 76.72 304.17C82.28 310.09 87.96 315.38 93.55 320.03C97.52 323.32 101.42 326.31 105.22 329.01C103.04 327.97 100.46 326.77 98.03 325.68C97.22 325.33 96.41 324.99 95.61 324.68C94.82 324.35 94.03 324.03 93.22 323.74C91.61 323.15 89.9 322.68 88.11 322.19C86.31 321.71 84.33 321.32 82.31 321C80.31 320.67 78.25 320.45 76.22 320.42C72.19 320.32 68.37 320.91 64.58 321.83C60.84 322.71 57.15 323.87 54.42 324.91C51.7 325.95 49.98 326.88 49.18 327.44C48.37 327.99 48.48 328.16 49.18 329.08C49.9 329.98 51.16 331.68 54.02 334.02C55.46 335.18 57.24 336.53 59.38 337.93C61.55 339.29 63.94 340.81 66.67 342.2C68.03 342.9 69.43 343.61 70.86 344.28C72.3 344.95 73.8 345.55 75.27 346.12C78.19 347.28 81.21 348.1 83.91 348.58C86.6 349.07 89.13 349.06 91.36 348.9C93.6 348.74 95.66 348.3 97.54 347.79C101.29 346.79 104.39 345.51 107.49 343.17C110.57 340.85 113.58 337.53 115.02 335.85C115.09 335.77 115.14 335.7 115.21 335.63C116.45 336.39 117.69 337.11 118.9 337.8C119.67 338.24 120.44 338.67 121.18 339.1C121.94 339.5 122.69 339.89 123.42 340.27C126.34 341.83 129.13 343.04 131.63 344.19C136.69 346.33 140.8 347.74 143.63 348.58C146.47 349.4 147.99 349.8 147.99 349.8C151.11 350.49 154.03 349.21 154.54 346.89C155.06 344.53 153.1 342.02 150.15 341.31C150.15 341.31 148.73 340.92 146.07 340.19C143.41 339.46 139.53 338.28 134.63 336.6C132.21 335.68 129.5 334.73 126.64 333.46C125.92 333.16 125.18 332.85 124.43 332.53C123.69 332.19 122.94 331.84 122.17 331.48C120.64 330.76 119.04 330.04 117.44 329.17C111.27 326.01 104.57 321.91 97.85 316.66C97.93 316.51 98.01 316.36 98.11 316.17C99.1 314.28 101.04 310.47 102.29 307.1C103.56 303.7 104.1 300.72 104.49 297.45C104.69 295.8 104.89 294.04 104.93 292.24C104.95 291.34 104.93 290.42 104.87 289.48C104.82 288.53 104.73 287.55 104.58 286.57C104.43 285.59 104.21 284.59 103.95 283.6C103.72 282.58 103.44 281.55 103.13 280.55C102.49 278.57 101.85 276.53 101.16 274.73C100.49 272.91 99.9 271.2 99.27 269.76C98.68 268.29 98.15 267.01 97.62 266.02C96.59 264.04 95.77 263.05 95.27 262.55C94.79 262.04 94.68 261.96 93.97 262.55C93.25 263.14 91.91 264.4 90.19 266.46C88.47 268.52 86.37 271.4 84.64 274.45C82.94 277.48 81.56 280.72 81 284.24C80.74 285.98 80.68 287.81 80.76 289.61C80.84 291.42 81.16 293.14 81.52 294.78C81.88 296.43 82.39 297.91 83 299.33C83.62 300.75 84.28 302.17 85.14 303.53C85.99 304.9 86.92 306.33 87.87 307.63C88.28 308.17 88.69 308.69 89.09 309.2C84.72 305.08 80.44 300.47 76.27 295.49C73.02 291.48 69.95 287.15 66.99 282.62C66.93 282.53 66.87 282.44 66.81 282.35C68.23 280.88 70.75 278.16 72.63 275.6C74.61 272.9 75.83 270.37 76.98 267.52C77.54 266.1 78.15 264.55 78.61 262.92C79.1 261.28 79.4 259.58 79.6 257.68C79.94 253.92 79.54 249.64 79.16 245.93C78.74 242.24 78.33 239.1 77.79 237.02C77.32 234.91 76.73 233.84 76.39 233.25C76.05 232.66 75.98 232.56 75.21 232.94C74.44 233.32 72.97 234.17 71 235.65C69.03 237.14 66.55 239.28 64.34 241.67C62.1 244.07 60.24 246.65 58.95 249.71C58.29 251.24 57.85 252.86 57.55 254.5C57.25 256.13 57.06 257.79 57.03 259.34C57.01 262.42 57.38 265.17 58.23 268.03C58.4 268.67 58.6 269.32 58.82 269.97C58.56 269.54 58.29 269.13 58.03 268.69C53.55 261.4 49.26 253.6 45.98 245.26C46.11 245.18 46.24 245.1 46.4 245C47.92 244.03 50.95 242.03 53.31 240.03C55.65 238.02 57.28 236 58.9 233.66C60.55 231.3 62.23 228.6 63.26 225.24C63.81 223.55 64.19 221.7 64.46 219.84C64.79 217.96 65.01 216.08 65.15 214.34C65.55 210.83 65.67 207.88 65.64 205.84C65.57 203.81 65.23 202.7 65.06 202.08C64.88 201.47 64.83 201.36 64.07 201.56C63.3 201.76 61.81 202.26 59.74 203.24C57.65 204.23 55.03 205.71 52.61 207.45C50.19 209.19 47.9 211.2 46.2 213.71C44.51 216.21 43.23 219.27 42.61 222.04C42.28 223.44 42.06 224.77 41.94 226.1C41.86 227.42 41.86 228.74 41.94 230.13C41.97 231.15 42.07 232.19 42.2 233.22C41.07 228.78 39.96 224.33 38.86 219.86C37.85 215.57 36.92 211.24 36.11 206.89C37.75 206.27 40.64 205.11 42.98 203.82C45.47 202.44 47.25 200.92 49.2 199.08C51.16 197.23 53.09 195.09 54.68 192.2C55.48 190.75 56.14 189.13 56.73 187.47C57.36 185.81 57.89 184.12 58.33 182.54C58.78 180.96 59.23 179.5 59.53 178.19C59.83 176.89 60.07 175.74 60.24 174.79C60.55 172.9 60.43 171.82 60.36 171.22C60.29 170.62 60.26 170.52 59.53 170.57C58.8 170.62 57.37 170.82 55.34 171.37C53.31 171.92 50.67 172.82 48.16 173.99C45.64 175.16 43.25 176.6 41.28 178.58C39.29 180.56 37.62 183.11 36.56 185.52C36.01 186.73 35.58 187.9 35.23 189.09C34.91 190.27 34.69 191.47 34.5 192.74C34.38 193.46 34.3 194.21 34.23 194.95C33.16 186.92 32.44 178.83 32.46 170.79C32.61 170.77 32.79 170.74 33 170.7C34.51 170.43 37.54 169.85 40.04 169.02C42.53 168.19 44.46 167.11 46.49 165.75C48.5 164.39 50.73 162.76 52.6 160.36C53.07 159.76 53.51 159.11 53.95 158.44C54.4 157.77 54.84 157.06 55.25 156.35C56.09 154.92 56.78 153.44 57.49 152.07C58.89 149.32 59.86 146.92 60.47 145.23C61.05 143.53 61.1 142.51 61.13 141.95C61.15 141.39 61.16 141.29 60.48 141.22C59.8 141.15 58.48 141.12 56.55 141.31C54.62 141.5 52.08 141.93 49.62 142.61C47.18 143.3 44.73 144.23 42.64 145.73C40.54 147.23 38.61 149.29 37.24 151.3C35.89 153.32 34.94 155.28 34.2 157.52C33.56 159.56 32.98 161.82 32.64 163.59C32.76 161.5 32.99 159.42 33.26 157.36C33.46 155.89 33.74 154.44 33.96 152.99C34.18 151.54 34.39 150.09 34.61 148.65C35.04 145.77 35.35 142.88 35.81 140.04C35.92 139.11 36.07 138.18 36.2 137.25C36.25 137.25 36.3 137.25 36.36 137.25C37.77 137.24 40.62 137.17 43.02 136.81C45.41 136.43 47.33 135.74 49.39 134.8C50.42 134.33 51.48 133.8 52.55 133.15C53.64 132.5 54.73 131.73 55.77 130.77C57.81 128.83 59.84 126.19 61.46 123.83C63.09 121.47 64.45 119.42 65.16 117.91C65.91 116.41 66.17 115.49 66.27 114.97C66.39 114.46 66.39 114.36 65.79 114.21C65.19 114.06 63.98 113.85 62.18 113.76C60.38 113.67 57.99 113.71 55.64 114C53.32 114.3 51.03 114.84 48.87 115.91C47.79 116.45 46.74 117.11 45.76 117.85C44.81 118.6 43.93 119.41 43.15 120.23C41.6 121.88 40.43 123.52 39.46 125.46C38.7 126.96 37.95 128.6 37.39 130.02C38.8 122.01 41.09 114.38 43.75 107.19C43.91 107.22 44.09 107.25 44.34 107.28C45.63 107.47 48.25 107.8 50.47 107.78C52.69 107.76 54.52 107.37 56.53 106.78C58.57 106.2 60.77 105.42 62.92 103.9C65.04 102.38 67.3 100.21 69.05 98.21C70.88 96.24 72.36 94.49 73.23 93.18C74.09 91.87 74.46 91.06 74.62 90.59C74.79 90.13 74.81 90.04 74.28 89.83C73.75 89.62 72.66 89.28 71.03 88.99C69.4 88.7 67.19 88.45 65.02 88.43C62.86 88.43 60.7 88.64 58.59 89.36C56.48 90.07 54.41 91.29 52.81 92.6C51.19 93.91 49.93 95.27 48.75 96.9C47.8 98.25 46.88 99.76 46.16 101.04C46.28 100.75 46.4 100.44 46.52 100.15C47.02 98.95 47.52 97.75 48.02 96.57C48.53 95.39 49.08 94.24 49.6 93.08C50.12 91.93 50.64 90.78 51.15 89.64C51.69 88.52 52.23 87.4 52.76 86.29C53.29 85.18 53.81 84.08 54.33 83C54.69 82.28 55.05 81.58 55.41 80.87C55.45 80.88 55.49 80.89 55.54 80.91C56.7 81.24 59.05 81.86 61.08 82.11C63.12 82.35 64.85 82.22 66.75 81.91C68.63 81.59 70.8 81.14 72.96 79.99C74.04 79.42 75.14 78.67 76.19 77.86C77.28 77.07 78.33 76.22 79.27 75.4C80.22 74.58 81.07 73.8 81.8 73.07C82.56 72.36 83.2 71.72 83.68 71.17C84.66 70.07 85.03 69.31 85.24 68.9C85.44 68.48 85.47 68.41 85.01 68.16C84.55 67.91 83.59 67.5 82.13 67.06C80.66 66.63 78.69 66.18 76.69 65.94C74.69 65.7 72.67 65.67 70.64 66.09C68.65 66.53 66.66 67.45 65.01 68.45C64.18 68.95 63.44 69.48 62.75 70.05C62.08 70.63 61.45 71.26 60.82 71.94C60.18 72.64 59.53 73.39 58.94 74.13C59.03 73.97 59.12 73.8 59.21 73.64C62.28 67.91 65.4 62.66 68.47 57.89C68.56 57.93 68.66 57.97 68.78 58.02C69.8 58.44 71.88 59.25 73.72 59.68C75.54 60.1 77.17 60.17 78.97 60.09C80.77 60.01 82.76 59.77 84.86 58.91C86.93 58.03 89.27 56.62 91.15 55.26C93.03 53.89 94.64 52.69 95.64 51.74C96.65 50.8 97.07 50.14 97.29 49.77C97.52 49.4 97.55 49.33 97.15 49.07C96.75 48.8 95.9 48.34 94.6 47.81C93.29 47.29 91.52 46.71 89.7 46.31C87.89 45.92 86.03 45.71 84.13 45.91C82.22 46.11 80.34 46.79 78.73 47.55C77.13 48.33 75.81 49.21 74.52 50.33C73.46 51.28 72.39 52.36 71.53 53.28C71.73 52.98 71.94 52.68 72.14 52.38C74.19 49.29 76.32 46.54 78.22 43.95C79.83 41.82 81.4 39.91 82.85 38.14C82.94 38.19 83.04 38.24 83.16 38.31C84.06 38.79 85.9 39.72 87.54 40.28C89.18 40.83 90.66 41.03 92.32 41.1C93.99 41.18 95.84 41.13 97.85 40.51C99.84 39.87 102.08 38.73 103.97 37.63C105.87 36.54 107.37 35.47 108.4 34.7C109.42 33.91 109.87 33.33 110.11 33.01C110.36 32.69 110.39 32.63 110.04 32.35C109.69 32.07 108.95 31.58 107.78 31C106.61 30.42 105.02 29.75 103.38 29.24C101.73 28.73 100.04 28.39 98.3 28.46C96.56 28.52 94.74 28.96 93.19 29.54C91.65 30.12 90.36 30.81 89.1 31.75C88.23 32.38 87.35 33.1 86.58 33.77C88.76 31.31 90.6 29.33 92.04 27.91C94.05 25.88 95.15 24.83 95.15 24.83C95.24 24.75 95.33 24.65 95.4 24.55C96.48 24.61 98.35 24.73 99.96 24.64C101.73 24.55 103.2 24.23 104.81 23.75C106.41 23.25 108.19 22.64 109.98 21.52C111.77 20.4 113.52 18.71 115.05 17.25C116.57 15.78 117.78 14.45 118.51 13.48C119.24 12.51 119.5 11.89 119.64 11.55C119.78 11.21 119.8 11.14 119.37 11.04C118.95 10.93 118.09 10.78 116.78 10.71C115.47 10.63 113.72 10.63 111.97 10.77C110.23 10.92 108.44 11.18 106.77 11.83C105.09 12.47 103.46 13.43 102.14 14.39C100.82 15.35 99.8 16.32 98.87 17.49C97.92 18.64 97 19.96 96.36 20.91C96.05 21.38 95.81 21.76 95.61 22.08C95.56 22.03 95.51 21.97 95.45 21.93C94.75 21.4 93.57 21.65 92.82 22.52C93.15 21.99 93.49 21.46 93.81 20.93C94.6 19.61 95.21 18.35 95.7 16.81C96.19 15.28 96.53 13.44 96.58 11.73C96.62 10.02 96.32 8.37 95.86 6.77C95.4 5.17 94.8 3.6 94.27 2.45C93.74 1.3 93.29 0.570002 93.03 0.230002C92.77 -0.109998 92.7 -0.0699981 92.36 0.200002C92.01 0.470002 91.39 0.970002 90.52 2.05C89.65 3.14 88.51 4.79 87.4 6.86C86.28 8.91 85.13 11.31 84.59 13.42C84.08 15.56 84.19 17.42 84.41 19.05C84.63 20.67 84.98 22.08 85.73 23.58C86.48 25.08 87.63 26.69 88.22 27.47C88.31 27.59 88.38 27.68 88.44 27.76C86.73 29.82 84.58 32.48 81.97 35.64C80.32 37.76 78.41 40.05 76.45 42.62C76.02 43.2 75.57 43.79 75.11 44.39C75.41 43.92 75.79 43.31 76.3 42.41C76.93 41.25 77.87 39.71 78.58 38.19C79.3 36.68 79.84 35.25 80.21 33.52C80.61 31.82 80.88 29.85 80.76 27.98C80.65 26.11 80.17 24.34 79.53 22.63C78.89 20.92 78.11 19.27 77.45 18.08C76.79 16.88 76.24 16.13 75.93 15.79C75.62 15.44 75.55 15.49 75.19 15.81C74.83 16.13 74.18 16.71 73.34 18C72.49 19.27 71.43 21.21 70.35 23.52C69.27 25.83 68.29 28.59 67.9 30.94C67.71 32.12 67.68 33.2 67.74 34.21C67.82 35.23 67.99 36.17 68.19 37.04C68.59 38.78 69.1 40.28 70.05 41.83C71.01 43.39 72.41 45.01 73.12 45.8C73.35 46.05 73.5 46.21 73.61 46.32C72.48 47.81 71.31 49.37 70.16 51.03C67.41 54.78 64.56 58.92 61.7 63.44C61.74 63.35 61.77 63.28 61.81 63.19C62.1 62.54 62.43 61.76 62.77 60.92C63.13 60.1 63.49 59.22 63.8 58.37C64.42 56.67 64.85 55.06 65.08 53.15C65.34 51.28 65.42 49.11 65.11 47.09C64.8 45.07 64.1 43.2 63.25 41.42C62.41 39.65 61.42 37.95 60.59 36.71C59.76 35.48 59.09 34.72 58.72 34.37C58.35 34.02 58.28 34.08 57.93 34.47C57.58 34.86 56.91 35.56 56.11 37.03C55.32 38.51 54.35 40.74 53.41 43.37C52.47 45.99 51.69 49.11 51.5 51.7C51.31 54.28 51.87 56.45 52.47 58.29C53.09 60.13 53.8 61.68 55 63.26C56.21 64.83 57.9 66.42 58.76 67.19C58.92 67.34 59.05 67.45 59.16 67.54C58.25 69.04 57.35 70.56 56.45 72.13C55.28 74.12 54.18 76.21 53.06 78.33C52.5 79.39 51.94 80.47 51.37 81.55C50.84 82.65 50.31 83.77 49.77 84.89C49.46 85.55 49.15 86.22 48.83 86.88C49.29 85.46 49.83 83.64 50.21 81.89C50.63 79.96 50.96 78.2 50.98 76.12C51.01 74.05 50.79 71.68 50.26 69.55C49.7 67.41 48.75 65.48 47.62 63.65C46.5 61.82 45.2 60.07 44.18 58.83C43.15 57.59 42.35 56.85 41.91 56.52C41.48 56.18 41.4 56.26 41.06 56.72C40.7 57.17 40.11 58.05 39.4 59.75C38.71 61.46 37.83 63.96 37.19 66.97C36.55 69.99 35.92 73.39 36.12 76.27C36.28 79.13 37.09 81.37 37.96 83.28C38.87 85.2 39.85 86.79 41.36 88.33C42.87 89.87 44.92 91.36 45.94 92.08C46.14 92.22 46.28 92.32 46.41 92.4C45.99 93.4 45.56 94.4 45.17 95.42C44.71 96.64 44.25 97.87 43.78 99.11C41.41 105.44 39.26 112.09 37.21 118.97C37.23 118.86 37.25 118.74 37.28 118.62C37.44 117.85 37.64 116.84 37.91 115.19C38.22 113.55 38.58 111.25 38.76 109.11C38.95 106.97 39.04 105.03 38.76 102.78C38.47 100.53 37.99 98.03 37.09 95.79C36.19 93.55 34.88 91.59 33.43 89.76C32 87.94 30.41 86.24 29.13 85.03C27.85 83.83 26.89 83.13 26.37 82.83C25.86 82.52 25.79 82.62 25.48 83.17C25.18 83.73 24.59 84.74 24.04 86.68C23.52 88.64 22.97 91.51 22.63 94.86C22.49 96.54 22.38 98.34 22.38 100.1C22.38 100.98 22.4 101.85 22.46 102.69C22.54 103.54 22.65 104.35 22.79 105.12C23.38 108.2 24.54 110.5 25.8 112.43C27.06 114.36 28.35 115.93 30.2 117.36C32.05 118.79 34.47 120.08 35.68 120.69C36.12 120.91 36.39 121.04 36.57 121.12C35.64 124.32 34.72 127.56 33.82 130.84C33.09 133.64 32.35 136.46 31.76 139.34C31.39 141 31.08 142.67 30.8 144.36C30.78 143.01 30.74 141.53 30.69 140.13C30.58 137.81 30.23 135.68 29.65 133.32C29.06 130.97 28.01 128.32 26.74 126.06C25.44 123.8 23.76 121.89 21.91 120.13C20.06 118.38 18.09 116.78 16.54 115.67C14.99 114.57 13.85 113.96 13.25 113.71C12.65 113.46 12.6 113.57 12.34 114.22C12.08 114.87 11.62 116.06 11.35 118.28C11.08 120.49 10.87 123.69 11.1 127.39C11.23 131.08 11.79 135.25 12.88 138.48C13.98 141.71 15.71 144.01 17.35 145.88C18.98 147.75 20.63 149.21 22.88 150.44C25.12 151.66 27.94 152.63 29.34 153.08C29.51 153.13 29.66 153.18 29.79 153.22C29.71 154.5 29.63 155.77 29.6 157.06C29.56 160.08 29.31 163.08 29.16 166.11C28.88 171.12 28.71 176.19 28.7 181.28C28.41 179.4 27.91 177 27.44 174.79C26.91 172.33 26.14 170.11 25.1 167.68C24.03 165.26 22.46 162.61 20.7 160.4C18.9 158.19 16.75 156.43 14.47 154.86C12.23 153.3 9.83995 151.91 7.97995 150.98C6.11995 150.06 4.79995 149.59 4.10995 149.43C3.42995 149.26 3.37995 149.39 3.22995 150.14C3.08995 150.89 2.76995 152.27 2.84995 154.72C2.88995 155.94 3.01995 157.43 3.22995 159.11C3.33995 159.95 3.44995 160.84 3.60995 161.76C3.77995 162.69 3.96995 163.65 4.18995 164.64C4.98995 168.61 6.35995 173.02 8.09995 176.3C9.91995 179.58 12.15 181.74 14.24 183.44C16.38 185.14 18.43 186.4 21.03 187.29C23.64 188.17 26.83 188.67 28.41 188.88C28.56 188.9 28.68 188.91 28.8 188.93C28.96 193.59 29.29 198.26 29.83 202.91C30.35 206.93 30.96 210.94 31.71 214.93C31.37 214.1 31.03 213.26 30.68 212.45C29.54 209.94 28.4 207.7 26.75 205.33C25.04 202.97 23.02 200.42 20.61 198.41C18.21 196.4 15.66 194.91 12.92 193.67C10.2 192.42 7.33995 191.39 5.19995 190.75C3.04995 190.11 1.54995 189.86 0.779953 189.82C0.019953 189.77 -4.70318e-05 189.92 -0.030047 190.76C-0.080047 191.6 -0.060047 193.15 0.469953 195.78C0.969953 198.41 2.16995 202.12 3.80995 206.25L3.86995 206.28Z" fill="white" fill-opacity="0.5"/>
<path d="M195.95 264.74C196.5 263.61 196.78 262.47 196.78 261.32C196.78 260.64 196.64 259.92 196.36 259.18C196.08 258.44 195.66 257.73 195.08 257.08C194.5 256.43 193.77 255.9 192.87 255.48C191.97 255.06 190.91 254.86 189.67 254.86C188.13 254.86 186.82 255.2 185.72 255.87C184.62 256.54 183.78 257.48 183.21 258.69C182.64 259.9 182.35 261.3 182.35 262.9H185.07C185.07 261.77 185.25 260.79 185.61 259.97C185.97 259.15 186.5 258.52 187.19 258.08C187.88 257.64 188.71 257.42 189.67 257.42C190.35 257.42 190.96 257.54 191.49 257.77C192.02 258.01 192.48 258.31 192.85 258.7C193.22 259.08 193.51 259.51 193.7 259.98C193.89 260.45 193.99 260.93 193.99 261.42C193.99 262.02 193.9 262.59 193.72 263.13C193.54 263.67 193.27 264.21 192.92 264.73C192.57 265.25 192.15 265.78 191.66 266.31L181.07 277.61H196.88V275.05H186.67L193.8 267.79C194.68 266.89 195.39 265.88 195.94 264.75L195.95 264.74Z" fill="white"/>
<path d="M212.57 256.38C211.32 255.39 209.88 254.89 208.23 254.89C206.58 254.89 205.14 255.39 203.89 256.38C202.64 257.37 201.67 258.73 200.96 260.46C200.26 262.19 199.91 264.17 199.91 266.41C199.91 268.65 200.26 270.63 200.96 272.36C201.67 274.09 202.64 275.45 203.89 276.44C205.14 277.43 206.58 277.93 208.23 277.93C209.88 277.93 211.32 277.43 212.57 276.44C213.82 275.45 214.79 274.09 215.5 272.36C216.2 270.63 216.55 268.65 216.55 266.41C216.55 264.17 216.2 262.19 215.5 260.46C214.79 258.73 213.82 257.37 212.57 256.38ZM213.45 270.01C213.19 271.11 212.82 272.06 212.33 272.86C211.84 273.66 211.25 274.28 210.57 274.72C209.89 275.16 209.11 275.38 208.23 275.38C207.35 275.38 206.6 275.16 205.91 274.72C205.22 274.28 204.62 273.66 204.13 272.86C203.64 272.06 203.27 271.11 203.01 270.01C202.75 268.91 202.63 267.71 202.63 266.41C202.63 265.11 202.76 263.91 203.01 262.81C203.26 261.71 203.64 260.76 204.13 259.96C204.62 259.16 205.21 258.54 205.91 258.1C206.6 257.66 207.37 257.44 208.23 257.44C209.09 257.44 209.88 257.66 210.57 258.1C211.25 258.54 211.84 259.16 212.33 259.96C212.82 260.76 213.19 261.71 213.45 262.81C213.71 263.91 213.83 265.11 213.83 266.41C213.83 267.71 213.7 268.91 213.45 270.01Z" fill="white"/>
<path d="M230.33 264.73C229.98 265.25 229.56 265.78 229.07 266.31L218.48 277.61H234.29V275.05H224.08L231.22 267.79C232.1 266.89 232.81 265.88 233.36 264.75C233.91 263.62 234.19 262.48 234.19 261.33C234.19 260.65 234.05 259.93 233.77 259.19C233.49 258.45 233.07 257.74 232.49 257.09C231.91 256.44 231.18 255.91 230.28 255.49C229.38 255.07 228.32 254.87 227.08 254.87C225.54 254.87 224.23 255.21 223.13 255.88C222.03 256.55 221.19 257.49 220.62 258.7C220.05 259.91 219.75 261.31 219.75 262.91H222.47C222.47 261.78 222.65 260.8 223.01 259.98C223.37 259.16 223.9 258.53 224.59 258.09C225.28 257.65 226.11 257.43 227.07 257.43C227.75 257.43 228.36 257.55 228.89 257.78C229.42 258.02 229.88 258.32 230.25 258.71C230.62 259.09 230.91 259.52 231.1 259.99C231.29 260.46 231.39 260.94 231.39 261.43C231.39 262.03 231.3 262.6 231.12 263.14C230.94 263.68 230.67 264.22 230.32 264.74L230.33 264.73Z" fill="white"/>
<path d="M248.54 264.73C248.19 265.25 247.77 265.78 247.28 266.31L236.69 277.61H252.5V275.05H242.29L249.43 267.79C250.31 266.89 251.02 265.88 251.57 264.75C252.12 263.62 252.4 262.48 252.4 261.33C252.4 260.65 252.26 259.93 251.98 259.19C251.7 258.45 251.28 257.74 250.7 257.09C250.12 256.44 249.39 255.91 248.49 255.49C247.59 255.07 246.53 254.87 245.29 254.87C243.75 254.87 242.44 255.21 241.34 255.88C240.24 256.55 239.4 257.49 238.83 258.7C238.26 259.91 237.96 261.31 237.96 262.91H240.68C240.68 261.78 240.86 260.8 241.22 259.98C241.58 259.16 242.11 258.53 242.8 258.09C243.49 257.65 244.32 257.43 245.28 257.43C245.96 257.43 246.57 257.55 247.1 257.78C247.63 258.02 248.09 258.32 248.46 258.71C248.83 259.09 249.12 259.52 249.31 259.99C249.5 260.46 249.6 260.94 249.6 261.43C249.6 262.03 249.51 262.6 249.33 263.14C249.15 263.68 248.88 264.22 248.53 264.74L248.54 264.73Z" fill="white"/>
<path d="M267.91 255.21H266.41V277.61H269.13V266.73H277.61V264.17H269.13V257.77H277.93V255.21H269.13H267.91Z" fill="white"/>
<path d="M284.01 255.05C283.54 255.05 283.13 255.22 282.78 255.56C282.43 255.9 282.25 256.32 282.25 256.81C282.25 257.3 282.43 257.69 282.78 258.04C283.13 258.39 283.54 258.57 284.01 258.57C284.48 258.57 284.92 258.39 285.26 258.04C285.6 257.69 285.77 257.28 285.77 256.81C285.77 256.34 285.6 255.9 285.26 255.56C284.92 255.22 284.5 255.05 284.01 255.05Z" fill="white"/>
<path d="M285.29 262.89H282.73V277.61H285.29V262.89Z" fill="white"/>
<path d="M290.57 262.89V277.61H293.13V268.65C293.13 267.93 293.28 267.28 293.59 266.73C293.9 266.18 294.34 265.74 294.9 265.43C295.46 265.12 296.12 264.97 296.87 264.97C297.89 264.97 298.67 265.28 299.21 265.9C299.74 266.52 300.01 267.44 300.01 268.65V277.61H302.57V268.33C302.57 266.56 302.12 265.16 301.21 264.12C300.3 263.08 299.07 262.57 297.51 262.57C296.55 262.57 295.7 262.78 294.97 263.21C294.24 263.64 293.62 264.3 293.13 265.19V262.89H290.57Z" fill="white"/>
<path d="M307.53 257.77V262.89H305.13V265.29H307.53V277.61H310.09V265.29H312.49V262.89H310.09V257.77H307.53Z" fill="white"/>
<path d="M324.79 263.48C323.75 262.87 322.51 262.57 321.06 262.57C319.61 262.57 318.34 262.89 317.24 263.53C316.14 264.17 315.29 265.07 314.68 266.22C314.07 267.37 313.77 268.72 313.77 270.25C313.77 271.78 314.06 273.1 314.65 274.25C315.24 275.4 316.06 276.3 317.11 276.95C318.16 277.6 319.38 277.93 320.74 277.93C322.32 277.93 323.69 277.61 324.85 276.99C326.01 276.36 326.98 275.43 327.74 274.19L325.66 272.88C325.12 273.78 324.47 274.44 323.71 274.88C322.95 275.32 322.06 275.54 321.05 275.54C320.04 275.54 319.19 275.33 318.49 274.9C317.78 274.47 317.25 273.86 316.89 273.04C316.61 272.42 316.45 271.71 316.38 270.9H327.96C327.96 270.9 327.96 270.76 327.98 270.6C327.99 270.44 328 270.29 328 270.14C328 268.58 327.72 267.24 327.17 266.11C326.61 264.98 325.82 264.11 324.79 263.5V263.48ZM318.55 265.43C319.24 265.01 320.08 264.81 321.06 264.81C321.89 264.81 322.62 264.99 323.24 265.35C323.86 265.71 324.35 266.21 324.7 266.85C324.99 267.39 325.16 268.01 325.21 268.71H316.5C316.6 268.16 316.75 267.66 316.96 267.22C317.33 266.44 317.87 265.84 318.56 265.43H318.55Z" fill="white"/>
<path d="M337.71 262.57C336.28 262.57 334.99 262.9 333.84 263.56C332.69 264.22 331.78 265.13 331.1 266.28C330.43 267.43 330.09 268.76 330.09 270.25C330.09 271.74 330.43 273.04 331.1 274.2C331.77 275.36 332.68 276.28 333.84 276.94C335 277.6 336.28 277.93 337.71 277.93C338.71 277.93 339.69 277.76 340.64 277.43C341.59 277.1 342.32 276.64 342.83 276.04V272.84C342.62 273.31 342.25 273.75 341.74 274.17C341.23 274.59 340.62 274.92 339.93 275.16C339.24 275.41 338.5 275.53 337.71 275.53C336.75 275.53 335.89 275.3 335.13 274.84C334.37 274.38 333.77 273.76 333.34 272.97C332.91 272.18 332.68 271.27 332.68 270.25C332.68 269.23 332.9 268.31 333.34 267.51C333.78 266.71 334.38 266.09 335.13 265.64C335.89 265.19 336.75 264.97 337.71 264.97C338.5 264.97 339.24 265.09 339.93 265.34C340.62 265.59 341.23 265.91 341.74 266.32C342.25 266.73 342.62 267.17 342.83 267.66V264.46C342.32 263.86 341.59 263.4 340.64 263.07C339.69 262.74 338.71 262.57 337.71 262.57Z" fill="white"/>
<path d="M346.82 252.65V277.61H349.38V268.65C349.38 267.95 349.53 267.32 349.84 266.76C350.15 266.21 350.59 265.77 351.15 265.45C351.71 265.13 352.37 264.97 353.12 264.97C354.16 264.97 354.95 265.28 355.47 265.9C355.99 266.52 356.25 267.44 356.25 268.65V277.61H358.81V268.33C358.81 267.05 358.6 265.98 358.19 265.13C357.78 264.28 357.19 263.64 356.43 263.21C355.67 262.78 354.78 262.57 353.76 262.57C352.74 262.57 351.84 262.84 351.06 263.37C350.37 263.85 349.81 264.48 349.38 265.25V252.65H346.82Z" fill="white"/>
<path d="M370.98 277.61H374.02L376.86 270.89H385.88L388.74 277.61H391.78L381.38 254.09L370.98 277.61ZM384.82 268.33H377.96L381.38 260.27L384.81 268.33H384.82Z" fill="white"/>
<path d="M396.9 278.73L401.1 268.01L405.54 278.73L411.94 262.89H409.06L405.35 272.52L401.06 261.77L397.06 272.46L393.38 262.89H390.5L396.9 278.73Z" fill="white"/>
<path d="M421.5 268.82C420.79 268.58 419.89 268.45 418.83 268.45C417.02 268.45 415.6 268.88 414.59 269.75C413.58 270.61 413.07 271.76 413.07 273.19C413.07 274.19 413.3 275.05 413.77 275.75C414.24 276.45 414.86 276.99 415.64 277.37C416.42 277.74 417.26 277.93 418.15 277.93C418.96 277.93 419.78 277.78 420.6 277.48C421.42 277.18 422.12 276.72 422.68 276.1C422.81 275.96 422.92 275.81 423.02 275.65V277.6H425.58V267.04C425.58 266.08 425.34 265.27 424.86 264.61C424.38 263.95 423.71 263.44 422.84 263.09C421.97 262.74 420.97 262.56 419.82 262.56C418.45 262.56 417.29 262.76 416.32 263.17C415.35 263.58 414.59 263.98 414.03 264.39L415.28 266.28C415.51 266.11 415.83 265.91 416.24 265.67C416.64 265.44 417.14 265.23 417.73 265.06C418.32 264.89 418.97 264.8 419.7 264.8C420.15 264.8 420.58 264.84 420.98 264.93C421.38 265.02 421.74 265.15 422.05 265.35C422.36 265.54 422.6 265.8 422.77 266.13C422.94 266.46 423.03 266.88 423.03 267.39V269.53C422.63 269.27 422.13 269.03 421.51 268.81L421.5 268.82ZM422.46 273.88C422.09 274.47 421.58 274.92 420.96 275.24C420.33 275.56 419.62 275.72 418.83 275.72C418.21 275.72 417.66 275.62 417.18 275.42C416.7 275.22 416.33 274.91 416.06 274.51C415.79 274.1 415.66 273.63 415.66 273.07C415.66 272.51 415.79 272.08 416.04 271.69C416.3 271.31 416.69 271.01 417.21 270.79C417.73 270.58 418.41 270.47 419.24 270.47C420.14 270.47 420.98 270.58 421.77 270.81C422.19 270.93 422.61 271.1 423.02 271.3V271.85C423.02 272.62 422.83 273.3 422.46 273.88Z" fill="white"/>
<path d="M429.89 262.89V277.61H432.45V268.65C432.45 267.95 432.52 267.32 432.66 266.76C432.8 266.2 433.05 265.77 433.41 265.45C433.77 265.13 434.28 264.97 434.91 264.97C435.34 264.97 435.69 265.03 435.97 265.15C436.25 265.27 436.56 265.45 436.9 265.71L438.31 263.6C437.93 263.19 437.51 262.92 437.05 262.78C436.59 262.64 436.09 262.57 435.56 262.57C434.88 262.57 434.2 262.84 433.54 263.37C433.13 263.7 432.77 264.12 432.45 264.59V262.89H429.89Z" fill="white"/>
<path d="M440.58 266.14C439.92 267.28 439.59 268.65 439.59 270.25C439.59 271.85 439.92 273.19 440.58 274.35C441.24 275.5 442.12 276.39 443.23 277.01C444.34 277.63 445.56 277.94 446.88 277.94C448.12 277.94 449.19 277.63 450.11 277.01C450.83 276.52 451.43 275.87 451.9 275.05V277.62H454.46V252.66H451.9V265.46C451.42 264.65 450.83 264 450.11 263.51C449.19 262.89 448.12 262.58 446.88 262.58C445.56 262.58 444.34 262.89 443.23 263.51C442.12 264.13 441.24 265.01 440.58 266.15V266.14ZM444.71 265.58C445.48 265.18 446.31 264.97 447.21 264.97C447.96 264.97 448.69 265.17 449.42 265.58C450.14 265.99 450.74 266.58 451.21 267.37C451.68 268.16 451.92 269.12 451.92 270.25C451.92 271.38 451.68 272.34 451.21 273.13C450.74 273.92 450.14 274.52 449.42 274.92C448.69 275.33 447.96 275.53 447.21 275.53C446.31 275.53 445.48 275.33 444.71 274.92C443.94 274.51 443.33 273.92 442.87 273.13C442.41 272.34 442.18 271.38 442.18 270.25C442.18 269.12 442.41 268.16 442.87 267.37C443.33 266.58 443.94 265.98 444.71 265.58Z" fill="white"/>
<path d="M461.51 265.19C461.89 264.96 462.35 264.84 462.89 264.84C463.66 264.84 464.35 265.02 464.95 265.38C465.56 265.74 466.06 266.2 466.47 266.76L468.52 265.45C468.22 264.9 467.81 264.41 467.27 263.98C466.73 263.55 466.12 263.21 465.43 262.96C464.74 262.7 464 262.58 463.21 262.58C462.42 262.58 461.66 262.72 460.92 263C460.18 263.28 459.59 263.7 459.13 264.28C458.67 264.86 458.44 265.58 458.44 266.46C458.44 267.34 458.66 268.02 459.1 268.59C459.54 269.16 460.08 269.61 460.73 269.97C461.38 270.32 462.02 270.63 462.67 270.88C463.25 271.09 463.79 271.32 464.3 271.57C464.81 271.82 465.23 272.11 465.56 272.47C465.89 272.82 466.06 273.25 466.06 273.77C466.06 274.35 465.85 274.8 465.44 275.13C465.02 275.46 464.45 275.63 463.73 275.63C463.13 275.63 462.58 275.52 462.08 275.29C461.58 275.07 461.14 274.76 460.75 274.38C460.37 274 460.03 273.58 459.73 273.13L457.71 274.38C457.99 274.96 458.4 275.52 458.94 276.08C459.48 276.63 460.15 277.09 460.94 277.44C461.73 277.79 462.62 277.97 463.6 277.97C465.12 277.97 466.34 277.54 467.26 276.69C468.19 275.84 468.65 274.77 468.65 273.49C468.65 272.62 468.44 271.9 468.03 271.35C467.62 270.8 467.06 270.32 466.35 269.93C465.65 269.54 464.87 269.17 464.01 268.83C463.5 268.62 463.01 268.39 462.54 268.16C462.07 267.93 461.69 267.66 461.39 267.36C461.09 267.06 460.94 266.72 460.94 266.34C460.94 265.85 461.13 265.49 461.52 265.25L461.51 265.19Z" fill="white"/>
<path d="M176.85 310.45L181.89 297.39L186.93 310.45L193.53 292.81H191.25L186.88 305.17L181.89 291.97L176.99 305.17L172.53 292.81H170.25L176.85 310.45Z" fill="white"/>
<path d="M195.29 299.05C194.47 299.53 193.83 300.2 193.37 301.07C192.91 301.93 192.68 302.94 192.68 304.09C192.68 305.24 192.9 306.23 193.34 307.09C193.78 307.95 194.4 308.63 195.19 309.12C195.98 309.61 196.89 309.85 197.91 309.85C199.09 309.85 200.12 309.61 200.99 309.14C201.86 308.67 202.59 307.97 203.16 307.04L201.6 306.06C201.2 306.73 200.71 307.23 200.14 307.56C199.57 307.89 198.9 308.05 198.15 308.05C197.4 308.05 196.76 307.89 196.23 307.57C195.7 307.25 195.3 306.79 195.03 306.18C194.82 305.72 194.72 305.17 194.67 304.57H203.33C203.33 304.57 203.33 304.46 203.34 304.34C203.35 304.22 203.35 304.1 203.35 303.99C203.35 302.82 203.14 301.81 202.73 300.97C202.32 300.13 201.72 299.47 200.94 299.01C200.16 298.55 199.23 298.33 198.14 298.33C197.05 298.33 196.1 298.57 195.27 299.05H195.29ZM200.89 301.54C201.11 301.94 201.21 302.41 201.25 302.93H194.75C194.82 302.52 194.93 302.14 195.09 301.81C195.37 301.23 195.77 300.78 196.29 300.47C196.81 300.16 197.44 300 198.17 300C198.79 300 199.34 300.14 199.8 300.41C200.26 300.68 200.63 301.06 200.89 301.54Z" fill="white"/>
<path d="M212.14 308.48C212.24 308.38 212.32 308.26 212.39 308.14V309.6H214.31V301.68C214.31 300.96 214.13 300.35 213.77 299.86C213.41 299.36 212.9 298.98 212.26 298.72C211.61 298.46 210.86 298.32 209.99 298.32C208.97 298.32 208.09 298.47 207.36 298.78C206.63 299.08 206.06 299.39 205.64 299.69L206.58 301.11C206.76 300.98 207 300.83 207.3 300.65C207.6 300.47 207.98 300.32 208.42 300.19C208.86 300.06 209.35 300 209.9 300C210.24 300 210.56 300.03 210.86 300.1C211.16 300.16 211.43 300.27 211.66 300.41C211.89 300.55 212.07 300.75 212.2 301C212.33 301.25 212.39 301.56 212.39 301.95V303.56C212.09 303.36 211.72 303.18 211.25 303.02C210.71 302.84 210.05 302.74 209.25 302.74C207.89 302.74 206.83 303.06 206.07 303.71C205.31 304.36 204.93 305.22 204.93 306.29C204.93 307.04 205.11 307.68 205.46 308.21C205.81 308.74 206.28 309.14 206.86 309.42C207.44 309.7 208.07 309.84 208.74 309.84C209.35 309.84 209.96 309.73 210.58 309.5C211.2 309.27 211.72 308.93 212.14 308.47V308.48ZM208.01 307.96C207.65 307.81 207.37 307.58 207.17 307.28C206.97 306.98 206.87 306.62 206.87 306.2C206.87 305.78 206.97 305.46 207.16 305.17C207.35 304.88 207.64 304.66 208.04 304.5C208.43 304.34 208.94 304.26 209.56 304.26C210.23 304.26 210.86 304.34 211.46 304.51C211.78 304.6 212.09 304.73 212.4 304.88V305.29C212.4 305.87 212.26 306.37 211.98 306.81C211.7 307.25 211.32 307.59 210.85 307.83C210.38 308.07 209.85 308.19 209.25 308.19C208.79 308.19 208.37 308.11 208.01 307.96Z" fill="white"/>
<path d="M219.47 290.89H217.55V309.61H219.47V290.89Z" fill="white"/>
<path d="M225.11 309.61V300.37H226.91V298.57H225.11V294.73H223.19V298.57H221.39V300.37H223.19V309.61H225.11Z" fill="white"/>
<path d="M237.83 309.61V302.65C237.83 301.69 237.67 300.89 237.36 300.25C237.05 299.61 236.61 299.13 236.04 298.81C235.47 298.49 234.81 298.33 234.04 298.33C233.27 298.33 232.6 298.53 232.01 298.93C231.49 299.29 231.07 299.78 230.75 300.36V290.89H228.83V309.61H230.75V302.89C230.75 302.36 230.87 301.89 231.1 301.47C231.33 301.05 231.66 300.73 232.08 300.49C232.5 300.25 233 300.13 233.56 300.13C234.34 300.13 234.93 300.36 235.32 300.83C235.71 301.29 235.91 301.98 235.91 302.89V309.61H237.83Z" fill="white"/>
<path d="M256.84 298.63C257.14 298.25 257.38 297.87 257.54 297.49C257.7 297.11 257.78 296.71 257.78 296.31C257.78 295.64 257.62 295.02 257.3 294.45C256.98 293.88 256.52 293.42 255.92 293.07C255.32 292.72 254.6 292.54 253.75 292.54C252.95 292.54 252.24 292.69 251.63 293C251.02 293.31 250.53 293.74 250.18 294.3C249.83 294.86 249.65 295.52 249.65 296.27C249.65 296.88 249.81 297.44 250.12 297.95C250.43 298.46 250.79 298.92 251.2 299.33C251.49 299.62 251.73 299.88 251.95 300.12C251.9 300.15 251.85 300.17 251.79 300.2C251.34 300.42 250.89 300.67 250.42 300.96C249.96 301.25 249.53 301.59 249.13 301.99C248.74 302.39 248.42 302.85 248.17 303.38C247.92 303.91 247.8 304.52 247.8 305.23C247.8 306.17 248.06 306.99 248.58 307.69C249.1 308.39 249.77 308.92 250.6 309.3C251.42 309.68 252.29 309.86 253.2 309.86C254.27 309.86 255.26 309.66 256.15 309.26C257.03 308.87 257.84 308.35 258.59 307.72L260.25 309.62H262.55L259.85 306.52C260.17 306.18 260.49 305.83 260.8 305.46C261.47 304.64 262.13 303.81 262.77 302.98L261.28 302.04C260.7 302.82 260.11 303.58 259.49 304.3C259.22 304.61 258.95 304.9 258.68 305.18L254.61 300.51C255.02 300.25 255.4 299.99 255.73 299.73C256.16 299.39 256.53 299.03 256.83 298.65L256.84 298.63ZM255.53 307.57C254.82 307.91 254.08 308.07 253.31 308.07C252.67 308.07 252.09 307.95 251.56 307.71C251.03 307.47 250.61 307.13 250.3 306.68C249.99 306.23 249.83 305.7 249.83 305.1C249.83 304.5 249.97 303.97 250.26 303.54C250.55 303.11 250.92 302.73 251.38 302.4C251.84 302.07 252.32 301.78 252.83 301.51C252.91 301.47 252.98 301.43 253.05 301.39L257.39 306.35C256.79 306.85 256.17 307.26 255.52 307.57H255.53ZM253.53 299.24C253.11 298.75 252.7 298.27 252.31 297.83C251.88 297.33 251.66 296.81 251.66 296.27C251.66 295.66 251.84 295.17 252.21 294.81C252.58 294.44 253.09 294.26 253.75 294.26C254.2 294.26 254.57 294.35 254.88 294.52C255.18 294.7 255.42 294.94 255.59 295.24C255.76 295.54 255.84 295.9 255.84 296.32C255.84 296.86 255.58 297.42 255.06 297.99C254.66 298.43 254.15 298.84 253.53 299.25V299.24Z" fill="white"/>
<path d="M280.79 294.73V292.81H274.19H273.28H272.15V309.61H274.19V301.45H280.55V299.53H274.19V294.73H280.79Z" fill="white"/>
<path d="M286.29 293.07C286.03 292.81 285.72 292.69 285.35 292.69C284.98 292.69 284.69 292.82 284.43 293.07C284.16 293.33 284.03 293.64 284.03 294.01C284.03 294.38 284.16 294.67 284.43 294.93C284.69 295.19 285 295.33 285.35 295.33C285.7 295.33 286.03 295.2 286.29 294.93C286.55 294.66 286.67 294.36 286.67 294.01C286.67 293.66 286.54 293.33 286.29 293.07Z" fill="white"/>
<path d="M286.31 298.57H284.39V309.61H286.31V298.57Z" fill="white"/>
<path d="M290.27 309.61H292.19V302.89C292.19 302.35 292.31 301.87 292.54 301.45C292.77 301.03 293.1 300.71 293.52 300.48C293.94 300.25 294.44 300.13 295 300.13C295.77 300.13 296.35 300.36 296.75 300.83C297.15 301.29 297.35 301.98 297.35 302.89V309.61H299.27V302.65C299.27 301.32 298.93 300.27 298.25 299.49C297.57 298.71 296.65 298.33 295.48 298.33C294.76 298.33 294.12 298.49 293.57 298.81C293.02 299.13 292.56 299.63 292.19 300.3V298.57H290.27V309.61Z" fill="white"/>
<path d="M302.51 299.7L303.45 301.12C303.63 300.99 303.87 300.84 304.17 300.66C304.47 300.48 304.85 300.33 305.29 300.2C305.73 300.07 306.22 300.01 306.77 300.01C307.11 300.01 307.42 300.04 307.73 300.11C308.03 300.17 308.3 300.28 308.53 300.42C308.76 300.56 308.94 300.76 309.07 301.01C309.2 301.26 309.26 301.57 309.26 301.96V303.57C308.96 303.37 308.59 303.19 308.12 303.03C307.58 302.85 306.91 302.75 306.12 302.75C304.76 302.75 303.7 303.07 302.94 303.72C302.18 304.37 301.8 305.23 301.8 306.3C301.8 307.05 301.98 307.69 302.33 308.22C302.68 308.75 303.15 309.15 303.73 309.43C304.31 309.71 304.94 309.85 305.61 309.85C306.22 309.85 306.83 309.74 307.45 309.51C308.07 309.29 308.58 308.94 309.01 308.48C309.11 308.38 309.19 308.26 309.26 308.14V309.6H311.18V301.68C311.18 300.96 311 300.35 310.64 299.86C310.28 299.36 309.78 298.98 309.13 298.72C308.48 298.46 307.73 298.32 306.86 298.32C305.83 298.32 304.96 298.47 304.23 298.78C303.5 299.08 302.93 299.39 302.52 299.69L302.51 299.7ZM308.84 306.81C308.56 307.25 308.18 307.59 307.71 307.83C307.24 308.07 306.71 308.19 306.11 308.19C305.65 308.19 305.23 308.11 304.87 307.96C304.51 307.81 304.23 307.58 304.03 307.28C303.83 306.98 303.73 306.62 303.73 306.2C303.73 305.78 303.83 305.46 304.02 305.17C304.21 304.88 304.5 304.66 304.9 304.5C305.3 304.34 305.8 304.26 306.42 304.26C307.09 304.26 307.72 304.34 308.32 304.51C308.64 304.6 308.95 304.73 309.26 304.88V305.29C309.26 305.87 309.12 306.37 308.84 306.81Z" fill="white"/>
<path d="M323.42 309.61V302.65C323.42 301.32 323.08 300.27 322.4 299.49C321.72 298.71 320.79 298.33 319.63 298.33C318.91 298.33 318.27 298.49 317.72 298.81C317.17 299.13 316.71 299.63 316.34 300.3V298.57H314.42V309.61H316.34V302.89C316.34 302.35 316.46 301.87 316.69 301.45C316.92 301.03 317.25 300.71 317.67 300.48C318.09 300.25 318.59 300.13 319.15 300.13C319.92 300.13 320.5 300.36 320.9 300.83C321.3 301.29 321.5 301.98 321.5 302.89V309.61H323.42Z" fill="white"/>
<path d="M329.72 300.63C330.29 300.29 330.93 300.13 331.65 300.13C332.24 300.13 332.8 300.22 333.32 300.41C333.84 300.59 334.29 300.84 334.68 301.14C335.06 301.44 335.34 301.78 335.5 302.15V299.75C335.12 299.3 334.57 298.95 333.86 298.71C333.15 298.46 332.42 298.34 331.66 298.34C330.59 298.34 329.62 298.59 328.76 299.08C327.9 299.58 327.21 300.26 326.71 301.12C326.21 301.98 325.95 302.98 325.95 304.1C325.95 305.22 326.2 306.19 326.71 307.06C327.22 307.93 327.9 308.62 328.76 309.11C329.62 309.61 330.59 309.85 331.66 309.85C332.41 309.85 333.14 309.73 333.86 309.48C334.57 309.23 335.12 308.88 335.5 308.44V306.04C335.34 306.39 335.07 306.72 334.68 307.04C334.3 307.35 333.84 307.6 333.32 307.78C332.8 307.96 332.24 308.06 331.65 308.06C330.93 308.06 330.28 307.89 329.72 307.54C329.15 307.2 328.7 306.73 328.38 306.14C328.05 305.55 327.89 304.87 327.89 304.1C327.89 303.33 328.05 302.65 328.38 302.05C328.71 301.45 329.16 300.98 329.72 300.65V300.63Z" fill="white"/>
<path d="M343 298.33C341.91 298.33 340.96 298.57 340.13 299.05C339.31 299.53 338.67 300.2 338.21 301.07C337.75 301.93 337.52 302.94 337.52 304.09C337.52 305.24 337.74 306.23 338.18 307.09C338.62 307.95 339.24 308.63 340.03 309.12C340.82 309.61 341.73 309.85 342.75 309.85C343.93 309.85 344.96 309.61 345.83 309.14C346.7 308.67 347.43 307.97 348 307.04L346.44 306.06C346.04 306.73 345.55 307.23 344.98 307.56C344.41 307.89 343.74 308.05 342.99 308.05C342.24 308.05 341.6 307.89 341.07 307.57C340.54 307.25 340.14 306.79 339.87 306.18C339.66 305.72 339.56 305.17 339.51 304.57H348.17C348.17 304.57 348.17 304.46 348.18 304.34C348.19 304.22 348.19 304.1 348.19 303.99C348.19 302.82 347.98 301.81 347.57 300.97C347.16 300.13 346.56 299.47 345.78 299.01C345 298.55 344.07 298.33 342.98 298.33H343ZM341.12 300.48C341.64 300.17 342.27 300.01 343 300.01C343.62 300.01 344.17 300.15 344.63 300.42C345.09 300.69 345.46 301.07 345.72 301.55C345.94 301.95 346.04 302.42 346.08 302.94H339.58C339.65 302.53 339.76 302.15 339.92 301.82C340.2 301.24 340.6 300.79 341.12 300.48Z" fill="white"/>
<path d="M360.21 292.81H358.17V309.61H360.21V292.81Z" fill="white"/>
<path d="M363.93 298.57V309.61H365.85V302.89C365.85 302.35 365.97 301.87 366.2 301.45C366.43 301.03 366.76 300.71 367.18 300.48C367.6 300.25 368.1 300.13 368.66 300.13C369.43 300.13 370.01 300.36 370.41 300.83C370.81 301.29 371.01 301.98 371.01 302.89V309.61H372.93V302.65C372.93 301.32 372.59 300.27 371.91 299.49C371.23 298.71 370.3 298.33 369.14 298.33C368.42 298.33 367.78 298.49 367.23 298.81C366.68 299.13 366.22 299.63 365.85 300.3V298.57H363.93Z" fill="white"/>
<path d="M376.65 294.73V298.57H374.85V300.37H376.65V309.61H378.57V300.37H380.37V298.57H378.57V294.73H376.65Z" fill="white"/>
<path d="M391.99 304.34C391.99 304.22 392 304.1 392 303.99C392 302.82 391.79 301.81 391.38 300.97C390.97 300.13 390.37 299.47 389.59 299.01C388.81 298.55 387.88 298.33 386.79 298.33C385.7 298.33 384.75 298.57 383.92 299.05C383.1 299.53 382.46 300.2 382 301.07C381.54 301.93 381.31 302.94 381.31 304.09C381.31 305.24 381.53 306.23 381.97 307.09C382.41 307.95 383.03 308.63 383.82 309.12C384.61 309.61 385.52 309.85 386.54 309.85C387.72 309.85 388.75 309.61 389.62 309.14C390.49 308.67 391.22 307.97 391.79 307.04L390.23 306.06C389.83 306.73 389.34 307.23 388.77 307.56C388.2 307.89 387.53 308.05 386.78 308.05C386.03 308.05 385.39 307.89 384.86 307.57C384.33 307.25 383.93 306.79 383.66 306.18C383.45 305.72 383.35 305.17 383.3 304.57H391.96C391.96 304.57 391.96 304.46 391.97 304.34H391.99ZM384.91 300.48C385.43 300.17 386.06 300.01 386.79 300.01C387.41 300.01 387.96 300.15 388.42 300.42C388.88 300.69 389.25 301.07 389.51 301.55C389.73 301.95 389.83 302.42 389.87 302.94H383.37C383.44 302.53 383.55 302.15 383.71 301.82C383.99 301.24 384.39 300.79 384.91 300.48Z" fill="white"/>
<path d="M394.65 298.57V309.61H396.57V302.89C396.57 302.36 396.62 301.89 396.73 301.47C396.84 301.05 397.02 300.73 397.29 300.49C397.56 300.25 397.94 300.13 398.42 300.13C398.74 300.13 399 300.17 399.21 300.26C399.42 300.35 399.65 300.49 399.91 300.68L400.97 299.1C400.68 298.8 400.37 298.59 400.02 298.49C399.67 298.39 399.3 298.33 398.9 298.33C398.39 298.33 397.88 298.53 397.39 298.93C397.08 299.18 396.81 299.51 396.57 299.88V298.57H394.65Z" fill="white"/>
<path d="M402.88 298.57V309.61H404.8V302.89C404.8 302.35 404.92 301.87 405.15 301.45C405.38 301.03 405.71 300.71 406.13 300.48C406.55 300.25 407.05 300.13 407.61 300.13C408.38 300.13 408.96 300.36 409.36 300.83C409.76 301.29 409.96 301.98 409.96 302.89V309.61H411.88V302.65C411.88 301.32 411.54 300.27 410.86 299.49C410.18 298.71 409.25 298.33 408.09 298.33C407.37 298.33 406.73 298.49 406.18 298.81C405.63 299.13 405.17 299.63 404.8 300.3V298.57H402.88Z" fill="white"/>
<path d="M423.78 301.69C423.78 300.97 423.6 300.36 423.24 299.87C422.88 299.37 422.38 298.99 421.73 298.73C421.08 298.47 420.33 298.33 419.46 298.33C418.43 298.33 417.56 298.48 416.83 298.79C416.1 299.09 415.53 299.4 415.12 299.7L416.06 301.12C416.24 300.99 416.48 300.84 416.78 300.66C417.08 300.48 417.46 300.33 417.9 300.2C418.34 300.07 418.83 300.01 419.38 300.01C419.72 300.01 420.03 300.04 420.34 300.11C420.64 300.17 420.91 300.28 421.14 300.42C421.37 300.56 421.55 300.76 421.68 301.01C421.81 301.26 421.87 301.57 421.87 301.96V303.57C421.57 303.37 421.2 303.19 420.73 303.03C420.19 302.85 419.52 302.75 418.73 302.75C417.37 302.75 416.31 303.07 415.55 303.72C414.79 304.37 414.41 305.23 414.41 306.3C414.41 307.05 414.59 307.69 414.94 308.22C415.29 308.75 415.76 309.15 416.34 309.43C416.92 309.71 417.55 309.85 418.22 309.85C418.83 309.85 419.44 309.74 420.06 309.51C420.68 309.29 421.19 308.94 421.62 308.48C421.72 308.38 421.8 308.26 421.87 308.14V309.6H423.79V301.68L423.78 301.69ZM421.44 306.81C421.16 307.25 420.78 307.59 420.31 307.83C419.84 308.07 419.31 308.19 418.71 308.19C418.25 308.19 417.83 308.11 417.47 307.96C417.11 307.81 416.83 307.58 416.63 307.28C416.43 306.98 416.33 306.62 416.33 306.2C416.33 305.78 416.43 305.46 416.62 305.17C416.81 304.88 417.1 304.66 417.5 304.5C417.9 304.34 418.4 304.26 419.02 304.26C419.69 304.26 420.32 304.34 420.92 304.51C421.24 304.6 421.55 304.73 421.86 304.88V305.29C421.86 305.87 421.72 306.37 421.44 306.81Z" fill="white"/>
<path d="M427.14 294.73V298.57H425.34V300.37H427.14V309.61H429.06V300.37H430.86V298.57H429.06V294.73H427.14Z" fill="white"/>
<path d="M435.04 293.07C434.78 292.81 434.47 292.69 434.1 292.69C433.73 292.69 433.44 292.82 433.18 293.07C432.92 293.33 432.78 293.64 432.78 294.01C432.78 294.38 432.91 294.67 433.18 294.93C433.45 295.19 433.75 295.33 434.1 295.33C434.47 295.33 434.78 295.2 435.04 294.93C435.3 294.66 435.42 294.36 435.42 294.01C435.42 293.66 435.29 293.33 435.04 293.07Z" fill="white"/>
<path d="M435.06 298.57H433.14V309.61H435.06V298.57Z" fill="white"/>
<path d="M448.73 307.05C449.23 306.18 449.49 305.19 449.49 304.09C449.49 302.99 449.24 301.98 448.73 301.11C448.23 300.25 447.55 299.57 446.69 299.07C445.83 298.57 444.86 298.33 443.77 298.33C442.68 298.33 441.73 298.58 440.87 299.07C440 299.57 439.32 300.25 438.82 301.11C438.32 301.97 438.06 302.97 438.06 304.09C438.06 305.21 438.31 306.18 438.82 307.05C439.33 307.92 440.01 308.61 440.87 309.1C441.73 309.6 442.7 309.84 443.77 309.84C444.84 309.84 445.83 309.59 446.69 309.1C447.55 308.6 448.23 307.92 448.73 307.05ZM445.71 307.53C445.14 307.87 444.5 308.05 443.78 308.05C443.06 308.05 442.42 307.88 441.85 307.53C441.28 307.19 440.83 306.72 440.51 306.13C440.19 305.54 440.02 304.86 440.02 304.09C440.02 303.32 440.18 302.64 440.51 302.04C440.84 301.44 441.29 300.97 441.85 300.64C442.41 300.31 443.06 300.14 443.78 300.14C444.5 300.14 445.15 300.31 445.71 300.64C446.28 300.98 446.73 301.44 447.05 302.04C447.38 302.64 447.54 303.32 447.54 304.09C447.54 304.86 447.37 305.54 447.05 306.13C446.72 306.72 446.27 307.19 445.71 307.53Z" fill="white"/>
<path d="M458.61 300.82C459.01 301.28 459.21 301.97 459.21 302.88V309.6H461.13V302.64C461.13 301.31 460.79 300.26 460.11 299.48C459.43 298.7 458.51 298.32 457.34 298.32C456.62 298.32 455.98 298.48 455.43 298.8C454.88 299.12 454.42 299.62 454.05 300.29V298.56H452.13V309.6H454.05V302.88C454.05 302.34 454.17 301.86 454.4 301.44C454.63 301.02 454.96 300.7 455.38 300.47C455.8 300.24 456.3 300.12 456.86 300.12C457.63 300.12 458.21 300.35 458.61 300.82Z" fill="white"/>
<path d="M473.03 309.61V301.69C473.03 300.97 472.85 300.36 472.49 299.87C472.13 299.37 471.62 298.99 470.98 298.73C470.33 298.47 469.58 298.33 468.71 298.33C467.69 298.33 466.81 298.48 466.08 298.79C465.35 299.09 464.78 299.4 464.36 299.7L465.3 301.12C465.48 300.99 465.72 300.84 466.02 300.66C466.32 300.48 466.7 300.33 467.14 300.2C467.58 300.07 468.07 300.01 468.62 300.01C468.96 300.01 469.28 300.04 469.58 300.11C469.88 300.17 470.15 300.28 470.38 300.42C470.61 300.56 470.79 300.76 470.92 301.01C471.05 301.26 471.11 301.57 471.11 301.96V303.57C470.81 303.37 470.44 303.19 469.97 303.03C469.43 302.85 468.77 302.75 467.97 302.75C466.61 302.75 465.55 303.07 464.79 303.72C464.03 304.37 463.65 305.23 463.65 306.3C463.65 307.05 463.83 307.69 464.18 308.22C464.53 308.75 465 309.15 465.58 309.43C466.16 309.71 466.79 309.85 467.46 309.85C468.07 309.85 468.68 309.74 469.3 309.51C469.92 309.28 470.44 308.94 470.86 308.48C470.96 308.38 471.04 308.26 471.11 308.14V309.6H473.03V309.61ZM470.69 306.81C470.41 307.25 470.03 307.59 469.56 307.83C469.09 308.07 468.56 308.19 467.96 308.19C467.5 308.19 467.08 308.11 466.72 307.96C466.36 307.81 466.08 307.58 465.88 307.28C465.68 306.98 465.58 306.62 465.58 306.2C465.58 305.78 465.68 305.46 465.87 305.17C466.06 304.88 466.35 304.66 466.75 304.5C467.14 304.34 467.65 304.26 468.27 304.26C468.94 304.26 469.57 304.34 470.17 304.51C470.49 304.6 470.8 304.73 471.11 304.88V305.29C471.11 305.87 470.97 306.37 470.69 306.81Z" fill="white"/>
<path d="M478.19 290.89H476.27V309.61H478.19V290.89Z" fill="white"/>
<path d="M148.56 104.61H161.71C164.37 104.61 166.67 104.28 168.62 103.63C170.57 102.97 172.08 101.96 173.16 100.58C174.23 99.2 174.77 97.4 174.77 95.16C174.77 93.46 174.39 92.02 173.64 90.82C172.89 89.62 171.89 88.63 170.64 87.84C169.8 87.31 168.89 86.89 167.92 86.56C169.29 85.93 170.43 85.11 171.29 84.07C172.33 82.82 172.85 81.32 172.85 79.56C172.85 77.64 172.33 76.05 171.29 74.78C170.25 73.52 168.84 72.57 167.07 71.95C165.29 71.33 163.24 71.01 160.9 71.01H148.56V104.61ZM165.62 96.57C165.12 97.19 164.46 97.64 163.63 97.91C162.8 98.18 161.85 98.32 160.8 98.32H156.67V90.02H160.8C161.6 90.02 162.33 90.09 162.98 90.24C163.63 90.39 164.22 90.62 164.73 90.94C165.24 91.26 165.64 91.68 165.93 92.19C166.22 92.7 166.36 93.31 166.36 94.01C166.36 95.1 166.11 95.95 165.62 96.58V96.57ZM160.03 77.3C161.41 77.3 162.49 77.59 163.27 78.16C164.05 78.74 164.45 79.6 164.45 80.75C164.45 81.52 164.27 82.17 163.92 82.69C163.57 83.22 163.06 83.63 162.41 83.91C161.75 84.2 160.96 84.34 160.03 84.34H156.67V77.28H160.03V77.3Z" fill="white"/>
<path d="M179.9 87.42C178.91 89.15 178.41 91.2 178.41 93.56C178.41 95.92 178.92 97.93 179.95 99.66C180.97 101.39 182.42 102.72 184.29 103.67C186.16 104.62 188.38 105.09 190.94 105.09C193.76 105.09 196.15 104.55 198.12 103.46C200.09 102.37 201.65 100.74 202.8 98.56L196.32 96.98C195.78 97.94 195.05 98.66 194.14 99.14C193.23 99.62 192.13 99.86 190.85 99.86C189.73 99.86 188.79 99.61 188.02 99.12C187.25 98.62 186.68 97.9 186.29 96.94C186.07 96.4 185.92 95.78 185.83 95.12H202.66C202.72 94.9 202.76 94.62 202.76 94.28V93.25C202.76 90.88 202.3 88.87 201.37 87.2C200.44 85.54 199.1 84.26 197.34 83.38C195.58 82.5 193.42 82.06 190.86 82.06C188.3 82.06 186.08 82.52 184.21 83.45C182.34 84.38 180.91 85.71 179.91 87.43L179.9 87.42ZM187.96 87.62C188.7 87.14 189.61 86.9 190.7 86.9C191.56 86.9 192.32 87.09 192.96 87.48C193.6 87.86 194.1 88.41 194.45 89.11C194.73 89.68 194.9 90.34 194.95 91.08H185.96C186.05 90.62 186.16 90.19 186.31 89.81C186.68 88.83 187.23 88.11 187.97 87.63L187.96 87.62Z" fill="white"/>
<path d="M215.71 100.19C215.2 100.19 214.59 100.09 213.89 99.88C213.19 99.67 212.38 99.3 211.47 98.78C210.56 98.26 209.54 97.52 208.42 96.6L205.4 101.4C206.39 102.17 207.46 102.86 208.62 103.49C209.77 104.11 211.03 104.61 212.39 104.98C213.75 105.35 215.21 105.53 216.78 105.53C219.44 105.53 221.49 104.93 222.95 103.73C224.41 102.53 225.13 100.75 225.13 98.38C225.13 97 224.83 95.9 224.24 95.07C223.65 94.24 222.86 93.55 221.89 93.01C220.91 92.47 219.85 91.99 218.7 91.57C217.61 91.15 216.69 90.81 215.94 90.54C215.19 90.27 214.61 89.97 214.21 89.65C213.81 89.33 213.61 88.93 213.61 88.45C213.61 88.03 213.78 87.7 214.11 87.44C214.45 87.18 214.95 87.06 215.62 87.06C216.61 87.06 217.7 87.34 218.88 87.9C220.06 88.46 221.12 89.17 222.05 90.04L224.64 85.34C223.78 84.7 222.86 84.14 221.88 83.66C220.9 83.18 219.86 82.8 218.76 82.51C217.66 82.22 216.46 82.08 215.18 82.08C213.58 82.08 212.16 82.32 210.93 82.8C209.7 83.28 208.72 83.98 208 84.91C207.28 85.84 206.92 86.97 206.92 88.32C206.92 89.67 207.22 90.88 207.83 91.78C208.44 92.68 209.21 93.39 210.16 93.92C211.1 94.45 212.1 94.9 213.16 95.29C214.34 95.64 215.28 95.98 215.97 96.3C216.66 96.62 217.15 96.95 217.43 97.28C217.71 97.61 217.86 98.02 217.86 98.5C217.86 99.01 217.68 99.43 217.33 99.75C216.98 100.07 216.43 100.23 215.7 100.23L215.71 100.19Z" fill="white"/>
<path d="M226.51 88.53H230.39V104.61H237.35V88.53H241.29V82.53H237.35V74.85H230.39V82.53H226.51V88.53Z" fill="white"/>
<path d="M258.91 80.66C258.01 82.8 257.57 85.19 257.57 87.81C257.57 90.43 258.02 92.82 258.91 94.96C259.81 97.1 261.07 98.96 262.7 100.53C264.33 102.1 266.28 103.3 268.56 104.13C270.83 104.96 273.31 105.38 276 105.38C278.46 105.38 280.5 105.08 282.1 104.47C283.7 103.86 285.17 103.03 286.52 101.97V93.23C285.78 94 284.94 94.72 283.98 95.39C283.02 96.06 281.93 96.61 280.72 97.02C279.5 97.44 278.1 97.64 276.5 97.64C274.68 97.64 273 97.26 271.48 96.49C269.96 95.72 268.74 94.59 267.81 93.11C266.88 91.62 266.42 89.85 266.42 87.81C266.42 85.77 266.88 83.95 267.81 82.48C268.74 81.01 269.96 79.89 271.48 79.12C273 78.35 274.67 77.97 276.5 77.97C278.1 77.97 279.51 78.17 280.72 78.57C281.94 78.97 283.02 79.51 283.98 80.2C284.94 80.89 285.79 81.62 286.52 82.38V73.64C285.18 72.58 283.7 71.75 282.1 71.14C280.5 70.53 278.47 70.23 276 70.23C273.31 70.23 270.83 70.65 268.56 71.48C266.29 72.31 264.34 73.51 262.7 75.08C261.07 76.65 259.8 78.5 258.91 80.65V80.66Z" fill="white"/>
<path d="M292.41 104.61H299.56V93.71C299.56 92.65 299.7 91.76 299.99 91.02C300.28 90.28 300.69 89.72 301.24 89.34C301.78 88.96 302.41 88.76 303.11 88.76C303.75 88.76 304.29 88.87 304.72 89.1C305.15 89.32 305.56 89.63 305.94 90.01L309.06 83.82C308.68 83.24 308.12 82.8 307.38 82.48C306.64 82.16 305.88 82 305.08 82C303.86 82 302.7 82.4 301.58 83.2C300.8 83.76 300.13 84.46 299.56 85.3V82.53H292.41V104.61Z" fill="white"/>
<path d="M323.54 95.55L318.28 82.53H310.31L319.87 102.83L314.49 115.17H321.79L336.19 82.53H328.75L323.54 95.55Z" fill="white"/>
<path d="M358.43 83.1C356.85 82.2 355.14 81.76 353.32 81.76C351.4 81.76 349.74 82.25 348.35 83.22C347.31 83.95 346.46 84.9 345.78 86.06V82.52H338.53V115.16H345.78V101.05C346.45 102.22 347.31 103.18 348.35 103.9C349.74 104.88 351.4 105.36 353.32 105.36C355.24 105.36 356.85 104.91 358.43 104.02C360.01 103.13 361.31 101.8 362.32 100.04C363.33 98.28 363.83 96.12 363.83 93.56C363.83 91 363.33 88.8 362.32 87.06C361.31 85.32 360.02 84 358.43 83.1ZM355.48 96.5C355 97.3 354.36 97.91 353.56 98.32C352.76 98.74 351.88 98.94 350.92 98.94C350.09 98.94 349.28 98.74 348.5 98.34C347.72 97.94 347.07 97.34 346.56 96.54C346.05 95.74 345.79 94.75 345.79 93.56C345.79 92.37 346.05 91.38 346.56 90.58C347.07 89.78 347.72 89.18 348.5 88.78C349.28 88.38 350.09 88.18 350.92 88.18C351.88 88.18 352.76 88.39 353.56 88.8C354.36 89.22 355 89.82 355.48 90.62C355.96 91.42 356.2 92.4 356.2 93.55C356.2 94.7 355.96 95.68 355.48 96.48V96.5Z" fill="white"/>
<path d="M376.46 104.61V88.53H380.39V82.53H376.46V74.85H369.5V82.53H365.61V88.53H369.5V104.61H376.46Z" fill="white"/>
<path d="M394.79 82C392.39 82 390.23 82.48 388.31 83.44C386.39 84.4 384.89 85.74 383.8 87.47C382.71 89.2 382.17 91.23 382.17 93.57C382.17 95.91 382.71 97.89 383.8 99.62C384.89 101.35 386.39 102.69 388.31 103.65C390.23 104.61 392.39 105.09 394.79 105.09C397.19 105.09 399.34 104.61 401.25 103.65C403.15 102.69 404.66 101.35 405.76 99.62C406.86 97.89 407.42 95.88 407.42 93.57C407.42 91.26 406.87 89.2 405.76 87.47C404.66 85.74 403.15 84.4 401.25 83.44C399.35 82.48 397.19 82 394.79 82ZM399.23 96.52C398.77 97.34 398.14 97.97 397.36 98.42C396.58 98.87 395.72 99.09 394.79 99.09C393.86 99.09 392.97 98.87 392.2 98.42C391.43 97.97 390.81 97.34 390.33 96.52C389.85 95.7 389.61 94.72 389.61 93.57C389.61 92.42 389.85 91.43 390.33 90.59C390.81 89.76 391.43 89.12 392.2 88.67C392.97 88.22 393.83 88 394.79 88C395.75 88 396.57 88.22 397.36 88.67C398.14 89.12 398.77 89.76 399.23 90.59C399.69 91.42 399.93 92.41 399.93 93.57C399.93 94.73 399.7 95.71 399.23 96.52Z" fill="white"/>
<path d="M435.11 71.01H426.85V104.61H435.11V71.01Z" fill="white"/>
<path d="M447.3 71.01H442.21V104.61H450.32V92.95H452.77L460.02 104.61H469.52L460.75 91.91C461.05 91.79 461.37 91.69 461.65 91.55C463.57 90.62 465.03 89.33 466.02 87.69C467.01 86.04 467.51 84.15 467.51 82C467.51 79.85 467.01 77.91 466.02 76.26C465.03 74.61 463.57 73.32 461.65 72.4C459.73 71.47 457.33 71.01 454.45 71.01H447.3ZM453.88 77.87C454.97 77.87 455.9 78.05 456.69 78.4C457.47 78.75 458.07 79.26 458.49 79.91C458.91 80.57 459.11 81.36 459.11 82.29C459.11 83.22 458.9 84.01 458.49 84.67C458.07 85.33 457.47 85.82 456.69 86.16C455.9 86.5 454.97 86.66 453.88 86.66H450.33V77.88H453.88V77.87Z" fill="white"/>
<path d="M469.67 104.61H478.84L481.97 98.13H492.68L495.83 104.61H505.05L487.34 68.9L469.68 104.61H469.67ZM491.08 91.94H483.61L487.34 83.35L491.09 91.94H491.08Z" fill="white"/>
<path d="M114.84 127.01H106.58V160.61H114.84V127.01Z" fill="white"/>
<path d="M143.11 160.61V146.4C143.11 143.74 142.49 141.68 141.24 140.21C139.99 138.74 137.99 138 135.24 138C133.61 138 132.24 138.34 131.14 139.01C130.04 139.68 129.16 140.63 128.52 141.84V138.53H121.22V160.61H128.52V147.17C128.52 146.31 128.68 145.57 129 144.96C129.32 144.35 129.77 143.89 130.34 143.57C130.92 143.25 131.59 143.09 132.36 143.09C133.51 143.09 134.34 143.44 134.83 144.15C135.33 144.85 135.57 145.86 135.57 147.17V160.61H143.11Z" fill="white"/>
<path d="M158.37 163.2L171.19 138.53H163.46L158.37 150.77L153.33 138.53H145.6L158.37 163.2Z" fill="white"/>
<path d="M196.2 150.26V149.23C196.2 146.86 195.74 144.85 194.81 143.18C193.88 141.52 192.54 140.24 190.78 139.36C189.02 138.48 186.86 138.04 184.3 138.04C181.74 138.04 179.52 138.5 177.65 139.43C175.78 140.36 174.35 141.69 173.35 143.41C172.36 145.14 171.86 147.19 171.86 149.55C171.86 151.91 172.37 153.92 173.4 155.65C174.42 157.38 175.87 158.71 177.74 159.66C179.61 160.61 181.83 161.08 184.39 161.08C187.21 161.08 189.6 160.54 191.57 159.45C193.54 158.36 195.1 156.73 196.25 154.55L189.77 152.97C189.23 153.93 188.5 154.65 187.59 155.13C186.68 155.61 185.58 155.85 184.3 155.85C183.18 155.85 182.24 155.6 181.47 155.11C180.7 154.61 180.13 153.89 179.74 152.93C179.52 152.39 179.37 151.77 179.28 151.11H196.11C196.17 150.89 196.21 150.61 196.21 150.27L196.2 150.26ZM181.41 143.62C182.15 143.14 183.06 142.9 184.15 142.9C185.01 142.9 185.77 143.09 186.41 143.48C187.05 143.86 187.55 144.41 187.9 145.11C188.18 145.68 188.35 146.34 188.4 147.08H179.41C179.5 146.62 179.61 146.19 179.76 145.81C180.13 144.83 180.68 144.11 181.42 143.63L181.41 143.62Z" fill="white"/>
<path d="M201.45 140.88C200.73 141.81 200.37 142.94 200.37 144.29C200.37 145.64 200.67 146.85 201.28 147.75C201.89 148.65 202.66 149.36 203.61 149.89C204.55 150.42 205.55 150.87 206.61 151.26C207.79 151.61 208.73 151.95 209.42 152.27C210.11 152.59 210.6 152.92 210.88 153.25C211.16 153.58 211.31 153.99 211.31 154.47C211.31 154.98 211.13 155.4 210.78 155.72C210.43 156.04 209.88 156.2 209.15 156.2C208.64 156.2 208.03 156.1 207.33 155.89C206.63 155.68 205.82 155.31 204.91 154.79C204 154.26 202.98 153.53 201.86 152.61L198.84 157.41C199.83 158.18 200.9 158.87 202.06 159.5C203.21 160.12 204.47 160.62 205.83 160.99C207.19 161.36 208.65 161.54 210.22 161.54C212.88 161.54 214.93 160.94 216.39 159.74C217.85 158.54 218.57 156.76 218.57 154.39C218.57 153.01 218.27 151.91 217.68 151.08C217.09 150.25 216.3 149.56 215.33 149.02C214.35 148.48 213.29 148 212.14 147.58C211.05 147.16 210.13 146.82 209.38 146.55C208.63 146.28 208.05 145.98 207.65 145.66C207.25 145.34 207.05 144.94 207.05 144.46C207.05 144.04 207.22 143.71 207.55 143.45C207.89 143.19 208.39 143.07 209.06 143.07C210.05 143.07 211.14 143.35 212.32 143.91C213.5 144.47 214.56 145.18 215.49 146.05L218.08 141.35C217.22 140.71 216.3 140.15 215.32 139.67C214.34 139.19 213.3 138.81 212.2 138.52C211.1 138.23 209.9 138.09 208.62 138.09C207.02 138.09 205.6 138.33 204.37 138.81C203.14 139.29 202.16 139.99 201.44 140.92L201.45 140.88Z" fill="white"/>
<path d="M223.84 138.53H219.96V144.53H223.84V160.61H230.8V144.53H234.74V138.53H230.8V130.85H223.84V138.53Z" fill="white"/>
<path d="M237.81 160.61H244.82V147.17C244.82 146.27 244.96 145.52 245.23 144.91C245.5 144.3 245.89 143.85 246.38 143.54C246.88 143.24 247.44 143.08 248.08 143.08C249.07 143.08 249.78 143.42 250.22 144.11C250.65 144.8 250.87 145.81 250.87 147.16V160.6H258.17V147.16C258.17 146.26 258.31 145.51 258.58 144.9C258.85 144.29 259.24 143.84 259.73 143.53C260.23 143.23 260.79 143.07 261.43 143.07C262.42 143.07 263.13 143.41 263.57 144.1C264 144.79 264.22 145.8 264.22 147.15V160.59H271.52V146.38C271.52 144.59 271.3 143.07 270.85 141.82C270.4 140.57 269.67 139.62 268.67 138.96C267.66 138.3 266.29 137.98 264.57 137.98C263.07 137.98 261.72 138.3 260.54 138.94C259.36 139.58 258.36 140.48 257.56 141.63C257.11 140.45 256.38 139.54 255.35 138.92C254.32 138.3 252.95 137.98 251.22 137.98C249.72 137.98 248.43 138.32 247.36 138.99C246.29 139.66 245.45 140.59 244.84 141.77V138.51H237.83V160.59L237.81 160.61Z" fill="white"/>
<path d="M300.21 150.26V149.23C300.21 146.86 299.75 144.85 298.82 143.18C297.89 141.52 296.55 140.24 294.79 139.36C293.03 138.48 290.87 138.04 288.31 138.04C285.75 138.04 283.53 138.5 281.66 139.43C279.79 140.36 278.36 141.69 277.36 143.41C276.37 145.14 275.87 147.19 275.87 149.55C275.87 151.91 276.38 153.92 277.41 155.65C278.43 157.38 279.88 158.71 281.75 159.66C283.62 160.61 285.84 161.08 288.4 161.08C291.22 161.08 293.61 160.54 295.58 159.45C297.55 158.36 299.11 156.73 300.26 154.55L293.78 152.97C293.24 153.93 292.51 154.65 291.6 155.13C290.69 155.61 289.59 155.85 288.31 155.85C287.19 155.85 286.25 155.6 285.48 155.11C284.71 154.61 284.14 153.89 283.75 152.93C283.53 152.39 283.38 151.77 283.29 151.11H300.12C300.18 150.89 300.22 150.61 300.22 150.27L300.21 150.26ZM285.43 143.62C286.17 143.14 287.08 142.9 288.17 142.9C289.03 142.9 289.79 143.09 290.43 143.48C291.07 143.86 291.57 144.41 291.92 145.11C292.2 145.68 292.37 146.34 292.42 147.08H283.43C283.52 146.62 283.63 146.19 283.78 145.81C284.15 144.83 284.7 144.11 285.44 143.63L285.43 143.62Z" fill="white"/>
<path d="M304.67 138.53V160.61H311.97V147.17C311.97 146.31 312.13 145.57 312.45 144.96C312.77 144.35 313.22 143.89 313.79 143.57C314.37 143.25 315.04 143.09 315.81 143.09C316.96 143.09 317.79 143.44 318.28 144.15C318.78 144.85 319.02 145.86 319.02 147.17V160.61H326.56V146.4C326.56 143.74 325.94 141.68 324.69 140.21C323.44 138.74 321.44 138 318.69 138C317.06 138 315.69 138.34 314.59 139.01C313.49 139.68 312.61 140.63 311.97 141.84V138.53H304.67Z" fill="white"/>
<path d="M333.57 130.85V138.53H329.68V144.53H333.57V160.61H340.53V144.53H344.47V138.53H340.53V130.85H333.57Z" fill="white"/>
<path d="M362.66 160.61H370.77V148.95H374.32C377.17 148.95 379.56 148.51 381.5 147.63C383.44 146.75 384.9 145.49 385.89 143.84C386.88 142.19 387.38 140.25 387.38 138.01C387.38 135.77 386.88 133.74 385.89 132.11C384.9 130.48 383.43 129.22 381.5 128.34C379.56 127.46 377.17 127.02 374.32 127.02H362.66V160.62V160.61ZM374.32 133.68C375.95 133.68 377.23 134.05 378.16 134.78C379.09 135.52 379.55 136.59 379.55 138C379.55 139.41 379.09 140.43 378.16 141.17C377.23 141.91 375.95 142.27 374.32 142.27H370.77V133.68H374.32Z" fill="white"/>
<path d="M399.14 123.17H391.84V160.61H399.14V123.17Z" fill="white"/>
<path d="M404.75 140.45L407.2 145.3C407.52 145.11 408.03 144.86 408.74 144.56C409.44 144.26 410.27 143.99 411.21 143.77C412.15 143.55 413.12 143.43 414.11 143.43C414.78 143.43 415.38 143.49 415.91 143.62C416.44 143.75 416.88 143.96 417.23 144.24C417.58 144.52 417.85 144.87 418.02 145.27C418.19 145.67 418.28 146.14 418.28 146.69V148.64C418.28 148.64 418.19 148.59 418.14 148.56C417.37 148.18 416.45 147.86 415.38 147.6C414.31 147.34 413.1 147.22 411.76 147.22C409.01 147.22 406.88 147.84 405.38 149.07C403.88 150.3 403.12 151.97 403.12 154.09C403.12 155.59 403.48 156.87 404.2 157.93C404.92 158.99 405.88 159.78 407.08 160.31C408.28 160.84 409.58 161.1 410.99 161.1C412.4 161.1 413.71 160.85 414.93 160.36C416.15 159.86 417.14 159.13 417.91 158.15C418.06 157.96 418.18 157.76 418.29 157.56V160.62H425.25V145.07C425.25 143.53 424.8 142.24 423.91 141.18C423.01 140.12 421.8 139.32 420.26 138.76C418.72 138.2 416.98 137.92 415.03 137.92C412.95 137.92 411.03 138.19 409.27 138.74C407.51 139.28 406.01 139.86 404.76 140.47L404.75 140.45ZM417.62 154.27C417.17 154.97 416.59 155.5 415.89 155.85C415.19 156.2 414.42 156.38 413.59 156.38C413.01 156.38 412.49 156.28 412.01 156.07C411.53 155.86 411.15 155.56 410.86 155.16C410.57 154.76 410.43 154.27 410.43 153.7C410.43 153.16 410.56 152.7 410.81 152.33C411.07 151.96 411.45 151.68 411.96 151.49C412.47 151.3 413.16 151.2 414.02 151.2C415.14 151.2 416.2 151.35 417.21 151.66C417.58 151.77 417.93 151.92 418.27 152.08C418.22 152.93 418.01 153.67 417.62 154.28V154.27Z" fill="white"/>
<path d="M431.97 138.53H428.08V144.53H431.97V160.61H438.93V144.53H442.86V138.53H438.93V130.85H431.97V138.53Z" fill="white"/>
<path d="M459.86 123.77C459.32 123.4 458.65 123.08 457.87 122.81C457.09 122.54 456.15 122.4 455.06 122.4C453.24 122.4 451.71 122.72 450.48 123.36C449.25 124 448.32 124.91 447.7 126.1C447.08 127.28 446.76 128.71 446.76 130.37V138.53H443.98V144.53H446.76V160.61H453.72V144.53H459.05V138.53H453.72V132.19C453.72 131.42 453.82 130.8 454.01 130.32C454.2 129.84 454.47 129.49 454.8 129.26C455.14 129.04 455.54 128.92 456.02 128.92C456.44 128.92 456.83 129.02 457.2 129.21C457.57 129.4 457.91 129.71 458.23 130.12L461.16 124.79C460.84 124.47 460.41 124.13 459.86 123.76V123.77Z" fill="white"/>
<path d="M484.74 155.62C485.84 153.89 486.4 151.88 486.4 149.57C486.4 147.26 485.85 145.2 484.74 143.47C483.64 141.74 482.13 140.4 480.23 139.44C478.33 138.48 476.17 138 473.77 138C471.37 138 469.21 138.48 467.29 139.44C465.37 140.4 463.87 141.74 462.78 143.47C461.69 145.2 461.15 147.23 461.15 149.57C461.15 151.91 461.69 153.89 462.78 155.62C463.87 157.35 465.37 158.69 467.29 159.65C469.21 160.61 471.37 161.09 473.77 161.09C476.17 161.09 478.32 160.61 480.23 159.65C482.13 158.69 483.64 157.35 484.74 155.62ZM478.21 152.52C477.75 153.34 477.12 153.97 476.34 154.42C475.56 154.87 474.7 155.09 473.77 155.09C472.84 155.09 471.95 154.87 471.18 154.42C470.41 153.97 469.79 153.34 469.31 152.52C468.83 151.7 468.59 150.72 468.59 149.57C468.59 148.42 468.83 147.43 469.31 146.59C469.79 145.76 470.41 145.12 471.18 144.67C471.95 144.22 472.81 144 473.77 144C474.73 144 475.55 144.22 476.34 144.67C477.12 145.12 477.75 145.76 478.21 146.59C478.67 147.42 478.91 148.41 478.91 149.57C478.91 150.73 478.68 151.71 478.21 152.52Z" fill="white"/>
<path d="M497.87 149.71C497.87 148.65 498.01 147.76 498.3 147.02C498.59 146.28 499 145.72 499.55 145.34C500.09 144.96 500.72 144.76 501.42 144.76C502.06 144.76 502.6 144.87 503.03 145.1C503.46 145.32 503.87 145.63 504.25 146.01L507.37 139.82C506.99 139.24 506.43 138.8 505.69 138.48C504.95 138.16 504.19 138 503.39 138C502.17 138 501.01 138.4 499.89 139.2C499.11 139.76 498.44 140.46 497.87 141.3V138.53H490.72V160.61H497.87V149.71Z" fill="white"/>
<path d="M544.14 160.61V146.4C544.14 144.61 543.92 143.09 543.47 141.84C543.02 140.59 542.29 139.64 541.29 138.98C540.28 138.32 538.91 138 537.19 138C535.69 138 534.34 138.32 533.16 138.96C531.98 139.6 530.98 140.5 530.18 141.65C529.73 140.47 529 139.56 527.97 138.94C526.94 138.32 525.57 138 523.84 138C522.34 138 521.05 138.34 519.98 139.01C518.91 139.68 518.07 140.61 517.46 141.79V138.53H510.45V160.61H517.46V147.17C517.46 146.27 517.6 145.52 517.87 144.91C518.14 144.3 518.53 143.85 519.02 143.54C519.52 143.24 520.08 143.08 520.72 143.08C521.71 143.08 522.42 143.42 522.86 144.11C523.29 144.8 523.51 145.81 523.51 147.16V160.6H530.81V147.16C530.81 146.26 530.95 145.51 531.22 144.9C531.49 144.29 531.88 143.84 532.37 143.53C532.87 143.23 533.43 143.07 534.07 143.07C535.06 143.07 535.77 143.41 536.21 144.1C536.64 144.79 536.86 145.8 536.86 147.15V160.59H544.16L544.14 160.61Z" fill="white"/>
<path d="M297.76 204.99C297.76 206.69 297.31 208.06 296.42 209.12C295.52 210.18 294.16 210.7 292.34 210.7C290.52 210.7 289.2 210.17 288.31 209.12C287.42 208.07 286.97 206.69 286.97 204.99V183.01H278.86V205.57C278.86 207.68 279.2 209.52 279.89 211.09C280.58 212.66 281.54 213.95 282.77 214.95C284 215.95 285.43 216.72 287.07 217.23C288.7 217.74 290.46 218 292.35 218C294.24 218 296.01 217.74 297.65 217.23C299.3 216.72 300.74 215.96 301.97 214.95C303.2 213.94 304.16 212.65 304.85 211.09C305.54 209.52 305.88 207.68 305.88 205.57V183.01H297.77V204.99H297.76Z" fill="white"/>
<path d="M322.24 189.75C322.85 189.25 323.73 189.01 324.88 189.01C325.74 189.01 326.55 189.18 327.3 189.51C328.05 189.85 328.74 190.31 329.36 190.9C329.98 191.49 330.54 192.19 331.02 192.99L337.21 189.53C336.63 188.38 335.8 187.24 334.71 186.12C333.62 185 332.25 184.07 330.61 183.34C328.96 182.6 327.02 182.24 324.78 182.24C322.54 182.24 320.63 182.62 318.85 183.37C317.07 184.12 315.67 185.22 314.63 186.66C313.59 188.1 313.07 189.81 313.07 191.8C313.07 193.46 313.37 194.88 313.98 196.05C314.59 197.22 315.36 198.21 316.28 199.03C317.21 199.85 318.19 200.51 319.23 201.02C320.27 201.53 321.19 201.93 321.99 202.22C323.62 202.83 324.93 203.37 325.93 203.85C326.92 204.33 327.64 204.83 328.09 205.36C328.54 205.89 328.76 206.58 328.76 207.45C328.76 208.47 328.38 209.28 327.61 209.87C326.84 210.46 325.87 210.76 324.68 210.76C323.56 210.76 322.5 210.52 321.49 210.04C320.48 209.56 319.55 208.87 318.71 207.98C317.86 207.08 317.1 206.03 316.43 204.81L310.77 208.89C311.54 210.49 312.61 211.96 313.99 213.31C315.37 214.65 316.99 215.72 318.86 216.5C320.73 217.28 322.76 217.68 324.93 217.68C326.5 217.68 328.03 217.45 329.51 216.98C331 216.52 332.33 215.84 333.49 214.94C334.66 214.04 335.59 212.93 336.27 211.6C336.96 210.27 337.3 208.76 337.3 207.06C337.3 205.65 337.08 204.4 336.63 203.32C336.18 202.23 335.57 201.27 334.78 200.44C333.99 199.61 333.09 198.9 332.07 198.3C331.04 197.71 329.94 197.19 328.76 196.74C327.19 196.2 325.86 195.68 324.75 195.2C323.65 194.72 322.8 194.19 322.21 193.62C321.62 193.04 321.32 192.37 321.32 191.6C321.32 190.83 321.62 190.25 322.23 189.75H322.24Z" fill="white"/>
<path d="M339.14 216.61H348.31L351.44 210.13H362.15L365.3 216.61H374.52L356.81 180.9L339.15 216.61H339.14ZM360.55 203.94H353.08L356.81 195.35L360.56 203.94H360.55Z" fill="white"/>
</g>
<defs>
<clipPath id="clip0_348_1659">
<rect width="650" height="350" fill="white"/>
</clipPath>
</defs>
</svg>
