<svg width="650" height="350" viewBox="0 0 650 350" fill="none" xmlns="http://www.w3.org/2000/svg">
<g clip-path="url(#clip0_348_1743)">
<path d="M649.17 189.85C648.41 189.89 646.91 190.14 644.75 190.78C642.61 191.43 639.74 192.46 637.03 193.7C634.29 194.95 631.73 196.43 629.34 198.44C626.93 200.45 624.91 203 623.2 205.36C621.54 207.74 620.4 209.97 619.27 212.48C618.93 213.29 618.58 214.13 618.24 214.96C618.99 210.98 619.61 206.96 620.12 202.94C620.66 198.28 620.99 193.62 621.15 188.96C621.27 188.95 621.39 188.93 621.54 188.91C623.12 188.7 626.31 188.2 628.92 187.32C631.53 186.43 633.57 185.17 635.71 183.47C637.81 181.77 640.03 179.61 641.85 176.33C643.59 173.05 644.96 168.63 645.76 164.67C645.97 163.68 646.17 162.71 646.34 161.79C646.5 160.86 646.61 159.98 646.72 159.14C646.93 157.46 647.06 155.97 647.1 154.75C647.17 152.3 646.86 150.93 646.72 150.17C646.56 149.42 646.52 149.29 645.84 149.46C645.15 149.62 643.83 150.08 641.97 151.01C640.11 151.94 637.72 153.32 635.48 154.89C633.2 156.46 631.05 158.22 629.25 160.43C627.49 162.64 625.92 165.29 624.85 167.71C623.81 170.13 623.04 172.35 622.51 174.82C622.05 177.03 621.55 179.43 621.25 181.31C621.24 176.22 621.07 171.15 620.79 166.14C620.64 163.11 620.39 160.1 620.35 157.09C620.32 155.81 620.24 154.53 620.16 153.25C620.29 153.21 620.44 153.16 620.61 153.11C622.02 152.66 624.84 151.69 627.07 150.47C629.31 149.24 630.96 147.78 632.6 145.91C634.23 144.04 635.97 141.74 637.07 138.51C638.16 135.29 638.72 131.11 638.85 127.42C639.07 123.71 638.87 120.52 638.6 118.31C638.33 116.09 637.87 114.9 637.61 114.25C637.35 113.6 637.3 113.49 636.7 113.74C636.1 113.99 634.96 114.6 633.41 115.7C631.86 116.81 629.9 118.4 628.04 120.16C626.2 121.91 624.51 123.82 623.21 126.09C621.94 128.35 620.89 131 620.3 133.35C619.72 135.71 619.37 137.84 619.26 140.16C619.21 141.56 619.17 143.04 619.15 144.39C618.87 142.7 618.56 141.03 618.19 139.37C617.59 136.49 616.85 133.67 616.13 130.87C615.23 127.58 614.32 124.34 613.38 121.15C613.56 121.07 613.84 120.94 614.27 120.72C615.48 120.11 617.9 118.82 619.75 117.39C621.6 115.96 622.89 114.39 624.15 112.46C625.41 110.52 626.57 108.23 627.16 105.15C627.31 104.38 627.42 103.56 627.49 102.72C627.55 101.88 627.57 101.01 627.57 100.13C627.57 98.37 627.46 96.58 627.32 94.89C626.97 91.54 626.43 88.67 625.91 86.71C625.36 84.76 624.78 83.75 624.47 83.2C624.16 82.65 624.09 82.55 623.58 82.86C623.06 83.16 622.1 83.86 620.82 85.06C619.54 86.27 617.95 87.97 616.52 89.79C615.07 91.62 613.76 93.59 612.86 95.82C611.96 98.06 611.48 100.56 611.19 102.81C610.92 105.06 611.01 107 611.19 109.14C611.37 111.28 611.73 113.58 612.04 115.22C612.31 116.87 612.51 117.88 612.67 118.65C612.7 118.78 612.72 118.89 612.74 119C610.69 112.12 608.54 105.48 606.17 99.14C605.7 97.9 605.24 96.67 604.78 95.45C604.38 94.43 603.96 93.43 603.54 92.43C603.67 92.34 603.82 92.24 604.01 92.11C605.04 91.4 607.08 89.9 608.59 88.36C610.1 86.82 611.08 85.23 611.99 83.31C612.87 81.41 613.67 79.16 613.83 76.3C614.03 73.42 613.41 70.02 612.76 67C612.12 63.98 611.24 61.49 610.55 59.78C609.84 58.08 609.25 57.2 608.89 56.75C608.54 56.29 608.47 56.21 608.04 56.55C607.6 56.88 606.8 57.63 605.77 58.86C604.74 60.1 603.44 61.85 602.33 63.68C601.21 65.52 600.25 67.45 599.69 69.58C599.16 71.71 598.94 74.08 598.97 76.15C598.99 78.23 599.32 79.99 599.74 81.92C600.13 83.67 600.67 85.49 601.12 86.91C600.81 86.24 600.49 85.58 600.18 84.92C599.64 83.8 599.11 82.68 598.58 81.58C598.01 80.5 597.45 79.42 596.89 78.36C595.77 76.23 594.67 74.15 593.5 72.16C592.6 70.59 591.69 69.07 590.79 67.57C590.9 67.48 591.02 67.37 591.19 67.22C592.05 66.45 593.74 64.86 594.95 63.29C596.15 61.72 596.86 60.16 597.48 58.32C598.09 56.48 598.65 54.31 598.45 51.73C598.26 49.15 597.48 46.03 596.54 43.4C595.6 40.77 594.64 38.54 593.84 37.06C593.03 35.59 592.37 34.89 592.02 34.5C591.66 34.11 591.59 34.05 591.23 34.4C590.86 34.75 590.2 35.51 589.36 36.74C588.53 37.98 587.53 39.68 586.7 41.45C585.85 43.24 585.15 45.11 584.84 47.12C584.53 49.14 584.61 51.3 584.87 53.18C585.1 55.08 585.53 56.69 586.15 58.4C586.46 59.25 586.82 60.13 587.18 60.95C587.52 61.78 587.85 62.57 588.14 63.22C588.18 63.31 588.21 63.38 588.25 63.47C585.39 58.95 582.54 54.81 579.79 51.06C578.63 49.4 577.47 47.85 576.34 46.35C576.45 46.24 576.6 46.08 576.83 45.83C577.54 45.04 578.95 43.42 579.9 41.86C580.85 40.3 581.36 38.81 581.76 37.07C581.96 36.2 582.13 35.26 582.21 34.24C582.27 33.24 582.24 32.15 582.05 30.97C581.66 28.63 580.67 25.86 579.6 23.55C578.52 21.24 577.46 19.3 576.61 18.03C575.77 16.75 575.12 16.16 574.76 15.84C574.4 15.52 574.33 15.47 574.02 15.82C573.71 16.17 573.16 16.92 572.5 18.11C571.84 19.31 571.07 20.95 570.42 22.66C569.78 24.37 569.3 26.13 569.19 28.01C569.08 29.88 569.34 31.85 569.74 33.55C570.12 35.27 570.65 36.71 571.37 38.22C572.08 39.73 573.02 41.28 573.65 42.44C574.16 43.35 574.54 43.95 574.84 44.42C574.38 43.82 573.93 43.23 573.5 42.65C571.53 40.08 569.63 37.79 567.98 35.67C565.37 32.52 563.22 29.85 561.51 27.79C561.57 27.71 561.65 27.61 561.73 27.5C562.32 26.72 563.47 25.11 564.22 23.61C564.96 22.1 565.31 20.7 565.54 19.08C565.76 17.45 565.87 15.6 565.36 13.45C564.82 11.34 563.67 8.95 562.55 6.89C561.45 4.82 560.31 3.16 559.43 2.08C558.56 0.990001 557.93 0.500001 557.59 0.230001C557.25 -0.0399993 557.18 -0.0799993 556.92 0.260001C556.66 0.600001 556.21 1.33 555.68 2.48C555.15 3.63 554.55 5.2 554.09 6.8C553.63 8.4 553.33 10.05 553.37 11.76C553.42 13.47 553.76 15.3 554.25 16.84C554.74 18.38 555.35 19.65 556.14 20.96C556.46 21.48 556.8 22.02 557.13 22.55C556.39 21.68 555.2 21.44 554.5 21.96C554.44 22.01 554.39 22.06 554.34 22.11C554.14 21.79 553.9 21.41 553.59 20.94C552.96 19.98 552.03 18.67 551.08 17.52C550.14 16.35 549.13 15.39 547.81 14.42C546.49 13.46 544.86 12.5 543.18 11.86C541.51 11.21 539.72 10.95 537.98 10.8C536.23 10.66 534.48 10.66 533.17 10.74C531.87 10.82 531 10.97 530.58 11.07C530.16 11.17 530.17 11.24 530.31 11.58C530.45 11.92 530.71 12.54 531.44 13.51C532.17 14.49 533.38 15.81 534.9 17.28C536.43 18.74 538.17 20.44 539.97 21.55C541.76 22.67 543.54 23.28 545.14 23.78C546.75 24.26 548.22 24.58 549.99 24.67C551.6 24.75 553.47 24.64 554.55 24.58C554.63 24.68 554.72 24.77 554.8 24.86C554.8 24.86 555.9 25.91 557.91 27.94C559.36 29.36 561.19 31.34 563.37 33.8C562.6 33.14 561.72 32.42 560.85 31.78C559.59 30.84 558.3 30.14 556.76 29.57C555.21 29 553.4 28.55 551.65 28.49C549.91 28.42 548.22 28.77 546.57 29.27C544.93 29.78 543.33 30.45 542.17 31.03C541.01 31.61 540.26 32.1 539.91 32.38C539.56 32.66 539.59 32.72 539.84 33.04C540.08 33.36 540.54 33.94 541.55 34.73C542.58 35.51 544.08 36.58 545.98 37.66C547.87 38.75 550.11 39.9 552.1 40.54C554.11 41.16 555.97 41.21 557.63 41.13C559.29 41.05 560.78 40.85 562.41 40.31C564.05 39.75 565.89 38.82 566.79 38.34C566.91 38.28 567.01 38.22 567.1 38.17C568.55 39.95 570.12 41.86 571.73 43.98C573.64 46.56 575.76 49.31 577.81 52.41C578.01 52.7 578.22 53.01 578.42 53.31C577.56 52.39 576.5 51.31 575.43 50.36C574.13 49.24 572.82 48.36 571.22 47.58C569.61 46.81 567.73 46.13 565.82 45.94C563.92 45.74 562.06 45.94 560.25 46.34C558.44 46.74 556.66 47.32 555.35 47.84C554.04 48.36 553.2 48.83 552.8 49.1C552.39 49.37 552.43 49.44 552.66 49.8C552.89 50.17 553.31 50.83 554.31 51.77C555.31 52.72 556.93 53.92 558.8 55.29C560.68 56.65 563.02 58.06 565.09 58.94C567.19 59.8 569.17 60.03 570.98 60.12C572.78 60.21 574.4 60.14 576.23 59.71C578.06 59.28 580.14 58.47 581.17 58.05C581.29 58 581.39 57.96 581.48 57.92C584.55 62.68 587.67 67.94 590.74 73.67C590.83 73.83 590.92 74 591.01 74.16C590.42 73.43 589.77 72.67 589.13 71.97C588.5 71.29 587.87 70.67 587.2 70.08C586.5 69.51 585.76 68.98 584.94 68.48C583.29 67.47 581.3 66.56 579.31 66.12C577.28 65.7 575.26 65.73 573.26 65.97C571.26 66.21 569.29 66.66 567.82 67.09C566.36 67.52 565.4 67.94 564.94 68.19C564.47 68.43 564.5 68.51 564.71 68.93C564.91 69.35 565.29 70.1 566.27 71.2C566.76 71.75 567.39 72.4 568.15 73.1C568.88 73.82 569.73 74.61 570.68 75.43C571.63 76.25 572.67 77.1 573.76 77.89C574.82 78.7 575.91 79.44 576.99 80.02C579.15 81.17 581.31 81.62 583.2 81.94C585.1 82.25 586.83 82.38 588.87 82.14C590.91 81.89 593.26 81.27 594.41 80.94C594.46 80.93 594.49 80.92 594.54 80.9C594.9 81.61 595.26 82.31 595.62 83.03C596.14 84.12 596.66 85.22 597.19 86.32C597.72 87.43 598.26 88.54 598.8 89.67C599.31 90.81 599.83 91.95 600.35 93.11C600.87 94.27 601.42 95.42 601.93 96.6C602.43 97.79 602.93 98.98 603.43 100.18C603.55 100.47 603.67 100.77 603.79 101.07C603.06 99.8 602.15 98.29 601.2 96.93C600.02 95.3 598.75 93.95 597.14 92.63C595.54 91.31 593.47 90.1 591.36 89.39C589.25 88.68 587.09 88.46 584.93 88.46C582.76 88.47 580.55 88.73 578.92 89.02C577.29 89.31 576.2 89.65 575.67 89.86C575.14 90.07 575.16 90.16 575.33 90.62C575.49 91.09 575.86 91.91 576.72 93.21C577.58 94.52 579.07 96.27 580.9 98.24C582.65 100.24 584.91 102.41 587.03 103.93C589.18 105.44 591.38 106.23 593.42 106.81C595.43 107.4 597.25 107.78 599.48 107.81C601.7 107.83 604.32 107.49 605.61 107.31C605.85 107.27 606.04 107.25 606.2 107.22C608.86 114.41 611.14 122.04 612.56 130.05C612.01 128.63 611.25 126.99 610.49 125.49C609.52 123.55 608.35 121.91 606.8 120.26C606.02 119.44 605.14 118.62 604.19 117.88C603.21 117.14 602.16 116.47 601.08 115.94C598.92 114.87 596.63 114.33 594.31 114.03C591.96 113.74 589.57 113.71 587.77 113.79C585.97 113.88 584.76 114.09 584.16 114.24C583.56 114.39 583.57 114.48 583.68 115C583.78 115.52 584.04 116.44 584.79 117.94C585.51 119.45 586.87 121.5 588.49 123.86C590.11 126.22 592.14 128.86 594.18 130.8C595.22 131.76 596.31 132.53 597.4 133.18C598.47 133.83 599.53 134.37 600.56 134.83C602.62 135.77 604.54 136.46 606.93 136.84C609.33 137.21 612.19 137.27 613.59 137.28C613.65 137.28 613.69 137.28 613.75 137.28C613.89 138.21 614.03 139.13 614.14 140.07C614.6 142.92 614.91 145.8 615.34 148.68C615.56 150.12 615.77 151.57 615.99 153.02C616.21 154.47 616.49 155.92 616.69 157.39C616.96 159.45 617.19 161.53 617.31 163.62C616.97 161.85 616.39 159.59 615.75 157.55C615.01 155.31 614.05 153.35 612.71 151.33C611.34 149.31 609.41 147.26 607.31 145.76C605.22 144.26 602.77 143.32 600.33 142.64C597.87 141.96 595.33 141.53 593.4 141.34C591.47 141.15 590.14 141.18 589.47 141.25C588.8 141.31 588.8 141.41 588.82 141.98C588.85 142.54 588.9 143.56 589.48 145.26C590.09 146.95 591.06 149.35 592.46 152.1C593.17 153.48 593.86 154.95 594.7 156.38C595.11 157.09 595.55 157.8 596 158.47C596.44 159.14 596.88 159.79 597.35 160.39C599.23 162.78 601.46 164.42 603.46 165.78C605.49 167.14 607.42 168.22 609.91 169.05C612.41 169.87 615.45 170.46 616.95 170.73C617.16 170.77 617.33 170.8 617.49 170.82C617.51 178.86 616.79 186.95 615.72 194.98C615.65 194.24 615.57 193.49 615.45 192.77C615.26 191.51 615.04 190.31 614.72 189.12C614.37 187.93 613.94 186.76 613.39 185.55C612.33 183.14 610.66 180.6 608.67 178.61C606.7 176.62 604.31 175.19 601.79 174.02C599.28 172.85 596.64 171.95 594.61 171.4C592.58 170.86 591.15 170.65 590.42 170.6C589.69 170.55 589.67 170.65 589.59 171.25C589.52 171.85 589.39 172.93 589.71 174.82C589.88 175.76 590.11 176.91 590.42 178.22C590.72 179.52 591.17 180.99 591.62 182.57C592.06 184.15 592.59 185.84 593.22 187.5C593.8 189.16 594.47 190.78 595.27 192.23C596.86 195.12 598.79 197.26 600.75 199.11C602.7 200.95 604.48 202.47 606.97 203.85C609.3 205.14 612.2 206.3 613.84 206.92C613.03 211.27 612.1 215.6 611.09 219.89C609.99 224.36 608.88 228.81 607.75 233.25C607.88 232.23 607.98 231.18 608.01 230.16C608.08 228.78 608.08 227.45 608.01 226.13C607.89 224.8 607.67 223.46 607.34 222.07C606.72 219.3 605.44 216.24 603.75 213.74C602.05 211.23 599.76 209.22 597.34 207.48C594.92 205.74 592.29 204.26 590.21 203.27C588.14 202.29 586.65 201.79 585.88 201.59C585.11 201.39 585.07 201.5 584.89 202.11C584.72 202.73 584.38 203.83 584.31 205.87C584.28 207.91 584.41 210.86 584.8 214.37C584.95 216.11 585.16 217.99 585.49 219.87C585.76 221.73 586.14 223.58 586.69 225.27C587.72 228.62 589.4 231.33 591.05 233.69C592.67 236.04 594.29 238.06 596.64 240.06C599 242.06 602.03 244.06 603.55 245.03C603.71 245.13 603.84 245.21 603.97 245.29C600.69 253.63 596.4 261.43 591.92 268.72C591.67 269.15 591.39 269.57 591.13 270C591.34 269.36 591.54 268.71 591.72 268.06C592.57 265.2 592.95 262.45 592.92 259.37C592.9 257.83 592.7 256.16 592.4 254.53C592.1 252.9 591.65 251.28 591 249.74C589.7 246.68 587.85 244.1 585.61 241.7C583.4 239.31 580.92 237.17 578.95 235.68C576.98 234.19 575.51 233.34 574.74 232.97C573.97 232.59 573.89 232.69 573.56 233.28C573.22 233.87 572.63 234.94 572.16 237.05C571.62 239.13 571.21 242.26 570.79 245.96C570.41 249.67 570 253.96 570.35 257.71C570.56 259.61 570.86 261.31 571.34 262.95C571.8 264.58 572.42 266.13 572.97 267.55C574.11 270.4 575.34 272.93 577.32 275.63C579.2 278.19 581.73 280.91 583.14 282.38C583.08 282.47 583.02 282.56 582.96 282.65C580.01 287.18 576.94 291.51 573.68 295.52C569.51 300.5 565.23 305.11 560.86 309.23C561.26 308.73 561.67 308.21 562.08 307.66C563.03 306.36 563.97 304.93 564.81 303.56C565.67 302.2 566.33 300.78 566.95 299.36C567.57 297.94 568.07 296.45 568.43 294.81C568.79 293.17 569.11 291.45 569.19 289.64C569.28 287.83 569.22 286.01 568.95 284.27C568.39 280.75 567.01 277.51 565.31 274.48C563.58 271.42 561.48 268.54 559.76 266.49C558.04 264.44 556.7 263.18 555.98 262.58C555.26 261.99 555.16 262.07 554.68 262.58C554.18 263.08 553.37 264.07 552.33 266.05C551.8 267.04 551.27 268.32 550.68 269.79C550.06 271.23 549.47 272.95 548.79 274.76C548.11 276.56 547.47 278.6 546.82 280.58C546.51 281.58 546.23 282.61 546 283.63C545.74 284.63 545.52 285.62 545.37 286.6C545.22 287.58 545.13 288.56 545.08 289.51C545.02 290.44 545 291.36 545.02 292.27C545.06 294.07 545.25 295.84 545.46 297.48C545.85 300.75 546.4 303.73 547.66 307.13C548.91 310.5 550.85 314.32 551.84 316.2C551.94 316.39 552.02 316.54 552.1 316.69C545.38 321.94 538.68 326.04 532.51 329.2C530.91 330.06 529.31 330.79 527.78 331.51C527.01 331.87 526.26 332.22 525.52 332.56C524.77 332.87 524.03 333.18 523.31 333.49C520.45 334.77 517.74 335.71 515.32 336.63C510.42 338.31 506.55 339.49 503.88 340.22C501.22 340.95 499.8 341.34 499.8 341.34C496.86 342.06 494.89 344.56 495.41 346.92C495.92 349.24 498.84 350.52 501.96 349.83C501.96 349.83 503.48 349.43 506.32 348.61C509.15 347.77 513.25 346.37 518.32 344.22C520.82 343.07 523.61 341.86 526.53 340.3C527.26 339.92 528.01 339.53 528.77 339.13C529.52 338.71 530.28 338.27 531.05 337.83C532.25 337.14 533.49 336.42 534.74 335.66C534.8 335.74 534.86 335.8 534.93 335.88C536.37 337.56 539.38 340.88 542.46 343.2C545.56 345.54 548.66 346.82 552.41 347.82C554.29 348.33 556.35 348.77 558.59 348.93C560.83 349.09 563.35 349.1 566.04 348.61C568.74 348.13 571.75 347.31 574.68 346.15C576.15 345.58 577.65 344.98 579.09 344.31C580.52 343.63 581.93 342.93 583.28 342.23C586.01 340.84 588.4 339.32 590.57 337.96C592.71 336.57 594.49 335.21 595.93 334.05C598.79 331.71 600.05 330.01 600.77 329.11C601.48 328.2 601.59 328.02 600.77 327.47C599.97 326.91 598.24 325.98 595.53 324.94C592.81 323.9 589.11 322.74 585.37 321.86C581.57 320.94 577.75 320.35 573.73 320.45C571.7 320.48 569.64 320.7 567.64 321.03C565.63 321.35 563.64 321.74 561.84 322.22C560.05 322.72 558.34 323.18 556.73 323.77C555.92 324.06 555.13 324.38 554.34 324.71C553.53 325.02 552.73 325.35 551.92 325.71C549.49 326.81 546.91 328 544.73 329.04C548.53 326.34 552.43 323.35 556.4 320.06C561.99 315.41 567.67 310.12 573.23 304.2C573.41 304.31 573.6 304.43 573.84 304.58C575.59 305.63 579.22 307.7 582.54 308.84C585.87 309.98 588.95 310.27 592.5 310.17C594.25 310.1 596.13 309.92 598.14 309.5C599.14 309.29 600.18 309.02 601.25 308.67C602.3 308.31 603.38 307.87 604.49 307.33C605.6 306.79 606.75 306.16 607.91 305.45C609.05 304.73 610.18 303.93 611.31 303.09C613.6 301.42 615.76 299.52 617.75 297.66C621.71 293.94 624.83 290.37 626.72 287.69C628.65 285.03 629.37 283.29 629.75 282.33C630.14 281.38 630.19 281.2 629.35 280.9C628.51 280.59 626.76 280.15 624.12 279.84C621.48 279.54 617.94 279.35 614.38 279.4C610.81 279.45 607.34 279.85 603.76 280.87C601.99 281.38 600.22 282.08 598.55 282.86C596.83 283.62 595.2 284.47 593.73 285.34C592.28 286.22 590.9 287.08 589.63 288.01C588.35 288.93 587.18 289.94 585.91 290.97C584.66 292.01 583.42 293.16 582.24 294.25C581.9 294.56 581.56 294.86 581.23 295.15C583.62 292.34 586.02 289.45 588.25 286.35C589.94 284.11 591.43 281.69 592.99 279.29C594.43 276.81 595.94 274.35 597.25 271.74C598.12 270.1 598.94 268.42 599.75 266.73C599.84 266.76 599.91 266.78 600.01 266.81C601.82 267.34 605.5 268.31 608.75 268.59C612.02 268.86 614.8 268.42 617.9 267.54C619.45 267.1 621.1 266.54 622.8 265.75C624.47 264.94 626.19 263.89 627.94 262.48C631.42 259.66 634.88 255.31 637.6 251.24C639.01 249.22 640.12 247.24 641.14 245.45C642.16 243.67 642.94 242.04 643.5 240.67C644.63 237.94 644.99 236.28 645.12 235.35C645.27 234.43 645.28 234.26 644.46 234.16C643.64 234.05 641.99 234 639.56 234.24C637.13 234.48 633.87 234.99 630.71 235.75C627.54 236.51 624.48 237.55 621.49 239.19C620.01 240.01 618.58 240.99 617.24 242.03C615.87 243.06 614.58 244.16 613.45 245.24C611.22 247.43 609.37 249.5 607.7 251.96C606.24 253.91 604.87 256.08 603.71 257.88C606.32 251.64 608.73 245.23 611.21 238.79C612.8 235.09 614.11 231.26 615.25 227.37C616.98 227.48 620.48 227.62 623.45 227.22C626.41 226.81 628.88 225.89 631.48 224.5C634.06 223.1 636.95 221.26 639.5 218.08C640.77 216.49 642.03 214.58 643.13 212.55C644.21 210.51 645.21 208.35 646.08 206.3C647.72 202.18 648.93 198.47 649.42 195.83C649.96 193.2 649.97 191.65 649.92 190.81C649.89 189.96 649.87 189.81 649.11 189.87L649.17 189.85Z" fill="white" fill-opacity="0.5"/>
<path d="M150.14 341.32C150.14 341.32 148.72 340.93 146.06 340.2C143.4 339.47 139.52 338.29 134.62 336.61C132.2 335.69 129.49 334.74 126.63 333.47C125.91 333.17 125.17 332.86 124.42 332.54C123.68 332.2 122.93 331.85 122.16 331.49C120.63 330.77 119.03 330.05 117.43 329.18C111.26 326.02 104.56 321.92 97.8401 316.67C97.9201 316.52 98.0001 316.37 98.1001 316.18C99.0901 314.29 101.03 310.48 102.28 307.11C103.55 303.71 104.09 300.73 104.48 297.46C104.68 295.81 104.88 294.05 104.92 292.25C104.94 291.35 104.92 290.43 104.86 289.49C104.81 288.54 104.72 287.56 104.57 286.58C104.42 285.6 104.2 284.6 103.94 283.61C103.71 282.59 103.43 281.56 103.12 280.56C102.48 278.58 101.84 276.54 101.15 274.74C100.48 272.92 99.8901 271.21 99.2601 269.77C98.6701 268.3 98.1401 267.02 97.6101 266.03C96.5801 264.05 95.7601 263.06 95.2601 262.56C94.7801 262.05 94.6701 261.97 93.9601 262.56C93.2401 263.15 91.9001 264.41 90.1801 266.47C88.4601 268.53 86.3601 271.41 84.6301 274.46C82.9301 277.49 81.5501 280.73 80.9901 284.25C80.7301 285.99 80.6701 287.82 80.7501 289.62C80.8301 291.43 81.1501 293.15 81.5101 294.79C81.8701 296.44 82.3801 297.92 82.9901 299.34C83.6101 300.76 84.2701 302.18 85.1301 303.54C85.9801 304.91 86.9101 306.34 87.8601 307.64C88.2701 308.18 88.6801 308.7 89.0801 309.21C84.7101 305.09 80.4301 300.48 76.2601 295.5C73.0101 291.49 69.9401 287.16 66.9801 282.63C66.9201 282.54 66.8601 282.45 66.8001 282.36C68.2201 280.89 70.7401 278.17 72.6201 275.61C74.6001 272.91 75.8201 270.38 76.9701 267.53C77.5301 266.11 78.1401 264.56 78.6001 262.93C79.0901 261.29 79.3901 259.59 79.5901 257.69C79.9301 253.93 79.5301 249.65 79.1501 245.94C78.7301 242.25 78.3201 239.11 77.7801 237.03C77.3101 234.92 76.7201 233.85 76.3801 233.26C76.0401 232.67 75.9701 232.57 75.2001 232.95C74.4301 233.33 72.9601 234.18 70.9901 235.66C69.0201 237.15 66.5401 239.29 64.3301 241.68C62.0901 244.08 60.2301 246.66 58.9401 249.72C58.2801 251.25 57.8401 252.87 57.5401 254.51C57.2401 256.14 57.0501 257.8 57.0201 259.35C57.0001 262.43 57.3701 265.18 58.2201 268.04C58.3901 268.68 58.5901 269.33 58.8101 269.98C58.5501 269.55 58.2801 269.14 58.0201 268.7C53.5401 261.41 49.2501 253.61 45.9701 245.27C46.1001 245.19 46.2301 245.11 46.3901 245.01C47.9101 244.04 50.9401 242.04 53.3001 240.04C55.6401 238.03 57.2701 236.01 58.8901 233.67C60.5401 231.31 62.2201 228.61 63.2501 225.25C63.8001 223.56 64.1801 221.71 64.4501 219.85C64.7801 217.97 65.0001 216.09 65.1401 214.35C65.5401 210.84 65.6601 207.89 65.6301 205.85C65.5601 203.82 65.2201 202.71 65.0501 202.09C64.8701 201.48 64.8201 201.37 64.0601 201.57C63.2901 201.77 61.8001 202.27 59.7301 203.25C57.6401 204.24 55.0201 205.72 52.6001 207.46C50.1801 209.2 47.8901 211.21 46.1901 213.72C44.5001 216.22 43.2201 219.28 42.6001 222.05C42.2701 223.45 42.0501 224.78 41.9301 226.11C41.8501 227.43 41.8501 228.75 41.9301 230.14C41.9601 231.16 42.0601 232.2 42.1901 233.23C41.0601 228.79 39.9501 224.34 38.8501 219.87C37.8401 215.58 36.9101 211.25 36.1001 206.9C37.7401 206.28 40.6301 205.12 42.9701 203.83C45.4601 202.45 47.2401 200.93 49.1901 199.09C51.1501 197.24 53.0801 195.1 54.6701 192.21C55.4701 190.76 56.1301 189.14 56.7201 187.48C57.3501 185.82 57.8801 184.13 58.3201 182.55C58.7701 180.97 59.2201 179.51 59.5201 178.2C59.8201 176.9 60.0601 175.75 60.2301 174.8C60.5401 172.91 60.4201 171.83 60.3501 171.23C60.2801 170.63 60.2501 170.53 59.5201 170.58C58.7901 170.63 57.3601 170.83 55.3301 171.38C53.3001 171.93 50.6601 172.83 48.1501 174C45.6301 175.17 43.2401 176.61 41.2701 178.59C39.2801 180.57 37.6101 183.12 36.5501 185.53C36.0001 186.74 35.5701 187.91 35.2201 189.1C34.9001 190.28 34.6801 191.48 34.4901 192.75C34.3701 193.47 34.2901 194.22 34.2201 194.96C33.1501 186.93 32.4301 178.84 32.4501 170.8C32.6001 170.78 32.7801 170.75 32.9901 170.71C34.5001 170.44 37.5301 169.86 40.0301 169.03C42.5201 168.2 44.4501 167.12 46.4801 165.76C48.4901 164.4 50.7201 162.77 52.5901 160.37C53.0601 159.77 53.5001 159.12 53.9401 158.45C54.3901 157.78 54.8301 157.07 55.2401 156.36C56.0801 154.93 56.7701 153.45 57.4801 152.08C58.8801 149.33 59.8501 146.93 60.4601 145.24C61.0401 143.54 61.0901 142.52 61.1201 141.96C61.1401 141.4 61.1501 141.3 60.4701 141.23C59.7901 141.16 58.4701 141.13 56.5401 141.32C54.6101 141.51 52.0701 141.94 49.6101 142.62C47.1701 143.31 44.7201 144.24 42.6301 145.74C40.5301 147.24 38.6001 149.3 37.2301 151.31C35.8801 153.33 34.9301 155.29 34.1901 157.53C33.5501 159.57 32.9701 161.83 32.6301 163.6C32.7501 161.51 32.9801 159.43 33.2501 157.37C33.4501 155.9 33.7301 154.45 33.9501 153C34.1701 151.55 34.3801 150.1 34.6001 148.66C35.0301 145.78 35.3401 142.89 35.8001 140.05C35.9101 139.12 36.0601 138.19 36.1901 137.26C36.2401 137.26 36.2901 137.26 36.3501 137.26C37.7601 137.25 40.6101 137.18 43.0101 136.82C45.4001 136.44 47.3201 135.75 49.3801 134.81C50.4101 134.34 51.4701 133.81 52.5401 133.16C53.6301 132.51 54.7201 131.74 55.7601 130.78C57.8001 128.84 59.8301 126.2 61.4501 123.84C63.0801 121.48 64.4401 119.43 65.1501 117.92C65.9001 116.42 66.1601 115.5 66.2601 114.98C66.3801 114.47 66.3801 114.37 65.7801 114.22C65.1801 114.07 63.9701 113.86 62.1701 113.77C60.3701 113.68 57.9801 113.72 55.6301 114.01C53.3101 114.31 51.0201 114.85 48.8601 115.92C47.7801 116.46 46.7301 117.12 45.7501 117.86C44.8001 118.61 43.9201 119.42 43.1401 120.24C41.5901 121.89 40.4201 123.53 39.4501 125.47C38.6901 126.97 37.9401 128.61 37.3801 130.03C38.7901 122.02 41.0801 114.39 43.7401 107.2C43.9001 107.23 44.0801 107.26 44.3301 107.29C45.6201 107.48 48.2401 107.81 50.4601 107.79C52.6801 107.77 54.5101 107.38 56.5201 106.79C58.5601 106.21 60.7601 105.43 62.9101 103.91C65.0301 102.39 67.2901 100.22 69.0401 98.22C70.8701 96.25 72.3501 94.5 73.2201 93.19C74.0801 91.88 74.4501 91.07 74.6101 90.6C74.7801 90.14 74.8001 90.05 74.2701 89.84C73.7401 89.63 72.6501 89.29 71.0201 89C69.3901 88.71 67.1801 88.46 65.0101 88.44C62.8501 88.44 60.6901 88.65 58.5801 89.37C56.4701 90.08 54.4001 91.3 52.8001 92.61C51.1801 93.92 49.9201 95.28 48.7401 96.91C47.7901 98.26 46.8701 99.77 46.1501 101.05C46.2701 100.76 46.3901 100.45 46.5101 100.16C47.0101 98.96 47.5101 97.76 48.0101 96.58C48.5201 95.4 49.0701 94.25 49.5901 93.09C50.1101 91.94 50.6301 90.79 51.1401 89.65C51.6801 88.53 52.2201 87.41 52.7501 86.3C53.2801 85.19 53.8001 84.09 54.3201 83.01C54.6801 82.29 55.0401 81.59 55.4001 80.88C55.4401 80.89 55.4801 80.9 55.5301 80.92C56.6901 81.25 59.0401 81.87 61.0701 82.12C63.1101 82.36 64.8401 82.23 66.7401 81.92C68.6201 81.6 70.7901 81.15 72.9501 80C74.0301 79.43 75.1301 78.68 76.1801 77.87C77.2701 77.08 78.3201 76.23 79.2601 75.41C80.2101 74.59 81.0601 73.81 81.7901 73.08C82.5501 72.37 83.1901 71.73 83.6701 71.18C84.6501 70.08 85.0201 69.32 85.2301 68.91C85.4301 68.49 85.4601 68.42 85.0001 68.17C84.5401 67.92 83.5801 67.51 82.1201 67.07C80.6501 66.64 78.6801 66.19 76.6801 65.95C74.6801 65.71 72.6601 65.68 70.6301 66.1C68.6401 66.54 66.6501 67.46 65.0001 68.46C64.1701 68.96 63.4301 69.49 62.7401 70.06C62.0701 70.64 61.4401 71.27 60.8101 71.95C60.1701 72.65 59.5201 73.4 58.9301 74.14C59.0201 73.98 59.1101 73.81 59.2001 73.65C62.2701 67.92 65.3901 62.67 68.4601 57.9C68.5501 57.94 68.6501 57.98 68.7701 58.03C69.7901 58.45 71.8701 59.26 73.7101 59.69C75.5301 60.11 77.1601 60.18 78.9601 60.1C80.7601 60.02 82.7501 59.78 84.8501 58.92C86.9201 58.04 89.2601 56.63 91.1401 55.27C93.0201 53.9 94.6301 52.7 95.6301 51.75C96.6401 50.81 97.0601 50.15 97.2801 49.78C97.5101 49.41 97.5401 49.34 97.1401 49.08C96.7401 48.81 95.8901 48.35 94.5901 47.82C93.2801 47.3 91.5101 46.72 89.6901 46.32C87.8801 45.93 86.0201 45.72 84.1201 45.92C82.2101 46.12 80.3301 46.8 78.7201 47.56C77.1201 48.34 75.8001 49.22 74.5101 50.34C73.4501 51.29 72.3801 52.37 71.5201 53.29C71.7201 52.99 71.9301 52.69 72.1301 52.39C74.1801 49.3 76.3101 46.55 78.2101 43.96C79.8201 41.83 81.3901 39.92 82.8401 38.15C82.9301 38.2 83.0301 38.25 83.1501 38.32C84.0501 38.8 85.8901 39.73 87.5301 40.29C89.1701 40.84 90.6501 41.04 92.3101 41.11C93.9801 41.19 95.8301 41.14 97.8401 40.52C99.8301 39.88 102.07 38.74 103.96 37.64C105.86 36.55 107.36 35.48 108.39 34.71C109.41 33.92 109.86 33.34 110.1 33.02C110.35 32.7 110.38 32.64 110.03 32.36C109.68 32.08 108.94 31.59 107.77 31.01C106.6 30.43 105.01 29.76 103.37 29.25C101.72 28.74 100.03 28.4 98.2901 28.47C96.5501 28.53 94.7301 28.97 93.1801 29.55C91.6401 30.13 90.3501 30.82 89.0901 31.76C88.2201 32.39 87.3401 33.11 86.5701 33.78C88.7501 31.32 90.5901 29.34 92.0301 27.92C94.0401 25.89 95.1401 24.84 95.1401 24.84C95.2301 24.76 95.3201 24.66 95.3901 24.56C96.4701 24.62 98.3401 24.74 99.9501 24.65C101.72 24.56 103.19 24.24 104.8 23.76C106.4 23.26 108.18 22.65 109.97 21.53C111.76 20.41 113.51 18.72 115.04 17.26C116.56 15.79 117.77 14.46 118.5 13.49C119.23 12.52 119.49 11.9 119.63 11.56C119.77 11.22 119.79 11.15 119.36 11.05C118.94 10.94 118.08 10.79 116.77 10.72C115.46 10.64 113.71 10.64 111.96 10.78C110.22 10.94 108.43 11.19 106.76 11.84C105.08 12.48 103.45 13.44 102.13 14.4C100.81 15.36 99.7901 16.33 98.8601 17.5C97.9101 18.65 96.9901 19.97 96.3501 20.92C96.0401 21.39 95.8001 21.77 95.6001 22.09C95.5501 22.04 95.5001 21.98 95.4401 21.94C94.7401 21.41 93.5601 21.66 92.8101 22.53C93.1401 22 93.4801 21.47 93.8001 20.94C94.5901 19.62 95.2001 18.36 95.6901 16.82C96.1801 15.29 96.5201 13.45 96.5701 11.74C96.6101 10.03 96.3101 8.37998 95.8501 6.77998C95.3901 5.17998 94.7901 3.60998 94.2601 2.45998C93.7301 1.30998 93.2801 0.579981 93.0201 0.239981C92.7601 -0.100019 92.6901 -0.0600188 92.3501 0.209981C92.0001 0.479981 91.3801 0.979981 90.5101 2.05998C89.6401 3.14998 88.5001 4.79998 87.3901 6.86998C86.2701 8.91998 85.1201 11.32 84.5801 13.43C84.0701 15.57 84.1801 17.43 84.4001 19.06C84.6201 20.68 84.9701 22.09 85.7201 23.59C86.4701 25.09 87.6201 26.7 88.2101 27.48C88.3001 27.6 88.3701 27.69 88.4301 27.77C86.7201 29.83 84.5701 32.49 81.9601 35.65C80.3101 37.77 78.4001 40.06 76.4401 42.63C76.0101 43.21 75.5601 43.8 75.1001 44.4C75.4001 43.93 75.7801 43.32 76.2901 42.42C76.9201 41.26 77.8601 39.72 78.5701 38.2C79.2901 36.69 79.8301 35.26 80.2001 33.53C80.6001 31.83 80.8701 29.86 80.7501 27.99C80.6401 26.12 80.1601 24.35 79.5201 22.64C78.8801 20.93 78.1001 19.28 77.4401 18.09C76.7801 16.89 76.2301 16.14 75.9201 15.8C75.6101 15.45 75.5401 15.5 75.1801 15.82C74.8201 16.14 74.1701 16.72 73.3301 18.01C72.4801 19.28 71.4201 21.22 70.3401 23.53C69.2601 25.84 68.2801 28.6 67.8901 30.95C67.7001 32.13 67.6701 33.21 67.7301 34.22C67.8101 35.24 67.9801 36.18 68.1801 37.05C68.5801 38.79 69.0901 40.29 70.0401 41.84C71.0001 43.4 72.4001 45.02 73.1101 45.81C73.3401 46.06 73.4901 46.23 73.6001 46.33C72.4701 47.82 71.3001 49.38 70.1501 51.04C67.4001 54.79 64.5501 58.93 61.6901 63.45C61.7301 63.36 61.7601 63.29 61.8001 63.2C62.0901 62.55 62.4201 61.77 62.7601 60.93C63.1201 60.11 63.4801 59.23 63.7901 58.38C64.4101 56.68 64.8401 55.07 65.0701 53.16C65.3301 51.29 65.4101 49.12 65.1001 47.1C64.7901 45.08 64.0901 43.21 63.2401 41.43C62.4001 39.66 61.4101 37.96 60.5801 36.72C59.7501 35.49 59.0801 34.73 58.7101 34.38C58.3401 34.03 58.2701 34.09 57.9201 34.48C57.5701 34.87 56.9001 35.57 56.1001 37.04C55.3101 38.52 54.3401 40.75 53.4001 43.38C52.4601 46 51.6801 49.12 51.4901 51.71C51.3001 54.29 51.8601 56.46 52.4601 58.3C53.0801 60.14 53.7901 61.69 54.9901 63.27C56.2001 64.84 57.8901 66.43 58.7501 67.2C58.9101 67.35 59.0401 67.46 59.1501 67.55C58.2401 69.05 57.3401 70.57 56.4401 72.14C55.2701 74.13 54.1701 76.21 53.0501 78.34C52.4901 79.4 51.9301 80.48 51.3601 81.56C50.8301 82.66 50.3001 83.78 49.7601 84.9C49.4501 85.56 49.1401 86.23 48.8201 86.89C49.2801 85.47 49.8201 83.65 50.2001 81.9C50.6201 79.97 50.9501 78.21 50.9701 76.13C51.0001 74.06 50.7801 71.69 50.2501 69.56C49.6901 67.42 48.7401 65.49 47.6101 63.66C46.4901 61.83 45.1901 60.08 44.1701 58.84C43.1401 57.6 42.3401 56.86 41.9001 56.53C41.4701 56.19 41.3901 56.27 41.0501 56.73C40.6901 57.18 40.1001 58.06 39.3901 59.76C38.7001 61.47 37.8201 63.97 37.1801 66.98C36.5401 70 35.9101 73.4 36.1101 76.28C36.2701 79.14 37.0801 81.38 37.9501 83.29C38.8601 85.21 39.8401 86.8 41.3501 88.34C42.8601 89.88 44.9101 91.37 45.9301 92.09C46.1301 92.23 46.2701 92.33 46.4001 92.41C45.9801 93.41 45.5501 94.41 45.1601 95.43C44.7001 96.65 44.2401 97.88 43.7701 99.12C41.4001 105.45 39.2501 112.1 37.2001 118.98C37.2201 118.87 37.2401 118.75 37.2701 118.63C37.4301 117.86 37.6301 116.85 37.9001 115.2C38.2101 113.56 38.5701 111.26 38.7501 109.12C38.9401 106.98 39.0301 105.04 38.7501 102.79C38.4601 100.54 37.9801 98.04 37.0801 95.8C36.1801 93.56 34.8701 91.6 33.4201 89.77C31.9901 87.95 30.4001 86.25 29.1201 85.04C27.8401 83.84 26.8801 83.14 26.3601 82.84C25.8501 82.53 25.7801 82.63 25.4701 83.18C25.1701 83.74 24.5801 84.75 24.0301 86.69C23.5101 88.65 22.9601 91.52 22.6201 94.87C22.4801 96.55 22.3701 98.35 22.3701 100.11C22.3701 100.99 22.3901 101.86 22.4501 102.7C22.5301 103.55 22.6401 104.36 22.7801 105.13C23.3701 108.21 24.5301 110.51 25.7901 112.44C27.0501 114.37 28.3401 115.94 30.1901 117.37C32.0401 118.8 34.4601 120.09 35.6701 120.7C36.1101 120.92 36.3801 121.05 36.5601 121.13C35.6301 124.33 34.7101 127.57 33.8101 130.85C33.0801 133.65 32.3401 136.47 31.7501 139.35C31.3801 141.01 31.0701 142.68 30.7901 144.37C30.7701 143.02 30.7301 141.54 30.6801 140.14C30.5701 137.82 30.2201 135.69 29.6401 133.33C29.0501 130.98 28.0001 128.33 26.7301 126.07C25.4301 123.81 23.7501 121.9 21.9001 120.14C20.0501 118.39 18.0801 116.79 16.5301 115.68C14.9801 114.58 13.8401 113.97 13.2401 113.72C12.6401 113.47 12.5901 113.58 12.3301 114.23C12.0701 114.88 11.6101 116.07 11.3401 118.29C11.0701 120.5 10.8601 123.7 11.0901 127.4C11.2201 131.09 11.7801 135.26 12.8701 138.49C13.9701 141.72 15.7001 144.02 17.3401 145.89C18.9701 147.76 20.6201 149.22 22.8701 150.45C25.1101 151.67 27.9301 152.64 29.3301 153.09C29.5001 153.14 29.6501 153.19 29.7801 153.23C29.7001 154.51 29.6201 155.78 29.5901 157.07C29.5501 160.09 29.3001 163.09 29.1501 166.12C28.8701 171.13 28.7001 176.2 28.6901 181.29C28.4001 179.41 27.9001 177.01 27.4301 174.8C26.9001 172.34 26.1301 170.12 25.0901 167.69C24.0201 165.27 22.4501 162.62 20.6901 160.41C18.8901 158.2 16.7401 156.44 14.4601 154.87C12.2201 153.31 9.83007 151.92 7.97007 150.99C6.11007 150.07 4.79007 149.6 4.10007 149.44C3.42007 149.27 3.37007 149.4 3.22007 150.15C3.08007 150.9 2.76007 152.28 2.84007 154.73C2.88007 155.95 3.01007 157.44 3.22007 159.12C3.33007 159.96 3.44007 160.85 3.60007 161.77C3.77007 162.7 3.96007 163.66 4.18007 164.65C4.98007 168.62 6.35006 173.03 8.09007 176.31C9.91007 179.59 12.1401 181.75 14.2301 183.45C16.3701 185.15 18.4201 186.41 21.0201 187.3C23.6301 188.18 26.8201 188.68 28.4001 188.89C28.5501 188.91 28.6701 188.92 28.7901 188.94C28.9501 193.6 29.2801 198.27 29.8201 202.92C30.3401 206.94 30.9501 210.95 31.7001 214.94C31.3601 214.11 31.0201 213.27 30.6701 212.46C29.5301 209.95 28.3901 207.71 26.7401 205.34C25.0301 202.98 23.0101 200.43 20.6001 198.42C18.2001 196.41 15.6501 194.92 12.9101 193.68C10.1901 192.43 7.33007 191.4 5.19007 190.76C3.04007 190.12 1.54007 189.87 0.770065 189.83C0.0100653 189.78 -0.00993473 189.93 -0.0399347 190.77C-0.0899347 191.61 -0.0699347 193.16 0.460065 195.79C0.960065 198.42 2.16007 202.13 3.80007 206.26C4.67007 208.31 5.67007 210.47 6.75007 212.51C7.85007 214.55 9.11006 216.46 10.3801 218.04C12.9301 221.22 15.8201 223.06 18.4001 224.46C21.0101 225.85 23.4801 226.77 26.4301 227.18C29.4001 227.58 32.9001 227.44 34.6301 227.33C35.7601 231.23 37.0701 235.06 38.6701 238.75C41.1501 245.19 43.5601 251.6 46.1701 257.84C45.0101 256.05 43.6401 253.87 42.1801 251.92C40.5001 249.47 38.6601 247.39 36.4301 245.2C35.3001 244.12 34.0101 243.02 32.6401 241.99C31.3001 240.94 29.8701 239.97 28.3901 239.15C25.4001 237.51 22.3401 236.47 19.1701 235.71C16.0101 234.95 12.7501 234.44 10.3201 234.2C7.89006 233.96 6.24007 234.01 5.42007 234.12C4.60007 234.22 4.61007 234.39 4.76007 235.31C4.89007 236.23 5.25007 237.89 6.38007 240.63C6.94007 242 7.72006 243.62 8.74006 245.41C9.75006 247.19 10.8701 249.18 12.2801 251.2C15.0001 255.28 18.4601 259.62 21.9401 262.44C23.6901 263.85 25.4201 264.9 27.0801 265.71C28.7701 266.51 30.4201 267.06 31.9801 267.5C35.0801 268.39 37.8601 268.83 41.1301 268.55C44.3801 268.28 48.0601 267.3 49.8701 266.77C49.9701 266.74 50.0401 266.72 50.1301 266.69C50.9401 268.38 51.7601 270.06 52.6301 271.7C53.9401 274.3 55.4501 276.77 56.8901 279.25C58.4401 281.65 59.9301 284.07 61.6301 286.31C63.8601 289.41 66.2601 292.3 68.6501 295.11C68.3201 294.81 67.9901 294.51 67.6401 294.21C66.4601 293.12 65.2201 291.98 63.9701 290.93C62.7101 289.9 61.5301 288.89 60.2501 287.97C58.9801 287.04 57.6001 286.19 56.1501 285.3C54.6801 284.43 53.0501 283.58 51.3301 282.82C49.6501 282.04 47.8901 281.35 46.1201 280.83C42.5401 279.81 39.0701 279.42 35.5001 279.36C31.9301 279.3 28.4001 279.5 25.7601 279.8C23.1201 280.11 21.3701 280.54 20.5301 280.86C19.6801 281.16 19.7401 281.34 20.1301 282.29C20.5101 283.24 21.2301 284.99 23.1601 287.65C25.0501 290.33 28.1701 293.9 32.1301 297.62C34.1101 299.48 36.2801 301.38 38.5701 303.05C39.7001 303.89 40.8401 304.69 41.9701 305.41C43.1301 306.12 44.2701 306.75 45.3901 307.29C46.5001 307.83 47.5801 308.27 48.6301 308.63C49.7001 308.98 50.7401 309.25 51.7401 309.46C53.7501 309.88 55.6301 310.05 57.3801 310.13C60.9401 310.24 64.0101 309.95 67.3401 308.8C70.6601 307.66 74.2901 305.59 76.0401 304.54C76.2801 304.4 76.4801 304.27 76.6501 304.16C82.2101 310.08 87.8901 315.37 93.4801 320.02C97.4501 323.31 101.35 326.3 105.15 329C102.97 327.96 100.39 326.76 97.9601 325.67C97.1501 325.32 96.3401 324.98 95.5401 324.67C94.7501 324.34 93.9601 324.02 93.1501 323.73C91.5401 323.14 89.8301 322.67 88.0401 322.18C86.2401 321.7 84.2601 321.31 82.2401 320.99C80.2401 320.66 78.1801 320.44 76.1501 320.41C72.1201 320.31 68.3001 320.9 64.5101 321.82C60.7701 322.7 57.0801 323.86 54.3501 324.9C51.6301 325.94 49.9101 326.87 49.1101 327.43C48.3001 327.98 48.4101 328.15 49.1101 329.07C49.8301 329.97 51.0901 331.67 53.9501 334.01C55.3901 335.17 57.1701 336.52 59.3101 337.92C61.4801 339.28 63.8701 340.8 66.6001 342.19C67.9601 342.89 69.3601 343.6 70.7901 344.27C72.2301 344.94 73.7301 345.54 75.2001 346.11C78.1201 347.27 81.1401 348.09 83.8401 348.57C86.5301 349.06 89.0601 349.05 91.2901 348.89C93.5301 348.73 95.5901 348.29 97.4701 347.78C101.22 346.78 104.32 345.5 107.42 343.16C110.5 340.84 113.51 337.52 114.95 335.84C115.02 335.76 115.07 335.69 115.14 335.62C116.38 336.39 117.62 337.1 118.83 337.79C119.6 338.23 120.37 338.66 121.11 339.09C121.87 339.49 122.62 339.88 123.35 340.26C126.27 341.82 129.06 343.03 131.56 344.18C136.62 346.32 140.73 347.73 143.56 348.57C146.4 349.39 147.92 349.79 147.92 349.79C151.04 350.48 153.96 349.2 154.47 346.88C154.99 344.52 153.03 342.01 150.08 341.3L150.14 341.32Z" fill="white" fill-opacity="0.5"/>
<path d="M156.41 264.73C156.06 265.25 155.64 265.78 155.15 266.31L144.56 277.61H160.37V275.05H150.16L157.3 267.79C158.18 266.89 158.89 265.88 159.44 264.75C159.99 263.62 160.27 262.48 160.27 261.33C160.27 260.65 160.13 259.93 159.85 259.19C159.57 258.44 159.15 257.74 158.57 257.09C157.99 256.44 157.26 255.91 156.36 255.49C155.46 255.07 154.4 254.87 153.16 254.87C151.62 254.87 150.31 255.21 149.21 255.88C148.11 256.55 147.27 257.49 146.7 258.7C146.13 259.91 145.83 261.31 145.83 262.91H148.55C148.55 261.78 148.73 260.8 149.09 259.98C149.45 259.16 149.98 258.53 150.67 258.09C151.36 257.65 152.19 257.43 153.15 257.43C153.83 257.43 154.44 257.55 154.97 257.78C155.5 258.01 155.96 258.32 156.33 258.71C156.7 259.09 156.99 259.52 157.18 259.99C157.37 260.46 157.47 260.94 157.47 261.43C157.47 262.03 157.38 262.6 157.2 263.14C157.02 263.68 156.75 264.22 156.4 264.74L156.41 264.73Z" fill="white"/>
<path d="M167.39 276.44C168.64 277.43 170.08 277.93 171.73 277.93C173.38 277.93 174.82 277.43 176.07 276.44C177.32 275.45 178.29 274.09 179 272.36C179.7 270.63 180.05 268.65 180.05 266.41C180.05 264.17 179.7 262.19 179 260.46C178.29 258.73 177.32 257.37 176.07 256.38C174.82 255.39 173.38 254.89 171.73 254.89C170.08 254.89 168.64 255.39 167.39 256.38C166.14 257.37 165.17 258.73 164.46 260.46C163.76 262.19 163.41 264.17 163.41 266.41C163.41 268.65 163.76 270.63 164.46 272.36C165.17 274.09 166.14 275.45 167.39 276.44ZM166.51 262.81C166.77 261.71 167.14 260.76 167.63 259.96C168.12 259.16 168.71 258.54 169.41 258.1C170.1 257.66 170.87 257.44 171.73 257.44C172.59 257.44 173.38 257.66 174.07 258.1C174.75 258.54 175.34 259.16 175.83 259.96C176.32 260.76 176.69 261.71 176.95 262.81C177.21 263.91 177.33 265.11 177.33 266.41C177.33 267.71 177.2 268.91 176.95 270.01C176.69 271.11 176.32 272.06 175.83 272.86C175.34 273.66 174.75 274.28 174.07 274.72C173.39 275.16 172.61 275.38 171.73 275.38C170.85 275.38 170.1 275.16 169.41 274.72C168.72 274.28 168.12 273.66 167.63 272.86C167.14 272.06 166.77 271.11 166.51 270.01C166.25 268.91 166.13 267.71 166.13 266.41C166.13 265.11 166.26 263.91 166.51 262.81Z" fill="white"/>
<path d="M196.84 264.74C197.39 263.61 197.67 262.47 197.67 261.32C197.67 260.64 197.53 259.92 197.25 259.18C196.97 258.43 196.55 257.73 195.97 257.08C195.39 256.43 194.66 255.9 193.76 255.48C192.86 255.06 191.8 254.86 190.56 254.86C189.02 254.86 187.71 255.2 186.61 255.87C185.51 256.54 184.67 257.48 184.1 258.69C183.53 259.9 183.24 261.3 183.24 262.9H185.96C185.96 261.77 186.14 260.79 186.5 259.97C186.86 259.15 187.39 258.52 188.08 258.08C188.77 257.64 189.6 257.42 190.56 257.42C191.24 257.42 191.85 257.54 192.38 257.77C192.91 258 193.37 258.31 193.74 258.7C194.11 259.08 194.4 259.51 194.59 259.98C194.78 260.45 194.88 260.93 194.88 261.42C194.88 262.02 194.79 262.59 194.61 263.13C194.43 263.67 194.16 264.21 193.81 264.73C193.46 265.25 193.04 265.78 192.55 266.31L181.96 277.61H197.77V275.05H187.56L194.69 267.79C195.57 266.89 196.28 265.88 196.83 264.75L196.84 264.74Z" fill="white"/>
<path d="M210.99 277.61H213.71V273.13H217.23V270.73H213.71V255.21H212.59L200.17 273.13H210.99V277.61ZM210.99 261.26V270.73H204.65L210.99 261.26Z" fill="white"/>
<path d="M236.59 277.61V257.77H242.35V255.21H228.11V257.77H233.87V277.61H236.59Z" fill="white"/>
<path d="M243.93 276.95C244.98 277.6 246.2 277.93 247.56 277.93C249.14 277.93 250.51 277.61 251.67 276.99C252.83 276.36 253.8 275.43 254.56 274.19L252.48 272.88C251.94 273.78 251.29 274.44 250.53 274.88C249.76 275.32 248.88 275.54 247.87 275.54C246.86 275.54 246.01 275.33 245.31 274.9C244.6 274.47 244.07 273.86 243.71 273.04C243.43 272.42 243.27 271.71 243.2 270.9H254.78C254.78 270.9 254.78 270.76 254.8 270.6C254.81 270.44 254.82 270.29 254.82 270.14C254.82 268.58 254.54 267.24 253.99 266.11C253.43 264.98 252.64 264.11 251.61 263.5C250.58 262.89 249.33 262.59 247.88 262.59C246.43 262.59 245.16 262.91 244.06 263.55C242.96 264.19 242.11 265.09 241.5 266.24C240.89 267.39 240.59 268.74 240.59 270.27C240.59 271.8 240.88 273.12 241.47 274.27C242.06 275.42 242.88 276.32 243.93 276.97V276.95ZM245.37 265.43C246.06 265.01 246.9 264.81 247.88 264.81C248.71 264.81 249.44 264.99 250.06 265.35C250.68 265.71 251.17 266.21 251.52 266.85C251.81 267.39 251.98 268.01 252.03 268.71H243.32C243.42 268.16 243.57 267.66 243.78 267.22C244.15 266.44 244.69 265.84 245.38 265.43H245.37Z" fill="white"/>
<path d="M261.95 265.64C262.71 265.19 263.57 264.97 264.53 264.97C265.32 264.97 266.06 265.09 266.75 265.34C267.44 265.59 268.05 265.91 268.56 266.32C269.07 266.73 269.44 267.17 269.65 267.66V264.46C269.14 263.86 268.41 263.4 267.46 263.07C266.51 262.74 265.53 262.57 264.53 262.57C263.1 262.57 261.81 262.9 260.66 263.56C259.51 264.22 258.6 265.13 257.92 266.28C257.24 267.43 256.91 268.75 256.91 270.25C256.91 271.75 257.25 273.04 257.92 274.2C258.59 275.36 259.5 276.28 260.66 276.94C261.82 277.6 263.1 277.93 264.53 277.93C265.53 277.93 266.51 277.76 267.46 277.43C268.41 277.1 269.14 276.64 269.65 276.04V272.84C269.44 273.31 269.07 273.75 268.56 274.17C268.05 274.59 267.44 274.92 266.75 275.16C266.06 275.4 265.32 275.53 264.53 275.53C263.57 275.53 262.71 275.3 261.95 274.84C261.19 274.38 260.59 273.76 260.16 272.97C259.72 272.18 259.5 271.27 259.5 270.25C259.5 269.23 259.72 268.31 260.16 267.51C260.6 266.71 261.2 266.09 261.95 265.64Z" fill="white"/>
<path d="M285.64 277.61V268.33C285.64 267.05 285.43 265.98 285.02 265.13C284.6 264.28 284.02 263.64 283.26 263.21C282.5 262.78 281.61 262.57 280.59 262.57C279.57 262.57 278.67 262.84 277.89 263.37C277.2 263.84 276.64 264.48 276.21 265.25V252.65H273.65V277.61H276.21V268.65C276.21 267.95 276.36 267.32 276.67 266.76C276.98 266.21 277.42 265.77 277.98 265.45C278.54 265.13 279.2 264.97 279.95 264.97C280.99 264.97 281.78 265.28 282.3 265.9C282.82 266.52 283.08 267.44 283.08 268.65V277.61H285.64Z" fill="white"/>
<path d="M302.44 277.61V268.33C302.44 266.56 301.98 265.16 301.08 264.12C300.17 263.09 298.94 262.57 297.38 262.57C296.42 262.57 295.57 262.78 294.84 263.21C294.11 263.64 293.49 264.3 293 265.19V262.89H290.44V277.61H293V268.65C293 267.92 293.15 267.28 293.46 266.73C293.77 266.18 294.21 265.74 294.77 265.43C295.33 265.12 295.99 264.97 296.74 264.97C297.76 264.97 298.54 265.28 299.08 265.9C299.61 266.52 299.88 267.44 299.88 268.65V277.61H302.44Z" fill="white"/>
<path d="M320.19 274.2C320.86 273.04 321.2 271.72 321.2 270.25C321.2 268.78 320.86 267.43 320.19 266.28C319.52 265.13 318.61 264.22 317.47 263.56C316.33 262.9 315.03 262.57 313.58 262.57C312.13 262.57 310.86 262.9 309.71 263.56C308.56 264.22 307.65 265.13 306.97 266.28C306.29 267.43 305.96 268.75 305.96 270.25C305.96 271.75 306.3 273.04 306.97 274.2C307.64 275.36 308.55 276.28 309.71 276.94C310.86 277.6 312.15 277.93 313.58 277.93C315.01 277.93 316.33 277.6 317.47 276.94C318.61 276.28 319.52 275.37 320.19 274.2ZM317.95 272.97C317.51 273.76 316.92 274.38 316.16 274.84C315.4 275.3 314.54 275.53 313.58 275.53C312.62 275.53 311.76 275.3 311 274.84C310.24 274.38 309.64 273.76 309.21 272.97C308.77 272.18 308.55 271.27 308.55 270.25C308.55 269.23 308.77 268.31 309.21 267.51C309.65 266.71 310.24 266.09 311 265.64C311.76 265.19 312.62 264.97 313.58 264.97C314.54 264.97 315.4 265.19 316.16 265.64C316.92 266.09 317.51 266.71 317.95 267.51C318.39 268.31 318.61 269.22 318.61 270.25C318.61 271.28 318.39 272.18 317.95 272.97Z" fill="white"/>
<path d="M327.27 252.65H324.71V277.61H327.27V252.65Z" fill="white"/>
<path d="M345.02 266.28C344.35 265.13 343.44 264.22 342.3 263.56C341.16 262.9 339.86 262.57 338.41 262.57C336.96 262.57 335.69 262.9 334.54 263.56C333.39 264.22 332.48 265.13 331.8 266.28C331.12 267.43 330.79 268.75 330.79 270.25C330.79 271.75 331.13 273.04 331.8 274.2C332.47 275.36 333.38 276.28 334.54 276.94C335.69 277.6 336.98 277.93 338.41 277.93C339.84 277.93 341.16 277.6 342.3 276.94C343.44 276.28 344.35 275.37 345.02 274.2C345.69 273.04 346.03 271.72 346.03 270.25C346.03 268.78 345.69 267.43 345.02 266.28ZM342.78 272.97C342.34 273.76 341.75 274.38 340.99 274.84C340.23 275.3 339.37 275.53 338.41 275.53C337.45 275.53 336.59 275.3 335.83 274.84C335.07 274.38 334.47 273.76 334.04 272.97C333.6 272.18 333.38 271.27 333.38 270.25C333.38 269.23 333.6 268.31 334.04 267.51C334.48 266.71 335.07 266.09 335.83 265.64C336.59 265.19 337.45 264.97 338.41 264.97C339.37 264.97 340.23 265.19 340.99 265.64C341.75 266.09 342.34 266.71 342.78 267.51C343.22 268.31 343.44 269.22 343.44 270.25C343.44 271.28 343.22 272.18 342.78 272.97Z" fill="white"/>
<path d="M363.14 262.89H360.58V265.45C360.1 264.64 359.51 263.99 358.79 263.5C357.87 262.88 356.8 262.57 355.56 262.57C354.24 262.57 353.02 262.88 351.91 263.5C350.8 264.12 349.92 265 349.26 266.14C348.6 267.28 348.27 268.65 348.27 270.25C348.27 271.85 348.6 273.19 349.26 274.35C349.92 275.5 350.8 276.39 351.91 277.01C353.02 277.63 354.24 277.94 355.56 277.94C356.8 277.94 357.87 277.63 358.79 277.01C359.51 276.52 360.11 275.87 360.58 275.05V277.3C360.58 278.54 360.34 279.55 359.86 280.32C359.38 281.1 358.78 281.67 358.05 282.03C357.33 282.39 356.59 282.57 355.84 282.57C354.88 282.57 354.05 282.38 353.34 282.01C352.63 281.64 352.09 281.15 351.71 280.54C351.33 279.93 351.13 279.28 351.13 278.57H348.54C348.54 279.83 348.85 280.94 349.47 281.91C350.09 282.88 350.95 283.63 352.05 284.17C353.15 284.7 354.41 284.97 355.84 284.97C357.08 284.97 358.25 284.68 359.36 284.11C360.47 283.54 361.38 282.67 362.08 281.53C362.78 280.39 363.13 278.98 363.13 277.29V262.89H363.14ZM359.88 273.13C359.41 273.92 358.81 274.52 358.09 274.92C357.36 275.32 356.63 275.53 355.88 275.53C354.98 275.53 354.15 275.33 353.38 274.92C352.61 274.51 352 273.92 351.54 273.13C351.08 272.34 350.85 271.38 350.85 270.25C350.85 269.12 351.08 268.16 351.54 267.37C352 266.58 352.61 265.98 353.38 265.58C354.15 265.18 354.98 264.97 355.88 264.97C356.43 264.97 356.99 265.09 357.54 265.32C358.09 265.56 358.6 265.9 359.06 266.34C359.52 266.79 359.89 267.34 360.17 267.99C360.45 268.64 360.59 269.39 360.59 270.25C360.59 271.38 360.35 272.34 359.88 273.13Z" fill="white"/>
<path d="M369.87 284.65L379.46 262.89H376.59L372.54 273.03L368.43 262.89H365.38L371.02 275.53L366.98 284.65H369.87Z" fill="white"/>
<path d="M403.14 257.77V255.21H394.35H393.13H391.62V277.61H394.35V266.73H402.82V264.17H394.35V257.77H403.14Z" fill="white"/>
<path d="M413.5 268.82C412.79 268.57 411.89 268.45 410.83 268.45C409.02 268.45 407.6 268.88 406.59 269.75C405.58 270.61 405.07 271.76 405.07 273.19C405.07 274.19 405.3 275.05 405.77 275.75C406.24 276.45 406.86 276.99 407.64 277.37C408.42 277.74 409.26 277.93 410.15 277.93C410.96 277.93 411.78 277.78 412.6 277.48C413.42 277.18 414.12 276.72 414.68 276.1C414.81 275.96 414.92 275.81 415.02 275.65V277.6H417.58V267.04C417.58 266.08 417.34 265.27 416.86 264.61C416.38 263.95 415.71 263.44 414.84 263.09C413.97 262.74 412.97 262.56 411.82 262.56C410.45 262.56 409.29 262.76 408.32 263.17C407.35 263.58 406.59 263.98 406.03 264.39L407.28 266.28C407.51 266.11 407.83 265.91 408.24 265.67C408.64 265.44 409.14 265.23 409.73 265.06C410.32 264.89 410.97 264.8 411.7 264.8C412.15 264.8 412.58 264.84 412.98 264.93C413.38 265.02 413.74 265.15 414.05 265.35C414.36 265.54 414.6 265.8 414.77 266.13C414.94 266.46 415.03 266.88 415.03 267.39V269.53C414.63 269.27 414.13 269.02 413.51 268.81L413.5 268.82ZM414.46 273.88C414.09 274.47 413.58 274.92 412.96 275.24C412.33 275.56 411.62 275.72 410.83 275.72C410.21 275.72 409.66 275.62 409.18 275.42C408.7 275.22 408.33 274.91 408.06 274.51C407.79 274.1 407.66 273.63 407.66 273.07C407.66 272.51 407.79 272.08 408.04 271.69C408.3 271.31 408.69 271.01 409.21 270.79C409.73 270.58 410.41 270.47 411.24 270.47C412.14 270.47 412.98 270.58 413.77 270.81C414.19 270.93 414.61 271.1 415.02 271.3V271.85C415.02 272.62 414.83 273.3 414.46 273.88Z" fill="white"/>
<path d="M431.43 273.45C431.43 272.57 431.22 271.86 430.81 271.31C430.39 270.76 429.83 270.28 429.13 269.89C428.42 269.5 427.65 269.13 426.79 268.79C426.28 268.58 425.79 268.35 425.32 268.12C424.85 267.89 424.47 267.62 424.17 267.32C423.87 267.02 423.72 266.68 423.72 266.3C423.72 265.81 423.91 265.45 424.3 265.21C424.68 264.98 425.14 264.86 425.68 264.86C426.45 264.86 427.14 265.04 427.74 265.4C428.35 265.76 428.86 266.22 429.26 266.78L431.31 265.47C431.01 264.92 430.6 264.43 430.06 264C429.52 263.57 428.91 263.23 428.22 262.98C427.53 262.73 426.78 262.6 426 262.6C425.22 262.6 424.45 262.74 423.71 263.02C422.97 263.3 422.38 263.72 421.92 264.3C421.46 264.88 421.23 265.6 421.23 266.48C421.23 267.36 421.45 268.04 421.89 268.61C422.33 269.18 422.87 269.63 423.52 269.99C424.17 270.35 424.82 270.65 425.46 270.9C426.04 271.11 426.58 271.34 427.09 271.59C427.6 271.84 428.02 272.13 428.35 272.49C428.68 272.84 428.85 273.27 428.85 273.79C428.85 274.37 428.64 274.82 428.23 275.15C427.82 275.48 427.24 275.65 426.52 275.65C425.92 275.65 425.37 275.54 424.87 275.31C424.37 275.09 423.92 274.78 423.54 274.4C423.16 274.02 422.81 273.6 422.51 273.15L420.49 274.4C420.77 274.98 421.18 275.54 421.72 276.1C422.26 276.65 422.93 277.11 423.72 277.46C424.51 277.81 425.39 277.99 426.38 277.99C427.89 277.99 429.12 277.56 430.04 276.71C430.97 275.86 431.43 274.79 431.43 273.51V273.45Z" fill="white"/>
<path d="M437.51 277.61V265.29H439.91V262.89H437.51V257.77H434.95V262.89H432.55V265.29H434.95V277.61H437.51Z" fill="white"/>
<path d="M458.6 277.93C459.69 277.93 460.7 277.77 461.64 277.45C462.58 277.13 463.41 276.65 464.14 276.01C464.87 275.37 465.43 274.57 465.84 273.61C466.24 272.65 466.45 271.53 466.45 270.25C466.45 268.76 466.16 267.44 465.59 266.31C465.01 265.18 464.22 264.29 463.21 263.65C462.2 263.01 461.05 262.69 459.77 262.69C459.22 262.69 458.65 262.76 458.09 262.9C457.52 263.04 456.97 263.25 456.44 263.52L457.94 257.6H466.39V255.2H455.83L452.89 267.14C453.66 266.61 454.34 266.2 454.92 265.91C455.51 265.62 456.09 265.42 456.68 265.3C457.27 265.18 457.91 265.12 458.62 265.12C459.58 265.12 460.44 265.33 461.2 265.76C461.96 266.19 462.55 266.78 462.99 267.55C463.43 268.32 463.65 269.21 463.65 270.24C463.65 271.27 463.45 272.16 463.06 272.93C462.67 273.7 462.1 274.3 461.35 274.72C460.6 275.15 459.7 275.36 458.63 275.36C457.82 275.36 457.04 275.18 456.29 274.83C455.54 274.48 454.89 274.02 454.32 273.45C453.75 272.88 453.3 272.28 452.96 271.64L450.66 273.21C451.15 274.06 451.75 274.85 452.47 275.56C453.18 276.28 454.05 276.85 455.06 277.27C456.07 277.7 457.26 277.91 458.63 277.91L458.6 277.93Z" fill="white"/>
<path d="M484.58 272.36C485.28 270.63 485.63 268.65 485.63 266.41C485.63 264.17 485.28 262.19 484.58 260.46C483.87 258.73 482.9 257.37 481.65 256.38C480.4 255.39 478.96 254.89 477.31 254.89C475.66 254.89 474.22 255.39 472.97 256.38C471.72 257.37 470.75 258.73 470.04 260.46C469.34 262.19 468.99 264.17 468.99 266.41C468.99 268.65 469.34 270.63 470.04 272.36C470.75 274.09 471.72 275.45 472.97 276.44C474.22 277.43 475.66 277.93 477.31 277.93C478.96 277.93 480.4 277.43 481.65 276.44C482.9 275.45 483.87 274.09 484.58 272.36ZM481.42 272.86C480.93 273.66 480.34 274.28 479.66 274.72C478.98 275.16 478.2 275.38 477.32 275.38C476.44 275.38 475.69 275.16 475 274.72C474.31 274.28 473.71 273.66 473.22 272.86C472.73 272.06 472.36 271.11 472.1 270.01C471.84 268.91 471.72 267.71 471.72 266.41C471.72 265.11 471.85 263.91 472.1 262.81C472.35 261.71 472.73 260.76 473.22 259.96C473.71 259.16 474.3 258.54 475 258.1C475.69 257.66 476.46 257.44 477.32 257.44C478.18 257.44 478.97 257.66 479.66 258.1C480.34 258.54 480.93 259.16 481.42 259.96C481.91 260.76 482.28 261.71 482.54 262.81C482.8 263.91 482.92 265.11 482.92 266.41C482.92 267.71 482.79 268.91 482.54 270.01C482.28 271.11 481.91 272.06 481.42 272.86Z" fill="white"/>
<path d="M492.18 276.44C493.43 277.43 494.87 277.93 496.52 277.93C498.17 277.93 499.61 277.43 500.86 276.44C502.11 275.45 503.08 274.09 503.79 272.36C504.49 270.63 504.84 268.65 504.84 266.41C504.84 264.17 504.49 262.19 503.79 260.46C503.08 258.73 502.11 257.37 500.86 256.38C499.61 255.39 498.17 254.89 496.52 254.89C494.87 254.89 493.43 255.39 492.18 256.38C490.93 257.37 489.96 258.73 489.25 260.46C488.55 262.19 488.2 264.17 488.2 266.41C488.2 268.65 488.55 270.63 489.25 272.36C489.96 274.09 490.93 275.45 492.18 276.44ZM491.3 262.81C491.56 261.71 491.93 260.76 492.42 259.96C492.91 259.16 493.5 258.54 494.2 258.1C494.89 257.66 495.66 257.44 496.52 257.44C497.38 257.44 498.17 257.66 498.86 258.1C499.54 258.54 500.13 259.16 500.62 259.96C501.11 260.76 501.48 261.71 501.74 262.81C502 263.91 502.12 265.11 502.12 266.41C502.12 267.71 501.99 268.91 501.74 270.01C501.48 271.11 501.11 272.06 500.62 272.86C500.13 273.66 499.54 274.28 498.86 274.72C498.18 275.16 497.4 275.38 496.52 275.38C495.64 275.38 494.89 275.16 494.2 274.72C493.51 274.28 492.91 273.66 492.42 272.86C491.93 272.06 491.56 271.11 491.3 270.01C491.04 268.91 490.92 267.71 490.92 266.41C490.92 265.11 491.05 263.91 491.3 262.81Z" fill="white"/>
<path d="M300.57 305.61C301.29 304.35 301.65 302.89 301.65 301.21C301.65 299.53 301.29 298.06 300.57 296.81C299.85 295.55 298.86 294.58 297.59 293.87C296.33 293.17 294.88 292.81 293.25 292.81H288.21V309.61H293.25C294.88 309.61 296.33 309.26 297.59 308.55C298.85 307.85 299.85 306.87 300.57 305.61ZM293.25 307.57H290.25V294.85H293.25C294.19 294.85 295.06 295 295.84 295.29C296.62 295.59 297.3 296.01 297.86 296.56C298.42 297.11 298.85 297.78 299.16 298.56C299.46 299.34 299.62 300.22 299.62 301.2C299.62 302.18 299.47 303.06 299.16 303.84C298.86 304.62 298.42 305.29 297.86 305.84C297.3 306.39 296.63 306.82 295.84 307.11C295.05 307.41 294.19 307.55 293.25 307.55V307.57Z" fill="white"/>
<path d="M314.12 304.34C314.12 304.22 314.13 304.1 314.13 303.99C314.13 302.82 313.92 301.81 313.51 300.97C313.09 300.12 312.5 299.47 311.72 299.01C310.94 298.55 310.01 298.33 308.92 298.33C307.83 298.33 306.88 298.57 306.05 299.05C305.23 299.53 304.59 300.2 304.13 301.07C303.67 301.93 303.44 302.94 303.44 304.09C303.44 305.24 303.66 306.23 304.1 307.09C304.54 307.95 305.16 308.63 305.95 309.12C306.74 309.61 307.65 309.85 308.67 309.85C309.85 309.85 310.88 309.61 311.75 309.14C312.62 308.67 313.35 307.97 313.92 307.04L312.36 306.06C311.96 306.73 311.47 307.23 310.9 307.56C310.33 307.89 309.66 308.05 308.91 308.05C308.16 308.05 307.52 307.89 306.99 307.57C306.46 307.25 306.06 306.79 305.79 306.18C305.58 305.72 305.48 305.17 305.43 304.57H314.09C314.09 304.57 314.09 304.46 314.1 304.34H314.12ZM307.04 300.48C307.56 300.17 308.19 300.01 308.92 300.01C309.54 300.01 310.09 300.15 310.55 300.42C311.01 300.69 311.38 301.07 311.64 301.55C311.86 301.95 311.96 302.42 312 302.94H305.49C305.56 302.53 305.67 302.15 305.83 301.82C306.11 301.24 306.51 300.79 307.03 300.48H307.04Z" fill="white"/>
<path d="M318.69 290.89H316.77V309.61H318.69V290.89Z" fill="white"/>
<path d="M324.13 309.1C324.99 309.6 325.96 309.84 327.03 309.84C328.1 309.84 329.09 309.59 329.95 309.1C330.81 308.61 331.49 307.92 331.99 307.05C332.49 306.18 332.75 305.19 332.75 304.09C332.75 302.99 332.5 301.98 331.99 301.11C331.49 300.25 330.81 299.57 329.95 299.07C329.09 298.57 328.12 298.33 327.03 298.33C325.94 298.33 324.99 298.58 324.13 299.07C323.27 299.57 322.58 300.25 322.08 301.11C321.58 301.97 321.32 302.97 321.32 304.09C321.32 305.21 321.57 306.18 322.08 307.05C322.58 307.92 323.27 308.61 324.13 309.1ZM323.76 302.04C324.09 301.44 324.54 300.97 325.1 300.64C325.67 300.3 326.31 300.14 327.03 300.14C327.75 300.14 328.39 300.31 328.96 300.64C329.53 300.97 329.98 301.44 330.3 302.04C330.62 302.64 330.79 303.32 330.79 304.09C330.79 304.86 330.63 305.54 330.3 306.13C329.97 306.72 329.52 307.19 328.96 307.53C328.4 307.87 327.75 308.05 327.03 308.05C326.31 308.05 325.66 307.88 325.1 307.53C324.53 307.19 324.08 306.72 323.76 306.13C323.43 305.54 323.27 304.86 323.27 304.09C323.27 303.32 323.43 302.64 323.76 302.04Z" fill="white"/>
<path d="M337.65 293.07C337.39 292.81 337.08 292.69 336.71 292.69C336.34 292.69 336.05 292.82 335.79 293.07C335.53 293.33 335.39 293.64 335.39 294.01C335.39 294.38 335.52 294.67 335.79 294.93C336.06 295.19 336.36 295.33 336.71 295.33C337.08 295.33 337.39 295.2 337.65 294.93C337.91 294.66 338.03 294.36 338.03 294.01C338.03 293.66 337.9 293.33 337.65 293.07Z" fill="white"/>
<path d="M337.67 298.57H335.75V309.61H337.67V298.57Z" fill="white"/>
<path d="M343.67 309.61V300.37H345.47V298.57H343.67V294.73H341.75V298.57H339.95V300.37H341.75V309.61H343.67Z" fill="white"/>
<path d="M347.51 298.57H345.71V300.37H347.51V309.61H349.43V300.37H351.23V298.57H349.43V294.73H347.51V298.57Z" fill="white"/>
<path d="M362.86 304.34C362.86 304.22 362.87 304.1 362.87 303.99C362.87 302.82 362.66 301.81 362.25 300.97C361.83 300.12 361.24 299.47 360.46 299.01C359.68 298.55 358.75 298.33 357.66 298.33C356.57 298.33 355.62 298.57 354.79 299.05C353.97 299.53 353.33 300.2 352.87 301.07C352.41 301.93 352.18 302.94 352.18 304.09C352.18 305.24 352.4 306.23 352.84 307.09C353.28 307.95 353.9 308.63 354.69 309.12C355.48 309.61 356.39 309.85 357.41 309.85C358.59 309.85 359.62 309.61 360.49 309.14C361.36 308.67 362.09 307.97 362.66 307.04L361.1 306.06C360.7 306.73 360.21 307.23 359.64 307.56C359.07 307.89 358.4 308.05 357.65 308.05C356.9 308.05 356.26 307.89 355.73 307.57C355.2 307.25 354.8 306.79 354.53 306.18C354.32 305.72 354.22 305.17 354.17 304.57H362.83C362.83 304.57 362.83 304.46 362.84 304.34H362.86ZM355.78 300.48C356.3 300.17 356.93 300.01 357.66 300.01C358.28 300.01 358.83 300.15 359.29 300.42C359.75 300.69 360.12 301.07 360.38 301.55C360.6 301.95 360.7 302.42 360.74 302.94H354.23C354.3 302.53 354.41 302.15 354.57 301.82C354.85 301.24 355.25 300.79 355.77 300.48H355.78Z" fill="white"/>
<path d="M290.3 97.17H276.86L284.68 90.16C286.12 88.91 287.29 87.53 288.18 86.01C289.08 84.49 289.52 82.82 289.52 80.99C289.52 79.71 289.25 78.45 288.7 77.2C288.15 75.95 287.35 74.81 286.28 73.77C285.21 72.73 283.87 71.9 282.27 71.27C280.67 70.65 278.83 70.33 276.75 70.33C273.87 70.33 271.43 70.92 269.43 72.11C267.43 73.29 265.93 74.88 264.94 76.86C263.95 78.84 263.45 81.04 263.45 83.44H271.42C271.42 82.22 271.62 81.15 272.02 80.22C272.42 79.29 273.01 78.57 273.8 78.06C274.59 77.55 275.49 77.29 276.51 77.29C277.28 77.29 277.95 77.41 278.53 77.65C279.11 77.89 279.59 78.21 279.97 78.61C280.35 79.01 280.64 79.47 280.83 79.98C281.02 80.49 281.12 81 281.12 81.52C281.12 82.42 280.95 83.26 280.62 84.04C280.28 84.82 279.79 85.62 279.13 86.42C278.47 87.22 277.7 88.12 276.8 89.11L261.82 104.61H290.28V97.17H290.3Z" fill="white"/>
<path d="M300.95 103.14C303.06 104.53 305.49 105.23 308.25 105.23C311.01 105.23 313.57 104.53 315.67 103.14C317.77 101.75 319.38 99.76 320.52 97.16C321.65 94.57 322.22 91.45 322.22 87.8C322.22 84.15 321.65 81.03 320.52 78.44C319.38 75.85 317.77 73.86 315.67 72.46C313.57 71.07 311.1 70.37 308.25 70.37C305.4 70.37 303.07 71.07 300.95 72.46C298.84 73.85 297.2 75.84 296.03 78.44C294.86 81.04 294.28 84.15 294.28 87.8C294.28 91.45 294.86 94.57 296.03 97.16C297.2 99.75 298.84 101.74 300.95 103.14ZM302.54 83.51C302.83 82.21 303.24 81.11 303.79 80.2C304.34 79.29 304.98 78.58 305.73 78.09C306.48 77.59 307.32 77.35 308.25 77.35C309.18 77.35 310.02 77.6 310.77 78.09C311.52 78.59 312.17 79.29 312.71 80.2C313.25 81.11 313.67 82.22 313.96 83.51C314.25 84.81 314.39 86.24 314.39 87.81C314.39 89.38 314.25 90.81 313.96 92.11C313.67 93.41 313.26 94.51 312.71 95.42C312.16 96.33 311.52 97.04 310.77 97.53C310.02 98.03 309.18 98.27 308.25 98.27C307.32 98.27 306.48 98.02 305.73 97.53C304.98 97.03 304.33 96.33 303.79 95.42C303.25 94.51 302.83 93.4 302.54 92.11C302.25 90.82 302.11 89.38 302.11 87.81C302.11 86.24 302.25 84.81 302.54 83.51Z" fill="white"/>
<path d="M353.56 97.17H340.12L347.94 90.16C349.38 88.91 350.55 87.53 351.44 86.01C352.34 84.49 352.78 82.82 352.78 80.99C352.78 79.71 352.51 78.45 351.96 77.2C351.41 75.95 350.61 74.81 349.54 73.77C348.47 72.73 347.13 71.9 345.53 71.27C343.93 70.65 342.09 70.33 340.01 70.33C337.13 70.33 334.69 70.92 332.69 72.11C330.69 73.29 329.19 74.88 328.2 76.86C327.21 78.84 326.71 81.04 326.71 83.44H334.68C334.68 82.22 334.88 81.15 335.28 80.22C335.68 79.29 336.27 78.57 337.06 78.06C337.85 77.55 338.75 77.29 339.77 77.29C340.54 77.29 341.21 77.41 341.79 77.65C342.37 77.89 342.85 78.21 343.23 78.61C343.61 79.01 343.9 79.47 344.09 79.98C344.28 80.49 344.38 81 344.38 81.52C344.38 82.42 344.21 83.26 343.88 84.04C343.54 84.82 343.05 85.62 342.39 86.42C341.73 87.22 340.96 88.12 340.06 89.11L325.08 104.61H353.54V97.17H353.56Z" fill="white"/>
<path d="M373.38 104.61H381.83V98.66H387.11V91.75H381.83V71.01H375.78L356.29 98.66H373.38V104.61ZM374.3 82.77V92.8H367.05L374.3 82.77Z" fill="white"/>
<path d="M129.31 129.07C126.62 127.69 123.44 127.01 119.76 127.01H107.76V160.61H119.76C123.44 160.61 126.62 159.92 129.31 158.55C132 157.17 134.08 155.23 135.55 152.72C137.02 150.21 137.76 147.24 137.76 143.82C137.76 140.4 137.02 137.39 135.55 134.89C134.08 132.39 132 130.46 129.31 129.08V129.07ZM128.54 148.39C128 149.62 127.27 150.61 126.36 151.34C125.45 152.08 124.39 152.6 123.19 152.92C121.99 153.24 120.75 153.4 119.47 153.4H116.11V134.2H119.47C120.75 134.2 121.99 134.36 123.19 134.68C124.39 135 125.45 135.53 126.36 136.26C127.27 136.99 128 137.98 128.54 139.21C129.08 140.44 129.36 141.97 129.36 143.79C129.36 145.61 129.09 147.14 128.54 148.37V148.39Z" fill="white"/>
<path d="M165.31 154.56L158.83 152.98C158.29 153.94 157.56 154.66 156.65 155.14C155.74 155.62 154.64 155.86 153.36 155.86C152.24 155.86 151.3 155.61 150.53 155.12C149.76 154.62 149.19 153.9 148.8 152.94C148.58 152.4 148.43 151.78 148.34 151.12H165.17C165.23 150.9 165.27 150.62 165.27 150.28V149.25C165.27 146.88 164.81 144.87 163.88 143.2C162.95 141.54 161.61 140.26 159.85 139.38C158.09 138.5 155.93 138.06 153.37 138.06C150.81 138.06 148.59 138.52 146.72 139.45C144.85 140.38 143.42 141.71 142.42 143.43C141.43 145.16 140.93 147.21 140.93 149.57C140.93 151.93 141.44 153.94 142.47 155.67C143.49 157.4 144.94 158.73 146.81 159.68C148.68 160.63 150.9 161.1 153.46 161.1C156.28 161.1 158.67 160.56 160.64 159.47C162.61 158.38 164.17 156.75 165.32 154.57L165.31 154.56ZM150.48 143.62C151.22 143.14 152.13 142.9 153.22 142.9C154.08 142.9 154.84 143.09 155.48 143.48C156.12 143.86 156.62 144.41 156.97 145.11C157.25 145.68 157.42 146.34 157.47 147.08H148.48C148.57 146.62 148.68 146.19 148.83 145.81C149.2 144.83 149.75 144.11 150.49 143.63L150.48 143.62Z" fill="white"/>
<path d="M177.02 123.17H169.72V160.61H177.02V123.17Z" fill="white"/>
<path d="M200.47 159.65C202.37 158.69 203.88 157.35 204.98 155.62C206.08 153.89 206.64 151.88 206.64 149.57C206.64 147.26 206.09 145.2 204.98 143.47C203.88 141.74 202.37 140.4 200.47 139.44C198.57 138.48 196.41 138 194.01 138C191.61 138 189.45 138.48 187.53 139.44C185.61 140.4 184.11 141.74 183.02 143.47C181.93 145.2 181.39 147.23 181.39 149.57C181.39 151.91 181.93 153.89 183.02 155.62C184.11 157.35 185.61 158.69 187.53 159.65C189.45 160.61 191.61 161.09 194.01 161.09C196.41 161.09 198.56 160.61 200.47 159.65ZM189.55 152.52C189.07 151.7 188.83 150.72 188.83 149.57C188.83 148.42 189.07 147.43 189.55 146.59C190.03 145.76 190.65 145.12 191.42 144.67C192.19 144.22 193.05 144 194.01 144C194.97 144 195.79 144.22 196.58 144.67C197.36 145.12 197.99 145.76 198.45 146.59C198.91 147.42 199.15 148.41 199.15 149.57C199.15 150.73 198.92 151.71 198.45 152.52C197.99 153.34 197.36 153.97 196.58 154.42C195.8 154.87 194.94 155.09 194.01 155.09C193.08 155.09 192.19 154.87 191.42 154.42C190.65 153.97 190.03 153.34 189.55 152.52Z" fill="white"/>
<path d="M218.25 138.53H211.24V160.61H218.25V138.53Z" fill="white"/>
<path d="M217.75 127.42C216.93 126.7 215.93 126.34 214.75 126.34C213.57 126.34 212.61 126.7 211.77 127.42C210.94 128.14 210.52 129.08 210.52 130.23C210.52 131.38 210.94 132.33 211.77 133.06C212.6 133.8 213.59 134.16 214.75 134.16C215.91 134.16 216.93 133.79 217.75 133.06C218.57 132.33 218.97 131.38 218.97 130.23C218.97 129.08 218.56 128.14 217.75 127.42Z" fill="white"/>
<path d="M232.46 160.61V144.53H236.4V138.53H232.46V130.85H225.5V138.53H221.61V144.53H225.5V160.61H232.46Z" fill="white"/>
<path d="M240.76 160.61H247.72V144.53H251.66V138.53H247.72V130.85H240.76V138.53H236.88V144.53H240.76V160.61Z" fill="white"/>
<path d="M277.82 154.56L271.34 152.98C270.8 153.94 270.07 154.66 269.16 155.14C268.25 155.62 267.15 155.86 265.87 155.86C264.75 155.86 263.81 155.61 263.04 155.12C262.27 154.62 261.7 153.9 261.31 152.94C261.09 152.4 260.94 151.78 260.85 151.12H277.68C277.74 150.9 277.78 150.62 277.78 150.28V149.25C277.78 146.88 277.32 144.87 276.39 143.2C275.46 141.54 274.12 140.26 272.36 139.38C270.6 138.5 268.44 138.06 265.88 138.06C263.32 138.06 261.1 138.52 259.23 139.45C257.36 140.38 255.93 141.71 254.93 143.43C253.94 145.16 253.44 147.21 253.44 149.57C253.44 151.93 253.95 153.94 254.98 155.67C256 157.4 257.45 158.73 259.32 159.68C261.19 160.63 263.41 161.1 265.97 161.1C268.79 161.1 271.18 160.56 273.15 159.47C275.12 158.38 276.68 156.75 277.83 154.57L277.82 154.56ZM262.99 143.62C263.73 143.14 264.64 142.9 265.73 142.9C266.59 142.9 267.35 143.09 267.99 143.48C268.63 143.86 269.13 144.41 269.48 145.11C269.76 145.68 269.93 146.34 269.98 147.08H260.99C261.08 146.62 261.19 146.19 261.34 145.81C261.71 144.83 262.26 144.11 263 143.63L262.99 143.62Z" fill="white"/>
<path d="M303.21 160.61H311.32V134.26H320.58V127.01H293.99V134.26H303.21V160.61Z" fill="white"/>
<path d="M317.47 149.57C317.47 151.91 317.98 153.94 319.01 155.67C320.03 157.4 321.48 158.73 323.35 159.68C325.22 160.63 327.44 161.1 330 161.1C332.82 161.1 335.21 160.56 337.18 159.47C339.15 158.38 340.71 156.75 341.86 154.57L335.38 152.99C334.84 153.95 334.11 154.67 333.2 155.15C332.29 155.63 331.19 155.87 329.91 155.87C328.79 155.87 327.85 155.62 327.08 155.13C326.31 154.63 325.74 153.91 325.35 152.95C325.13 152.41 324.98 151.79 324.89 151.13H341.72C341.78 150.91 341.82 150.63 341.82 150.29V149.26C341.82 146.89 341.36 144.88 340.43 143.21C339.5 141.55 338.16 140.27 336.4 139.39C334.64 138.51 332.48 138.07 329.92 138.07C327.36 138.07 325.14 138.53 323.27 139.46C321.4 140.39 319.97 141.72 318.97 143.44C317.98 145.17 317.48 147.22 317.48 149.58L317.47 149.57ZM327.02 143.62C327.76 143.14 328.67 142.9 329.76 142.9C330.62 142.9 331.38 143.09 332.02 143.48C332.66 143.86 333.16 144.41 333.51 145.11C333.79 145.68 333.96 146.34 334.01 147.08H325.02C325.11 146.62 325.22 146.19 325.37 145.81C325.74 144.83 326.29 144.11 327.03 143.63L327.02 143.62Z" fill="white"/>
<path d="M355.27 144.58C356.18 144.07 357.17 143.81 358.22 143.81C359.02 143.81 359.84 143.94 360.67 144.19C361.5 144.45 362.28 144.81 363 145.29C363.72 145.77 364.3 146.36 364.75 147.07V139.97C363.98 139.43 363.02 138.97 361.87 138.6C360.72 138.23 359.31 138.05 357.65 138.05C355.22 138.05 353.03 138.53 351.1 139.49C349.16 140.45 347.64 141.79 346.54 143.5C345.44 145.21 344.88 147.24 344.88 149.57C344.88 151.9 345.43 153.89 346.54 155.62C347.64 157.35 349.16 158.69 351.1 159.65C353.04 160.61 355.22 161.09 357.65 161.09C359.31 161.09 360.72 160.91 361.87 160.54C363.02 160.17 363.98 159.68 364.75 159.08V152.02C364.3 152.72 363.73 153.32 363.05 153.8C362.36 154.28 361.61 154.66 360.79 154.93C359.97 155.2 359.12 155.34 358.22 155.34C357.16 155.34 356.18 155.1 355.27 154.62C354.36 154.14 353.65 153.48 353.13 152.63C352.62 151.78 352.36 150.77 352.36 149.58C352.36 148.49 352.62 147.52 353.13 146.65C353.64 145.79 354.35 145.1 355.27 144.59V144.58Z" fill="white"/>
<path d="M391.58 160.61V146.11C391.58 144.29 391.32 142.75 390.81 141.5C390.3 140.25 389.49 139.31 388.39 138.67C387.29 138.03 385.82 137.71 384 137.71C382.18 137.71 380.68 138.13 379.51 138.98C378.57 139.66 377.83 140.54 377.28 141.59V123.16H369.98V160.6H377.28V147.16C377.28 146.3 377.44 145.57 377.76 144.98C378.08 144.39 378.53 143.92 379.1 143.59C379.67 143.26 380.35 143.09 381.12 143.09C382.3 143.09 383.14 143.44 383.62 144.15C384.1 144.85 384.34 145.86 384.34 147.17V160.61H391.59H391.58Z" fill="white"/>
<path d="M419.13 160.61V146.4C419.13 143.74 418.51 141.68 417.26 140.21C416.01 138.74 414.01 138 411.26 138C409.63 138 408.26 138.34 407.16 139.01C406.06 139.68 405.18 140.63 404.54 141.84V138.53H397.24V160.61H404.54V147.17C404.54 146.31 404.7 145.57 405.02 144.96C405.34 144.35 405.79 143.89 406.36 143.57C406.94 143.25 407.61 143.09 408.38 143.09C409.53 143.09 410.36 143.44 410.85 144.15C411.35 144.85 411.59 145.86 411.59 147.17V160.61H419.13Z" fill="white"/>
<path d="M447.14 155.62C448.24 153.89 448.8 151.88 448.8 149.57C448.8 147.26 448.25 145.2 447.14 143.47C446.04 141.74 444.53 140.4 442.63 139.44C440.73 138.48 438.57 138 436.17 138C433.77 138 431.61 138.48 429.69 139.44C427.77 140.4 426.27 141.74 425.18 143.47C424.09 145.2 423.55 147.23 423.55 149.57C423.55 151.91 424.09 153.89 425.18 155.62C426.27 157.35 427.77 158.69 429.69 159.65C431.61 160.61 433.77 161.09 436.17 161.09C438.57 161.09 440.72 160.61 442.63 159.65C444.53 158.69 446.04 157.35 447.14 155.62ZM440.61 152.52C440.15 153.34 439.52 153.97 438.74 154.42C437.96 154.87 437.1 155.09 436.17 155.09C435.24 155.09 434.35 154.87 433.58 154.42C432.81 153.97 432.19 153.34 431.71 152.52C431.23 151.7 430.99 150.72 430.99 149.57C430.99 148.42 431.23 147.43 431.71 146.59C432.19 145.76 432.81 145.12 433.58 144.67C434.35 144.22 435.21 144 436.17 144C437.13 144 437.95 144.22 438.74 144.67C439.52 145.12 440.15 145.76 440.61 146.59C441.07 147.42 441.31 148.41 441.31 149.57C441.31 150.73 441.08 151.71 440.61 152.52Z" fill="white"/>
<path d="M460.41 123.17H453.11V160.61H460.41V123.17Z" fill="white"/>
<path d="M470.92 159.65C472.84 160.61 475 161.09 477.4 161.09C479.8 161.09 481.95 160.61 483.86 159.65C485.76 158.69 487.27 157.35 488.37 155.62C489.47 153.89 490.03 151.88 490.03 149.57C490.03 147.26 489.48 145.2 488.37 143.47C487.27 141.74 485.76 140.4 483.86 139.44C481.96 138.48 479.8 138 477.4 138C475 138 472.84 138.48 470.92 139.44C469 140.4 467.5 141.74 466.41 143.47C465.32 145.2 464.78 147.23 464.78 149.57C464.78 151.91 465.32 153.89 466.41 155.62C467.5 157.35 469 158.69 470.92 159.65ZM472.94 146.59C473.42 145.76 474.04 145.12 474.81 144.67C475.58 144.22 476.44 144 477.4 144C478.36 144 479.18 144.22 479.97 144.67C480.75 145.12 481.38 145.76 481.84 146.59C482.3 147.42 482.54 148.41 482.54 149.57C482.54 150.73 482.31 151.71 481.84 152.52C481.38 153.34 480.75 153.97 479.97 154.42C479.19 154.87 478.33 155.09 477.4 155.09C476.47 155.09 475.58 154.87 474.81 154.42C474.04 153.97 473.42 153.34 472.94 152.52C472.46 151.7 472.22 150.72 472.22 149.57C472.22 148.42 472.46 147.43 472.94 146.59Z" fill="white"/>
<path d="M516.4 166.99C517.5 165.23 518.06 162.94 518.06 160.13V138.53H511.1V141.9C510.38 140.86 509.51 140.01 508.48 139.37C507.06 138.49 505.42 138.05 503.56 138.05C501.7 138.05 500.07 138.47 498.47 139.3C496.87 140.13 495.57 141.38 494.56 143.04C493.55 144.7 493.05 146.78 493.05 149.28C493.05 151.78 493.55 153.81 494.56 155.47C495.57 157.14 496.87 158.39 498.47 159.24C500.07 160.09 501.77 160.51 503.56 160.51C505.35 160.51 507.06 160.07 508.48 159.19C509.51 158.55 510.38 157.7 511.1 156.65V160.13C511.1 161.47 510.85 162.6 510.36 163.51C509.86 164.42 509.2 165.11 508.37 165.57C507.54 166.03 506.61 166.27 505.59 166.27C504.66 166.27 503.83 166.12 503.09 165.81C502.35 165.51 501.77 165.05 501.34 164.44C500.91 163.83 500.64 163.08 500.55 162.18H493.54C493.7 164.13 494.23 165.85 495.12 167.34C496.02 168.83 497.35 169.99 499.13 170.82C500.91 171.65 503.15 172.07 505.87 172.07C508.14 172.07 510.19 171.66 512.01 170.85C513.83 170.03 515.3 168.75 516.4 166.99ZM510.33 152.26C509.82 153.06 509.17 153.66 508.39 154.06C507.61 154.46 506.8 154.66 505.97 154.66C505.01 154.66 504.13 154.45 503.33 154.04C502.53 153.63 501.89 153.01 501.41 152.19C500.93 151.37 500.69 150.41 500.69 149.29C500.69 148.17 500.93 147.16 501.41 146.36C501.89 145.56 502.53 144.95 503.33 144.54C504.13 144.13 505.01 143.92 505.97 143.92C506.58 143.92 507.19 144.03 507.79 144.26C508.4 144.48 508.95 144.82 509.45 145.27C509.95 145.72 510.35 146.28 510.65 146.95C510.95 147.62 511.11 148.41 511.11 149.3C511.11 150.48 510.85 151.48 510.34 152.28L510.33 152.26Z" fill="white"/>
<path d="M531.83 171.17L546.23 138.53H538.79L533.59 151.56L528.33 138.53H520.36L529.91 158.83L524.53 171.17H531.83Z" fill="white"/>
<path d="M159.84 189.97V183.01H147.21H144.81H139.44V216.61H147.21V203.12H159.36V196.59H147.21V189.97H159.84Z" fill="white"/>
<path d="M166.1 216.3C167.3 216.83 168.6 217.09 170.01 217.09C171.42 217.09 172.73 216.84 173.95 216.35C175.17 215.85 176.16 215.12 176.93 214.14C177.08 213.95 177.2 213.75 177.31 213.55V216.61H184.27V201.06C184.27 199.52 183.82 198.23 182.93 197.17C182.03 196.11 180.82 195.31 179.28 194.75C177.74 194.19 176 193.91 174.05 193.91C171.97 193.91 170.05 194.18 168.29 194.73C166.53 195.27 165.03 195.85 163.78 196.46L166.23 201.31C166.55 201.12 167.06 200.87 167.77 200.57C168.47 200.27 169.3 200 170.24 199.78C171.18 199.56 172.15 199.44 173.14 199.44C173.81 199.44 174.41 199.5 174.94 199.63C175.47 199.76 175.91 199.97 176.26 200.25C176.61 200.53 176.88 200.88 177.05 201.28C177.22 201.68 177.31 202.15 177.31 202.7V204.65C177.31 204.65 177.22 204.6 177.17 204.57C176.4 204.19 175.48 203.87 174.41 203.61C173.34 203.35 172.13 203.23 170.79 203.23C168.04 203.23 165.91 203.85 164.41 205.08C162.91 206.31 162.15 207.98 162.15 210.1C162.15 211.6 162.51 212.88 163.23 213.94C163.95 215 164.91 215.79 166.11 216.32L166.1 216.3ZM169.82 208.33C170.08 207.96 170.46 207.68 170.97 207.49C171.48 207.3 172.17 207.2 173.03 207.2C174.15 207.2 175.21 207.35 176.22 207.66C176.59 207.77 176.94 207.92 177.28 208.08C177.23 208.93 177.02 209.67 176.63 210.28C176.18 210.98 175.6 211.51 174.9 211.86C174.2 212.21 173.43 212.39 172.6 212.39C172.02 212.39 171.5 212.29 171.02 212.08C170.54 211.87 170.16 211.57 169.87 211.17C169.58 210.77 169.44 210.28 169.44 209.71C169.44 209.17 169.57 208.71 169.82 208.34V208.33Z" fill="white"/>
<path d="M207.6 210.37C207.6 208.99 207.3 207.89 206.71 207.06C206.12 206.23 205.33 205.54 204.36 205C203.38 204.46 202.32 203.98 201.17 203.56C200.08 203.14 199.16 202.8 198.41 202.53C197.66 202.26 197.08 201.96 196.68 201.64C196.28 201.32 196.08 200.92 196.08 200.44C196.08 200.02 196.25 199.69 196.58 199.43C196.92 199.17 197.42 199.05 198.09 199.05C199.08 199.05 200.17 199.33 201.35 199.89C202.53 200.45 203.59 201.16 204.52 202.03L207.11 197.33C206.25 196.69 205.33 196.13 204.35 195.65C203.37 195.17 202.33 194.79 201.23 194.5C200.13 194.21 198.93 194.07 197.65 194.07C196.05 194.07 194.63 194.31 193.4 194.79C192.17 195.27 191.19 195.97 190.47 196.9C189.75 197.83 189.39 198.96 189.39 200.31C189.39 201.66 189.69 202.87 190.3 203.77C190.91 204.67 191.68 205.38 192.63 205.91C193.57 206.44 194.57 206.89 195.63 207.28C196.81 207.63 197.75 207.97 198.44 208.29C199.13 208.61 199.62 208.94 199.9 209.27C200.18 209.6 200.33 210.01 200.33 210.49C200.33 211 200.15 211.42 199.8 211.74C199.45 212.06 198.9 212.22 198.17 212.22C197.66 212.22 197.05 212.12 196.35 211.91C195.65 211.7 194.84 211.33 193.93 210.81C193.02 210.28 192 209.55 190.88 208.63L187.86 213.43C188.85 214.2 189.92 214.89 191.08 215.52C192.23 216.14 193.49 216.64 194.85 217.01C196.21 217.38 197.67 217.56 199.24 217.56C201.9 217.56 203.95 216.96 205.41 215.76C206.87 214.56 207.59 212.78 207.59 210.41L207.6 210.37Z" fill="white"/>
<path d="M223.77 194.53H219.83V186.85H212.87V194.53H208.99V200.53H212.87V216.61H219.83V200.53H223.77V194.53Z" fill="white"/>
<path d="M248.32 216.63C249.97 217.03 251.82 217.23 253.86 217.23C255.49 217.23 257.11 217.01 258.71 216.58C260.31 216.15 261.77 215.47 263.1 214.54C264.43 213.61 265.48 212.43 266.27 210.99C267.05 209.55 267.45 207.84 267.45 205.85C267.45 203.51 266.97 201.53 266.01 199.9C265.05 198.27 263.79 197.02 262.24 196.16C260.69 195.3 259.02 194.86 257.22 194.86C256.16 194.86 255.15 194.95 254.17 195.12C253.19 195.3 252.26 195.59 251.36 196.01L253.28 190.01H266.72V183H247.33L242.63 202.39C243.78 201.81 244.91 201.37 246.01 201.07C247.11 200.77 248.19 200.56 249.23 200.45C250.27 200.34 251.22 200.28 252.09 200.28C253.21 200.28 254.26 200.44 255.23 200.76C256.21 201.08 257.01 201.58 257.63 202.27C258.25 202.96 258.57 203.86 258.57 204.98C258.57 206.04 258.31 206.93 257.8 207.67C257.29 208.41 256.55 208.95 255.59 209.3C254.63 209.65 253.46 209.83 252.09 209.83C251.29 209.83 250.39 209.68 249.4 209.37C248.41 209.07 247.42 208.65 246.45 208.12C245.47 207.59 244.52 206.94 243.59 206.18L240.42 212.85C241.48 213.62 242.64 214.34 243.92 215.01C245.2 215.68 246.66 216.22 248.31 216.62L248.32 216.63Z" fill="white"/>
<path d="M297.52 209.17C298.65 206.58 299.22 203.46 299.22 199.81C299.22 196.16 298.65 193.04 297.52 190.45C296.38 187.86 294.77 185.87 292.67 184.47C290.57 183.08 288.1 182.38 285.25 182.38C282.4 182.38 280.07 183.08 277.95 184.47C275.84 185.86 274.2 187.85 273.03 190.45C271.86 193.05 271.28 196.16 271.28 199.81C271.28 203.46 271.86 206.58 273.03 209.17C274.2 211.76 275.84 213.75 277.95 215.15C280.06 216.54 282.49 217.24 285.25 217.24C288.01 217.24 290.57 216.54 292.67 215.15C294.77 213.76 296.38 211.77 297.52 209.17ZM290.97 204.1C290.68 205.4 290.27 206.5 289.72 207.41C289.17 208.32 288.53 209.03 287.78 209.52C287.03 210.02 286.19 210.26 285.26 210.26C284.33 210.26 283.49 210.01 282.74 209.52C281.99 209.02 281.34 208.32 280.8 207.41C280.26 206.5 279.84 205.39 279.55 204.1C279.26 202.81 279.12 201.37 279.12 199.8C279.12 198.23 279.26 196.8 279.55 195.5C279.84 194.2 280.25 193.1 280.8 192.19C281.35 191.28 281.99 190.57 282.74 190.08C283.49 189.58 284.33 189.34 285.26 189.34C286.19 189.34 287.03 189.59 287.78 190.08C288.53 190.58 289.18 191.28 289.72 192.19C290.26 193.1 290.68 194.21 290.97 195.5C291.26 196.8 291.4 198.23 291.4 199.8C291.4 201.37 291.26 202.8 290.97 204.1Z" fill="white"/>
<path d="M329.3 209.17C330.43 206.58 331 203.46 331 199.81C331 196.16 330.43 193.04 329.3 190.45C328.16 187.86 326.55 185.87 324.45 184.47C322.35 183.08 319.88 182.38 317.03 182.38C314.18 182.38 311.85 183.08 309.73 184.47C307.62 185.86 305.98 187.85 304.81 190.45C303.64 193.05 303.06 196.16 303.06 199.81C303.06 203.46 303.64 206.58 304.81 209.17C305.98 211.76 307.62 213.75 309.73 215.15C311.84 216.54 314.27 217.24 317.03 217.24C319.79 217.24 322.35 216.54 324.45 215.15C326.55 213.76 328.16 211.77 329.3 209.17ZM322.74 204.1C322.45 205.4 322.04 206.5 321.49 207.41C320.94 208.32 320.3 209.03 319.55 209.52C318.8 210.02 317.96 210.26 317.03 210.26C316.1 210.26 315.26 210.01 314.51 209.52C313.76 209.02 313.11 208.32 312.57 207.41C312.03 206.5 311.61 205.39 311.32 204.1C311.03 202.81 310.89 201.37 310.89 199.8C310.89 198.23 311.03 196.8 311.32 195.5C311.61 194.2 312.02 193.1 312.57 192.19C313.12 191.28 313.76 190.57 314.51 190.08C315.26 189.58 316.1 189.34 317.03 189.34C317.96 189.34 318.8 189.59 319.55 190.08C320.3 190.58 320.95 191.28 321.49 192.19C322.03 193.1 322.45 194.21 322.74 195.5C323.03 196.8 323.17 198.23 323.17 199.8C323.17 201.37 323.03 202.8 322.74 204.1Z" fill="white"/>
<path d="M388.6 183.01L382.07 202.16L372.86 181.33L363.74 202.16L357.11 183.01H347.51L362.06 218.58L372.86 198.32L383.7 218.58L398.25 183.01H388.6Z" fill="white"/>
<path d="M405.06 182.34C403.91 182.34 402.92 182.7 402.08 183.42C401.25 184.14 400.83 185.08 400.83 186.23C400.83 187.38 401.25 188.33 402.08 189.06C402.91 189.8 403.9 190.16 405.06 190.16C406.22 190.16 407.24 189.79 408.06 189.06C408.88 188.33 409.28 187.38 409.28 186.23C409.28 185.08 408.87 184.14 408.06 183.42C407.25 182.7 406.24 182.34 405.06 182.34Z" fill="white"/>
<path d="M408.57 194.53H401.56V216.61H408.57V194.53Z" fill="white"/>
<path d="M436.41 202.4C436.41 199.74 435.79 197.68 434.54 196.21C433.29 194.74 431.29 194 428.54 194C426.91 194 425.54 194.34 424.44 195.01C423.34 195.68 422.46 196.63 421.82 197.84V194.53H414.52V216.61H421.82V203.17C421.82 202.31 421.98 201.57 422.3 200.96C422.62 200.35 423.07 199.89 423.64 199.57C424.22 199.25 424.89 199.09 425.66 199.09C426.81 199.09 427.64 199.44 428.13 200.15C428.63 200.85 428.87 201.86 428.87 203.17V216.61H436.41V202.4Z" fill="white"/>
<path d="M464.01 216.61V202.4C464.01 199.74 463.39 197.68 462.14 196.21C460.89 194.74 458.89 194 456.14 194C454.51 194 453.14 194.34 452.04 195.01C450.94 195.68 450.06 196.63 449.42 197.84V194.53H442.12V216.61H449.42V203.17C449.42 202.31 449.58 201.57 449.9 200.96C450.22 200.35 450.67 199.89 451.24 199.57C451.82 199.25 452.49 199.09 453.26 199.09C454.41 199.09 455.24 199.44 455.73 200.15C456.23 200.85 456.47 201.86 456.47 203.17V216.61H464.01Z" fill="white"/>
<path d="M474.3 215.67C476.17 216.61 478.39 217.09 480.95 217.09C483.77 217.09 486.16 216.55 488.13 215.46C490.1 214.37 491.66 212.74 492.81 210.56L486.33 208.98C485.79 209.94 485.06 210.66 484.15 211.14C483.24 211.62 482.14 211.86 480.86 211.86C479.74 211.86 478.8 211.61 478.03 211.12C477.26 210.62 476.69 209.9 476.3 208.94C476.08 208.4 475.93 207.78 475.84 207.12H492.67C492.73 206.9 492.77 206.62 492.77 206.28V205.25C492.77 202.88 492.31 200.87 491.38 199.2C490.45 197.54 489.11 196.26 487.35 195.38C485.59 194.5 483.43 194.06 480.87 194.06C478.31 194.06 476.09 194.52 474.22 195.45C472.35 196.38 470.92 197.71 469.92 199.43C468.93 201.16 468.43 203.21 468.43 205.57C468.43 207.93 468.94 209.94 469.97 211.67C470.99 213.4 472.44 214.73 474.31 215.68L474.3 215.67ZM477.97 199.62C478.71 199.14 479.62 198.9 480.71 198.9C481.57 198.9 482.33 199.09 482.97 199.48C483.61 199.86 484.11 200.41 484.46 201.11C484.74 201.68 484.91 202.34 484.96 203.08H475.97C476.06 202.62 476.17 202.19 476.32 201.81C476.69 200.83 477.24 200.11 477.98 199.63L477.97 199.62Z" fill="white"/>
<path d="M506.05 201.34C506.59 200.96 507.22 200.76 507.92 200.76C508.56 200.76 509.1 200.87 509.53 201.1C509.96 201.32 510.37 201.63 510.75 202.01L513.87 195.82C513.49 195.24 512.93 194.8 512.19 194.48C511.45 194.16 510.69 194 509.89 194C508.67 194 507.51 194.4 506.39 195.2C505.61 195.76 504.94 196.46 504.37 197.29V194.52H497.22V216.6H504.37V205.7C504.37 204.64 504.51 203.75 504.8 203.01C505.09 202.27 505.5 201.71 506.05 201.33V201.34Z" fill="white"/>
</g>
<defs>
<clipPath id="clip0_348_1743">
<rect width="650" height="350" fill="white"/>
</clipPath>
</defs>
</svg>
