<svg width="650" height="350" viewBox="0 0 650 350" fill="none" xmlns="http://www.w3.org/2000/svg">
<g clip-path="url(#clip0_348_1943)">
<path d="M649.98 190.8C649.95 189.95 649.93 189.8 649.17 189.86C648.41 189.9 646.91 190.15 644.75 190.79C642.61 191.44 639.74 192.47 637.03 193.71C634.29 194.96 631.73 196.44 629.34 198.45C626.93 200.46 624.91 203.01 623.2 205.37C621.54 207.75 620.4 209.98 619.27 212.49C618.93 213.3 618.58 214.14 618.24 214.97C618.99 210.99 619.61 206.97 620.12 202.95C620.66 198.29 620.99 193.63 621.15 188.97C621.27 188.96 621.39 188.94 621.54 188.92C623.12 188.71 626.31 188.21 628.92 187.33C631.53 186.44 633.57 185.18 635.71 183.48C637.81 181.78 640.03 179.62 641.85 176.34C643.59 173.06 644.96 168.64 645.76 164.68C645.97 163.69 646.17 162.72 646.34 161.8C646.5 160.87 646.61 159.99 646.72 159.15C646.93 157.47 647.06 155.98 647.1 154.76C647.17 152.31 646.86 150.94 646.72 150.18C646.56 149.43 646.52 149.3 645.84 149.47C645.15 149.63 643.83 150.09 641.97 151.02C640.11 151.95 637.72 153.33 635.48 154.9C633.2 156.47 631.05 158.23 629.25 160.44C627.49 162.65 625.92 165.3 624.85 167.72C623.81 170.14 623.04 172.36 622.51 174.83C622.05 177.04 621.55 179.44 621.25 181.32C621.24 176.23 621.07 171.16 620.79 166.15C620.64 163.12 620.39 160.11 620.35 157.1C620.32 155.82 620.24 154.54 620.16 153.26C620.29 153.22 620.44 153.17 620.61 153.12C622.02 152.67 624.84 151.7 627.07 150.48C629.31 149.25 630.96 147.79 632.6 145.92C634.23 144.05 635.97 141.75 637.07 138.52C638.16 135.3 638.72 131.12 638.85 127.43C639.07 123.72 638.87 120.53 638.6 118.32C638.33 116.1 637.87 114.91 637.61 114.26C637.35 113.61 637.3 113.5 636.7 113.75C636.1 114 634.96 114.61 633.41 115.71C631.86 116.82 629.9 118.41 628.04 120.17C626.2 121.92 624.51 123.83 623.21 126.1C621.94 128.36 620.89 131.01 620.3 133.36C619.72 135.72 619.37 137.85 619.26 140.17C619.21 141.57 619.17 143.05 619.15 144.4C618.87 142.71 618.56 141.04 618.19 139.38C617.59 136.5 616.85 133.68 616.13 130.88C615.23 127.59 614.32 124.35 613.38 121.16C613.56 121.08 613.84 120.95 614.27 120.73C615.48 120.12 617.9 118.83 619.75 117.4C621.6 115.97 622.89 114.4 624.15 112.47C625.41 110.53 626.57 108.24 627.16 105.16C627.31 104.39 627.42 103.57 627.49 102.73C627.55 101.89 627.57 101.02 627.57 100.14C627.57 98.38 627.46 96.59 627.32 94.9C626.97 91.55 626.43 88.68 625.91 86.72C625.36 84.77 624.78 83.76 624.47 83.21C624.16 82.66 624.09 82.56 623.58 82.87C623.06 83.17 622.1 83.87 620.82 85.07C619.54 86.28 617.95 87.98 616.52 89.8C615.07 91.63 613.76 93.6 612.86 95.83C611.96 98.07 611.48 100.57 611.19 102.82C610.92 105.07 611.01 107.01 611.19 109.15C611.37 111.29 611.73 113.59 612.04 115.23C612.31 116.88 612.51 117.88 612.67 118.66C612.7 118.79 612.72 118.9 612.74 119.01C610.69 112.13 608.54 105.49 606.17 99.15C605.7 97.91 605.24 96.68 604.78 95.46C604.38 94.44 603.96 93.44 603.54 92.44C603.67 92.35 603.82 92.25 604.01 92.12C605.04 91.41 607.08 89.91 608.59 88.37C610.1 86.83 611.08 85.24 611.99 83.32C612.87 81.42 613.67 79.17 613.83 76.31C614.03 73.43 613.41 70.03 612.76 67.01C612.12 63.99 611.24 61.5 610.55 59.79C609.84 58.09 609.25 57.21 608.89 56.76C608.54 56.3 608.47 56.22 608.04 56.56C607.6 56.89 606.8 57.64 605.77 58.87C604.74 60.11 603.44 61.86 602.33 63.69C601.21 65.53 600.25 67.46 599.69 69.59C599.16 71.72 598.94 74.09 598.97 76.16C598.99 78.24 599.32 80 599.74 81.93C600.13 83.68 600.67 85.5 601.12 86.92C600.81 86.26 600.49 85.59 600.18 84.93C599.64 83.81 599.11 82.69 598.58 81.59C598.01 80.51 597.45 79.43 596.89 78.37C595.77 76.24 594.67 74.16 593.5 72.17C592.6 70.6 591.69 69.08 590.79 67.58C590.9 67.49 591.02 67.38 591.19 67.23C592.05 66.46 593.74 64.87 594.95 63.3C596.15 61.73 596.86 60.17 597.48 58.33C598.09 56.49 598.65 54.32 598.45 51.74C598.26 49.16 597.48 46.04 596.54 43.41C595.6 40.78 594.64 38.55 593.84 37.07C593.03 35.6 592.37 34.9 592.02 34.51C591.66 34.12 591.59 34.06 591.23 34.41C590.86 34.76 590.2 35.52 589.36 36.75C588.53 37.99 587.53 39.69 586.7 41.46C585.85 43.25 585.15 45.12 584.84 47.13C584.53 49.15 584.61 51.31 584.87 53.19C585.1 55.09 585.53 56.7 586.15 58.41C586.46 59.26 586.82 60.14 587.18 60.96C587.52 61.79 587.85 62.58 588.14 63.23C588.18 63.32 588.21 63.39 588.25 63.48C585.39 58.96 582.54 54.82 579.79 51.07C578.63 49.41 577.47 47.86 576.34 46.36C576.45 46.25 576.6 46.09 576.83 45.84C577.54 45.05 578.95 43.43 579.9 41.87C580.85 40.31 581.36 38.82 581.76 37.08C581.96 36.21 582.13 35.27 582.21 34.25C582.27 33.25 582.24 32.16 582.05 30.98C581.66 28.64 580.67 25.87 579.6 23.56C578.52 21.25 577.46 19.31 576.61 18.04C575.77 16.76 575.12 16.17 574.76 15.85C574.4 15.53 574.33 15.48 574.02 15.83C573.71 16.18 573.16 16.93 572.5 18.12C571.84 19.32 571.07 20.96 570.42 22.67C569.78 24.38 569.3 26.14 569.19 28.02C569.08 29.89 569.34 31.86 569.74 33.56C570.12 35.28 570.65 36.72 571.37 38.23C572.08 39.74 573.02 41.29 573.65 42.45C574.16 43.36 574.54 43.96 574.84 44.43C574.38 43.83 573.93 43.24 573.5 42.66C571.53 40.09 569.63 37.8 567.98 35.68C565.37 32.53 563.22 29.86 561.51 27.8C561.57 27.72 561.65 27.62 561.73 27.51C562.32 26.73 563.47 25.12 564.22 23.62C564.96 22.11 565.31 20.71 565.54 19.09C565.76 17.46 565.87 15.61 565.36 13.46C564.82 11.35 563.67 8.96001 562.55 6.90001C561.45 4.83001 560.31 3.17001 559.43 2.09001C558.56 1.00001 557.93 0.51001 557.59 0.24001C557.25 -0.0299895 557.18 -0.0699895 556.92 0.27001C556.66 0.61001 556.21 1.34001 555.68 2.49001C555.15 3.64001 554.55 5.21001 554.09 6.81001C553.63 8.41001 553.33 10.06 553.37 11.77C553.42 13.48 553.76 15.31 554.25 16.85C554.74 18.39 555.35 19.66 556.14 20.97C556.46 21.49 556.8 22.03 557.13 22.56C556.39 21.69 555.2 21.45 554.5 21.97C554.44 22.02 554.39 22.07 554.34 22.12C554.14 21.8 553.9 21.42 553.59 20.95C552.96 19.99 552.03 18.68 551.08 17.53C550.14 16.36 549.13 15.4 547.81 14.43C546.49 13.47 544.86 12.51 543.18 11.87C541.51 11.22 539.72 10.96 537.98 10.81C536.23 10.67 534.48 10.67 533.17 10.75C531.87 10.83 531 10.98 530.58 11.08C530.16 11.18 530.17 11.25 530.31 11.59C530.45 11.93 530.71 12.55 531.44 13.52C532.17 14.5 533.38 15.82 534.9 17.29C536.43 18.75 538.17 20.45 539.97 21.56C541.76 22.68 543.54 23.29 545.14 23.79C546.75 24.27 548.22 24.59 549.99 24.68C551.6 24.76 553.47 24.65 554.55 24.59C554.63 24.69 554.72 24.78 554.8 24.87C554.8 24.87 555.9 25.92 557.91 27.95C559.36 29.37 561.19 31.35 563.37 33.81C562.6 33.15 561.72 32.43 560.85 31.79C559.59 30.85 558.3 30.15 556.76 29.58C555.21 29.01 553.4 28.56 551.65 28.5C549.91 28.43 548.22 28.78 546.57 29.28C544.93 29.79 543.33 30.46 542.17 31.04C541.01 31.62 540.26 32.11 539.91 32.39C539.56 32.67 539.59 32.73 539.84 33.05C540.08 33.37 540.54 33.95 541.55 34.74C542.58 35.52 544.08 36.59 545.98 37.67C547.87 38.76 550.11 39.91 552.1 40.55C554.11 41.17 555.97 41.22 557.63 41.14C559.29 41.06 560.78 40.86 562.41 40.32C564.05 39.76 565.89 38.83 566.79 38.35C566.91 38.29 567.01 38.23 567.1 38.18C568.55 39.96 570.12 41.87 571.73 43.99C573.64 46.57 575.76 49.32 577.81 52.42C578.01 52.71 578.22 53.02 578.42 53.32C577.56 52.4 576.5 51.32 575.43 50.37C574.13 49.25 572.82 48.37 571.22 47.59C569.61 46.82 567.73 46.14 565.82 45.95C563.92 45.75 562.06 45.95 560.25 46.35C558.44 46.75 556.66 47.33 555.35 47.85C554.04 48.37 553.2 48.84 552.8 49.11C552.39 49.38 552.43 49.45 552.66 49.81C552.89 50.18 553.31 50.84 554.31 51.78C555.31 52.73 556.93 53.93 558.8 55.3C560.68 56.66 563.02 58.07 565.09 58.95C567.19 59.81 569.17 60.04 570.98 60.13C572.78 60.22 574.4 60.15 576.23 59.73C578.06 59.3 580.14 58.49 581.17 58.07C581.29 58.02 581.39 57.98 581.48 57.94C584.55 62.7 587.67 67.96 590.74 73.69C590.83 73.85 590.92 74.02 591.01 74.18C590.42 73.45 589.77 72.69 589.13 71.99C588.5 71.31 587.87 70.69 587.2 70.1C586.5 69.53 585.76 69 584.94 68.5C583.29 67.49 581.3 66.58 579.31 66.14C577.28 65.72 575.26 65.75 573.26 65.99C571.26 66.23 569.29 66.68 567.82 67.11C566.36 67.54 565.4 67.96 564.94 68.21C564.47 68.45 564.5 68.53 564.71 68.95C564.91 69.37 565.29 70.12 566.27 71.22C566.76 71.77 567.39 72.42 568.15 73.12C568.88 73.84 569.73 74.63 570.68 75.45C571.63 76.27 572.67 77.12 573.76 77.91C574.82 78.72 575.91 79.46 576.99 80.04C579.15 81.19 581.31 81.64 583.2 81.96C585.1 82.27 586.83 82.4 588.87 82.16C590.91 81.91 593.26 81.29 594.41 80.96C594.46 80.95 594.49 80.94 594.54 80.92C594.9 81.63 595.26 82.33 595.62 83.05C596.14 84.14 596.66 85.24 597.19 86.34C597.72 87.45 598.26 88.56 598.8 89.69C599.31 90.83 599.83 91.97 600.35 93.13C600.87 94.29 601.42 95.44 601.93 96.62C602.43 97.81 602.93 99 603.43 100.2C603.55 100.49 603.67 100.79 603.79 101.09C603.06 99.82 602.15 98.31 601.2 96.95C600.02 95.32 598.75 93.96 597.14 92.65C595.54 91.33 593.47 90.12 591.36 89.41C589.25 88.7 587.09 88.48 584.93 88.48C582.76 88.49 580.55 88.75 578.92 89.04C577.29 89.33 576.2 89.67 575.67 89.88C575.14 90.09 575.16 90.18 575.33 90.64C575.49 91.11 575.86 91.93 576.72 93.23C577.58 94.54 579.07 96.29 580.9 98.26C582.65 100.26 584.91 102.43 587.03 103.95C589.18 105.46 591.38 106.25 593.42 106.83C595.43 107.42 597.25 107.8 599.48 107.83C601.7 107.85 604.32 107.51 605.61 107.33C605.85 107.29 606.04 107.27 606.2 107.24C608.86 114.43 611.14 122.06 612.56 130.07C612.01 128.65 611.25 127.01 610.49 125.51C609.52 123.57 608.35 121.93 606.8 120.28C606.02 119.46 605.14 118.64 604.19 117.9C603.21 117.16 602.16 116.49 601.08 115.96C598.92 114.89 596.63 114.35 594.31 114.05C591.96 113.76 589.57 113.73 587.77 113.81C585.97 113.9 584.76 114.11 584.16 114.26C583.56 114.41 583.57 114.5 583.68 115.02C583.78 115.54 584.04 116.46 584.79 117.96C585.51 119.47 586.87 121.52 588.49 123.88C590.11 126.24 592.14 128.88 594.18 130.82C595.22 131.78 596.31 132.55 597.4 133.2C598.47 133.85 599.53 134.39 600.56 134.85C602.62 135.79 604.54 136.48 606.93 136.86C609.33 137.23 612.19 137.29 613.59 137.3C613.65 137.3 613.69 137.3 613.75 137.3C613.89 138.23 614.03 139.15 614.14 140.09C614.6 142.94 614.91 145.82 615.34 148.7C615.56 150.14 615.77 151.59 615.99 153.04C616.21 154.49 616.49 155.94 616.69 157.41C616.96 159.47 617.19 161.55 617.31 163.64C616.97 161.87 616.39 159.61 615.75 157.57C615.01 155.33 614.05 153.37 612.71 151.35C611.34 149.33 609.41 147.28 607.31 145.78C605.22 144.28 602.77 143.34 600.33 142.66C597.87 141.98 595.33 141.55 593.4 141.36C591.47 141.17 590.14 141.2 589.47 141.27C588.8 141.33 588.8 141.43 588.82 142C588.85 142.56 588.9 143.58 589.48 145.28C590.09 146.97 591.06 149.37 592.46 152.12C593.17 153.5 593.86 154.97 594.7 156.4C595.11 157.11 595.55 157.82 596 158.49C596.44 159.16 596.88 159.81 597.35 160.41C599.23 162.8 601.46 164.44 603.46 165.8C605.49 167.16 607.42 168.24 609.91 169.07C612.41 169.89 615.45 170.48 616.95 170.75C617.16 170.79 617.33 170.82 617.49 170.84C617.51 178.88 616.79 186.97 615.72 195C615.65 194.26 615.57 193.51 615.45 192.79C615.26 191.53 615.04 190.33 614.72 189.14C614.37 187.95 613.94 186.78 613.39 185.57C612.33 183.16 610.66 180.62 608.67 178.63C606.7 176.64 604.31 175.21 601.79 174.04C599.28 172.87 596.64 171.97 594.61 171.42C592.58 170.88 591.15 170.67 590.42 170.62C589.69 170.57 589.67 170.67 589.59 171.27C589.52 171.87 589.39 172.95 589.71 174.84C589.88 175.78 590.11 176.93 590.42 178.24C590.72 179.54 591.17 181.01 591.62 182.59C592.06 184.17 592.59 185.86 593.22 187.52C593.8 189.18 594.47 190.8 595.27 192.25C596.86 195.14 598.79 197.28 600.75 199.13C602.7 200.97 604.48 202.49 606.97 203.87C609.3 205.16 612.2 206.32 613.84 206.94C613.03 211.29 612.1 215.62 611.09 219.91C609.99 224.38 608.88 228.83 607.75 233.27C607.88 232.25 607.98 231.2 608.01 230.18C608.08 228.8 608.08 227.47 608.01 226.15C607.89 224.82 607.67 223.48 607.34 222.09C606.72 219.32 605.44 216.26 603.75 213.76C602.05 211.25 599.76 209.24 597.34 207.5C594.92 205.76 592.29 204.28 590.21 203.29C588.14 202.31 586.65 201.81 585.88 201.61C585.11 201.41 585.07 201.52 584.89 202.13C584.72 202.75 584.38 203.85 584.31 205.89C584.28 207.93 584.41 210.88 584.8 214.39C584.95 216.13 585.16 218.01 585.49 219.89C585.76 221.75 586.14 223.6 586.69 225.29C587.72 228.64 589.4 231.35 591.05 233.71C592.67 236.06 594.29 238.08 596.64 240.08C599 242.08 602.03 244.08 603.55 245.05C603.71 245.15 603.84 245.23 603.97 245.31C600.69 253.65 596.4 261.45 591.92 268.74C591.67 269.17 591.39 269.59 591.13 270.02C591.34 269.38 591.54 268.73 591.72 268.08C592.57 265.22 592.95 262.47 592.92 259.39C592.9 257.85 592.7 256.18 592.4 254.55C592.1 252.92 591.65 251.3 591 249.76C589.7 246.7 587.85 244.12 585.61 241.72C583.4 239.33 580.92 237.19 578.95 235.7C576.98 234.21 575.51 233.36 574.74 232.99C573.97 232.61 573.89 232.71 573.56 233.3C573.22 233.89 572.63 234.96 572.16 237.07C571.62 239.15 571.21 242.28 570.79 245.98C570.41 249.69 570 253.98 570.35 257.73C570.56 259.63 570.86 261.33 571.34 262.97C571.8 264.6 572.42 266.15 572.97 267.57C574.11 270.42 575.34 272.95 577.32 275.65C579.2 278.21 581.73 280.93 583.14 282.4C583.08 282.49 583.02 282.58 582.96 282.67C580.01 287.2 576.94 291.53 573.68 295.54C569.51 300.52 565.23 305.13 560.86 309.25C561.26 308.75 561.67 308.23 562.08 307.68C563.03 306.38 563.97 304.95 564.81 303.58C565.67 302.22 566.33 300.8 566.95 299.38C567.57 297.96 568.07 296.47 568.43 294.83C568.79 293.19 569.11 291.47 569.19 289.66C569.28 287.85 569.22 286.03 568.95 284.29C568.39 280.77 567.01 277.53 565.31 274.5C563.58 271.44 561.48 268.56 559.76 266.51C558.04 264.46 556.7 263.2 555.98 262.6C555.26 262.01 555.16 262.09 554.68 262.6C554.18 263.1 553.37 264.09 552.33 266.07C551.8 267.06 551.27 268.34 550.68 269.81C550.06 271.25 549.47 272.97 548.79 274.78C548.11 276.58 547.47 278.62 546.82 280.6C546.51 281.6 546.23 282.63 546 283.65C545.74 284.65 545.52 285.64 545.37 286.62C545.22 287.6 545.13 288.58 545.08 289.53C545.02 290.46 545 291.38 545.02 292.29C545.06 294.09 545.25 295.86 545.46 297.5C545.85 300.77 546.4 303.75 547.66 307.15C548.91 310.52 550.85 314.34 551.84 316.22C551.94 316.41 552.02 316.56 552.1 316.71C545.38 321.96 538.68 326.06 532.51 329.22C530.91 330.08 529.31 330.81 527.78 331.53C527.01 331.89 526.26 332.24 525.52 332.58C524.77 332.89 524.03 333.2 523.31 333.51C520.45 334.79 517.74 335.73 515.32 336.65C510.42 338.33 506.55 339.51 503.88 340.24C501.22 340.97 499.8 341.36 499.8 341.36C496.86 342.08 494.89 344.58 495.41 346.94C495.92 349.26 498.84 350.54 501.96 349.85C501.96 349.85 503.48 349.45 506.32 348.63C509.15 347.79 513.25 346.39 518.32 344.24C520.82 343.09 523.61 341.88 526.53 340.32C527.26 339.94 528.01 339.55 528.77 339.15C529.52 338.73 530.28 338.29 531.05 337.85C532.25 337.16 533.49 336.44 534.74 335.68C534.8 335.76 534.86 335.82 534.93 335.9C536.37 337.58 539.38 340.9 542.46 343.22C545.56 345.56 548.66 346.84 552.41 347.84C554.29 348.35 556.35 348.79 558.59 348.95C560.83 349.11 563.35 349.12 566.04 348.63C568.74 348.15 571.75 347.33 574.68 346.17C576.15 345.6 577.65 345 579.09 344.33C580.52 343.65 581.93 342.95 583.28 342.25C586.01 340.86 588.4 339.34 590.57 337.98C592.71 336.59 594.49 335.23 595.93 334.07C598.79 331.73 600.05 330.03 600.77 329.13C601.48 328.22 601.59 328.04 600.77 327.49C599.97 326.93 598.24 326 595.53 324.96C592.81 323.92 589.11 322.76 585.37 321.88C581.57 320.96 577.75 320.37 573.73 320.47C571.7 320.5 569.64 320.72 567.64 321.05C565.63 321.37 563.64 321.76 561.84 322.24C560.05 322.74 558.34 323.2 556.73 323.79C555.92 324.08 555.13 324.4 554.34 324.73C553.53 325.04 552.73 325.37 551.92 325.73C549.49 326.83 546.91 328.02 544.73 329.06C548.53 326.36 552.43 323.37 556.4 320.08C561.99 315.43 567.67 310.14 573.23 304.22C573.41 304.33 573.6 304.45 573.84 304.6C575.59 305.65 579.22 307.72 582.54 308.86C585.87 310 588.95 310.29 592.5 310.19C594.25 310.12 596.13 309.94 598.14 309.52C599.14 309.31 600.18 309.04 601.25 308.69C602.3 308.33 603.38 307.89 604.49 307.35C605.6 306.81 606.75 306.18 607.91 305.47C609.05 304.75 610.18 303.95 611.31 303.11C613.6 301.44 615.76 299.54 617.75 297.68C621.71 293.96 624.83 290.39 626.72 287.71C628.65 285.05 629.37 283.31 629.75 282.35C630.14 281.4 630.19 281.22 629.35 280.92C628.51 280.61 626.76 280.17 624.12 279.86C621.48 279.56 617.94 279.37 614.38 279.42C610.81 279.47 607.34 279.87 603.76 280.89C601.99 281.4 600.22 282.1 598.55 282.88C596.83 283.64 595.2 284.49 593.73 285.36C592.28 286.24 590.9 287.1 589.63 288.03C588.35 288.95 587.18 289.96 585.91 290.99C584.66 292.03 583.42 293.18 582.24 294.27C581.9 294.58 581.56 294.88 581.23 295.17C583.62 292.36 586.02 289.47 588.25 286.37C589.94 284.13 591.43 281.71 592.99 279.31C594.43 276.83 595.94 274.37 597.25 271.76C598.12 270.12 598.94 268.44 599.75 266.75C599.84 266.78 599.91 266.8 600.01 266.83C601.82 267.36 605.5 268.33 608.75 268.61C612.02 268.88 614.8 268.44 617.9 267.56C619.45 267.12 621.1 266.56 622.8 265.77C624.47 264.96 626.19 263.91 627.94 262.5C631.42 259.68 634.88 255.33 637.6 251.26C639.01 249.24 640.12 247.26 641.14 245.47C642.16 243.69 642.94 242.06 643.5 240.69C644.63 237.96 644.99 236.3 645.12 235.37C645.27 234.45 645.28 234.28 644.46 234.18C643.64 234.07 641.99 234.02 639.56 234.26C637.13 234.5 633.87 235.01 630.71 235.77C627.54 236.53 624.48 237.57 621.49 239.21C620.01 240.03 618.58 241.01 617.24 242.05C615.87 243.08 614.58 244.18 613.45 245.26C611.22 247.45 609.37 249.52 607.7 251.98C606.24 253.93 604.87 256.1 603.71 257.9C606.32 251.66 608.73 245.25 611.21 238.81C612.8 235.11 614.11 231.28 615.25 227.39C616.98 227.5 620.48 227.64 623.45 227.24C626.41 226.83 628.88 225.91 631.48 224.52C634.06 223.12 636.95 221.28 639.5 218.1C640.77 216.51 642.03 214.6 643.13 212.57C644.21 210.53 645.21 208.37 646.08 206.32C647.72 202.2 648.93 198.49 649.42 195.85C649.96 193.22 649.97 191.67 649.92 190.83L649.98 190.8Z" fill="white" fill-opacity="0.5"/>
<path d="M150.14 341.32C150.14 341.32 148.72 340.93 146.06 340.2C143.4 339.47 139.52 338.29 134.62 336.61C132.2 335.69 129.49 334.74 126.63 333.47C125.91 333.17 125.17 332.86 124.42 332.54C123.68 332.2 122.93 331.85 122.16 331.49C120.63 330.77 119.03 330.05 117.43 329.18C111.26 326.02 104.56 321.92 97.8399 316.67C97.9199 316.52 97.9999 316.37 98.0999 316.18C99.0899 314.29 101.03 310.48 102.28 307.11C103.55 303.71 104.09 300.73 104.48 297.46C104.68 295.81 104.88 294.05 104.92 292.25C104.94 291.35 104.92 290.43 104.86 289.49C104.81 288.54 104.72 287.56 104.57 286.58C104.42 285.6 104.2 284.6 103.94 283.61C103.71 282.59 103.43 281.56 103.12 280.56C102.48 278.58 101.84 276.54 101.15 274.74C100.48 272.92 99.8899 271.21 99.2599 269.77C98.6699 268.3 98.1399 267.02 97.6099 266.03C96.5799 264.05 95.7599 263.06 95.2599 262.56C94.7799 262.05 94.6699 261.97 93.9599 262.56C93.2399 263.15 91.8999 264.41 90.1799 266.47C88.4599 268.53 86.3599 271.41 84.6299 274.46C82.9299 277.49 81.5499 280.73 80.9899 284.25C80.7299 285.99 80.6699 287.82 80.7499 289.62C80.8299 291.43 81.1499 293.15 81.5099 294.79C81.8699 296.44 82.3799 297.92 82.9899 299.34C83.6099 300.76 84.2699 302.18 85.1299 303.54C85.9799 304.91 86.9099 306.34 87.8599 307.64C88.2699 308.18 88.6799 308.7 89.0799 309.21C84.7099 305.09 80.4299 300.48 76.2599 295.5C73.0099 291.49 69.9399 287.16 66.9799 282.63C66.9199 282.54 66.8599 282.45 66.7999 282.36C68.2199 280.89 70.7399 278.17 72.6199 275.61C74.5999 272.91 75.8199 270.38 76.9699 267.53C77.5299 266.11 78.1399 264.56 78.5999 262.93C79.0899 261.29 79.3899 259.59 79.5899 257.69C79.9299 253.93 79.5299 249.65 79.1499 245.94C78.7299 242.25 78.3199 239.11 77.7799 237.03C77.3099 234.92 76.7199 233.85 76.3799 233.26C76.0399 232.67 75.9699 232.57 75.1999 232.95C74.4299 233.33 72.9599 234.18 70.9899 235.66C69.0199 237.15 66.5399 239.29 64.3299 241.68C62.0899 244.08 60.2299 246.66 58.9399 249.72C58.2799 251.25 57.8399 252.87 57.5399 254.51C57.2399 256.14 57.0499 257.8 57.0199 259.35C56.9999 262.43 57.3699 265.18 58.2199 268.04C58.3899 268.68 58.5899 269.33 58.8099 269.98C58.5499 269.55 58.2799 269.14 58.0199 268.7C53.5399 261.41 49.2499 253.61 45.9699 245.27C46.0999 245.19 46.2299 245.11 46.3899 245.01C47.9099 244.04 50.9399 242.04 53.2999 240.04C55.6399 238.03 57.2699 236.01 58.8899 233.67C60.5399 231.31 62.2199 228.61 63.2499 225.25C63.7999 223.56 64.1799 221.71 64.4499 219.85C64.7799 217.97 64.9999 216.09 65.1399 214.35C65.5399 210.84 65.6599 207.89 65.6299 205.85C65.5599 203.82 65.2199 202.71 65.0499 202.09C64.8699 201.48 64.8199 201.37 64.0599 201.57C63.2899 201.77 61.7999 202.27 59.7299 203.25C57.6399 204.24 55.0199 205.72 52.5999 207.46C50.1799 209.2 47.8899 211.21 46.1899 213.72C44.4999 216.22 43.2199 219.28 42.5999 222.05C42.2699 223.45 42.0499 224.78 41.9299 226.11C41.8499 227.43 41.8499 228.75 41.9299 230.14C41.9599 231.16 42.0599 232.2 42.1899 233.23C41.0599 228.79 39.9499 224.34 38.8499 219.87C37.8399 215.58 36.9099 211.25 36.0999 206.9C37.7399 206.28 40.6299 205.12 42.9699 203.83C45.4599 202.45 47.2399 200.93 49.1899 199.09C51.1499 197.24 53.0799 195.1 54.6699 192.21C55.4699 190.76 56.1299 189.14 56.7199 187.48C57.3499 185.82 57.8799 184.13 58.3199 182.55C58.7699 180.97 59.2199 179.51 59.5199 178.2C59.8199 176.9 60.0599 175.75 60.2299 174.8C60.5399 172.91 60.4199 171.83 60.3499 171.23C60.2799 170.63 60.2499 170.53 59.5199 170.58C58.7899 170.63 57.3599 170.83 55.3299 171.38C53.2999 171.93 50.6599 172.83 48.1499 174C45.6299 175.17 43.2399 176.61 41.2699 178.59C39.2799 180.57 37.6099 183.12 36.5499 185.53C35.9999 186.74 35.5699 187.91 35.2199 189.1C34.8999 190.28 34.6799 191.48 34.4899 192.75C34.3699 193.47 34.2899 194.22 34.2199 194.96C33.1499 186.93 32.4299 178.84 32.4499 170.8C32.5999 170.78 32.7799 170.75 32.9899 170.71C34.4999 170.44 37.5299 169.86 40.0299 169.03C42.5199 168.2 44.4499 167.12 46.4799 165.76C48.4899 164.4 50.7199 162.77 52.5899 160.37C53.0599 159.77 53.4999 159.12 53.9399 158.45C54.3899 157.78 54.8299 157.07 55.2399 156.36C56.0799 154.93 56.7699 153.45 57.4799 152.08C58.8799 149.33 59.8499 146.93 60.4599 145.24C61.0399 143.54 61.0899 142.52 61.1199 141.96C61.1399 141.4 61.1499 141.3 60.4699 141.23C59.7899 141.16 58.4699 141.13 56.5399 141.32C54.6099 141.51 52.0699 141.94 49.6099 142.62C47.1699 143.31 44.7199 144.24 42.6299 145.74C40.5299 147.24 38.5999 149.3 37.2299 151.31C35.8799 153.33 34.9299 155.29 34.1899 157.53C33.5499 159.57 32.9699 161.83 32.6299 163.6C32.7499 161.51 32.9799 159.43 33.2499 157.37C33.4499 155.9 33.7299 154.45 33.9499 153C34.1699 151.55 34.3799 150.1 34.5999 148.66C35.0299 145.78 35.3399 142.89 35.7999 140.05C35.9099 139.12 36.0599 138.19 36.1899 137.26C36.2399 137.26 36.2899 137.26 36.3499 137.26C37.7599 137.25 40.6099 137.18 43.0099 136.82C45.3999 136.44 47.3199 135.75 49.3799 134.81C50.4099 134.34 51.4699 133.81 52.5399 133.16C53.6299 132.51 54.7199 131.74 55.7599 130.78C57.7999 128.85 59.8299 126.2 61.4499 123.84C63.0799 121.48 64.4399 119.43 65.1499 117.92C65.8999 116.42 66.1599 115.5 66.2599 114.98C66.3799 114.47 66.3799 114.37 65.7799 114.22C65.1799 114.07 63.9699 113.86 62.1699 113.77C60.3699 113.68 57.9799 113.72 55.6299 114.01C53.3099 114.31 51.0199 114.85 48.8599 115.92C47.7799 116.46 46.7299 117.12 45.7499 117.86C44.7999 118.61 43.9199 119.42 43.1399 120.24C41.5899 121.89 40.4199 123.53 39.4499 125.47C38.6899 126.97 37.9399 128.61 37.3799 130.03C38.7899 122.02 41.0799 114.39 43.7399 107.2C43.8999 107.23 44.0799 107.26 44.3299 107.29C45.6199 107.48 48.2399 107.81 50.4599 107.79C52.6799 107.77 54.5099 107.38 56.5199 106.79C58.5599 106.21 60.7599 105.43 62.9099 103.91C65.0299 102.39 67.2899 100.22 69.0399 98.22C70.8699 96.25 72.3499 94.5 73.2199 93.19C74.0799 91.88 74.4499 91.07 74.6099 90.6C74.7799 90.14 74.7999 90.05 74.2699 89.84C73.7399 89.63 72.6499 89.29 71.0199 89C69.3899 88.71 67.1799 88.46 65.0099 88.44C62.8499 88.44 60.6899 88.65 58.5799 89.37C56.4699 90.08 54.3999 91.3 52.7999 92.61C51.1799 93.92 49.9199 95.28 48.7399 96.91C47.7899 98.26 46.8699 99.77 46.1499 101.05C46.2699 100.76 46.3899 100.45 46.5099 100.16C47.0099 98.96 47.5099 97.76 48.0099 96.58C48.5199 95.4 49.0699 94.25 49.5899 93.09C50.1099 91.94 50.6299 90.79 51.1399 89.65C51.6799 88.53 52.2199 87.41 52.7499 86.3C53.2799 85.19 53.7999 84.09 54.3199 83.01C54.6799 82.29 55.0399 81.59 55.3999 80.88C55.4399 80.89 55.4799 80.9 55.5299 80.92C56.6899 81.25 59.0399 81.87 61.0699 82.12C63.1099 82.36 64.8399 82.23 66.7399 81.92C68.6199 81.6 70.7899 81.15 72.9499 80C74.0299 79.43 75.1299 78.68 76.1799 77.87C77.2699 77.08 78.3199 76.23 79.2599 75.41C80.2099 74.59 81.0599 73.81 81.7899 73.08C82.5499 72.37 83.1899 71.73 83.6699 71.18C84.6499 70.08 85.0199 69.32 85.2299 68.91C85.4299 68.49 85.4599 68.42 84.9999 68.17C84.5399 67.92 83.5799 67.51 82.1199 67.07C80.6499 66.64 78.6799 66.19 76.6799 65.95C74.6799 65.71 72.6599 65.68 70.6299 66.1C68.6399 66.54 66.6499 67.46 64.9999 68.46C64.1699 68.96 63.4299 69.49 62.7399 70.06C62.0699 70.64 61.4399 71.27 60.8099 71.95C60.1699 72.65 59.5199 73.4 58.9299 74.14C59.0199 73.98 59.1099 73.81 59.1999 73.65C62.2699 67.92 65.3899 62.67 68.4599 57.9C68.5499 57.94 68.6499 57.98 68.7699 58.03C69.7899 58.45 71.8699 59.26 73.7099 59.69C75.5299 60.11 77.1599 60.18 78.9599 60.09C80.7599 60.01 82.7499 59.77 84.8499 58.91C86.9199 58.03 89.2599 56.62 91.1399 55.26C93.0199 53.89 94.6299 52.69 95.6299 51.74C96.6399 50.8 97.0599 50.14 97.2799 49.77C97.5099 49.4 97.5399 49.33 97.1399 49.07C96.7399 48.8 95.8899 48.34 94.5899 47.81C93.2799 47.29 91.5099 46.71 89.6899 46.31C87.8799 45.92 86.0199 45.71 84.1199 45.91C82.2099 46.11 80.3299 46.79 78.7199 47.55C77.1199 48.33 75.7999 49.21 74.5099 50.33C73.4499 51.28 72.3799 52.36 71.5199 53.28C71.7199 52.98 71.9299 52.68 72.1299 52.38C74.1799 49.29 76.3099 46.54 78.2099 43.95C79.8199 41.82 81.3899 39.91 82.8399 38.14C82.9299 38.19 83.0299 38.24 83.1499 38.31C84.0499 38.79 85.8899 39.72 87.5299 40.28C89.1699 40.83 90.6499 41.03 92.3099 41.1C93.9799 41.18 95.8299 41.13 97.8399 40.51C99.8299 39.87 102.07 38.73 103.96 37.63C105.86 36.54 107.36 35.47 108.39 34.7C109.41 33.91 109.86 33.33 110.1 33.01C110.35 32.69 110.38 32.63 110.03 32.35C109.68 32.07 108.94 31.58 107.77 31C106.6 30.42 105.01 29.75 103.37 29.24C101.72 28.73 100.03 28.39 98.2899 28.46C96.5499 28.52 94.7299 28.96 93.1799 29.54C91.6399 30.12 90.3499 30.81 89.0899 31.75C88.2199 32.38 87.3399 33.1 86.5699 33.77C88.7499 31.31 90.5899 29.33 92.0299 27.91C94.0399 25.88 95.1399 24.83 95.1399 24.83C95.2299 24.75 95.3199 24.65 95.3899 24.55C96.4699 24.61 98.3399 24.73 99.9499 24.64C101.72 24.55 103.19 24.23 104.8 23.75C106.4 23.25 108.18 22.64 109.97 21.52C111.76 20.4 113.51 18.71 115.04 17.25C116.56 15.78 117.77 14.45 118.5 13.48C119.23 12.51 119.49 11.89 119.63 11.55C119.77 11.21 119.79 11.14 119.36 11.04C118.94 10.93 118.08 10.78 116.77 10.71C115.46 10.63 113.71 10.63 111.96 10.77C110.22 10.92 108.43 11.18 106.76 11.83C105.08 12.47 103.45 13.43 102.13 14.39C100.81 15.35 99.7899 16.32 98.8599 17.49C97.9099 18.64 96.9899 19.96 96.3499 20.91C96.0399 21.38 95.7999 21.76 95.5999 22.08C95.5499 22.03 95.4999 21.97 95.4399 21.93C94.7399 21.4 93.5599 21.65 92.8099 22.52C93.1399 21.99 93.4799 21.46 93.7999 20.93C94.5899 19.61 95.1999 18.35 95.6899 16.81C96.1799 15.28 96.5199 13.44 96.5699 11.73C96.6099 10.02 96.3099 8.36997 95.8499 6.76997C95.3899 5.16997 94.7899 3.59997 94.2599 2.44997C93.7299 1.29997 93.2799 0.569971 93.0199 0.229971C92.7599 -0.110029 92.6899 -0.0700286 92.3499 0.199971C91.9999 0.469971 91.3799 0.969971 90.5099 2.04997C89.6399 3.13997 88.4999 4.78997 87.3899 6.85997C86.2699 8.90997 85.1199 11.31 84.5799 13.42C84.0699 15.56 84.1799 17.42 84.3999 19.05C84.6199 20.67 84.9699 22.08 85.7199 23.58C86.4699 25.08 87.6199 26.69 88.2099 27.47C88.2999 27.59 88.3699 27.68 88.4299 27.76C86.7199 29.82 84.5699 32.48 81.9599 35.64C80.3099 37.76 78.3999 40.05 76.4399 42.62C76.0099 43.2 75.5599 43.79 75.0999 44.39C75.3999 43.92 75.7799 43.31 76.2899 42.41C76.9199 41.25 77.8599 39.71 78.5699 38.19C79.2899 36.68 79.8299 35.25 80.1999 33.52C80.5999 31.82 80.8699 29.85 80.7499 27.98C80.6399 26.11 80.1599 24.34 79.5199 22.63C78.8799 20.92 78.0999 19.27 77.4399 18.08C76.7799 16.88 76.2299 16.13 75.9199 15.79C75.6099 15.44 75.5399 15.49 75.1799 15.81C74.8199 16.13 74.1699 16.71 73.3299 18C72.4799 19.27 71.4199 21.21 70.3399 23.52C69.2599 25.83 68.2799 28.59 67.8899 30.94C67.6999 32.12 67.6699 33.2 67.7299 34.21C67.8099 35.23 67.9799 36.17 68.1799 37.04C68.5799 38.78 69.0899 40.28 70.0399 41.83C70.9999 43.39 72.3999 45.01 73.1099 45.8C73.3399 46.05 73.4899 46.22 73.5999 46.32C72.4699 47.81 71.2999 49.37 70.1499 51.03C67.3999 54.78 64.5499 58.92 61.6899 63.44C61.7299 63.35 61.7599 63.28 61.7999 63.19C62.0899 62.54 62.4199 61.76 62.7599 60.92C63.1199 60.1 63.4799 59.22 63.7899 58.37C64.4099 56.67 64.8399 55.06 65.0699 53.15C65.3299 51.28 65.4099 49.11 65.0999 47.09C64.7899 45.07 64.0899 43.2 63.2399 41.42C62.3999 39.65 61.4099 37.95 60.5799 36.71C59.7499 35.48 59.0799 34.72 58.7099 34.37C58.3399 34.02 58.2699 34.08 57.9199 34.47C57.5699 34.86 56.8999 35.56 56.0999 37.03C55.3099 38.51 54.3399 40.74 53.3999 43.37C52.4599 45.99 51.6799 49.11 51.4899 51.7C51.2999 54.28 51.8599 56.45 52.4599 58.29C53.0799 60.13 53.7899 61.68 54.9899 63.26C56.1999 64.83 57.8899 66.42 58.7499 67.19C58.9099 67.34 59.0399 67.45 59.1499 67.54C58.2399 69.04 57.3399 70.56 56.4399 72.13C55.2699 74.12 54.1699 76.21 53.0499 78.33C52.4899 79.39 51.9299 80.47 51.3599 81.55C50.8299 82.65 50.2999 83.77 49.7599 84.89C49.4499 85.55 49.1399 86.22 48.8199 86.88C49.2799 85.46 49.8199 83.64 50.1999 81.89C50.6199 79.96 50.9499 78.2 50.9699 76.12C50.9999 74.05 50.7799 71.68 50.2499 69.55C49.6899 67.41 48.7399 65.48 47.6099 63.65C46.4899 61.82 45.1899 60.07 44.1699 58.83C43.1399 57.59 42.3399 56.85 41.8999 56.52C41.4699 56.18 41.3899 56.26 41.0499 56.72C40.6899 57.17 40.0999 58.05 39.3899 59.75C38.6999 61.46 37.8199 63.96 37.1799 66.97C36.5399 69.99 35.9099 73.39 36.1099 76.27C36.2699 79.13 37.0799 81.37 37.9499 83.28C38.8599 85.2 39.8399 86.79 41.3499 88.33C42.8599 89.87 44.9099 91.36 45.9299 92.08C46.1299 92.22 46.2699 92.32 46.3999 92.4C45.9799 93.4 45.5499 94.4 45.1599 95.42C44.6999 96.64 44.2399 97.87 43.7699 99.11C41.3999 105.44 39.2499 112.09 37.1999 118.97C37.2199 118.86 37.2399 118.74 37.2699 118.62C37.4299 117.85 37.6299 116.84 37.8999 115.19C38.2099 113.55 38.5699 111.25 38.7499 109.11C38.9399 106.97 39.0299 105.03 38.7499 102.78C38.4599 100.53 37.9799 98.03 37.0799 95.79C36.1799 93.55 34.8699 91.59 33.4199 89.76C31.9899 87.94 30.3999 86.24 29.1199 85.03C27.8399 83.83 26.8799 83.13 26.3599 82.83C25.8499 82.52 25.7799 82.62 25.4699 83.17C25.1699 83.73 24.5799 84.74 24.0299 86.68C23.5099 88.64 22.9599 91.51 22.6199 94.86C22.4799 96.54 22.3699 98.34 22.3699 100.1C22.3699 100.98 22.3899 101.85 22.4499 102.69C22.5299 103.54 22.6399 104.35 22.7799 105.12C23.3699 108.2 24.5299 110.5 25.7899 112.43C27.0499 114.36 28.3399 115.93 30.1899 117.36C32.0399 118.79 34.4599 120.08 35.6699 120.69C36.1099 120.91 36.3799 121.04 36.5599 121.12C35.6299 124.32 34.7099 127.56 33.8099 130.84C33.0799 133.64 32.3399 136.46 31.7499 139.34C31.3799 141 31.0699 142.67 30.7899 144.36C30.7699 143.01 30.7299 141.53 30.6799 140.13C30.5699 137.81 30.2199 135.68 29.6399 133.32C29.0499 130.97 27.9999 128.32 26.7299 126.06C25.4299 123.8 23.7499 121.89 21.8999 120.13C20.0499 118.38 18.0799 116.78 16.5299 115.67C14.9799 114.57 13.8399 113.96 13.2399 113.71C12.6399 113.46 12.5899 113.57 12.3299 114.22C12.0699 114.87 11.6099 116.06 11.3399 118.28C11.0699 120.49 10.8599 123.69 11.0899 127.39C11.2199 131.08 11.7799 135.25 12.8699 138.48C13.9699 141.71 15.6999 144.01 17.3399 145.88C18.9699 147.75 20.6199 149.21 22.8699 150.44C25.1099 151.66 27.9299 152.63 29.3299 153.08C29.4999 153.13 29.6499 153.18 29.7799 153.22C29.6999 154.5 29.6199 155.77 29.5899 157.06C29.5499 160.08 29.2999 163.08 29.1499 166.11C28.8699 171.12 28.6999 176.19 28.6899 181.28C28.3999 179.4 27.8999 177 27.4299 174.79C26.8999 172.33 26.1299 170.11 25.0899 167.68C24.0199 165.26 22.4499 162.61 20.6899 160.4C18.8899 158.19 16.7399 156.43 14.4599 154.86C12.2199 153.3 9.82994 151.91 7.96994 150.98C6.10994 150.06 4.78994 149.59 4.09994 149.43C3.41994 149.26 3.36994 149.39 3.21994 150.14C3.07994 150.89 2.75994 152.27 2.83994 154.72C2.87994 155.94 3.00994 157.43 3.21994 159.11C3.32994 159.95 3.43994 160.84 3.59994 161.76C3.76994 162.69 3.95994 163.65 4.17994 164.64C4.97994 168.61 6.34994 173.02 8.08994 176.3C9.90994 179.58 12.1399 181.74 14.2299 183.44C16.3699 185.14 18.4199 186.4 21.0199 187.29C23.6299 188.17 26.8199 188.67 28.3999 188.88C28.5499 188.9 28.6699 188.91 28.7899 188.93C28.9499 193.59 29.2799 198.26 29.8199 202.91C30.3399 206.93 30.9499 210.94 31.6999 214.93C31.3599 214.1 31.0199 213.26 30.6699 212.45C29.5299 209.94 28.3899 207.7 26.7399 205.33C25.0299 202.97 23.0099 200.42 20.5999 198.41C18.1999 196.4 15.6499 194.91 12.9099 193.67C10.1899 192.42 7.32994 191.39 5.18994 190.75C3.03994 190.11 1.53994 189.86 0.769943 189.82C0.00994319 189.77 -0.0100568 189.92 -0.0400568 190.76C-0.0900568 191.6 -0.0700567 193.15 0.459943 195.78C0.959943 198.41 2.15994 202.12 3.79994 206.25C4.66994 208.3 5.66994 210.46 6.74994 212.5C7.84994 214.54 9.10994 216.45 10.3799 218.03C12.9299 221.21 15.8199 223.05 18.3999 224.45C21.0099 225.84 23.4799 226.76 26.4299 227.17C29.3999 227.57 32.8999 227.43 34.6299 227.32C35.7599 231.22 37.0699 235.05 38.6699 238.74C41.1499 245.18 43.5599 251.59 46.1699 257.83C45.0099 256.04 43.6399 253.86 42.1799 251.91C40.4999 249.46 38.6599 247.38 36.4299 245.19C35.2999 244.11 34.0099 243.01 32.6399 241.98C31.2999 240.93 29.8699 239.96 28.3899 239.14C25.3999 237.5 22.3399 236.46 19.1699 235.7C16.0099 234.94 12.7499 234.43 10.3199 234.19C7.88994 233.95 6.23994 234 5.41994 234.11C4.59994 234.21 4.60994 234.38 4.75994 235.3C4.88994 236.22 5.24994 237.88 6.37994 240.62C6.93994 241.99 7.71994 243.61 8.73994 245.4C9.74994 247.18 10.8699 249.17 12.2799 251.19C14.9999 255.27 18.4599 259.61 21.9399 262.43C23.6899 263.84 25.4199 264.89 27.0799 265.7C28.7699 266.5 30.4199 267.05 31.9799 267.49C35.0799 268.38 37.8599 268.82 41.1299 268.54C44.3799 268.27 48.0599 267.29 49.8699 266.76C49.9699 266.73 50.0399 266.71 50.1299 266.68C50.9399 268.37 51.7599 270.05 52.6299 271.69C53.9399 274.29 55.4499 276.76 56.8899 279.24C58.4399 281.64 59.9299 284.06 61.6299 286.3C63.8599 289.4 66.2599 292.29 68.6499 295.1C68.3199 294.8 67.9899 294.5 67.6399 294.2C66.4599 293.11 65.2199 291.97 63.9699 290.92C62.7099 289.89 61.5299 288.88 60.2499 287.96C58.9799 287.03 57.5999 286.18 56.1499 285.29C54.6799 284.42 53.0499 283.57 51.3299 282.81C49.6499 282.03 47.8899 281.34 46.1199 280.82C42.5399 279.8 39.0699 279.41 35.4999 279.35C31.9299 279.29 28.3999 279.49 25.7599 279.79C23.1199 280.1 21.3699 280.53 20.5299 280.85C19.6799 281.15 19.7399 281.33 20.1299 282.28C20.5099 283.23 21.2299 284.98 23.1599 287.64C25.0499 290.32 28.1699 293.89 32.1299 297.61C34.1099 299.47 36.2799 301.37 38.5699 303.04C39.6999 303.88 40.8399 304.68 41.9699 305.4C43.1299 306.11 44.2699 306.74 45.3899 307.28C46.4999 307.82 47.5799 308.26 48.6299 308.62C49.6999 308.97 50.7399 309.24 51.7399 309.45C53.7499 309.87 55.6299 310.04 57.3799 310.12C60.9399 310.23 64.0099 309.94 67.3399 308.79C70.6599 307.65 74.2899 305.58 76.0399 304.53C76.2799 304.39 76.4799 304.26 76.6499 304.15C82.2099 310.07 87.8899 315.36 93.4799 320.01C97.4499 323.3 101.35 326.29 105.15 328.99C102.97 327.95 100.39 326.75 97.9599 325.66C97.1499 325.31 96.3399 324.97 95.5399 324.66C94.7499 324.33 93.9599 324.01 93.1499 323.72C91.5399 323.13 89.8299 322.66 88.0399 322.17C86.2399 321.69 84.2599 321.3 82.2399 320.98C80.2399 320.65 78.1799 320.43 76.1499 320.4C72.1199 320.3 68.2999 320.89 64.5099 321.81C60.7699 322.69 57.0799 323.85 54.3499 324.89C51.6299 325.93 49.9099 326.86 49.1099 327.42C48.2999 327.97 48.4099 328.14 49.1099 329.06C49.8299 329.96 51.0899 331.66 53.9499 334C55.3899 335.16 57.1699 336.51 59.3099 337.91C61.4799 339.27 63.8699 340.79 66.5999 342.18C67.9599 342.88 69.3599 343.59 70.7899 344.26C72.2299 344.93 73.7299 345.53 75.1999 346.1C78.1199 347.26 81.1399 348.08 83.8399 348.56C86.5299 349.05 89.0599 349.04 91.2899 348.88C93.5299 348.72 95.5899 348.28 97.4699 347.77C101.22 346.77 104.32 345.49 107.42 343.15C110.5 340.83 113.51 337.51 114.95 335.83C115.02 335.75 115.07 335.68 115.14 335.61C116.38 336.38 117.62 337.09 118.83 337.78C119.6 338.22 120.37 338.65 121.11 339.08C121.87 339.48 122.62 339.87 123.35 340.25C126.27 341.81 129.06 343.02 131.56 344.17C136.62 346.31 140.73 347.72 143.56 348.56C146.4 349.38 147.92 349.78 147.92 349.78C151.04 350.47 153.96 349.19 154.47 346.87C154.99 344.51 153.03 342 150.08 341.29L150.14 341.32Z" fill="white" fill-opacity="0.5"/>
<path d="M136.63 264.73C136.28 265.25 135.86 265.78 135.37 266.31L124.78 277.61H140.59V275.05H130.38L137.51 267.79C138.39 266.89 139.1 265.88 139.65 264.75C140.2 263.62 140.48 262.48 140.48 261.33C140.48 260.65 140.34 259.93 140.06 259.19C139.78 258.44 139.36 257.75 138.78 257.09C138.2 256.44 137.47 255.91 136.57 255.49C135.67 255.07 134.61 254.87 133.37 254.87C131.83 254.87 130.52 255.21 129.42 255.88C128.32 256.55 127.48 257.49 126.91 258.7C126.33 259.91 126.05 261.31 126.05 262.91H128.77C128.77 261.78 128.95 260.8 129.31 259.98C129.67 259.16 130.2 258.53 130.89 258.09C131.58 257.65 132.41 257.43 133.37 257.43C134.05 257.43 134.66 257.55 135.19 257.78C135.72 258.01 136.18 258.32 136.55 258.71C136.92 259.1 137.21 259.52 137.4 259.99C137.59 260.46 137.69 260.94 137.69 261.43C137.69 262.03 137.6 262.6 137.42 263.14C137.24 263.68 136.97 264.22 136.62 264.74L136.63 264.73Z" fill="white"/>
<path d="M156.28 256.38C155.03 255.39 153.59 254.89 151.94 254.89C150.29 254.89 148.85 255.39 147.6 256.38C146.35 257.37 145.38 258.73 144.67 260.46C143.96 262.19 143.61 264.17 143.61 266.41C143.61 268.65 143.96 270.63 144.67 272.36C145.37 274.09 146.35 275.45 147.6 276.44C148.85 277.43 150.29 277.93 151.94 277.93C153.59 277.93 155.03 277.43 156.28 276.44C157.53 275.45 158.5 274.09 159.21 272.36C159.92 270.63 160.27 268.65 160.27 266.41C160.27 264.17 159.92 262.19 159.21 260.46C158.51 258.73 157.53 257.37 156.28 256.38ZM157.16 270.01C156.9 271.11 156.53 272.06 156.04 272.86C155.55 273.66 154.96 274.28 154.28 274.72C153.6 275.16 152.82 275.38 151.94 275.38C151.06 275.38 150.31 275.16 149.62 274.72C148.93 274.28 148.33 273.66 147.84 272.86C147.35 272.06 146.97 271.11 146.72 270.01C146.46 268.91 146.34 267.71 146.34 266.41C146.34 265.11 146.47 263.91 146.72 262.81C146.97 261.71 147.35 260.76 147.84 259.96C148.33 259.16 148.92 258.54 149.62 258.1C150.32 257.66 151.09 257.44 151.94 257.44C152.79 257.44 153.59 257.66 154.28 258.1C154.96 258.54 155.55 259.16 156.04 259.96C156.53 260.76 156.9 261.71 157.16 262.81C157.42 263.91 157.54 265.11 157.54 266.41C157.54 267.71 157.41 268.91 157.16 270.01Z" fill="white"/>
<path d="M174.92 267.78C175.8 266.88 176.51 265.87 177.06 264.74C177.61 263.61 177.89 262.47 177.89 261.32C177.89 260.64 177.75 259.92 177.47 259.18C177.19 258.43 176.77 257.74 176.19 257.08C175.61 256.43 174.88 255.9 173.98 255.48C173.08 255.06 172.02 254.86 170.78 254.86C169.24 254.86 167.93 255.2 166.83 255.87C165.73 256.54 164.89 257.48 164.32 258.69C163.74 259.9 163.45 261.3 163.45 262.9H166.17C166.17 261.77 166.35 260.79 166.71 259.97C167.07 259.15 167.6 258.52 168.29 258.08C168.98 257.64 169.81 257.42 170.77 257.42C171.45 257.42 172.06 257.54 172.59 257.77C173.12 258 173.58 258.31 173.95 258.7C174.32 259.09 174.61 259.51 174.8 259.98C174.99 260.45 175.09 260.93 175.09 261.42C175.09 262.02 175 262.59 174.82 263.13C174.64 263.67 174.37 264.21 174.02 264.73C173.67 265.25 173.25 265.78 172.76 266.31L162.17 277.61H177.98V275.05H167.77L174.91 267.79L174.92 267.78Z" fill="white"/>
<path d="M193.93 255.21H192.81L180.39 273.13H191.21V277.61H193.93V273.13H197.45V270.73H193.93V255.21ZM191.21 261.26V270.73H184.87L191.21 261.26Z" fill="white"/>
<path d="M229.25 268.74L227.27 267.49C226.5 268.54 225.71 269.54 224.89 270.5C224.54 270.91 224.17 271.3 223.81 271.68L218.39 265.45C218.93 265.1 219.44 264.76 219.88 264.4C220.46 263.94 220.95 263.46 221.35 262.96C221.76 262.46 222.06 261.95 222.28 261.44C222.49 260.93 222.6 260.41 222.6 259.87C222.6 258.97 222.39 258.15 221.96 257.39C221.53 256.63 220.92 256.02 220.12 255.55C219.32 255.08 218.35 254.85 217.22 254.85C216.15 254.85 215.21 255.05 214.39 255.46C213.57 255.87 212.92 256.44 212.45 257.19C211.98 257.94 211.74 258.81 211.74 259.81C211.74 260.62 211.95 261.37 212.36 262.05C212.77 262.73 213.25 263.35 213.8 263.89C214.19 264.28 214.51 264.62 214.79 264.94C214.72 264.98 214.66 265.01 214.58 265.04C213.98 265.33 213.37 265.66 212.76 266.05C212.14 266.43 211.57 266.89 211.05 267.43C210.53 267.96 210.1 268.58 209.77 269.29C209.44 269.99 209.27 270.82 209.27 271.75C209.27 273.01 209.62 274.1 210.31 275.03C211 275.96 211.9 276.67 213 277.17C214.1 277.67 215.26 277.92 216.47 277.92C217.9 277.92 219.21 277.65 220.41 277.12C221.58 276.6 222.66 275.91 223.67 275.07L225.89 277.6H228.96L225.36 273.47C225.79 273.02 226.22 272.55 226.62 272.05C227.51 270.95 228.39 269.85 229.24 268.74H229.25ZM215.17 257.86C215.66 257.37 216.34 257.12 217.22 257.12C217.82 257.12 218.32 257.24 218.72 257.47C219.12 257.7 219.44 258.02 219.66 258.43C219.88 258.84 220 259.31 220 259.87C220 260.6 219.65 261.34 218.96 262.09C218.43 262.67 217.75 263.23 216.92 263.76C216.35 263.1 215.81 262.47 215.29 261.88C214.71 261.22 214.42 260.53 214.42 259.8C214.42 258.99 214.67 258.34 215.16 257.85L215.17 257.86ZM219.6 274.89C218.65 275.34 217.66 275.56 216.64 275.56C215.79 275.56 215.01 275.4 214.3 275.08C213.59 274.76 213.04 274.3 212.62 273.7C212.2 273.1 212 272.4 212 271.59C212 270.78 212.19 270.09 212.58 269.51C212.96 268.93 213.46 268.43 214.07 267.99C214.68 267.55 215.32 267.16 216.01 266.81C216.11 266.76 216.21 266.7 216.31 266.65L222.11 273.28C221.31 273.94 220.48 274.49 219.61 274.89H219.6Z" fill="white"/>
<path d="M251.7 264.73C251.35 265.25 250.93 265.78 250.44 266.31L239.85 277.61H255.66V275.05H245.45L252.59 267.79C253.47 266.89 254.18 265.88 254.73 264.75C255.28 263.62 255.56 262.48 255.56 261.33C255.56 260.65 255.42 259.93 255.14 259.19C254.86 258.44 254.44 257.75 253.86 257.09C253.28 256.44 252.55 255.91 251.65 255.49C250.75 255.07 249.69 254.87 248.45 254.87C246.91 254.87 245.6 255.21 244.5 255.88C243.4 256.55 242.56 257.49 241.99 258.7C241.41 259.91 241.12 261.31 241.12 262.91H243.84C243.84 261.78 244.02 260.8 244.38 259.98C244.74 259.16 245.27 258.53 245.96 258.09C246.65 257.65 247.48 257.43 248.44 257.43C249.12 257.43 249.73 257.55 250.26 257.78C250.79 258.01 251.25 258.32 251.62 258.71C251.99 259.1 252.28 259.52 252.47 259.99C252.66 260.46 252.76 260.94 252.76 261.43C252.76 262.03 252.67 262.6 252.49 263.14C252.31 263.68 252.04 264.22 251.69 264.74L251.7 264.73Z" fill="white"/>
<path d="M271.35 256.38C270.1 255.39 268.66 254.89 267.01 254.89C265.36 254.89 263.92 255.39 262.67 256.38C261.42 257.37 260.45 258.73 259.74 260.46C259.03 262.19 258.68 264.17 258.68 266.41C258.68 268.65 259.03 270.63 259.74 272.36C260.44 274.09 261.42 275.45 262.67 276.44C263.92 277.43 265.36 277.93 267.01 277.93C268.66 277.93 270.1 277.43 271.35 276.44C272.6 275.45 273.57 274.09 274.28 272.36C274.99 270.63 275.34 268.65 275.34 266.41C275.34 264.17 274.99 262.19 274.28 260.46C273.58 258.73 272.6 257.37 271.35 256.38ZM272.23 270.01C271.97 271.11 271.6 272.06 271.11 272.86C270.62 273.66 270.03 274.28 269.35 274.72C268.67 275.16 267.89 275.38 267.01 275.38C266.13 275.38 265.38 275.16 264.69 274.72C264 274.28 263.4 273.66 262.91 272.86C262.42 272.06 262.04 271.11 261.79 270.01C261.53 268.91 261.41 267.71 261.41 266.41C261.41 265.11 261.54 263.91 261.79 262.81C262.04 261.71 262.42 260.76 262.91 259.96C263.4 259.16 263.99 258.54 264.69 258.1C265.39 257.66 266.16 257.44 267.01 257.44C267.86 257.44 268.66 257.66 269.35 258.1C270.03 258.54 270.62 259.16 271.11 259.96C271.6 260.76 271.97 261.71 272.23 262.81C272.49 263.91 272.61 265.11 272.61 266.41C272.61 267.71 272.48 268.91 272.23 270.01Z" fill="white"/>
<path d="M293.06 275.05H282.85L289.98 267.79C290.86 266.89 291.57 265.88 292.12 264.75C292.67 263.62 292.95 262.48 292.95 261.33C292.95 260.65 292.81 259.93 292.53 259.19C292.25 258.44 291.83 257.75 291.25 257.09C290.67 256.44 289.94 255.91 289.04 255.49C288.14 255.07 287.08 254.87 285.84 254.87C284.3 254.87 282.99 255.21 281.89 255.88C280.79 256.55 279.95 257.49 279.38 258.7C278.8 259.91 278.52 261.31 278.52 262.91H281.24C281.24 261.78 281.42 260.8 281.78 259.98C282.14 259.16 282.67 258.53 283.36 258.09C284.05 257.65 284.88 257.43 285.84 257.43C286.52 257.43 287.13 257.55 287.66 257.78C288.19 258.01 288.65 258.32 289.02 258.71C289.39 259.1 289.68 259.52 289.87 259.99C290.06 260.46 290.16 260.94 290.16 261.43C290.16 262.03 290.07 262.6 289.89 263.14C289.71 263.68 289.44 264.22 289.09 264.74C288.74 265.26 288.32 265.79 287.83 266.32L277.24 277.62H293.05V275.06L293.06 275.05Z" fill="white"/>
<path d="M310.98 273.61C311.38 272.65 311.59 271.53 311.59 270.25C311.59 268.76 311.3 267.45 310.73 266.31C310.16 265.17 309.36 264.29 308.35 263.65C307.34 263.01 306.19 262.69 304.91 262.69C304.36 262.69 303.79 262.76 303.23 262.9C302.66 263.04 302.11 263.25 301.58 263.52L303.08 257.6H311.53V255.2H300.97L298.03 267.14C298.8 266.61 299.48 266.2 300.06 265.91C300.65 265.62 301.23 265.42 301.82 265.3C302.41 265.18 303.05 265.12 303.76 265.12C304.72 265.12 305.58 265.33 306.34 265.76C307.1 266.19 307.69 266.78 308.13 267.55C308.57 268.32 308.79 269.21 308.79 270.24C308.79 271.27 308.59 272.16 308.2 272.93C307.81 273.7 307.24 274.3 306.49 274.72C305.74 275.15 304.84 275.36 303.77 275.36C302.96 275.36 302.18 275.18 301.43 274.83C300.68 274.48 300.03 274.02 299.46 273.45C298.9 272.89 298.44 272.28 298.1 271.64L295.8 273.21C296.29 274.06 296.89 274.85 297.61 275.56C298.33 276.27 299.19 276.85 300.2 277.27C301.21 277.69 302.4 277.91 303.77 277.91C304.86 277.91 305.87 277.75 306.81 277.43C307.75 277.11 308.58 276.63 309.31 275.99C310.04 275.35 310.6 274.55 311.01 273.59L310.98 273.61Z" fill="white"/>
<path d="M336.47 276.2C337.12 275.65 337.63 274.97 338.01 274.18C338.39 273.39 338.57 272.51 338.57 271.52C338.57 270.53 338.39 269.62 338.03 268.88C337.67 268.14 337.2 267.52 336.64 266.99C336.07 266.47 335.46 266.04 334.8 265.69C334.14 265.35 333.51 265.07 332.91 264.86C331.61 264.41 330.58 263.96 329.82 263.5C329.06 263.04 328.52 262.55 328.2 262.03C327.88 261.51 327.72 260.94 327.72 260.32C327.72 259.6 328 258.94 328.55 258.35C329.1 257.76 329.99 257.47 331.21 257.47C332.08 257.47 332.83 257.64 333.43 257.98C334.04 258.32 334.55 258.76 334.98 259.29C335.41 259.82 335.76 260.37 336.04 260.92L338.38 259.58C338.02 258.79 337.51 258.04 336.88 257.32C336.24 256.61 335.47 256.02 334.56 255.56C333.65 255.1 332.59 254.87 331.38 254.87C330.17 254.87 329 255.12 328.02 255.62C327.04 256.12 326.27 256.81 325.72 257.68C325.16 258.56 324.89 259.55 324.89 260.66C324.89 261.68 325.09 262.55 325.48 263.25C325.87 263.95 326.38 264.55 327 265.03C327.62 265.51 328.27 265.91 328.95 266.21C329.63 266.52 330.25 266.77 330.81 266.96C331.66 267.26 332.47 267.59 333.23 267.97C333.99 268.34 334.6 268.83 335.07 269.43C335.54 270.03 335.77 270.83 335.77 271.83C335.77 272.83 335.41 273.7 334.68 274.36C333.96 275.02 332.99 275.35 331.8 275.35C330.91 275.35 330.1 275.16 329.4 274.77C328.69 274.39 328.06 273.85 327.5 273.17C326.93 272.49 326.4 271.7 325.88 270.8L323.7 272.27C324.19 273.25 324.82 274.17 325.6 275.04C326.38 275.9 327.29 276.6 328.32 277.12C329.35 277.64 330.48 277.9 331.7 277.9C332.6 277.9 333.46 277.75 334.28 277.45C335.1 277.15 335.84 276.72 336.49 276.17L336.47 276.2Z" fill="white"/>
<path d="M345.12 277.61V265.29H347.52V262.89H345.12V257.77H342.56V262.89H340.16V265.29H342.56V277.61H345.12Z" fill="white"/>
<path d="M362.79 274.18L360.71 272.87C360.18 273.77 359.53 274.43 358.76 274.87C357.99 275.31 357.11 275.53 356.1 275.53C355.09 275.53 354.24 275.32 353.54 274.89C352.84 274.46 352.3 273.85 351.94 273.03C351.66 272.41 351.49 271.7 351.43 270.89H363.01C363.01 270.89 363.01 270.75 363.03 270.59C363.03 270.43 363.05 270.28 363.05 270.13C363.05 268.57 362.77 267.23 362.22 266.1C361.67 264.97 360.87 264.1 359.84 263.49C358.81 262.88 357.56 262.58 356.11 262.58C354.66 262.58 353.38 262.9 352.29 263.54C351.19 264.18 350.34 265.08 349.73 266.23C349.12 267.38 348.82 268.73 348.82 270.26C348.82 271.79 349.11 273.11 349.7 274.26C350.29 275.41 351.11 276.31 352.16 276.96C353.22 277.61 354.43 277.94 355.79 277.94C357.37 277.94 358.74 277.63 359.9 277C361.06 276.37 362.03 275.44 362.8 274.2L362.79 274.18ZM353.59 265.43C354.28 265.01 355.12 264.81 356.1 264.81C356.93 264.81 357.66 264.99 358.28 265.35C358.9 265.71 359.38 266.21 359.74 266.85C360.04 267.38 360.2 268.01 360.25 268.71H351.54C351.64 268.16 351.79 267.66 352 267.22C352.37 266.44 352.91 265.84 353.6 265.43H353.59Z" fill="white"/>
<path d="M370.72 273.29L366.56 262.89H363.68L370.72 278.73L377.76 262.89H374.88L370.72 273.29Z" fill="white"/>
<path d="M380.69 255.56C380.34 255.9 380.16 256.32 380.16 256.81C380.16 257.3 380.34 257.69 380.69 258.04C381.04 258.39 381.45 258.57 381.92 258.57C382.39 258.57 382.83 258.39 383.17 258.04C383.51 257.69 383.68 257.28 383.68 256.81C383.68 256.34 383.51 255.9 383.17 255.56C382.83 255.22 382.41 255.05 381.92 255.05C381.43 255.05 381.04 255.22 380.69 255.56Z" fill="white"/>
<path d="M383.2 262.89H380.64V277.61H383.2V262.89Z" fill="white"/>
<path d="M401.18 274.18L399.1 272.87C398.56 273.77 397.91 274.43 397.15 274.87C396.38 275.31 395.5 275.53 394.49 275.53C393.48 275.53 392.63 275.32 391.93 274.89C391.22 274.46 390.69 273.85 390.33 273.03C390.05 272.41 389.89 271.7 389.82 270.89H401.4C401.4 270.89 401.4 270.75 401.42 270.59C401.43 270.43 401.44 270.28 401.44 270.13C401.44 268.57 401.16 267.23 400.61 266.1C400.05 264.97 399.26 264.1 398.23 263.49C397.19 262.88 395.95 262.58 394.5 262.58C393.05 262.58 391.78 262.9 390.68 263.54C389.58 264.18 388.73 265.08 388.12 266.23C387.51 267.38 387.21 268.73 387.21 270.26C387.21 271.79 387.5 273.11 388.09 274.26C388.68 275.41 389.5 276.31 390.55 276.96C391.6 277.61 392.82 277.94 394.18 277.94C395.76 277.94 397.13 277.63 398.29 277C399.45 276.37 400.42 275.44 401.18 274.2V274.18ZM391.98 265.43C392.67 265.01 393.51 264.81 394.49 264.81C395.32 264.81 396.05 264.99 396.67 265.35C397.29 265.71 397.78 266.21 398.13 266.85C398.42 267.38 398.59 268.01 398.64 268.71H389.93C390.03 268.16 390.18 267.66 390.39 267.22C390.76 266.44 391.3 265.84 391.99 265.43H391.98Z" fill="white"/>
<path d="M414.81 255.6C414.21 255 413.5 254.53 412.68 254.2C411.86 253.87 410.98 253.71 410.02 253.71C409.06 253.71 408.19 253.88 407.37 254.2C406.55 254.52 405.84 255 405.23 255.6C404.63 256.2 404.16 256.91 403.81 257.74C403.47 258.56 403.3 259.46 403.3 260.43C403.3 261.4 403.47 262.3 403.81 263.12C404.15 263.94 404.62 264.65 405.23 265.26C405.83 265.86 406.55 266.33 407.37 266.66C408.19 266.99 409.07 267.15 410.02 267.15C410.97 267.15 411.86 266.98 412.68 266.66C413.49 266.33 414.2 265.86 414.81 265.26C415.41 264.66 415.88 263.94 416.23 263.12C416.57 262.3 416.74 261.4 416.74 260.43C416.74 259.46 416.57 258.56 416.23 257.74C415.89 256.92 415.42 256.21 414.81 255.6ZM415.28 262.73C414.99 263.43 414.59 264.05 414.08 264.57C413.57 265.09 412.96 265.5 412.27 265.78C411.58 266.07 410.83 266.21 410.02 266.21C409.21 266.21 408.46 266.07 407.77 265.78C407.08 265.49 406.48 265.09 405.96 264.57C405.44 264.05 405.04 263.44 404.76 262.73C404.47 262.03 404.33 261.26 404.33 260.43C404.33 259.6 404.47 258.83 404.76 258.13C405.05 257.43 405.45 256.81 405.96 256.29C406.47 255.77 407.08 255.36 407.77 255.08C408.46 254.79 409.21 254.65 410.02 254.65C410.83 254.65 411.58 254.79 412.27 255.08C412.96 255.37 413.56 255.77 414.08 256.29C414.6 256.81 415 257.42 415.28 258.13C415.57 258.83 415.71 259.6 415.71 260.43C415.71 261.26 415.57 262.03 415.28 262.73Z" fill="white"/>
<path d="M411.7 260.39C412.21 259.97 412.47 259.39 412.47 258.67C412.47 257.95 412.21 257.38 411.7 256.95C411.19 256.52 410.56 256.32 409.8 256.32H407.67V264.16H408.62V261.03H409.57L411.75 264.16H412.93L410.59 260.93C411.01 260.83 411.38 260.66 411.7 260.39ZM408.62 257.16H409.8C410.31 257.16 410.72 257.29 411.04 257.55C411.36 257.81 411.52 258.18 411.52 258.67C411.52 259.16 411.36 259.53 411.04 259.79C410.72 260.05 410.31 260.18 409.8 260.18H408.62V257.16Z" fill="white"/>
<path d="M427.24 277.61H430.28L433.12 270.89H442.14L445 277.61H448.04L437.64 254.09L427.24 277.61ZM441.08 268.33H434.23L437.65 260.27L441.08 268.33Z" fill="white"/>
<path d="M461.61 272.52L457.32 261.77L453.32 272.46L449.64 262.89H446.77L453.16 278.73L457.36 268.01L461.8 278.73L468.21 262.89H465.32L461.61 272.52Z" fill="white"/>
<path d="M479.1 263.09C478.23 262.74 477.23 262.56 476.07 262.56C474.7 262.56 473.54 262.76 472.57 263.17C471.6 263.58 470.84 263.98 470.28 264.39L471.53 266.28C471.76 266.11 472.08 265.91 472.49 265.67C472.9 265.44 473.39 265.23 473.98 265.06C474.57 264.89 475.22 264.8 475.95 264.8C476.4 264.8 476.83 264.84 477.23 264.93C477.63 265.02 477.99 265.15 478.3 265.35C478.61 265.54 478.85 265.8 479.02 266.13C479.19 266.46 479.28 266.88 479.28 267.39V269.53C478.88 269.27 478.38 269.02 477.76 268.81C477.05 268.56 476.15 268.44 475.09 268.44C473.28 268.44 471.86 268.87 470.85 269.74C469.84 270.6 469.33 271.75 469.33 273.18C469.33 274.18 469.56 275.04 470.04 275.74C470.51 276.44 471.13 276.98 471.91 277.36C472.69 277.74 473.53 277.92 474.42 277.92C475.23 277.92 476.05 277.77 476.87 277.47C477.69 277.17 478.38 276.71 478.95 276.09C479.08 275.95 479.19 275.8 479.29 275.64V277.59H481.85V267.03C481.85 266.07 481.61 265.26 481.13 264.6C480.65 263.94 479.98 263.43 479.11 263.08L479.1 263.09ZM478.72 273.88C478.35 274.47 477.84 274.92 477.22 275.24C476.6 275.56 475.88 275.72 475.09 275.72C474.47 275.72 473.92 275.62 473.44 275.42C472.96 275.22 472.59 274.91 472.32 274.51C472.05 274.11 471.92 273.63 471.92 273.07C471.92 272.51 472.05 272.08 472.3 271.69C472.56 271.31 472.94 271.01 473.47 270.79C473.99 270.58 474.67 270.47 475.5 270.47C476.4 270.47 477.24 270.58 478.03 270.81C478.45 270.93 478.87 271.1 479.28 271.3V271.85C479.28 272.62 479.09 273.3 478.72 273.88Z" fill="white"/>
<path d="M491.82 262.57C491.14 262.57 490.46 262.84 489.8 263.37C489.39 263.7 489.03 264.12 488.71 264.59V262.89H486.15V277.61H488.71V268.65C488.71 267.95 488.78 267.32 488.92 266.76C489.06 266.21 489.31 265.77 489.67 265.45C490.03 265.13 490.54 264.97 491.17 264.97C491.6 264.97 491.95 265.03 492.23 265.15C492.51 265.27 492.82 265.45 493.16 265.71L494.57 263.6C494.19 263.2 493.77 262.92 493.31 262.78C492.85 262.64 492.35 262.57 491.82 262.57Z" fill="white"/>
<path d="M510.73 277.61V252.65H508.17V265.45C507.69 264.64 507.1 263.99 506.38 263.5C505.46 262.88 504.38 262.57 503.15 262.57C501.83 262.57 500.61 262.88 499.5 263.5C498.39 264.12 497.51 265 496.84 266.14C496.18 267.28 495.85 268.65 495.85 270.25C495.85 271.85 496.18 273.19 496.84 274.35C497.5 275.5 498.39 276.39 499.5 277.01C500.61 277.63 501.82 277.94 503.15 277.94C504.39 277.94 505.46 277.63 506.38 277.01C507.1 276.52 507.69 275.87 508.17 275.05V277.62H510.73V277.61ZM507.47 273.13C507 273.92 506.4 274.52 505.68 274.92C504.96 275.33 504.22 275.53 503.47 275.53C502.57 275.53 501.74 275.33 500.97 274.92C500.2 274.52 499.59 273.92 499.13 273.13C498.67 272.34 498.44 271.38 498.44 270.25C498.44 269.12 498.67 268.16 499.13 267.37C499.59 266.58 500.2 265.98 500.97 265.58C501.74 265.17 502.57 264.97 503.47 264.97C504.22 264.97 504.95 265.17 505.68 265.58C506.41 265.99 507 266.58 507.47 267.37C507.94 268.16 508.17 269.12 508.17 270.25C508.17 271.38 507.94 272.34 507.47 273.13Z" fill="white"/>
<path d="M517.2 277.4C517.99 277.75 518.87 277.93 519.86 277.93C521.37 277.93 522.6 277.5 523.52 276.65C524.44 275.8 524.91 274.73 524.91 273.45C524.91 272.57 524.7 271.86 524.29 271.31C523.87 270.76 523.31 270.28 522.61 269.89C521.9 269.5 521.13 269.13 520.27 268.79C519.76 268.58 519.27 268.35 518.8 268.12C518.33 267.89 517.95 267.62 517.65 267.32C517.35 267.02 517.2 266.68 517.2 266.3C517.2 265.81 517.39 265.45 517.78 265.21C518.16 264.98 518.62 264.86 519.16 264.86C519.93 264.86 520.62 265.04 521.22 265.4C521.83 265.76 522.34 266.22 522.74 266.78L524.79 265.47C524.49 264.92 524.08 264.43 523.54 264C523 263.57 522.39 263.23 521.7 262.98C521.01 262.73 520.26 262.6 519.48 262.6C518.7 262.6 517.93 262.74 517.19 263.02C516.45 263.3 515.86 263.72 515.4 264.3C514.94 264.88 514.71 265.6 514.71 266.48C514.71 267.36 514.93 268.04 515.37 268.61C515.81 269.18 516.35 269.63 517 269.99C517.65 270.34 518.3 270.65 518.94 270.9C519.52 271.11 520.06 271.34 520.57 271.59C521.08 271.84 521.5 272.13 521.83 272.49C522.16 272.84 522.33 273.27 522.33 273.79C522.33 274.37 522.12 274.82 521.71 275.15C521.29 275.48 520.72 275.65 520 275.65C519.4 275.65 518.85 275.54 518.35 275.31C517.85 275.09 517.4 274.78 517.02 274.4C516.64 274.02 516.29 273.6 515.99 273.15L513.97 274.4C514.25 274.98 514.66 275.54 515.2 276.1C515.74 276.65 516.41 277.11 517.2 277.46V277.4Z" fill="white"/>
<path d="M237.19 292.81H236.06V309.61H238.1V301.45H244.46V299.53H238.1V294.73H244.7V292.81H238.1H237.19Z" fill="white"/>
<path d="M250.22 298.57H248.3V309.61H250.22V298.57Z" fill="white"/>
<path d="M249.26 292.69C248.91 292.69 248.6 292.82 248.34 293.07C248.07 293.33 247.94 293.64 247.94 294.01C247.94 294.38 248.07 294.67 248.34 294.93C248.6 295.19 248.91 295.33 249.26 295.33C249.61 295.33 249.94 295.2 250.2 294.93C250.46 294.67 250.58 294.36 250.58 294.01C250.58 293.66 250.45 293.33 250.2 293.07C249.95 292.81 249.63 292.69 249.26 292.69Z" fill="white"/>
<path d="M259.38 298.33C258.66 298.33 258.02 298.49 257.47 298.81C256.92 299.13 256.46 299.63 256.09 300.3V298.57H254.17V309.61H256.09V302.89C256.09 302.35 256.21 301.87 256.44 301.45C256.67 301.03 257 300.71 257.42 300.48C257.84 300.25 258.34 300.13 258.9 300.13C259.67 300.13 260.25 300.36 260.65 300.83C261.05 301.29 261.25 301.98 261.25 302.89V309.61H263.17V302.65C263.17 301.32 262.83 300.27 262.15 299.49C261.47 298.71 260.54 298.33 259.38 298.33Z" fill="white"/>
<path d="M273.03 298.72C272.38 298.46 271.63 298.32 270.76 298.32C269.73 298.32 268.86 298.47 268.13 298.78C267.4 299.09 266.83 299.39 266.42 299.69L267.36 301.11C267.54 300.98 267.78 300.83 268.08 300.65C268.38 300.47 268.76 300.32 269.2 300.19C269.64 300.06 270.13 300 270.68 300C271.02 300 271.33 300.03 271.64 300.1C271.94 300.16 272.21 300.27 272.44 300.41C272.67 300.55 272.85 300.75 272.98 301C273.11 301.25 273.17 301.56 273.17 301.95V303.56C272.87 303.36 272.5 303.18 272.03 303.02C271.49 302.84 270.82 302.74 270.03 302.74C268.67 302.74 267.61 303.06 266.85 303.71C266.09 304.36 265.71 305.22 265.71 306.29C265.71 307.04 265.89 307.68 266.24 308.21C266.59 308.74 267.06 309.14 267.64 309.42C268.22 309.7 268.85 309.84 269.52 309.84C270.13 309.84 270.74 309.73 271.36 309.5C271.98 309.28 272.49 308.93 272.92 308.47C273.02 308.37 273.1 308.25 273.17 308.13V309.59H275.09V301.67C275.09 300.95 274.91 300.34 274.55 299.85C274.19 299.36 273.69 298.97 273.04 298.71L273.03 298.72ZM272.74 306.81C272.46 307.25 272.08 307.59 271.61 307.83C271.14 308.07 270.61 308.19 270.01 308.19C269.55 308.19 269.13 308.11 268.77 307.96C268.41 307.81 268.13 307.58 267.93 307.28C267.73 306.98 267.63 306.62 267.63 306.2C267.63 305.78 267.73 305.46 267.92 305.17C268.11 304.88 268.4 304.66 268.8 304.5C269.2 304.34 269.7 304.26 270.32 304.26C270.99 304.26 271.62 304.34 272.22 304.51C272.54 304.6 272.85 304.73 273.16 304.88V305.29C273.16 305.87 273.02 306.37 272.74 306.81Z" fill="white"/>
<path d="M283.53 298.33C282.81 298.33 282.17 298.49 281.62 298.81C281.07 299.13 280.61 299.63 280.24 300.3V298.57H278.32V309.61H280.24V302.89C280.24 302.35 280.36 301.87 280.59 301.45C280.82 301.03 281.15 300.71 281.57 300.48C281.99 300.25 282.49 300.13 283.05 300.13C283.82 300.13 284.4 300.36 284.8 300.83C285.2 301.3 285.4 301.98 285.4 302.89V309.61H287.32V302.65C287.32 301.32 286.98 300.27 286.3 299.49C285.62 298.71 284.7 298.33 283.53 298.33Z" fill="white"/>
<path d="M295.55 298.33C294.48 298.33 293.51 298.58 292.65 299.07C291.79 299.56 291.1 300.25 290.6 301.11C290.1 301.97 289.84 302.97 289.84 304.09C289.84 305.21 290.09 306.18 290.6 307.05C291.11 307.92 291.79 308.61 292.65 309.1C293.51 309.59 294.48 309.84 295.55 309.84C296.3 309.84 297.03 309.72 297.75 309.47C298.46 309.22 299.01 308.87 299.39 308.43V306.03C299.23 306.38 298.96 306.71 298.57 307.03C298.19 307.34 297.73 307.59 297.21 307.77C296.69 307.95 296.13 308.05 295.54 308.05C294.82 308.05 294.17 307.88 293.61 307.53C293.04 307.19 292.59 306.72 292.27 306.13C291.94 305.54 291.78 304.86 291.78 304.09C291.78 303.32 291.94 302.64 292.27 302.04C292.6 301.44 293.05 300.97 293.61 300.64C294.18 300.3 294.82 300.14 295.54 300.14C296.13 300.14 296.69 300.23 297.21 300.42C297.73 300.61 298.18 300.85 298.57 301.15C298.95 301.45 299.23 301.79 299.39 302.16V299.76C299.01 299.31 298.46 298.96 297.75 298.72C297.04 298.47 296.31 298.35 295.55 298.35V298.33Z" fill="white"/>
<path d="M303.71 292.69C303.36 292.69 303.05 292.82 302.79 293.07C302.52 293.33 302.39 293.64 302.39 294.01C302.39 294.38 302.52 294.67 302.79 294.93C303.05 295.19 303.36 295.33 303.71 295.33C304.06 295.33 304.39 295.2 304.65 294.93C304.91 294.67 305.03 294.36 305.03 294.01C305.03 293.66 304.9 293.33 304.65 293.07C304.4 292.81 304.08 292.69 303.71 292.69Z" fill="white"/>
<path d="M304.67 298.57H302.75V309.61H304.67V298.57Z" fill="white"/>
<path d="M314.88 298.72C314.23 298.46 313.48 298.32 312.61 298.32C311.58 298.32 310.71 298.47 309.98 298.78C309.25 299.09 308.68 299.39 308.27 299.69L309.21 301.11C309.39 300.98 309.63 300.83 309.93 300.65C310.23 300.47 310.61 300.32 311.05 300.19C311.49 300.06 311.98 300 312.53 300C312.87 300 313.18 300.03 313.49 300.1C313.79 300.16 314.06 300.27 314.29 300.41C314.52 300.55 314.7 300.75 314.83 301C314.96 301.25 315.02 301.56 315.02 301.95V303.56C314.72 303.36 314.35 303.18 313.88 303.02C313.34 302.84 312.67 302.74 311.88 302.74C310.52 302.74 309.46 303.06 308.7 303.71C307.94 304.36 307.56 305.22 307.56 306.29C307.56 307.04 307.74 307.68 308.09 308.21C308.44 308.74 308.91 309.14 309.49 309.42C310.07 309.7 310.7 309.84 311.37 309.84C311.98 309.84 312.59 309.73 313.21 309.5C313.83 309.28 314.34 308.93 314.77 308.47C314.87 308.37 314.95 308.25 315.02 308.13V309.59H316.94V301.67C316.94 300.95 316.76 300.34 316.4 299.85C316.04 299.36 315.54 298.97 314.89 298.71L314.88 298.72ZM314.6 306.81C314.32 307.25 313.94 307.59 313.47 307.83C313 308.07 312.47 308.19 311.87 308.19C311.41 308.19 310.99 308.11 310.63 307.96C310.27 307.81 309.99 307.58 309.79 307.28C309.59 306.98 309.49 306.62 309.49 306.2C309.49 305.78 309.59 305.46 309.78 305.17C309.97 304.88 310.26 304.66 310.66 304.5C311.06 304.34 311.56 304.26 312.18 304.26C312.85 304.26 313.48 304.34 314.08 304.51C314.4 304.6 314.71 304.73 315.02 304.88V305.29C315.02 305.87 314.88 306.37 314.6 306.81Z" fill="white"/>
<path d="M322.1 290.89H320.18V309.61H322.1V290.89Z" fill="white"/>
<path d="M341.71 301.65C341.29 301.26 340.83 300.93 340.33 300.68C339.83 300.43 339.36 300.22 338.91 300.06C337.93 299.72 337.16 299.38 336.59 299.04C336.02 298.7 335.62 298.33 335.38 297.94C335.14 297.55 335.02 297.12 335.02 296.66C335.02 296.12 335.23 295.62 335.64 295.18C336.06 294.74 336.72 294.52 337.63 294.52C338.29 294.52 338.84 294.65 339.3 294.9C339.76 295.16 340.14 295.48 340.46 295.88C340.78 296.28 341.04 296.69 341.25 297.1L343 296.09C342.73 295.5 342.35 294.93 341.87 294.4C341.39 293.86 340.81 293.42 340.13 293.08C339.45 292.74 338.66 292.56 337.74 292.56C336.82 292.56 335.95 292.75 335.22 293.12C334.48 293.5 333.91 294.01 333.49 294.67C333.07 295.33 332.87 296.07 332.87 296.9C332.87 297.67 333.02 298.32 333.32 298.84C333.61 299.37 334 299.81 334.46 300.17C334.92 300.53 335.41 300.83 335.92 301.06C336.43 301.29 336.9 301.48 337.31 301.62C337.95 301.84 338.55 302.1 339.12 302.38C339.69 302.66 340.15 303.02 340.5 303.47C340.85 303.92 341.03 304.52 341.03 305.27C341.03 306.02 340.76 306.67 340.21 307.17C339.67 307.67 338.95 307.91 338.05 307.91C337.38 307.91 336.78 307.77 336.25 307.48C335.72 307.19 335.25 306.79 334.82 306.28C334.4 305.77 333.99 305.18 333.61 304.5L331.98 305.6C332.35 306.34 332.82 307.03 333.41 307.68C334 308.33 334.67 308.85 335.45 309.24C336.23 309.63 337.07 309.83 337.98 309.83C338.65 309.83 339.29 309.72 339.91 309.49C340.53 309.27 341.08 308.95 341.57 308.53C342.06 308.11 342.44 307.61 342.72 307.02C343 306.43 343.14 305.76 343.14 305.03C343.14 304.3 343 303.6 342.73 303.05C342.46 302.5 342.11 302.03 341.69 301.63L341.71 301.65Z" fill="white"/>
<path d="M353.36 299.01C352.58 298.55 351.65 298.33 350.56 298.33C349.47 298.33 348.52 298.57 347.69 299.05C346.87 299.53 346.23 300.2 345.77 301.07C345.31 301.93 345.09 302.94 345.09 304.09C345.09 305.24 345.31 306.23 345.75 307.09C346.19 307.95 346.8 308.63 347.6 309.12C348.39 309.61 349.3 309.85 350.32 309.85C351.5 309.85 352.53 309.61 353.4 309.14C354.27 308.67 355 307.97 355.57 307.04L354.01 306.06C353.61 306.73 353.12 307.23 352.55 307.56C351.98 307.89 351.31 308.05 350.56 308.05C349.81 308.05 349.17 307.89 348.64 307.57C348.11 307.25 347.71 306.79 347.44 306.18C347.24 305.72 347.13 305.17 347.08 304.57H355.74C355.74 304.57 355.74 304.46 355.75 304.34C355.76 304.22 355.76 304.1 355.76 303.99C355.76 302.82 355.55 301.81 355.14 300.97C354.72 300.12 354.13 299.47 353.35 299.01H353.36ZM348.68 300.48C349.2 300.17 349.83 300.01 350.56 300.01C351.18 300.01 351.73 300.15 352.19 300.42C352.65 300.69 353.02 301.07 353.28 301.55C353.5 301.95 353.61 302.42 353.64 302.94H347.13C347.2 302.53 347.31 302.15 347.47 301.82C347.75 301.24 348.15 300.79 348.67 300.48H348.68Z" fill="white"/>
<path d="M362.65 298.33C362.14 298.33 361.63 298.53 361.14 298.93C360.83 299.18 360.56 299.51 360.32 299.88V298.57H358.4V309.61H360.32V302.89C360.32 302.36 360.37 301.89 360.48 301.47C360.58 301.05 360.77 300.73 361.04 300.49C361.31 300.25 361.69 300.13 362.17 300.13C362.49 300.13 362.75 300.17 362.96 300.26C363.17 300.35 363.4 300.49 363.66 300.68L364.72 299.1C364.43 298.8 364.12 298.59 363.77 298.49C363.42 298.39 363.05 298.33 362.65 298.33Z" fill="white"/>
<path d="M370.84 306.37L367.72 298.57H365.56L370.84 310.45L376.12 298.57H373.96L370.84 306.37Z" fill="white"/>
<path d="M380.2 298.57H378.28V309.61H380.2V298.57Z" fill="white"/>
<path d="M379.24 292.69C378.89 292.69 378.58 292.82 378.32 293.07C378.06 293.32 377.92 293.64 377.92 294.01C377.92 294.38 378.05 294.67 378.32 294.93C378.58 295.19 378.89 295.33 379.24 295.33C379.61 295.33 379.92 295.2 380.18 294.93C380.44 294.67 380.56 294.36 380.56 294.01C380.56 293.66 380.43 293.33 380.18 293.07C379.93 292.81 379.61 292.69 379.24 292.69Z" fill="white"/>
<path d="M388.79 298.33C387.72 298.33 386.75 298.58 385.89 299.07C385.03 299.56 384.34 300.25 383.84 301.11C383.34 301.97 383.08 302.97 383.08 304.09C383.08 305.21 383.33 306.18 383.84 307.05C384.35 307.92 385.03 308.61 385.89 309.1C386.75 309.59 387.72 309.84 388.79 309.84C389.54 309.84 390.27 309.72 390.99 309.47C391.7 309.22 392.25 308.87 392.63 308.43V306.03C392.47 306.38 392.2 306.71 391.81 307.03C391.43 307.34 390.97 307.59 390.45 307.77C389.93 307.95 389.37 308.05 388.78 308.05C388.06 308.05 387.41 307.88 386.85 307.53C386.28 307.19 385.83 306.72 385.51 306.13C385.18 305.54 385.02 304.86 385.02 304.09C385.02 303.32 385.18 302.64 385.51 302.04C385.84 301.44 386.29 300.97 386.85 300.64C387.42 300.3 388.06 300.14 388.78 300.14C389.37 300.14 389.93 300.23 390.45 300.42C390.97 300.61 391.42 300.85 391.81 301.15C392.19 301.45 392.47 301.79 392.63 302.16V299.76C392.25 299.31 391.7 298.96 390.99 298.72C390.28 298.47 389.55 298.35 388.79 298.35V298.33Z" fill="white"/>
<path d="M402.94 299.01C402.16 298.55 401.23 298.33 400.14 298.33C399.05 298.33 398.1 298.57 397.27 299.05C396.45 299.53 395.81 300.2 395.35 301.07C394.89 301.93 394.66 302.94 394.66 304.09C394.66 305.24 394.88 306.23 395.32 307.09C395.76 307.95 396.38 308.63 397.17 309.12C397.96 309.61 398.87 309.85 399.89 309.85C401.07 309.85 402.1 309.61 402.97 309.14C403.84 308.67 404.57 307.97 405.14 307.04L403.58 306.06C403.18 306.73 402.69 307.23 402.12 307.56C401.55 307.89 400.88 308.05 400.13 308.05C399.38 308.05 398.74 307.89 398.21 307.57C397.68 307.25 397.28 306.79 397.01 306.18C396.8 305.72 396.7 305.17 396.65 304.57H405.31C405.31 304.57 405.31 304.46 405.32 304.34C405.33 304.22 405.33 304.1 405.33 303.99C405.33 302.82 405.12 301.81 404.71 300.97C404.29 300.12 403.7 299.47 402.92 299.01H402.94ZM398.26 300.48C398.78 300.17 399.41 300.01 400.14 300.01C400.76 300.01 401.31 300.15 401.77 300.42C402.23 300.69 402.6 301.07 402.86 301.55C403.08 301.95 403.18 302.42 403.22 302.94H396.71C396.78 302.53 396.89 302.15 397.05 301.82C397.33 301.24 397.73 300.79 398.25 300.48H398.26Z" fill="white"/>
<path d="M413.41 303.81C412.88 303.51 412.3 303.24 411.66 302.98C411.28 302.82 410.91 302.65 410.56 302.48C410.21 302.3 409.92 302.1 409.69 301.88C409.47 301.66 409.35 301.4 409.35 301.11C409.35 300.74 409.49 300.47 409.78 300.29C410.07 300.11 410.41 300.03 410.81 300.03C411.39 300.03 411.9 300.17 412.36 300.44C412.82 300.71 413.2 301.06 413.5 301.47L415.04 300.49C414.82 300.07 414.5 299.71 414.1 299.39C413.7 299.07 413.24 298.81 412.72 298.62C412.2 298.43 411.64 298.33 411.05 298.33C410.46 298.33 409.89 298.43 409.33 298.64C408.77 298.85 408.33 299.17 407.99 299.6C407.65 300.03 407.47 300.58 407.47 301.23C407.47 301.88 407.63 302.4 407.96 302.83C408.29 303.26 408.69 303.6 409.18 303.86C409.67 304.12 410.15 304.35 410.63 304.54C411.06 304.7 411.47 304.87 411.85 305.06C412.23 305.24 412.55 305.47 412.8 305.73C413.05 305.99 413.17 306.32 413.17 306.7C413.17 307.13 413.01 307.47 412.7 307.72C412.39 307.97 411.96 308.09 411.41 308.09C410.96 308.09 410.55 308.01 410.17 307.84C409.79 307.67 409.46 307.44 409.18 307.16C408.89 306.87 408.64 306.56 408.41 306.22L406.9 307.16C407.11 307.59 407.42 308.02 407.82 308.43C408.22 308.84 408.73 309.19 409.32 309.45C409.91 309.71 410.58 309.85 411.31 309.85C412.45 309.85 413.36 309.53 414.06 308.89C414.76 308.25 415.1 307.45 415.1 306.49C415.1 305.83 414.94 305.3 414.63 304.88C414.32 304.46 413.9 304.11 413.37 303.81H413.41Z" fill="white"/>
<path d="M165.58 98.1299H176.29L179.44 104.61H188.66L170.95 68.8999L153.29 104.61H162.46L165.59 98.1299H165.58ZM174.69 91.9399H167.22L170.95 83.3499L174.7 91.9399H174.69Z" fill="white"/>
<path d="M196.27 103.65C198.21 104.61 200.39 105.09 202.82 105.09C204.48 105.09 205.89 104.91 207.04 104.54C208.19 104.17 209.15 103.68 209.92 103.08V96.0199C209.47 96.7199 208.9 97.3199 208.22 97.7999C207.53 98.2799 206.78 98.6599 205.96 98.9299C205.14 99.1999 204.29 99.3399 203.39 99.3399C202.33 99.3399 201.35 99.0999 200.44 98.6199C199.53 98.1399 198.82 97.4799 198.3 96.6299C197.79 95.7799 197.53 94.7699 197.53 93.5799C197.53 92.4899 197.79 91.5199 198.3 90.6499C198.81 89.7899 199.52 89.0999 200.44 88.5899C201.35 88.0799 202.34 87.8199 203.39 87.8199C204.19 87.8199 205.01 87.9499 205.84 88.1999C206.67 88.4599 207.45 88.8199 208.17 89.2999C208.89 89.7799 209.47 90.3699 209.92 91.0799V83.9799C209.15 83.4399 208.19 82.9799 207.04 82.6099C205.89 82.2399 204.48 82.0599 202.82 82.0599C200.39 82.0599 198.2 82.5399 196.27 83.4999C194.33 84.4599 192.81 85.7999 191.71 87.5099C190.61 89.2199 190.05 91.2499 190.05 93.5799C190.05 95.9099 190.6 97.8999 191.71 99.6299C192.81 101.36 194.33 102.7 196.27 103.66V103.65Z" fill="white"/>
<path d="M222.45 91.1699C222.45 90.3099 222.61 89.5799 222.93 88.9899C223.25 88.3999 223.7 87.9299 224.27 87.5999C224.84 87.2699 225.52 87.0999 226.29 87.0999C227.47 87.0999 228.31 87.4499 228.79 88.1599C229.27 88.8599 229.51 89.8699 229.51 91.1799V104.62H236.76V90.1199C236.76 88.2999 236.5 86.7599 235.99 85.5099C235.48 84.2599 234.67 83.3199 233.57 82.6799C232.47 82.0399 231 81.7199 229.18 81.7199C227.36 81.7199 225.86 82.1399 224.69 82.9899C223.75 83.6699 223.01 84.5499 222.46 85.5999V67.1699H215.16V104.61H222.46V91.1699H222.45Z" fill="white"/>
<path d="M249.72 82.53H242.71V104.61H249.72V82.53Z" fill="white"/>
<path d="M246.21 78.16C247.39 78.16 248.39 77.79 249.21 77.06C250.03 76.32 250.43 75.38 250.43 74.23C250.43 73.08 250.02 72.14 249.21 71.42C248.39 70.7 247.39 70.34 246.21 70.34C245.03 70.34 244.07 70.7 243.23 71.42C242.4 72.14 241.98 73.08 241.98 74.23C241.98 75.38 242.4 76.33 243.23 77.06C244.06 77.8 245.05 78.16 246.21 78.16Z" fill="white"/>
<path d="M260.25 103.67C262.12 104.61 264.34 105.09 266.9 105.09C269.72 105.09 272.11 104.55 274.08 103.46C276.05 102.37 277.61 100.74 278.76 98.5599L272.28 96.9799C271.74 97.9399 271.01 98.6599 270.1 99.1399C269.19 99.6199 268.09 99.8599 266.81 99.8599C265.69 99.8599 264.75 99.6099 263.98 99.1199C263.21 98.6199 262.64 97.8999 262.25 96.9399C262.03 96.3999 261.88 95.7799 261.79 95.1199H278.62C278.68 94.8999 278.72 94.6199 278.72 94.2799V93.2499C278.72 90.8799 278.26 88.8699 277.33 87.1999C276.4 85.5399 275.06 84.2599 273.3 83.3799C271.54 82.4999 269.38 82.0599 266.82 82.0599C264.26 82.0599 262.04 82.5199 260.17 83.4499C258.3 84.3799 256.87 85.7099 255.87 87.4299C254.88 89.1599 254.38 91.2099 254.38 93.5699C254.38 95.9299 254.89 97.9399 255.92 99.6699C256.94 101.4 258.39 102.73 260.26 103.68L260.25 103.67ZM263.92 87.6199C264.66 87.1399 265.57 86.8999 266.66 86.8999C267.52 86.8999 268.28 87.0899 268.92 87.4799C269.56 87.8599 270.06 88.4099 270.41 89.1099C270.69 89.6799 270.86 90.3399 270.91 91.0799H261.92C262.01 90.6199 262.12 90.1899 262.27 89.8099C262.64 88.8299 263.19 88.1099 263.93 87.6299L263.92 87.6199Z" fill="white"/>
<path d="M305.06 82.53H297.33L292.24 94.77L287.2 82.53H279.47L292.24 107.2L305.06 82.53Z" fill="white"/>
<path d="M311.61 103.67C313.48 104.61 315.7 105.09 318.26 105.09C321.08 105.09 323.47 104.55 325.44 103.46C327.41 102.37 328.97 100.74 330.12 98.5599L323.64 96.9799C323.1 97.9399 322.37 98.6599 321.46 99.1399C320.55 99.6199 319.45 99.8599 318.17 99.8599C317.05 99.8599 316.11 99.6099 315.34 99.1199C314.57 98.6199 314 97.8999 313.61 96.9399C313.39 96.3999 313.24 95.7799 313.15 95.1199H329.98C330.04 94.8999 330.08 94.6199 330.08 94.2799V93.2499C330.08 90.8799 329.62 88.8699 328.69 87.1999C327.76 85.5399 326.42 84.2599 324.66 83.3799C322.9 82.4999 320.74 82.0599 318.18 82.0599C315.62 82.0599 313.4 82.5199 311.53 83.4499C309.66 84.3799 308.23 85.7099 307.23 87.4299C306.24 89.1599 305.74 91.2099 305.74 93.5699C305.74 95.9299 306.25 97.9399 307.28 99.6699C308.3 101.4 309.75 102.73 311.62 103.68L311.61 103.67ZM315.28 87.6199C316.02 87.1399 316.93 86.8999 318.02 86.8999C318.88 86.8999 319.64 87.0899 320.28 87.4799C320.92 87.8599 321.42 88.4099 321.77 89.1099C322.05 89.6799 322.22 90.3399 322.27 91.0799H313.28C313.37 90.6199 313.48 90.1899 313.63 89.8099C314 88.8299 314.55 88.1099 315.29 87.6299L315.28 87.6199Z" fill="white"/>
<path d="M341.54 91.17C341.54 90.27 341.68 89.52 341.95 88.91C342.22 88.3 342.61 87.85 343.1 87.54C343.6 87.24 344.16 87.08 344.8 87.08C345.79 87.08 346.5 87.42 346.94 88.11C347.37 88.8 347.59 89.81 347.59 91.16V104.6H354.89V91.16C354.89 90.26 355.03 89.51 355.3 88.9C355.57 88.29 355.96 87.84 356.45 87.53C356.95 87.23 357.51 87.07 358.15 87.07C359.14 87.07 359.85 87.41 360.29 88.1C360.73 88.79 360.94 89.8 360.94 91.15V104.59H368.24V90.38C368.24 88.59 368.02 87.07 367.57 85.82C367.12 84.57 366.39 83.62 365.39 82.96C364.38 82.3 363.01 81.98 361.29 81.98C359.79 81.98 358.44 82.3 357.26 82.94C356.08 83.58 355.08 84.48 354.28 85.63C353.83 84.45 353.1 83.54 352.07 82.92C351.04 82.3 349.67 81.98 347.94 81.98C346.44 81.98 345.15 82.32 344.08 82.99C343.01 83.66 342.17 84.59 341.56 85.77V82.51H334.55V104.59H341.56V91.15L341.54 91.17Z" fill="white"/>
<path d="M378.47 103.67C380.34 104.61 382.56 105.09 385.12 105.09C387.94 105.09 390.33 104.55 392.3 103.46C394.27 102.37 395.83 100.74 396.98 98.5599L390.5 96.9799C389.96 97.9399 389.23 98.6599 388.32 99.1399C387.41 99.6199 386.31 99.8599 385.03 99.8599C383.91 99.8599 382.97 99.6099 382.2 99.1199C381.43 98.6199 380.86 97.8999 380.47 96.9399C380.25 96.3999 380.1 95.7799 380.01 95.1199H396.84C396.9 94.8999 396.94 94.6199 396.94 94.2799V93.2499C396.94 90.8799 396.48 88.8699 395.55 87.1999C394.62 85.5399 393.28 84.2599 391.52 83.3799C389.76 82.4999 387.6 82.0599 385.04 82.0599C382.48 82.0599 380.26 82.5199 378.39 83.4499C376.52 84.3799 375.09 85.7099 374.09 87.4299C373.1 89.1599 372.6 91.2099 372.6 93.5699C372.6 95.9299 373.11 97.9399 374.14 99.6699C375.16 101.4 376.61 102.73 378.48 103.68L378.47 103.67ZM382.14 87.6199C382.88 87.1399 383.79 86.8999 384.88 86.8999C385.74 86.8999 386.5 87.0899 387.14 87.4799C387.78 87.8599 388.28 88.4099 388.63 89.1099C388.91 89.6799 389.08 90.3399 389.13 91.0799H380.14C380.23 90.6199 380.34 90.1899 380.49 89.8099C380.86 88.8299 381.41 88.1099 382.15 87.6299L382.14 87.6199Z" fill="white"/>
<path d="M408.69 91.17C408.69 90.31 408.85 89.57 409.17 88.96C409.49 88.35 409.94 87.89 410.51 87.57C411.09 87.25 411.76 87.09 412.53 87.09C413.68 87.09 414.51 87.44 415 88.15C415.5 88.85 415.74 89.86 415.74 91.17V104.61H423.28V90.4C423.28 87.74 422.66 85.68 421.41 84.21C420.16 82.74 418.16 82 415.41 82C413.78 82 412.41 82.34 411.31 83.01C410.21 83.68 409.33 84.63 408.69 85.84V82.53H401.39V104.61H408.69V91.17Z" fill="white"/>
<path d="M430.29 104.61H437.25V88.53H441.18V82.53H437.25V74.85H430.29V82.53H426.4V88.53H430.29V104.61Z" fill="white"/>
<path d="M465.95 82.53H458.94V104.61H465.95V82.53Z" fill="white"/>
<path d="M462.45 78.16C463.63 78.16 464.63 77.79 465.45 77.06C466.27 76.32 466.67 75.38 466.67 74.23C466.67 73.08 466.26 72.14 465.45 71.42C464.63 70.7 463.63 70.34 462.45 70.34C461.27 70.34 460.31 70.7 459.47 71.42C458.64 72.14 458.22 73.08 458.22 74.23C458.22 75.38 458.64 76.33 459.47 77.06C460.3 77.8 461.29 78.16 462.45 78.16Z" fill="white"/>
<path d="M486.25 104.61H493.79V90.4C493.79 87.74 493.17 85.68 491.92 84.21C490.67 82.74 488.67 82 485.92 82C484.29 82 482.92 82.34 481.82 83.01C480.72 83.68 479.84 84.63 479.2 85.84V82.53H471.9V104.61H479.2V91.17C479.2 90.31 479.36 89.57 479.68 88.96C480 88.35 480.45 87.89 481.02 87.57C481.6 87.25 482.27 87.09 483.04 87.09C484.19 87.09 485.02 87.44 485.51 88.15C486.01 88.85 486.25 89.86 486.25 91.17V104.61Z" fill="white"/>
<path d="M101.25 135.12C102.77 134.35 104.44 133.97 106.27 133.97C107.87 133.97 109.28 134.17 110.49 134.57C111.71 134.97 112.79 135.51 113.75 136.2C114.71 136.89 115.56 137.62 116.29 138.38V129.64C114.95 128.58 113.47 127.75 111.87 127.14C110.27 126.53 108.24 126.23 105.77 126.23C103.08 126.23 100.6 126.65 98.33 127.48C96.06 128.31 94.11 129.51 92.47 131.08C90.84 132.65 89.57 134.5 88.68 136.65C87.78 138.79 87.34 141.18 87.34 143.8C87.34 146.42 87.79 148.81 88.68 150.95C89.57 153.09 90.84 154.95 92.47 156.52C94.1 158.09 96.05 159.29 98.33 160.12C100.6 160.95 103.08 161.37 105.77 161.37C108.23 161.37 110.27 161.07 111.87 160.46C113.47 159.85 114.94 159.02 116.29 157.96V149.22C115.55 149.99 114.71 150.71 113.75 151.38C112.79 152.05 111.7 152.6 110.49 153.01C109.27 153.43 107.87 153.63 106.27 153.63C104.45 153.63 102.77 153.25 101.25 152.48C99.73 151.71 98.51 150.58 97.58 149.1C96.65 147.61 96.19 145.84 96.19 143.8C96.19 141.76 96.65 139.94 97.58 138.47C98.51 137 99.73 135.88 101.25 135.11V135.12Z" fill="white"/>
<path d="M130.12 161.14C131.75 161.14 133.11 160.8 134.2 160.11C135.29 159.42 136.17 158.49 136.84 157.3V160.61H144.09V138.53H136.84V151.97C136.84 152.83 136.68 153.57 136.36 154.18C136.04 154.79 135.6 155.25 135.04 155.57C134.48 155.89 133.8 156.05 133 156.05C131.82 156.05 130.98 155.69 130.5 154.97C130.02 154.25 129.78 153.25 129.78 151.97V138.53H122.2V152.74C122.2 155.36 122.83 157.42 124.1 158.91C125.36 160.4 127.37 161.14 130.12 161.14Z" fill="white"/>
<path d="M158.3 156.19C157.79 156.19 157.18 156.09 156.48 155.88C155.78 155.67 154.97 155.3 154.06 154.78C153.15 154.25 152.13 153.53 151.01 152.6L147.99 157.4C148.98 158.17 150.05 158.86 151.21 159.49C152.36 160.11 153.62 160.61 154.98 160.98C156.34 161.35 157.8 161.53 159.37 161.53C162.03 161.53 164.08 160.93 165.54 159.73C167 158.53 167.72 156.75 167.72 154.38C167.72 153 167.42 151.9 166.83 151.07C166.24 150.24 165.45 149.55 164.48 149.01C163.5 148.47 162.44 147.99 161.29 147.57C160.2 147.15 159.28 146.81 158.53 146.54C157.78 146.27 157.2 145.97 156.8 145.65C156.4 145.33 156.2 144.93 156.2 144.45C156.2 144.03 156.37 143.7 156.7 143.44C157.03 143.18 157.54 143.06 158.21 143.06C159.2 143.06 160.29 143.34 161.47 143.9C162.65 144.46 163.71 145.17 164.64 146.04L167.23 141.34C166.37 140.7 165.45 140.14 164.47 139.66C163.49 139.18 162.45 138.8 161.35 138.51C160.25 138.22 159.05 138.08 157.77 138.08C156.17 138.08 154.75 138.32 153.52 138.8C152.29 139.28 151.31 139.98 150.59 140.91C149.87 141.84 149.51 142.97 149.51 144.32C149.51 145.67 149.81 146.88 150.42 147.78C151.03 148.68 151.8 149.39 152.75 149.92C153.69 150.45 154.69 150.9 155.75 151.29C156.93 151.64 157.87 151.98 158.56 152.3C159.25 152.62 159.74 152.95 160.02 153.28C160.3 153.61 160.45 154.02 160.45 154.5C160.45 155.01 160.27 155.43 159.92 155.75C159.57 156.07 159.02 156.23 158.29 156.23L158.3 156.19Z" fill="white"/>
<path d="M183.88 144.53V138.53H179.95V130.85H172.99V138.53H169.1V144.53H172.99V160.61H179.95V144.53H183.88Z" fill="white"/>
<path d="M209.25 143.47C208.15 141.74 206.64 140.4 204.74 139.44C202.84 138.48 200.68 138 198.28 138C195.88 138 193.72 138.48 191.8 139.44C189.88 140.4 188.38 141.74 187.29 143.47C186.2 145.2 185.66 147.23 185.66 149.57C185.66 151.91 186.2 153.89 187.29 155.62C188.38 157.35 189.88 158.69 191.8 159.65C193.72 160.61 195.88 161.09 198.28 161.09C200.68 161.09 202.83 160.61 204.74 159.65C206.64 158.69 208.15 157.35 209.25 155.62C210.35 153.89 210.91 151.88 210.91 149.57C210.91 147.26 210.36 145.2 209.25 143.47ZM202.72 152.52C202.26 153.34 201.63 153.97 200.85 154.42C200.07 154.87 199.21 155.09 198.28 155.09C197.35 155.09 196.46 154.87 195.69 154.42C194.92 153.97 194.3 153.34 193.82 152.52C193.34 151.7 193.1 150.72 193.1 149.57C193.1 148.42 193.34 147.43 193.82 146.59C194.3 145.76 194.92 145.12 195.69 144.67C196.46 144.22 197.32 144 198.28 144C199.24 144 200.06 144.22 200.85 144.67C201.64 145.12 202.26 145.76 202.72 146.59C203.18 147.42 203.42 148.41 203.42 149.57C203.42 150.73 203.19 151.71 202.72 152.52Z" fill="white"/>
<path d="M237.14 143.54C237.64 143.24 238.2 143.08 238.84 143.08C239.83 143.08 240.54 143.42 240.98 144.11C241.42 144.8 241.63 145.81 241.63 147.16V160.6H248.93V146.39C248.93 144.6 248.71 143.08 248.26 141.83C247.81 140.58 247.08 139.63 246.08 138.97C245.07 138.31 243.7 137.99 241.98 137.99C240.48 137.99 239.13 138.31 237.95 138.95C236.77 139.59 235.77 140.49 234.97 141.64C234.52 140.46 233.79 139.55 232.76 138.93C231.73 138.31 230.36 137.99 228.63 137.99C227.13 137.99 225.84 138.33 224.77 139C223.7 139.67 222.86 140.6 222.25 141.78V138.52H215.24V160.6H222.25V147.16C222.25 146.26 222.39 145.51 222.66 144.9C222.93 144.29 223.32 143.84 223.81 143.53C224.31 143.23 224.87 143.07 225.51 143.07C226.5 143.07 227.21 143.41 227.65 144.1C228.08 144.79 228.3 145.8 228.3 147.15V160.59H235.6V147.15C235.6 146.25 235.74 145.5 236.01 144.89C236.28 144.28 236.67 143.83 237.16 143.52L237.14 143.54Z" fill="white"/>
<path d="M259.17 159.67C261.04 160.61 263.26 161.09 265.82 161.09C268.64 161.09 271.03 160.55 273 159.46C274.97 158.37 276.53 156.74 277.68 154.56L271.2 152.98C270.66 153.94 269.93 154.66 269.02 155.14C268.11 155.62 267.01 155.86 265.73 155.86C264.61 155.86 263.67 155.61 262.9 155.12C262.13 154.62 261.56 153.9 261.17 152.94C260.95 152.4 260.8 151.78 260.71 151.12H277.54C277.6 150.9 277.64 150.62 277.64 150.28V149.25C277.64 146.88 277.18 144.87 276.25 143.2C275.32 141.54 273.98 140.26 272.22 139.38C270.46 138.5 268.3 138.06 265.74 138.06C263.18 138.06 260.96 138.52 259.09 139.45C257.22 140.38 255.79 141.71 254.79 143.43C253.8 145.16 253.3 147.21 253.3 149.57C253.3 151.93 253.81 153.94 254.84 155.67C255.86 157.4 257.31 158.73 259.18 159.68L259.17 159.67ZM262.84 143.62C263.58 143.14 264.49 142.9 265.58 142.9C266.44 142.9 267.2 143.09 267.84 143.48C268.48 143.86 268.98 144.41 269.33 145.11C269.61 145.68 269.78 146.34 269.83 147.08H260.84C260.93 146.62 261.04 146.19 261.19 145.81C261.56 144.83 262.11 144.11 262.85 143.63L262.84 143.62Z" fill="white"/>
<path d="M282.09 138.53V160.61H289.24V149.71C289.24 148.65 289.38 147.76 289.67 147.02C289.96 146.28 290.37 145.72 290.92 145.34C291.46 144.96 292.09 144.76 292.79 144.76C293.43 144.76 293.97 144.87 294.4 145.1C294.83 145.32 295.24 145.63 295.62 146.01L298.74 139.82C298.36 139.24 297.8 138.8 297.06 138.48C296.32 138.16 295.56 138 294.76 138C293.54 138 292.38 138.4 291.26 139.2C290.48 139.76 289.81 140.46 289.24 141.3V138.53H282.09Z" fill="white"/>
<path d="M339.26 133.68V127.01H324.71H322.31H316.94V160.61H322.31H324.71H339.26V153.94H324.71V146.21H338.3V139.68H324.71V133.68H339.26Z" fill="white"/>
<path d="M367.86 160.61L358.94 149.28L367.38 138.53H359.32L355.19 144.34L351.16 138.53H342.81L351.4 149.28L342.33 160.61H350.68L355.19 154.18L359.8 160.61H367.86Z" fill="white"/>
<path d="M377.9 157.06C378.57 158.23 379.43 159.19 380.47 159.92C381.86 160.9 383.52 161.38 385.44 161.38C387.36 161.38 388.97 160.93 390.55 160.04C392.13 159.15 393.43 157.82 394.44 156.06C395.45 154.3 395.95 152.14 395.95 149.58C395.95 147.02 395.45 144.82 394.44 143.08C393.43 141.34 392.14 140.02 390.55 139.12C388.97 138.22 387.26 137.78 385.44 137.78C383.52 137.78 381.86 138.27 380.47 139.24C379.43 139.97 378.58 140.92 377.9 142.08V138.54H370.65V171.18H377.9V157.07V157.06ZM378.66 146.59C379.17 145.79 379.82 145.19 380.6 144.79C381.38 144.39 382.19 144.19 383.02 144.19C383.98 144.19 384.86 144.4 385.66 144.81C386.46 145.23 387.1 145.83 387.58 146.63C388.06 147.43 388.3 148.41 388.3 149.56C388.3 150.71 388.06 151.69 387.58 152.49C387.1 153.29 386.46 153.9 385.66 154.31C384.86 154.73 383.98 154.93 383.02 154.93C382.19 154.93 381.38 154.73 380.6 154.33C379.82 153.93 379.17 153.33 378.66 152.53C378.15 151.73 377.89 150.74 377.89 149.55C377.89 148.36 378.15 147.37 378.66 146.57V146.59Z" fill="white"/>
<path d="M414.73 155.14C413.82 155.62 412.72 155.86 411.44 155.86C410.32 155.86 409.38 155.61 408.61 155.12C407.84 154.62 407.27 153.9 406.88 152.94C406.66 152.4 406.51 151.78 406.42 151.12H423.25C423.31 150.9 423.35 150.62 423.35 150.28V149.25C423.35 146.88 422.89 144.87 421.96 143.2C421.03 141.54 419.69 140.26 417.93 139.38C416.17 138.5 414.01 138.06 411.45 138.06C408.89 138.06 406.67 138.52 404.8 139.45C402.93 140.38 401.5 141.71 400.5 143.43C399.51 145.16 399.01 147.21 399.01 149.57C399.01 151.93 399.52 153.94 400.55 155.67C401.57 157.4 403.02 158.73 404.89 159.68C406.76 160.63 408.98 161.1 411.54 161.1C414.36 161.1 416.75 160.56 418.72 159.47C420.69 158.38 422.25 156.75 423.4 154.57L416.92 152.99C416.38 153.95 415.65 154.67 414.74 155.15L414.73 155.14ZM408.57 143.62C409.31 143.14 410.22 142.9 411.31 142.9C412.17 142.9 412.93 143.09 413.57 143.48C414.21 143.86 414.71 144.41 415.06 145.11C415.34 145.68 415.51 146.34 415.56 147.08H406.57C406.66 146.62 406.77 146.19 406.92 145.81C407.29 144.83 407.84 144.11 408.58 143.63L408.57 143.62Z" fill="white"/>
<path d="M436.98 139.2C436.2 139.76 435.53 140.46 434.96 141.3V138.53H427.81V160.61H434.96V149.71C434.96 148.65 435.1 147.76 435.39 147.02C435.68 146.28 436.09 145.72 436.64 145.34C437.18 144.96 437.81 144.76 438.51 144.76C439.15 144.76 439.69 144.87 440.12 145.1C440.55 145.32 440.96 145.63 441.34 146.01L444.46 139.82C444.08 139.24 443.52 138.8 442.78 138.48C442.04 138.16 441.28 138 440.48 138C439.26 138 438.1 138.4 436.98 139.2Z" fill="white"/>
<path d="M451.33 134.16C452.51 134.16 453.51 133.79 454.33 133.06C455.15 132.32 455.55 131.38 455.55 130.23C455.55 129.08 455.14 128.14 454.33 127.42C453.51 126.7 452.51 126.34 451.33 126.34C450.15 126.34 449.19 126.7 448.35 127.42C447.52 128.14 447.1 129.08 447.1 130.23C447.1 131.38 447.52 132.33 448.35 133.06C449.18 133.8 450.17 134.16 451.33 134.16Z" fill="white"/>
<path d="M454.84 138.53H447.83V160.61H454.84V138.53Z" fill="white"/>
<path d="M475.21 155.14C474.3 155.62 473.2 155.86 471.92 155.86C470.8 155.86 469.86 155.61 469.09 155.12C468.32 154.62 467.75 153.9 467.36 152.94C467.14 152.4 466.99 151.78 466.9 151.12H483.73C483.79 150.9 483.83 150.62 483.83 150.28V149.25C483.83 146.88 483.37 144.87 482.44 143.2C481.51 141.54 480.17 140.26 478.41 139.38C476.65 138.5 474.49 138.06 471.93 138.06C469.37 138.06 467.15 138.52 465.28 139.45C463.41 140.38 461.98 141.71 460.98 143.43C459.99 145.16 459.49 147.21 459.49 149.57C459.49 151.93 460 153.94 461.03 155.67C462.05 157.4 463.5 158.73 465.37 159.68C467.24 160.63 469.46 161.1 472.02 161.1C474.84 161.1 477.23 160.56 479.2 159.47C481.17 158.38 482.73 156.75 483.88 154.57L477.4 152.99C476.86 153.95 476.13 154.67 475.22 155.15L475.21 155.14ZM469.05 143.62C469.79 143.14 470.7 142.9 471.79 142.9C472.65 142.9 473.41 143.09 474.05 143.48C474.69 143.86 475.19 144.41 475.54 145.11C475.82 145.68 475.99 146.34 476.04 147.08H467.05C467.14 146.62 467.25 146.19 467.4 145.81C467.77 144.83 468.32 144.11 469.06 143.63L469.05 143.62Z" fill="white"/>
<path d="M488.29 138.53V160.61H495.59V147.17C495.59 146.31 495.75 145.57 496.07 144.96C496.39 144.35 496.84 143.89 497.41 143.57C497.99 143.25 498.66 143.09 499.43 143.09C500.58 143.09 501.41 143.44 501.9 144.15C502.4 144.85 502.64 145.86 502.64 147.17V160.61H510.18V146.4C510.18 143.74 509.56 141.68 508.31 140.21C507.06 138.74 505.06 138 502.31 138C500.68 138 499.31 138.34 498.21 139.01C497.11 139.68 496.23 140.63 495.59 141.84V138.53H488.29Z" fill="white"/>
<path d="M520.72 159.65C522.66 160.61 524.84 161.09 527.27 161.09C528.93 161.09 530.34 160.91 531.49 160.54C532.64 160.17 533.6 159.68 534.37 159.08V152.02C533.92 152.72 533.35 153.32 532.67 153.8C531.98 154.28 531.23 154.66 530.41 154.93C529.59 155.2 528.74 155.34 527.84 155.34C526.78 155.34 525.8 155.1 524.89 154.62C523.98 154.14 523.27 153.48 522.75 152.63C522.24 151.78 521.98 150.77 521.98 149.58C521.98 148.49 522.24 147.52 522.75 146.65C523.26 145.79 523.97 145.1 524.89 144.59C525.8 144.08 526.79 143.82 527.84 143.82C528.64 143.82 529.46 143.95 530.29 144.2C531.12 144.46 531.9 144.82 532.62 145.3C533.34 145.78 533.92 146.37 534.37 147.08V139.98C533.6 139.44 532.64 138.98 531.49 138.61C530.34 138.24 528.93 138.06 527.27 138.06C524.84 138.06 522.65 138.54 520.72 139.5C518.78 140.46 517.26 141.8 516.16 143.51C515.06 145.22 514.5 147.25 514.5 149.58C514.5 151.91 515.05 153.9 516.16 155.63C517.26 157.36 518.78 158.7 520.72 159.66V159.65Z" fill="white"/>
<path d="M562.64 150.26V149.23C562.64 146.86 562.18 144.85 561.25 143.18C560.32 141.52 558.98 140.24 557.22 139.36C555.46 138.48 553.3 138.04 550.74 138.04C548.18 138.04 545.96 138.5 544.09 139.43C542.22 140.36 540.79 141.69 539.79 143.41C538.8 145.14 538.3 147.19 538.3 149.55C538.3 151.91 538.81 153.92 539.84 155.65C540.86 157.38 542.31 158.71 544.18 159.66C546.05 160.61 548.27 161.08 550.83 161.08C553.65 161.08 556.04 160.54 558.01 159.45C559.98 158.36 561.54 156.73 562.69 154.55L556.21 152.97C555.67 153.93 554.94 154.65 554.03 155.13C553.12 155.61 552.02 155.85 550.74 155.85C549.62 155.85 548.68 155.6 547.91 155.11C547.14 154.61 546.57 153.89 546.18 152.93C545.96 152.39 545.81 151.77 545.72 151.11H562.55C562.61 150.89 562.65 150.61 562.65 150.27L562.64 150.26ZM547.86 143.62C548.6 143.14 549.51 142.9 550.6 142.9C551.46 142.9 552.22 143.09 552.86 143.48C553.5 143.86 554 144.41 554.35 145.11C554.63 145.68 554.8 146.34 554.85 147.08H545.86C545.95 146.62 546.06 146.19 546.21 145.81C546.58 144.83 547.13 144.11 547.87 143.63L547.86 143.62Z" fill="white"/>
<path d="M256.34 218.58L267.14 198.32L277.98 218.58L292.53 183.01H282.88L276.35 202.16L267.14 181.33L258.02 202.16L251.39 183.01H241.79L256.34 218.58Z" fill="white"/>
<path d="M302.34 183.42C301.52 182.7 300.52 182.34 299.34 182.34C298.16 182.34 297.2 182.7 296.36 183.42C295.53 184.14 295.11 185.08 295.11 186.23C295.11 187.38 295.53 188.33 296.36 189.06C297.19 189.8 298.18 190.16 299.34 190.16C300.5 190.16 301.52 189.79 302.34 189.06C303.16 188.32 303.56 187.38 303.56 186.23C303.56 185.08 303.15 184.14 302.34 183.42Z" fill="white"/>
<path d="M302.85 194.53H295.84V216.61H302.85V194.53Z" fill="white"/>
<path d="M330.69 216.61V202.4C330.69 199.74 330.07 197.68 328.82 196.21C327.57 194.74 325.57 194 322.82 194C321.19 194 319.82 194.34 318.72 195.01C317.62 195.68 316.74 196.63 316.1 197.84V194.53H308.8V216.61H316.1V203.17C316.1 202.31 316.26 201.57 316.58 200.96C316.9 200.35 317.35 199.89 317.92 199.57C318.5 199.25 319.17 199.09 319.94 199.09C321.09 199.09 321.92 199.44 322.41 200.15C322.91 200.85 323.15 201.86 323.15 203.17V216.61H330.69Z" fill="white"/>
<path d="M358.29 216.61V202.4C358.29 199.74 357.67 197.68 356.42 196.21C355.17 194.74 353.17 194 350.42 194C348.79 194 347.42 194.34 346.32 195.01C345.22 195.68 344.34 196.63 343.7 197.84V194.53H336.4V216.61H343.7V203.17C343.7 202.31 343.86 201.57 344.18 200.96C344.5 200.35 344.95 199.89 345.52 199.57C346.1 199.25 346.77 199.09 347.54 199.09C348.69 199.09 349.52 199.44 350.01 200.15C350.51 200.85 350.75 201.86 350.75 203.17V216.61H358.29Z" fill="white"/>
<path d="M364.19 199.42C363.2 201.15 362.7 203.2 362.7 205.56C362.7 207.92 363.21 209.93 364.24 211.66C365.26 213.39 366.71 214.72 368.58 215.67C370.45 216.62 372.67 217.09 375.23 217.09C378.05 217.09 380.44 216.55 382.41 215.46C384.38 214.37 385.94 212.74 387.09 210.56L380.61 208.98C380.07 209.94 379.34 210.66 378.43 211.14C377.52 211.62 376.42 211.86 375.14 211.86C374.02 211.86 373.08 211.61 372.31 211.12C371.54 210.62 370.97 209.9 370.58 208.94C370.36 208.4 370.21 207.78 370.12 207.12H386.95C387.01 206.9 387.05 206.62 387.05 206.28V205.25C387.05 202.88 386.59 200.87 385.66 199.2C384.73 197.54 383.39 196.26 381.63 195.38C379.87 194.5 377.71 194.06 375.15 194.06C372.59 194.06 370.37 194.52 368.5 195.45C366.63 196.38 365.2 197.71 364.2 199.43L364.19 199.42ZM372.25 199.62C372.99 199.14 373.9 198.9 374.99 198.9C375.85 198.9 376.61 199.09 377.25 199.48C377.89 199.86 378.39 200.41 378.74 201.11C379.02 201.68 379.19 202.34 379.24 203.08H370.25C370.34 202.62 370.45 202.19 370.6 201.81C370.97 200.83 371.52 200.11 372.26 199.63L372.25 199.62Z" fill="white"/>
<path d="M391.5 194.53V216.61H398.65V205.71C398.65 204.65 398.79 203.76 399.08 203.02C399.37 202.28 399.78 201.72 400.33 201.34C400.87 200.96 401.5 200.76 402.2 200.76C402.84 200.76 403.38 200.87 403.81 201.1C404.24 201.32 404.65 201.63 405.03 202.01L408.15 195.82C407.77 195.24 407.21 194.8 406.47 194.48C405.73 194.16 404.97 194 404.17 194C402.95 194 401.79 194.4 400.67 195.2C399.89 195.76 399.22 196.46 398.65 197.3V194.53H391.5Z" fill="white"/>
</g>
<defs>
<clipPath id="clip0_348_1943">
<rect width="650" height="350" fill="white"/>
</clipPath>
</defs>
</svg>
