<svg width="650" height="350" viewBox="0 0 650 350" fill="none" xmlns="http://www.w3.org/2000/svg">
<g clip-path="url(#clip0_348_1567)">
<path d="M531.51 13.51C532.24 14.49 533.45 15.81 534.97 17.28C536.5 18.74 538.24 20.44 540.04 21.55C541.83 22.67 543.61 23.28 545.21 23.78C546.82 24.26 548.29 24.58 550.06 24.67C551.67 24.75 553.54 24.64 554.62 24.58C554.7 24.68 554.79 24.77 554.87 24.86C554.87 24.86 555.97 25.91 557.98 27.94C559.43 29.36 561.26 31.34 563.44 33.8C562.67 33.14 561.79 32.42 560.92 31.78C559.66 30.84 558.37 30.14 556.83 29.57C555.28 29 553.47 28.55 551.72 28.49C549.98 28.42 548.29 28.77 546.64 29.27C545 29.78 543.4 30.45 542.24 31.03C541.08 31.61 540.33 32.1 539.98 32.38C539.63 32.66 539.66 32.72 539.91 33.04C540.15 33.36 540.61 33.94 541.62 34.73C542.65 35.51 544.15 36.58 546.05 37.66C547.94 38.75 550.18 39.9 552.17 40.54C554.18 41.16 556.04 41.21 557.7 41.13C559.36 41.05 560.85 40.85 562.48 40.31C564.12 39.75 565.96 38.82 566.86 38.34C566.98 38.28 567.08 38.22 567.17 38.17C568.62 39.95 570.19 41.86 571.8 43.98C573.71 46.56 575.83 49.31 577.88 52.41C578.08 52.7 578.29 53.01 578.49 53.31C577.63 52.39 576.57 51.31 575.5 50.36C574.2 49.24 572.89 48.36 571.29 47.58C569.68 46.81 567.8 46.13 565.89 45.94C563.99 45.74 562.13 45.94 560.32 46.34C558.51 46.74 556.73 47.32 555.42 47.84C554.11 48.36 553.27 48.83 552.87 49.1C552.46 49.37 552.5 49.44 552.73 49.8C552.96 50.17 553.38 50.83 554.38 51.77C555.38 52.72 557 53.92 558.87 55.29C560.75 56.65 563.09 58.06 565.16 58.94C567.26 59.8 569.24 60.03 571.05 60.12C572.85 60.21 574.47 60.14 576.3 59.71C578.13 59.28 580.21 58.47 581.24 58.05C581.36 58 581.46 57.96 581.55 57.92C584.62 62.68 587.74 67.94 590.81 73.67C590.9 73.83 590.99 74 591.08 74.16C590.49 73.43 589.84 72.67 589.2 71.97C588.57 71.29 587.94 70.67 587.27 70.08C586.57 69.51 585.83 68.98 585.01 68.48C583.36 67.47 581.37 66.56 579.38 66.12C577.35 65.7 575.33 65.73 573.33 65.97C571.33 66.21 569.36 66.66 567.89 67.09C566.43 67.52 565.47 67.94 565.01 68.19C564.54 68.43 564.57 68.51 564.78 68.93C564.98 69.35 565.36 70.1 566.34 71.2C566.83 71.75 567.46 72.4 568.22 73.1C568.95 73.82 569.8 74.61 570.75 75.43C571.7 76.25 572.74 77.1 573.83 77.89C574.89 78.7 575.98 79.44 577.06 80.02C579.22 81.17 581.38 81.62 583.27 81.94C585.17 82.25 586.9 82.38 588.94 82.14C590.98 81.89 593.33 81.27 594.48 80.94C594.53 80.93 594.56 80.92 594.61 80.9C594.97 81.61 595.33 82.31 595.69 83.03C596.21 84.12 596.73 85.22 597.26 86.32C597.79 87.43 598.33 88.54 598.87 89.67C599.38 90.81 599.9 91.95 600.42 93.11C600.94 94.27 601.49 95.42 602 96.6C602.5 97.79 603 98.98 603.5 100.18C603.62 100.47 603.74 100.77 603.86 101.07C603.13 99.8 602.22 98.29 601.27 96.93C600.09 95.3 598.82 93.94 597.21 92.63C595.61 91.31 593.54 90.1 591.43 89.39C589.32 88.68 587.16 88.46 585 88.46C582.83 88.47 580.62 88.73 578.99 89.02C577.36 89.31 576.27 89.65 575.74 89.86C575.21 90.07 575.23 90.16 575.4 90.62C575.56 91.09 575.93 91.91 576.79 93.21C577.65 94.52 579.14 96.27 580.97 98.24C582.72 100.24 584.98 102.41 587.1 103.93C589.25 105.44 591.45 106.23 593.49 106.81C595.5 107.4 597.32 107.78 599.55 107.81C601.77 107.83 604.39 107.49 605.68 107.31C605.92 107.27 606.11 107.25 606.27 107.22C608.93 114.41 611.21 122.04 612.63 130.05C612.08 128.63 611.32 126.99 610.56 125.49C609.59 123.55 608.42 121.91 606.87 120.26C606.09 119.44 605.21 118.62 604.26 117.88C603.28 117.14 602.23 116.47 601.15 115.94C598.99 114.87 596.7 114.33 594.38 114.03C592.03 113.74 589.64 113.71 587.84 113.79C586.04 113.88 584.83 114.09 584.23 114.24C583.63 114.39 583.64 114.48 583.75 115C583.85 115.52 584.11 116.44 584.86 117.94C585.58 119.45 586.94 121.5 588.56 123.86C590.18 126.22 592.21 128.86 594.25 130.8C595.29 131.76 596.38 132.53 597.47 133.18C598.54 133.83 599.6 134.37 600.63 134.83C602.69 135.77 604.61 136.46 607 136.84C609.4 137.21 612.26 137.27 613.66 137.28C613.72 137.28 613.76 137.28 613.82 137.28C613.96 138.21 614.1 139.13 614.21 140.07C614.67 142.92 614.98 145.8 615.41 148.68C615.63 150.12 615.84 151.57 616.06 153.02C616.28 154.47 616.56 155.92 616.76 157.39C617.03 159.45 617.26 161.53 617.38 163.62C617.04 161.85 616.46 159.59 615.82 157.55C615.08 155.31 614.12 153.35 612.78 151.33C611.41 149.31 609.48 147.26 607.38 145.76C605.29 144.26 602.84 143.32 600.4 142.64C597.94 141.96 595.4 141.53 593.47 141.34C591.54 141.15 590.21 141.18 589.54 141.25C588.87 141.31 588.87 141.41 588.89 141.98C588.92 142.54 588.97 143.56 589.55 145.26C590.16 146.95 591.13 149.35 592.53 152.1C593.24 153.48 593.93 154.95 594.77 156.38C595.18 157.09 595.62 157.8 596.07 158.47C596.51 159.14 596.95 159.79 597.42 160.39C599.3 162.78 601.53 164.42 603.53 165.78C605.56 167.14 607.49 168.22 609.98 169.05C612.48 169.87 615.52 170.46 617.02 170.73C617.23 170.77 617.4 170.8 617.56 170.82C617.58 178.86 616.86 186.95 615.79 194.98C615.72 194.24 615.64 193.49 615.52 192.77C615.33 191.51 615.11 190.31 614.79 189.12C614.44 187.93 614.01 186.76 613.46 185.55C612.4 183.14 610.73 180.6 608.74 178.61C606.77 176.62 604.38 175.19 601.86 174.02C599.35 172.85 596.71 171.95 594.68 171.4C592.65 170.86 591.22 170.65 590.49 170.6C589.76 170.55 589.74 170.65 589.66 171.25C589.59 171.85 589.46 172.93 589.78 174.82C589.95 175.76 590.18 176.91 590.49 178.22C590.79 179.52 591.24 180.99 591.69 182.57C592.13 184.15 592.66 185.84 593.29 187.5C593.87 189.16 594.54 190.78 595.34 192.23C596.93 195.12 598.86 197.26 600.82 199.11C602.77 200.95 604.55 202.47 607.04 203.85C609.37 205.14 612.27 206.3 613.91 206.92C613.1 211.27 612.17 215.6 611.16 219.89C610.06 224.36 608.95 228.81 607.82 233.25C607.95 232.23 608.05 231.18 608.08 230.16C608.15 228.78 608.15 227.45 608.08 226.13C607.96 224.8 607.74 223.46 607.41 222.07C606.79 219.3 605.51 216.24 603.82 213.74C602.12 211.23 599.83 209.22 597.41 207.48C594.99 205.74 592.36 204.26 590.28 203.27C588.21 202.29 586.72 201.79 585.95 201.59C585.18 201.39 585.14 201.5 584.96 202.11C584.79 202.73 584.45 203.83 584.38 205.87C584.35 207.91 584.48 210.86 584.87 214.37C585.02 216.11 585.23 217.99 585.56 219.87C585.83 221.73 586.21 223.58 586.76 225.27C587.79 228.62 589.47 231.33 591.12 233.69C592.74 236.04 594.36 238.06 596.71 240.06C599.07 242.06 602.1 244.06 603.62 245.03C603.78 245.13 603.91 245.21 604.04 245.29C600.76 253.63 596.47 261.43 591.99 268.72C591.74 269.15 591.46 269.57 591.2 270C591.41 269.36 591.61 268.71 591.79 268.06C592.64 265.2 593.02 262.45 592.99 259.37C592.97 257.83 592.77 256.16 592.47 254.53C592.17 252.9 591.72 251.28 591.07 249.74C589.77 246.68 587.92 244.1 585.68 241.7C583.47 239.31 580.99 237.17 579.02 235.68C577.05 234.19 575.58 233.34 574.81 232.97C574.04 232.59 573.96 232.69 573.63 233.28C573.29 233.87 572.7 234.94 572.23 237.05C571.69 239.13 571.28 242.26 570.86 245.96C570.48 249.67 570.07 253.96 570.42 257.71C570.63 259.61 570.93 261.31 571.41 262.95C571.87 264.58 572.49 266.13 573.04 267.55C574.18 270.4 575.41 272.93 577.39 275.63C579.27 278.19 581.8 280.91 583.21 282.38C583.15 282.47 583.09 282.56 583.03 282.65C580.08 287.18 577.01 291.51 573.75 295.52C569.58 300.5 565.3 305.11 560.93 309.23C561.33 308.73 561.74 308.21 562.15 307.66C563.1 306.36 564.04 304.93 564.88 303.56C565.74 302.2 566.4 300.78 567.02 299.36C567.64 297.94 568.14 296.45 568.5 294.81C568.86 293.17 569.18 291.45 569.26 289.64C569.35 287.83 569.29 286.01 569.02 284.27C568.46 280.75 567.08 277.51 565.38 274.48C563.65 271.42 561.55 268.54 559.83 266.49C558.11 264.44 556.77 263.18 556.05 262.58C555.33 261.99 555.23 262.07 554.75 262.58C554.25 263.08 553.44 264.07 552.4 266.05C551.87 267.04 551.34 268.32 550.75 269.79C550.13 271.23 549.54 272.95 548.86 274.76C548.18 276.56 547.54 278.6 546.89 280.58C546.58 281.58 546.3 282.61 546.07 283.63C545.81 284.63 545.59 285.62 545.44 286.6C545.29 287.58 545.2 288.56 545.15 289.51C545.09 290.44 545.07 291.36 545.09 292.27C545.13 294.07 545.32 295.84 545.53 297.48C545.92 300.75 546.47 303.73 547.73 307.13C548.98 310.5 550.92 314.32 551.91 316.2C552.01 316.39 552.09 316.54 552.17 316.69C545.45 321.94 538.75 326.04 532.58 329.2C530.98 330.06 529.38 330.79 527.85 331.51C527.08 331.87 526.33 332.22 525.59 332.56C524.84 332.87 524.1 333.18 523.38 333.49C520.52 334.77 517.81 335.71 515.39 336.63C510.49 338.31 506.62 339.49 503.95 340.22C501.29 340.95 499.87 341.34 499.87 341.34C496.93 342.06 494.96 344.56 495.48 346.92C495.99 349.24 498.91 350.52 502.03 349.83C502.03 349.83 503.55 349.43 506.39 348.61C509.22 347.77 513.32 346.37 518.39 344.22C520.89 343.07 523.68 341.86 526.6 340.3C527.33 339.92 528.08 339.53 528.84 339.13C529.59 338.71 530.35 338.27 531.12 337.83C532.32 337.14 533.56 336.42 534.81 335.66C534.87 335.74 534.93 335.8 535 335.88C536.44 337.56 539.45 340.88 542.53 343.2C545.63 345.54 548.73 346.82 552.48 347.82C554.36 348.33 556.42 348.77 558.66 348.93C560.9 349.09 563.42 349.1 566.11 348.61C568.81 348.13 571.82 347.31 574.75 346.15C576.22 345.58 577.72 344.98 579.16 344.31C580.59 343.63 582 342.93 583.35 342.23C586.08 340.84 588.47 339.32 590.64 337.96C592.78 336.57 594.56 335.21 596 334.05C598.86 331.71 600.12 330.01 600.84 329.11C601.55 328.2 601.66 328.02 600.84 327.47C600.04 326.91 598.31 325.98 595.6 324.94C592.88 323.9 589.18 322.74 585.44 321.86C581.64 320.94 577.82 320.35 573.8 320.45C571.77 320.48 569.71 320.7 567.71 321.03C565.7 321.35 563.71 321.74 561.91 322.22C560.12 322.72 558.41 323.18 556.8 323.77C555.99 324.06 555.2 324.38 554.41 324.71C553.6 325.02 552.8 325.35 551.99 325.71C549.56 326.81 546.98 328 544.8 329.04C548.6 326.34 552.5 323.35 556.47 320.06C562.06 315.41 567.74 310.12 573.3 304.2C573.48 304.31 573.67 304.43 573.91 304.58C575.66 305.63 579.29 307.7 582.61 308.84C585.94 309.98 589.02 310.27 592.57 310.17C594.32 310.1 596.2 309.92 598.21 309.51C599.21 309.3 600.25 309.03 601.32 308.68C602.37 308.32 603.45 307.88 604.56 307.34C605.67 306.8 606.82 306.17 607.98 305.46C609.12 304.74 610.25 303.94 611.38 303.1C613.67 301.43 615.83 299.53 617.82 297.67C621.78 293.95 624.9 290.38 626.79 287.7C628.72 285.04 629.44 283.3 629.82 282.34C630.21 281.39 630.26 281.21 629.42 280.91C628.58 280.6 626.83 280.16 624.19 279.85C621.55 279.55 618.01 279.36 614.45 279.41C610.88 279.46 607.41 279.86 603.83 280.88C602.06 281.39 600.29 282.09 598.62 282.87C596.9 283.63 595.27 284.48 593.8 285.35C592.35 286.23 590.97 287.09 589.7 288.02C588.42 288.94 587.25 289.95 585.98 290.98C584.73 292.02 583.49 293.17 582.31 294.26C581.97 294.57 581.63 294.87 581.3 295.16C583.69 292.35 586.09 289.46 588.32 286.36C590.01 284.12 591.5 281.7 593.06 279.3C594.5 276.82 596.01 274.36 597.32 271.75C598.19 270.11 599.01 268.43 599.82 266.74C599.91 266.77 599.98 266.79 600.08 266.82C601.89 267.35 605.57 268.32 608.82 268.6C612.09 268.87 614.87 268.43 617.97 267.55C619.52 267.11 621.17 266.55 622.87 265.76C624.54 264.95 626.26 263.9 628.01 262.49C631.49 259.67 634.95 255.32 637.67 251.25C639.08 249.23 640.19 247.25 641.21 245.46C642.23 243.68 643.01 242.05 643.57 240.68C644.7 237.95 645.06 236.29 645.19 235.36C645.34 234.44 645.35 234.27 644.53 234.17C643.71 234.06 642.06 234.01 639.63 234.25C637.2 234.49 633.94 235 630.78 235.76C627.61 236.52 624.55 237.56 621.56 239.2C620.08 240.02 618.65 241 617.31 242.04C615.94 243.07 614.65 244.17 613.52 245.25C611.29 247.44 609.44 249.51 607.77 251.97C606.31 253.92 604.94 256.09 603.78 257.89C606.39 251.65 608.8 245.24 611.28 238.8C612.87 235.1 614.18 231.27 615.32 227.38C617.05 227.49 620.55 227.63 623.52 227.23C626.48 226.82 628.95 225.9 631.55 224.51C634.13 223.11 637.02 221.27 639.57 218.09C640.84 216.5 642.1 214.59 643.2 212.56C644.28 210.52 645.28 208.36 646.15 206.31C647.79 202.19 649 198.48 649.49 195.84C650.03 193.21 650.04 191.66 649.99 190.82C649.96 189.97 649.94 189.82 649.18 189.88C648.42 189.92 646.92 190.17 644.76 190.81C642.62 191.46 639.75 192.49 637.04 193.73C634.3 194.98 631.74 196.46 629.35 198.47C626.94 200.48 624.92 203.03 623.21 205.39C621.55 207.77 620.41 210 619.28 212.51C618.94 213.32 618.59 214.16 618.25 214.99C619 211.01 619.62 206.99 620.13 202.97C620.67 198.31 621 193.65 621.16 188.99C621.28 188.98 621.4 188.96 621.55 188.94C623.13 188.73 626.32 188.23 628.93 187.35C631.54 186.46 633.58 185.2 635.72 183.5C637.82 181.8 640.04 179.64 641.86 176.36C643.6 173.08 644.97 168.66 645.77 164.7C645.98 163.71 646.18 162.74 646.35 161.82C646.51 160.89 646.62 160.01 646.73 159.17C646.94 157.49 647.07 156 647.11 154.78C647.18 152.33 646.87 150.96 646.73 150.2C646.57 149.45 646.53 149.32 645.85 149.49C645.16 149.65 643.84 150.11 641.98 151.04C640.12 151.97 637.73 153.35 635.49 154.92C633.21 156.49 631.06 158.25 629.26 160.46C627.5 162.67 625.93 165.32 624.86 167.74C623.82 170.16 623.05 172.38 622.52 174.85C622.06 177.06 621.56 179.46 621.26 181.34C621.25 176.25 621.08 171.18 620.8 166.17C620.65 163.14 620.4 160.13 620.36 157.12C620.33 155.84 620.25 154.56 620.17 153.28C620.3 153.24 620.45 153.19 620.62 153.14C622.03 152.69 624.85 151.72 627.08 150.5C629.32 149.27 630.97 147.81 632.61 145.94C634.24 144.07 635.98 141.77 637.08 138.54C638.17 135.32 638.73 131.14 638.86 127.45C639.08 123.74 638.88 120.55 638.61 118.34C638.34 116.12 637.88 114.93 637.62 114.28C637.36 113.63 637.31 113.52 636.71 113.77C636.11 114.02 634.97 114.63 633.42 115.73C631.87 116.84 629.91 118.43 628.05 120.19C626.21 121.94 624.52 123.85 623.22 126.12C621.95 128.38 620.9 131.03 620.31 133.38C619.73 135.74 619.38 137.87 619.27 140.19C619.22 141.59 619.18 143.07 619.16 144.42C618.88 142.73 618.57 141.06 618.2 139.4C617.6 136.52 616.86 133.7 616.14 130.9C615.24 127.61 614.33 124.37 613.39 121.18C613.57 121.1 613.85 120.97 614.28 120.75C615.49 120.14 617.91 118.85 619.76 117.42C621.61 115.99 622.9 114.42 624.16 112.49C625.42 110.55 626.58 108.26 627.17 105.18C627.32 104.41 627.43 103.59 627.5 102.75C627.56 101.91 627.58 101.04 627.58 100.16C627.58 98.4 627.47 96.61 627.33 94.92C626.98 91.57 626.44 88.7 625.92 86.74C625.37 84.79 624.79 83.78 624.48 83.23C624.17 82.68 624.1 82.58 623.59 82.89C623.07 83.19 622.11 83.89 620.83 85.09C619.55 86.3 617.96 88 616.53 89.82C615.08 91.65 613.77 93.62 612.87 95.85C611.97 98.09 611.49 100.59 611.2 102.84C610.93 105.09 611.02 107.03 611.2 109.17C611.38 111.31 611.74 113.61 612.05 115.25C612.32 116.9 612.52 117.9 612.68 118.68C612.71 118.81 612.73 118.92 612.75 119.03C610.7 112.15 608.55 105.51 606.18 99.17C605.71 97.93 605.25 96.7 604.79 95.48C604.39 94.46 603.97 93.46 603.55 92.46C603.68 92.37 603.83 92.27 604.02 92.14C605.05 91.43 607.09 89.93 608.6 88.39C610.11 86.85 611.09 85.26 612 83.34C612.88 81.44 613.68 79.19 613.84 76.33C614.04 73.45 613.42 70.05 612.77 67.03C612.13 64.01 611.25 61.52 610.56 59.81C609.85 58.11 609.26 57.23 608.9 56.78C608.55 56.32 608.48 56.24 608.05 56.58C607.61 56.91 606.81 57.66 605.78 58.89C604.75 60.13 603.45 61.88 602.34 63.71C601.22 65.55 600.26 67.48 599.7 69.61C599.17 71.74 598.95 74.11 598.98 76.18C599 78.26 599.33 80.02 599.75 81.95C600.14 83.7 600.68 85.52 601.13 86.94C600.82 86.27 600.5 85.61 600.19 84.95C599.65 83.83 599.12 82.71 598.59 81.61C598.02 80.53 597.46 79.45 596.9 78.39C595.78 76.26 594.68 74.18 593.51 72.19C592.61 70.62 591.7 69.1 590.8 67.6C590.91 67.51 591.03 67.4 591.2 67.25C592.06 66.48 593.75 64.89 594.96 63.32C596.16 61.75 596.87 60.19 597.49 58.35C598.1 56.51 598.66 54.34 598.46 51.76C598.27 49.18 597.49 46.06 596.55 43.43C595.61 40.8 594.65 38.57 593.85 37.09C593.04 35.62 592.38 34.92 592.03 34.53C591.67 34.14 591.6 34.08 591.24 34.43C590.87 34.78 590.21 35.54 589.37 36.77C588.54 38.01 587.54 39.71 586.71 41.48C585.86 43.27 585.16 45.14 584.85 47.15C584.54 49.17 584.62 51.33 584.88 53.21C585.11 55.11 585.54 56.72 586.16 58.43C586.47 59.28 586.83 60.16 587.19 60.98C587.53 61.81 587.86 62.6 588.15 63.25C588.19 63.34 588.22 63.41 588.26 63.5C585.4 58.98 582.55 54.84 579.8 51.09C578.64 49.43 577.48 47.88 576.35 46.38C576.46 46.27 576.61 46.11 576.84 45.86C577.55 45.07 578.96 43.45 579.91 41.89C580.86 40.33 581.37 38.84 581.77 37.1C581.97 36.23 582.14 35.29 582.22 34.27C582.28 33.27 582.25 32.18 582.06 31C581.67 28.66 580.68 25.89 579.61 23.58C578.53 21.27 577.47 19.33 576.62 18.06C575.78 16.78 575.13 16.19 574.77 15.87C574.41 15.55 574.34 15.5 574.03 15.85C573.72 16.2 573.17 16.95 572.51 18.14C571.85 19.34 571.08 20.98 570.43 22.69C569.79 24.4 569.31 26.16 569.2 28.04C569.09 29.91 569.35 31.88 569.75 33.58C570.13 35.3 570.66 36.74 571.38 38.25C572.09 39.76 573.03 41.31 573.66 42.47C574.17 43.38 574.55 43.98 574.85 44.45C574.39 43.85 573.94 43.26 573.51 42.68C571.54 40.11 569.64 37.82 567.99 35.7C565.38 32.55 563.23 29.88 561.52 27.82C561.58 27.74 561.66 27.64 561.74 27.53C562.33 26.75 563.48 25.14 564.23 23.64C564.97 22.13 565.32 20.73 565.55 19.11C565.77 17.48 565.88 15.63 565.37 13.48C564.83 11.37 563.68 8.98 562.56 6.92C561.46 4.85 560.32 3.19 559.44 2.11C558.57 1.02 557.94 0.53 557.6 0.259999C557.26 -0.0100005 557.19 -0.0500005 556.93 0.289999C556.67 0.63 556.22 1.36 555.69 2.51C555.16 3.66 554.56 5.23 554.1 6.83C553.64 8.43 553.34 10.08 553.38 11.79C553.43 13.5 553.77 15.33 554.26 16.87C554.75 18.41 555.36 19.68 556.15 20.99C556.47 21.51 556.81 22.05 557.14 22.58C556.4 21.71 555.21 21.47 554.51 21.99C554.45 22.04 554.4 22.09 554.35 22.14C554.15 21.82 553.91 21.44 553.6 20.97C552.97 20.01 552.04 18.7 551.09 17.55C550.15 16.38 549.14 15.42 547.82 14.45C546.5 13.49 544.87 12.53 543.19 11.89C541.52 11.24 539.73 10.98 537.99 10.83C536.24 10.69 534.49 10.69 533.18 10.77C531.88 10.85 531.01 11 530.59 11.1C530.17 11.2 530.18 11.27 530.32 11.61C530.46 11.95 530.72 12.57 531.45 13.54L531.51 13.51Z" fill="white" fill-opacity="0.5"/>
<path d="M3.87007 206.28C4.74007 208.33 5.74007 210.49 6.82008 212.53C7.92008 214.57 9.18008 216.48 10.4501 218.06C13.0001 221.24 15.8901 223.08 18.4701 224.48C21.0801 225.87 23.5501 226.79 26.5001 227.2C29.4701 227.6 32.9701 227.46 34.7001 227.35C35.8301 231.25 37.1401 235.08 38.7401 238.77C41.2201 245.21 43.6301 251.62 46.2401 257.86C45.0801 256.07 43.7101 253.89 42.2501 251.94C40.5701 249.49 38.7301 247.41 36.5001 245.22C35.3701 244.14 34.0801 243.04 32.7101 242.01C31.3701 240.96 29.9401 239.99 28.4601 239.17C25.4701 237.53 22.4101 236.49 19.2401 235.73C16.0801 234.97 12.8201 234.46 10.3901 234.22C7.96008 233.98 6.31007 234.03 5.49007 234.14C4.67007 234.24 4.68007 234.41 4.83007 235.33C4.96007 236.25 5.32007 237.91 6.45007 240.65C7.01007 242.02 7.79008 243.64 8.81008 245.43C9.82008 247.21 10.9401 249.2 12.3501 251.22C15.0701 255.3 18.5301 259.64 22.0101 262.46C23.7601 263.87 25.4901 264.92 27.1501 265.73C28.8401 266.53 30.4901 267.08 32.0501 267.52C35.1501 268.41 37.9301 268.85 41.2001 268.57C44.4501 268.3 48.1301 267.32 49.9401 266.79C50.0401 266.76 50.1101 266.74 50.2001 266.71C51.0101 268.4 51.8301 270.08 52.7001 271.72C54.0101 274.32 55.5201 276.79 56.9601 279.27C58.5101 281.67 60.0001 284.09 61.7001 286.33C63.9301 289.43 66.3301 292.32 68.7201 295.13C68.3901 294.83 68.0601 294.53 67.7101 294.23C66.5301 293.14 65.2901 292 64.0401 290.95C62.7801 289.92 61.6001 288.91 60.3201 287.99C59.0501 287.06 57.6701 286.21 56.2201 285.32C54.7501 284.45 53.1201 283.6 51.4001 282.84C49.7201 282.06 47.9601 281.37 46.1901 280.85C42.6101 279.83 39.1401 279.44 35.5701 279.38C32.0001 279.32 28.4701 279.52 25.8301 279.82C23.1901 280.13 21.4401 280.56 20.6001 280.88C19.7501 281.18 19.8101 281.36 20.2001 282.31C20.5801 283.26 21.3001 285.01 23.2301 287.67C25.1201 290.35 28.2401 293.92 32.2001 297.64C34.1801 299.5 36.3501 301.4 38.6401 303.07C39.7701 303.91 40.9101 304.71 42.0401 305.43C43.2001 306.14 44.3401 306.77 45.4601 307.31C46.5701 307.85 47.6501 308.29 48.7001 308.65C49.7701 309 50.8101 309.27 51.8101 309.48C53.8201 309.9 55.7001 310.07 57.4501 310.14C61.0101 310.25 64.0801 309.96 67.4101 308.81C70.7301 307.67 74.3601 305.6 76.1101 304.55C76.3501 304.41 76.5501 304.28 76.7201 304.17C82.2801 310.09 87.9601 315.38 93.5501 320.03C97.5201 323.32 101.42 326.31 105.22 329.01C103.04 327.97 100.46 326.77 98.0301 325.68C97.2201 325.33 96.4101 324.99 95.6101 324.68C94.8201 324.35 94.0301 324.03 93.2201 323.74C91.6101 323.15 89.9001 322.68 88.1101 322.19C86.3101 321.71 84.3301 321.32 82.3101 321C80.3101 320.67 78.2501 320.45 76.2201 320.42C72.1901 320.32 68.3701 320.91 64.5801 321.83C60.8401 322.71 57.1501 323.87 54.4201 324.91C51.7001 325.95 49.9801 326.88 49.1801 327.44C48.3701 327.99 48.4801 328.16 49.1801 329.08C49.9001 329.98 51.1601 331.68 54.0201 334.02C55.4601 335.18 57.2401 336.53 59.3801 337.93C61.5501 339.29 63.9401 340.81 66.6701 342.2C68.0301 342.9 69.4301 343.61 70.8601 344.28C72.3001 344.95 73.8001 345.55 75.2701 346.12C78.1901 347.28 81.2101 348.1 83.9101 348.58C86.6001 349.07 89.1301 349.06 91.3601 348.9C93.6001 348.74 95.6601 348.3 97.5401 347.79C101.29 346.79 104.39 345.51 107.49 343.17C110.57 340.85 113.58 337.53 115.02 335.85C115.09 335.77 115.14 335.7 115.21 335.63C116.45 336.39 117.69 337.11 118.9 337.8C119.67 338.24 120.44 338.67 121.18 339.1C121.94 339.5 122.69 339.89 123.42 340.27C126.34 341.83 129.13 343.04 131.63 344.19C136.69 346.33 140.8 347.74 143.63 348.58C146.47 349.4 147.99 349.8 147.99 349.8C151.11 350.49 154.03 349.21 154.54 346.89C155.06 344.53 153.1 342.02 150.15 341.31C150.15 341.31 148.73 340.92 146.07 340.19C143.41 339.46 139.53 338.28 134.63 336.6C132.21 335.68 129.5 334.73 126.64 333.46C125.92 333.16 125.18 332.85 124.43 332.53C123.69 332.19 122.94 331.84 122.17 331.48C120.64 330.76 119.04 330.04 117.44 329.17C111.27 326.01 104.57 321.91 97.8501 316.66C97.9301 316.51 98.0101 316.36 98.1101 316.17C99.1001 314.28 101.04 310.47 102.29 307.1C103.56 303.7 104.1 300.72 104.49 297.45C104.69 295.8 104.89 294.04 104.93 292.24C104.95 291.34 104.93 290.42 104.87 289.48C104.82 288.53 104.73 287.55 104.58 286.57C104.43 285.59 104.21 284.59 103.95 283.6C103.72 282.58 103.44 281.55 103.13 280.55C102.49 278.57 101.85 276.53 101.16 274.73C100.49 272.91 99.9001 271.2 99.2701 269.76C98.6801 268.29 98.1501 267.01 97.6201 266.02C96.5901 264.04 95.7701 263.05 95.2701 262.55C94.7901 262.04 94.6801 261.96 93.9701 262.55C93.2501 263.14 91.9101 264.4 90.1901 266.46C88.4701 268.52 86.3701 271.4 84.6401 274.45C82.9401 277.48 81.5601 280.72 81.0001 284.24C80.7401 285.98 80.6801 287.81 80.7601 289.61C80.8401 291.42 81.1601 293.14 81.5201 294.78C81.8801 296.43 82.3901 297.91 83.0001 299.33C83.6201 300.75 84.2801 302.17 85.1401 303.53C85.9901 304.9 86.9201 306.33 87.8701 307.63C88.2801 308.17 88.6901 308.69 89.0901 309.2C84.7201 305.08 80.4401 300.47 76.2701 295.49C73.0201 291.48 69.9501 287.15 66.9901 282.62C66.9301 282.53 66.8701 282.44 66.8101 282.35C68.2301 280.88 70.7501 278.16 72.6301 275.6C74.6101 272.9 75.8301 270.37 76.9801 267.52C77.5401 266.1 78.1501 264.55 78.6101 262.92C79.1001 261.28 79.4001 259.58 79.6001 257.68C79.9401 253.92 79.5401 249.64 79.1601 245.93C78.7401 242.24 78.3301 239.1 77.7901 237.02C77.3201 234.91 76.7301 233.84 76.3901 233.25C76.0501 232.66 75.9801 232.56 75.2101 232.94C74.4401 233.32 72.9701 234.17 71.0001 235.65C69.0301 237.14 66.5501 239.28 64.3401 241.67C62.1001 244.07 60.2401 246.65 58.9501 249.71C58.2901 251.24 57.8501 252.86 57.5501 254.5C57.2501 256.13 57.0601 257.79 57.0301 259.34C57.0101 262.42 57.3801 265.17 58.2301 268.03C58.4001 268.67 58.6001 269.32 58.8201 269.97C58.5601 269.54 58.2901 269.13 58.0301 268.69C53.5501 261.4 49.2601 253.6 45.9801 245.26C46.1101 245.18 46.2401 245.1 46.4001 245C47.9201 244.03 50.9501 242.03 53.3101 240.03C55.6501 238.02 57.2801 236 58.9001 233.66C60.5501 231.3 62.2301 228.6 63.2601 225.24C63.8101 223.55 64.1901 221.7 64.4601 219.84C64.7901 217.96 65.0101 216.08 65.1501 214.34C65.5501 210.83 65.6701 207.88 65.6401 205.84C65.5701 203.81 65.2301 202.7 65.0601 202.08C64.8801 201.47 64.8301 201.36 64.0701 201.56C63.3001 201.76 61.8101 202.26 59.7401 203.24C57.6501 204.23 55.0301 205.71 52.6101 207.45C50.1901 209.19 47.9001 211.2 46.2001 213.71C44.5101 216.21 43.2301 219.27 42.6101 222.04C42.2801 223.44 42.0601 224.77 41.9401 226.1C41.8601 227.42 41.8601 228.74 41.9401 230.13C41.9701 231.15 42.0701 232.19 42.2001 233.22C41.0701 228.78 39.9601 224.33 38.8601 219.86C37.8501 215.57 36.9201 211.24 36.1101 206.89C37.7501 206.27 40.6401 205.11 42.9801 203.82C45.4701 202.44 47.2501 200.92 49.2001 199.08C51.1601 197.23 53.0901 195.09 54.6801 192.2C55.4801 190.75 56.1401 189.13 56.7301 187.47C57.3601 185.81 57.8901 184.12 58.3301 182.54C58.7801 180.96 59.2301 179.5 59.5301 178.19C59.8301 176.89 60.0701 175.74 60.2401 174.79C60.5501 172.9 60.4301 171.82 60.3601 171.22C60.2901 170.62 60.2601 170.52 59.5301 170.57C58.8001 170.62 57.3701 170.82 55.3401 171.37C53.3101 171.92 50.6701 172.82 48.1601 173.99C45.6401 175.16 43.2501 176.6 41.2801 178.58C39.2901 180.56 37.6201 183.11 36.5601 185.52C36.0101 186.73 35.5801 187.9 35.2301 189.09C34.9101 190.27 34.6901 191.47 34.5001 192.74C34.3801 193.46 34.3001 194.21 34.2301 194.95C33.1601 186.92 32.4401 178.83 32.4601 170.79C32.6101 170.77 32.7901 170.74 33.0001 170.7C34.5101 170.43 37.5401 169.85 40.0401 169.02C42.5301 168.19 44.4601 167.11 46.4901 165.75C48.5001 164.39 50.7301 162.76 52.6001 160.36C53.0701 159.76 53.5101 159.11 53.9501 158.44C54.4001 157.77 54.8401 157.06 55.2501 156.35C56.0901 154.92 56.7801 153.44 57.4901 152.07C58.8901 149.32 59.8601 146.92 60.4701 145.23C61.0501 143.53 61.1001 142.51 61.1301 141.95C61.1501 141.39 61.1601 141.29 60.4801 141.22C59.8001 141.15 58.4801 141.12 56.5501 141.31C54.6201 141.5 52.0801 141.93 49.6201 142.61C47.1801 143.3 44.7301 144.23 42.6401 145.73C40.5401 147.23 38.6101 149.29 37.2401 151.3C35.8901 153.32 34.9401 155.28 34.2001 157.52C33.5601 159.56 32.9801 161.82 32.6401 163.59C32.7601 161.5 32.9901 159.42 33.2601 157.36C33.4601 155.89 33.7401 154.44 33.9601 152.99C34.1801 151.54 34.3901 150.09 34.6101 148.65C35.0401 145.77 35.3501 142.88 35.8101 140.04C35.9201 139.11 36.0701 138.18 36.2001 137.25C36.2501 137.25 36.3001 137.25 36.3601 137.25C37.7701 137.24 40.6201 137.17 43.0201 136.81C45.4101 136.43 47.3301 135.74 49.3901 134.8C50.4201 134.33 51.4801 133.8 52.5501 133.15C53.6401 132.5 54.7301 131.73 55.7701 130.77C57.8101 128.83 59.8401 126.19 61.4601 123.83C63.0901 121.47 64.4501 119.42 65.1601 117.91C65.9101 116.41 66.1701 115.49 66.2701 114.97C66.3901 114.46 66.3901 114.36 65.7901 114.21C65.1901 114.06 63.9801 113.85 62.1801 113.76C60.3801 113.67 57.9901 113.71 55.6401 114C53.3201 114.3 51.0301 114.84 48.8701 115.91C47.7901 116.45 46.7401 117.11 45.7601 117.85C44.8101 118.6 43.9301 119.41 43.1501 120.23C41.6001 121.88 40.4301 123.52 39.4601 125.46C38.7001 126.96 37.9501 128.6 37.3901 130.02C38.8001 122.01 41.0901 114.38 43.7501 107.19C43.9101 107.22 44.0901 107.25 44.3401 107.28C45.6301 107.47 48.2501 107.8 50.4701 107.78C52.6901 107.76 54.5201 107.37 56.5301 106.78C58.5701 106.2 60.7701 105.42 62.9201 103.9C65.0401 102.38 67.3001 100.21 69.0501 98.21C70.8801 96.24 72.3601 94.49 73.2301 93.18C74.0901 91.87 74.4601 91.06 74.6201 90.59C74.7901 90.13 74.8101 90.04 74.2801 89.83C73.7501 89.62 72.6601 89.28 71.0301 88.99C69.4001 88.7 67.1901 88.45 65.0201 88.43C62.8601 88.43 60.7001 88.64 58.5901 89.36C56.4801 90.07 54.4101 91.29 52.8101 92.6C51.1901 93.91 49.9301 95.27 48.7501 96.9C47.8001 98.25 46.8801 99.76 46.1601 101.04C46.2801 100.75 46.4001 100.44 46.5201 100.15C47.0201 98.95 47.5201 97.75 48.0201 96.57C48.5301 95.39 49.0801 94.24 49.6001 93.08C50.1201 91.93 50.6401 90.78 51.1501 89.64C51.6901 88.52 52.2301 87.4 52.7601 86.29C53.2901 85.18 53.8101 84.08 54.3301 83C54.6901 82.28 55.0501 81.58 55.4101 80.87C55.4501 80.88 55.4901 80.89 55.5401 80.91C56.7001 81.24 59.0501 81.86 61.0801 82.11C63.1201 82.35 64.8501 82.22 66.7501 81.91C68.6301 81.59 70.8001 81.14 72.9601 79.99C74.0401 79.42 75.1401 78.67 76.1901 77.86C77.2801 77.07 78.3301 76.22 79.2701 75.4C80.2201 74.58 81.0701 73.8 81.8001 73.07C82.5601 72.36 83.2001 71.72 83.6801 71.17C84.6601 70.07 85.0301 69.31 85.2401 68.9C85.4401 68.48 85.4701 68.41 85.0101 68.16C84.5501 67.91 83.5901 67.5 82.1301 67.06C80.6601 66.63 78.6901 66.18 76.6901 65.94C74.6901 65.7 72.6701 65.67 70.6401 66.09C68.6501 66.53 66.6601 67.45 65.0101 68.45C64.1801 68.95 63.4401 69.48 62.7501 70.05C62.0801 70.63 61.4501 71.26 60.8201 71.94C60.1801 72.64 59.5301 73.39 58.9401 74.13C59.0301 73.97 59.1201 73.8 59.2101 73.64C62.2801 67.91 65.4001 62.66 68.4701 57.89C68.5601 57.93 68.6601 57.97 68.7801 58.02C69.8001 58.44 71.8801 59.25 73.7201 59.68C75.5401 60.1 77.1701 60.17 78.9701 60.09C80.7701 60.01 82.7601 59.77 84.8601 58.91C86.9301 58.03 89.2701 56.62 91.1501 55.26C93.0301 53.89 94.6401 52.69 95.6401 51.74C96.6501 50.8 97.0701 50.14 97.2901 49.77C97.5201 49.4 97.5501 49.33 97.1501 49.07C96.7501 48.8 95.9001 48.34 94.6001 47.81C93.2901 47.29 91.5201 46.71 89.7001 46.31C87.8901 45.92 86.0301 45.71 84.1301 45.91C82.2201 46.11 80.3401 46.79 78.7301 47.55C77.1301 48.33 75.8101 49.21 74.5201 50.33C73.4601 51.28 72.3901 52.36 71.5301 53.28C71.7301 52.98 71.9401 52.68 72.1401 52.38C74.1901 49.29 76.3201 46.54 78.2201 43.95C79.8301 41.82 81.4001 39.91 82.8501 38.14C82.9401 38.19 83.0401 38.24 83.1601 38.31C84.0601 38.79 85.9001 39.72 87.5401 40.28C89.1801 40.83 90.6601 41.03 92.3201 41.1C93.9901 41.18 95.8401 41.13 97.8501 40.51C99.8401 39.87 102.08 38.73 103.97 37.63C105.87 36.54 107.37 35.47 108.4 34.7C109.42 33.91 109.87 33.33 110.11 33.01C110.36 32.69 110.39 32.63 110.04 32.35C109.69 32.07 108.95 31.58 107.78 31C106.61 30.42 105.02 29.75 103.38 29.24C101.73 28.73 100.04 28.39 98.3001 28.46C96.5601 28.52 94.7401 28.96 93.1901 29.54C91.6501 30.12 90.3601 30.81 89.1001 31.75C88.2301 32.38 87.3501 33.1 86.5801 33.77C88.7601 31.31 90.6001 29.33 92.0401 27.91C94.0501 25.88 95.1501 24.83 95.1501 24.83C95.2401 24.75 95.3301 24.65 95.4001 24.55C96.4801 24.61 98.3501 24.73 99.9601 24.64C101.73 24.55 103.2 24.23 104.81 23.75C106.41 23.25 108.19 22.64 109.98 21.52C111.77 20.4 113.52 18.71 115.05 17.25C116.57 15.78 117.78 14.45 118.51 13.48C119.24 12.51 119.5 11.89 119.64 11.55C119.78 11.21 119.8 11.14 119.37 11.04C118.95 10.93 118.09 10.78 116.78 10.71C115.47 10.63 113.72 10.63 111.97 10.77C110.23 10.92 108.44 11.18 106.77 11.83C105.09 12.47 103.46 13.43 102.14 14.39C100.82 15.35 99.8001 16.32 98.8701 17.49C97.9201 18.64 97.0001 19.96 96.3601 20.91C96.0501 21.38 95.8101 21.76 95.6101 22.08C95.5601 22.03 95.5101 21.97 95.4501 21.93C94.7501 21.4 93.5701 21.65 92.8201 22.52C93.1501 21.99 93.4901 21.46 93.8101 20.93C94.6001 19.61 95.2101 18.35 95.7001 16.81C96.1901 15.28 96.5301 13.44 96.5801 11.73C96.6201 10.02 96.3201 8.37 95.8601 6.77C95.4001 5.17 94.8001 3.6 94.2701 2.45C93.7401 1.3 93.2901 0.570002 93.0301 0.230002C92.7701 -0.109998 92.7001 -0.0699981 92.3601 0.200002C92.0101 0.470002 91.3901 0.970002 90.5201 2.05C89.6501 3.14 88.5101 4.79 87.4001 6.86C86.2801 8.91 85.1301 11.31 84.5901 13.42C84.0801 15.56 84.1901 17.42 84.4101 19.05C84.6301 20.67 84.9801 22.08 85.7301 23.58C86.4801 25.08 87.6301 26.69 88.2201 27.47C88.3101 27.59 88.3801 27.68 88.4401 27.76C86.7301 29.82 84.5801 32.48 81.9701 35.64C80.3201 37.76 78.4101 40.05 76.4501 42.62C76.0201 43.2 75.5701 43.79 75.1101 44.39C75.4101 43.92 75.7901 43.31 76.3001 42.41C76.9301 41.25 77.8701 39.71 78.5801 38.19C79.3001 36.68 79.8401 35.25 80.2101 33.52C80.6101 31.82 80.8801 29.85 80.7601 27.98C80.6501 26.11 80.1701 24.34 79.5301 22.63C78.8901 20.92 78.1101 19.27 77.4501 18.08C76.7901 16.88 76.2401 16.13 75.9301 15.79C75.6201 15.44 75.5501 15.49 75.1901 15.81C74.8301 16.13 74.1801 16.71 73.3401 18C72.4901 19.27 71.4301 21.21 70.3501 23.52C69.2701 25.83 68.2901 28.59 67.9001 30.94C67.7101 32.12 67.6801 33.2 67.7401 34.21C67.8201 35.23 67.9901 36.17 68.1901 37.04C68.5901 38.78 69.1001 40.28 70.0501 41.83C71.0101 43.39 72.4101 45.01 73.1201 45.8C73.3501 46.05 73.5001 46.21 73.6101 46.32C72.4801 47.81 71.3101 49.37 70.1601 51.03C67.4101 54.78 64.5601 58.92 61.7001 63.44C61.7401 63.35 61.7701 63.28 61.8101 63.19C62.1001 62.54 62.4301 61.76 62.7701 60.92C63.1301 60.1 63.4901 59.22 63.8001 58.37C64.4201 56.67 64.8501 55.06 65.0801 53.15C65.3401 51.28 65.4201 49.11 65.1101 47.09C64.8001 45.07 64.1001 43.2 63.2501 41.42C62.4101 39.65 61.4201 37.95 60.5901 36.71C59.7601 35.48 59.0901 34.72 58.7201 34.37C58.3501 34.02 58.2801 34.08 57.9301 34.47C57.5801 34.86 56.9101 35.56 56.1101 37.03C55.3201 38.51 54.3501 40.74 53.4101 43.37C52.4701 45.99 51.6901 49.11 51.5001 51.7C51.3101 54.28 51.8701 56.45 52.4701 58.29C53.0901 60.13 53.8001 61.68 55.0001 63.26C56.2101 64.83 57.9001 66.42 58.7601 67.19C58.9201 67.34 59.0501 67.45 59.1601 67.54C58.2501 69.04 57.3501 70.56 56.4501 72.13C55.2801 74.12 54.1801 76.21 53.0601 78.33C52.5001 79.39 51.9401 80.47 51.3701 81.55C50.8401 82.65 50.3101 83.77 49.7701 84.89C49.4601 85.55 49.1501 86.22 48.8301 86.88C49.2901 85.46 49.8301 83.64 50.2101 81.89C50.6301 79.96 50.9601 78.2 50.9801 76.12C51.0101 74.05 50.7901 71.68 50.2601 69.55C49.7001 67.41 48.7501 65.48 47.6201 63.65C46.5001 61.82 45.2001 60.07 44.1801 58.83C43.1501 57.59 42.3501 56.85 41.9101 56.52C41.4801 56.18 41.4001 56.26 41.0601 56.72C40.7001 57.17 40.1101 58.05 39.4001 59.75C38.7101 61.46 37.8301 63.96 37.1901 66.97C36.5501 69.99 35.9201 73.39 36.1201 76.27C36.2801 79.13 37.0901 81.37 37.9601 83.28C38.8701 85.2 39.8501 86.79 41.3601 88.33C42.8701 89.87 44.9201 91.36 45.9401 92.08C46.1401 92.22 46.2801 92.32 46.4101 92.4C45.9901 93.4 45.5601 94.4 45.1701 95.42C44.7101 96.64 44.2501 97.87 43.7801 99.11C41.4101 105.44 39.2601 112.09 37.2101 118.97C37.2301 118.86 37.2501 118.74 37.2801 118.62C37.4401 117.85 37.6401 116.84 37.9101 115.19C38.2201 113.55 38.5801 111.25 38.7601 109.11C38.9501 106.97 39.0401 105.03 38.7601 102.78C38.4701 100.53 37.9901 98.03 37.0901 95.79C36.1901 93.55 34.8801 91.59 33.4301 89.76C32.0001 87.94 30.4101 86.24 29.1301 85.03C27.8501 83.83 26.8901 83.13 26.3701 82.83C25.8601 82.52 25.7901 82.62 25.4801 83.17C25.1801 83.73 24.5901 84.74 24.0401 86.68C23.5201 88.64 22.9701 91.51 22.6301 94.86C22.4901 96.54 22.3801 98.34 22.3801 100.1C22.3801 100.98 22.4001 101.85 22.4601 102.69C22.5401 103.54 22.6501 104.35 22.7901 105.12C23.3801 108.2 24.5401 110.5 25.8001 112.43C27.0601 114.36 28.3501 115.93 30.2001 117.36C32.0501 118.79 34.4701 120.08 35.6801 120.69C36.1201 120.91 36.3901 121.04 36.5701 121.12C35.6401 124.32 34.7201 127.56 33.8201 130.84C33.0901 133.64 32.3501 136.46 31.7601 139.34C31.3901 141 31.0801 142.67 30.8001 144.36C30.7801 143.01 30.7401 141.53 30.6901 140.13C30.5801 137.81 30.2301 135.68 29.6501 133.32C29.0601 130.97 28.0101 128.32 26.7401 126.06C25.4401 123.8 23.7601 121.89 21.9101 120.13C20.0601 118.38 18.0901 116.78 16.5401 115.67C14.9901 114.57 13.8501 113.96 13.2501 113.71C12.6501 113.46 12.6001 113.57 12.3401 114.22C12.0801 114.87 11.6201 116.06 11.3501 118.28C11.0801 120.49 10.8701 123.69 11.1001 127.39C11.2301 131.08 11.7901 135.25 12.8801 138.48C13.9801 141.71 15.7101 144.01 17.3501 145.88C18.9801 147.75 20.6301 149.21 22.8801 150.44C25.1201 151.66 27.9401 152.63 29.3401 153.08C29.5101 153.13 29.6601 153.18 29.7901 153.22C29.7101 154.5 29.6301 155.77 29.6001 157.06C29.5601 160.08 29.3101 163.08 29.1601 166.11C28.8801 171.12 28.7101 176.19 28.7001 181.28C28.4101 179.4 27.9101 177 27.4401 174.79C26.9101 172.33 26.1401 170.11 25.1001 167.68C24.0301 165.26 22.4601 162.61 20.7001 160.4C18.9001 158.19 16.7501 156.43 14.4701 154.86C12.2301 153.3 9.84007 151.91 7.98007 150.98C6.12007 150.06 4.80007 149.59 4.11007 149.43C3.43007 149.26 3.38008 149.39 3.23008 150.14C3.09008 150.89 2.77008 152.27 2.85008 154.72C2.89008 155.94 3.02008 157.43 3.23008 159.11C3.34008 159.95 3.45008 160.84 3.61007 161.76C3.78007 162.69 3.97007 163.65 4.19007 164.64C4.99007 168.61 6.36008 173.02 8.10008 176.3C9.92008 179.58 12.1501 181.74 14.2401 183.44C16.3801 185.14 18.4301 186.4 21.0301 187.29C23.6401 188.17 26.8301 188.67 28.4101 188.88C28.5601 188.9 28.6801 188.91 28.8001 188.93C28.9601 193.59 29.2901 198.26 29.8301 202.91C30.3501 206.93 30.9601 210.94 31.7101 214.93C31.3701 214.1 31.0301 213.26 30.6801 212.45C29.5401 209.94 28.4001 207.7 26.7501 205.33C25.0401 202.97 23.0201 200.42 20.6101 198.41C18.2101 196.4 15.6601 194.91 12.9201 193.67C10.2001 192.42 7.34007 191.39 5.20007 190.75C3.05007 190.11 1.55007 189.86 0.780075 189.82C0.020075 189.77 7.50385e-05 189.92 -0.029925 190.76C-0.079925 191.6 -0.059925 193.15 0.470075 195.78C0.970075 198.41 2.17008 202.12 3.81008 206.25L3.87007 206.28Z" fill="white" fill-opacity="0.5"/>
<path d="M166.57 264.73C166.22 265.25 165.8 265.78 165.31 266.31L154.72 277.61H170.53V275.05H160.32L167.45 267.79C168.33 266.89 169.04 265.88 169.59 264.75C170.14 263.62 170.42 262.48 170.42 261.33C170.42 260.65 170.28 259.93 170 259.19C169.72 258.44 169.3 257.75 168.72 257.09C168.14 256.43 167.41 255.91 166.51 255.49C165.61 255.07 164.55 254.87 163.31 254.87C161.77 254.87 160.46 255.21 159.36 255.88C158.26 256.55 157.42 257.49 156.85 258.7C156.27 259.91 155.99 261.31 155.99 262.91H158.71C158.71 261.78 158.89 260.8 159.25 259.98C159.61 259.16 160.14 258.53 160.83 258.09C161.52 257.65 162.35 257.43 163.31 257.43C163.99 257.43 164.6 257.55 165.13 257.78C165.66 258.01 166.12 258.32 166.49 258.71C166.86 259.09 167.15 259.52 167.34 259.99C167.53 260.46 167.63 260.94 167.63 261.43C167.63 262.03 167.54 262.6 167.36 263.14C167.18 263.68 166.91 264.22 166.56 264.74L166.57 264.73Z" fill="white"/>
<path d="M174.62 260.46C173.92 262.19 173.57 264.17 173.57 266.41C173.57 268.65 173.92 270.63 174.62 272.36C175.33 274.09 176.3 275.45 177.55 276.44C178.8 277.43 180.24 277.93 181.89 277.93C183.54 277.93 184.98 277.43 186.23 276.44C187.48 275.45 188.45 274.09 189.16 272.36C189.86 270.63 190.21 268.65 190.21 266.41C190.21 264.17 189.86 262.19 189.16 260.46C188.45 258.73 187.48 257.37 186.23 256.38C184.98 255.39 183.54 254.89 181.89 254.89C180.24 254.89 178.8 255.39 177.55 256.38C176.3 257.37 175.33 258.73 174.62 260.46ZM179.56 258.1C180.25 257.66 181.02 257.44 181.88 257.44C182.74 257.44 183.53 257.66 184.22 258.1C184.9 258.54 185.49 259.16 185.98 259.96C186.47 260.76 186.84 261.71 187.1 262.81C187.36 263.91 187.48 265.11 187.48 266.41C187.48 267.71 187.35 268.91 187.1 270.01C186.84 271.11 186.47 272.06 185.98 272.86C185.49 273.66 184.9 274.28 184.22 274.72C183.54 275.16 182.76 275.38 181.88 275.38C181 275.38 180.25 275.16 179.56 274.72C178.87 274.28 178.27 273.66 177.78 272.86C177.29 272.06 176.92 271.11 176.66 270.01C176.4 268.91 176.28 267.71 176.28 266.41C176.28 265.11 176.41 263.91 176.66 262.81C176.91 261.71 177.29 260.76 177.78 259.96C178.27 259.16 178.86 258.54 179.56 258.1Z" fill="white"/>
<path d="M203.93 255.48C203.03 255.06 201.97 254.86 200.73 254.86C199.19 254.86 197.88 255.2 196.78 255.87C195.68 256.54 194.84 257.48 194.27 258.69C193.69 259.9 193.4 261.3 193.4 262.9H196.12C196.12 261.77 196.3 260.79 196.66 259.97C197.02 259.15 197.55 258.52 198.24 258.08C198.93 257.64 199.76 257.42 200.72 257.42C201.4 257.42 202.01 257.54 202.54 257.77C203.07 258 203.53 258.31 203.9 258.7C204.27 259.08 204.56 259.51 204.75 259.98C204.94 260.45 205.04 260.93 205.04 261.42C205.04 262.02 204.95 262.59 204.77 263.13C204.59 263.67 204.32 264.21 203.97 264.73C203.62 265.25 203.2 265.78 202.71 266.31L192.12 277.61H207.93V275.05H197.72L204.86 267.79C205.74 266.89 206.45 265.88 207 264.75C207.55 263.62 207.83 262.48 207.83 261.33C207.83 260.65 207.69 259.93 207.41 259.19C207.13 258.44 206.71 257.75 206.13 257.09C205.55 256.43 204.82 255.91 203.92 255.49L203.93 255.48Z" fill="white"/>
<path d="M212.25 259.62L217.21 258.15V277.61H219.93V254.89L212.25 256.81V259.62Z" fill="white"/>
<path d="M238.97 255.21H236.25V277.61H238.97V255.21Z" fill="white"/>
<path d="M245.53 254.09L242.81 277.61H245.53L247.19 262.47L254.49 275.53L261.79 262.47L263.45 277.61H266.17L263.45 254.09L254.49 270.31L245.53 254.09Z" fill="white"/>
<path d="M267.61 277.61H270.65L273.49 270.89H282.51L285.37 277.61H288.41L278.01 254.09L267.61 277.61ZM281.44 268.33H274.59L278.01 260.27L281.44 268.33Z" fill="white"/>
<path d="M303.45 255.21H300.73V277.61H303.45V255.21Z" fill="white"/>
<path d="M308.41 262.89V277.61H310.97V268.65C310.97 267.88 311.11 267.22 311.39 266.67C311.67 266.12 312.06 265.69 312.57 265.41C313.08 265.13 313.69 264.98 314.39 264.98C315.35 264.98 316.06 265.28 316.52 265.88C316.98 266.48 317.21 267.41 317.21 268.66V277.62H319.77V268.66C319.77 267.89 319.91 267.23 320.19 266.68C320.47 266.13 320.86 265.7 321.38 265.42C321.89 265.13 322.5 264.99 323.2 264.99C324.16 264.99 324.87 265.29 325.33 265.89C325.79 266.49 326.02 267.42 326.02 268.67V277.63H328.58V268.35C328.58 267.13 328.39 266.09 328.02 265.23C327.65 264.37 327.11 263.71 326.4 263.26C325.69 262.81 324.84 262.59 323.84 262.59C322.84 262.59 321.98 262.82 321.22 263.28C320.45 263.74 319.81 264.43 319.3 265.34C318.96 264.47 318.42 263.79 317.68 263.31C316.94 262.83 316.06 262.59 315.04 262.59C314.12 262.59 313.33 262.79 312.66 263.2C311.99 263.61 311.43 264.22 310.98 265.06V262.92H308.42L308.41 262.89Z" fill="white"/>
<path d="M333.21 262.89V284.65H335.77V275.04C336.25 275.86 336.85 276.51 337.58 277C338.51 277.62 339.58 277.93 340.79 277.93C342.13 277.93 343.35 277.62 344.45 277C345.55 276.38 346.43 275.5 347.09 274.34C347.75 273.19 348.08 271.82 348.08 270.24C348.08 268.66 347.75 267.27 347.09 266.13C346.43 264.99 345.55 264.11 344.45 263.49C343.35 262.87 342.13 262.56 340.79 262.56C339.58 262.56 338.5 262.87 337.58 263.49C336.85 263.98 336.25 264.63 335.77 265.44V262.88H333.21V262.89ZM336.47 267.37C336.94 266.58 337.54 265.98 338.26 265.58C338.98 265.18 339.72 264.97 340.47 264.97C341.39 264.97 342.23 265.17 342.98 265.58C343.74 265.99 344.35 266.58 344.8 267.37C345.26 268.16 345.49 269.12 345.49 270.25C345.49 271.38 345.26 272.34 344.8 273.13C344.34 273.92 343.73 274.52 342.98 274.92C342.22 275.33 341.39 275.53 340.47 275.53C339.72 275.53 338.99 275.33 338.26 274.92C337.53 274.52 336.94 273.92 336.47 273.13C336 272.34 335.77 271.38 335.77 270.25C335.77 269.12 336 268.16 336.47 267.37Z" fill="white"/>
<path d="M359.95 263.1C359.08 262.75 358.08 262.57 356.92 262.57C355.55 262.57 354.39 262.77 353.42 263.18C352.45 263.59 351.69 263.99 351.13 264.4L352.38 266.29C352.61 266.12 352.93 265.92 353.34 265.68C353.75 265.45 354.24 265.24 354.83 265.07C355.42 264.9 356.07 264.81 356.8 264.81C357.25 264.81 357.68 264.85 358.08 264.94C358.48 265.03 358.84 265.16 359.15 265.36C359.46 265.55 359.7 265.81 359.87 266.14C360.04 266.47 360.13 266.89 360.13 267.4V269.54C359.73 269.28 359.23 269.03 358.61 268.82C357.9 268.58 357 268.45 355.94 268.45C354.13 268.45 352.71 268.88 351.7 269.75C350.69 270.61 350.18 271.76 350.18 273.19C350.18 274.19 350.41 275.05 350.89 275.75C351.36 276.45 351.98 276.99 352.76 277.37C353.54 277.74 354.38 277.93 355.27 277.93C356.08 277.93 356.9 277.78 357.72 277.48C358.54 277.18 359.23 276.72 359.8 276.1C359.93 275.96 360.04 275.81 360.14 275.65V277.6H362.7V267.04C362.7 266.08 362.46 265.27 361.98 264.61C361.5 263.95 360.83 263.44 359.96 263.09L359.95 263.1ZM359.56 273.88C359.19 274.47 358.68 274.92 358.06 275.24C357.43 275.56 356.72 275.72 355.93 275.72C355.31 275.72 354.76 275.62 354.28 275.42C353.8 275.22 353.43 274.91 353.16 274.51C352.89 274.11 352.76 273.63 352.76 273.07C352.76 272.51 352.89 272.08 353.14 271.69C353.4 271.31 353.78 271.01 354.31 270.79C354.83 270.58 355.51 270.47 356.34 270.47C357.24 270.47 358.08 270.58 358.87 270.81C359.29 270.93 359.71 271.1 360.12 271.3V271.85C360.12 272.62 359.93 273.3 359.56 273.88Z" fill="white"/>
<path d="M370.6 265.64C371.36 265.19 372.22 264.97 373.18 264.97C373.97 264.97 374.71 265.09 375.4 265.34C376.09 265.59 376.69 265.91 377.21 266.32C377.72 266.73 378.08 267.17 378.3 267.66V264.46C377.79 263.86 377.06 263.4 376.11 263.07C375.16 262.74 374.18 262.57 373.18 262.57C371.75 262.57 370.46 262.9 369.31 263.56C368.16 264.22 367.25 265.13 366.57 266.28C365.9 267.43 365.56 268.76 365.56 270.25C365.56 271.74 365.9 273.04 366.57 274.2C367.24 275.36 368.15 276.28 369.31 276.94C370.47 277.6 371.75 277.93 373.18 277.93C374.18 277.93 375.16 277.76 376.11 277.43C377.06 277.1 377.79 276.64 378.3 276.04V272.84C378.09 273.31 377.72 273.75 377.21 274.17C376.7 274.59 376.09 274.92 375.4 275.16C374.71 275.41 373.96 275.53 373.18 275.53C372.22 275.53 371.36 275.3 370.6 274.84C369.84 274.38 369.24 273.76 368.81 272.97C368.37 272.18 368.15 271.27 368.15 270.25C368.15 269.23 368.37 268.31 368.81 267.51C369.25 266.71 369.84 266.09 370.6 265.64Z" fill="white"/>
<path d="M382.46 262.89H380.06V265.29H382.46V277.61H385.02V265.29H387.42V262.89H385.02V257.77H382.46V262.89Z" fill="white"/>
<path d="M397.34 277.61H400.38L403.22 270.89H412.24L415.1 277.61H418.14L407.74 254.09L397.34 277.61ZM411.17 268.33H404.31L407.73 260.27L411.16 268.33H411.17Z" fill="white"/>
<path d="M416.86 262.89L423.26 278.73L427.45 268.01L431.9 278.73L438.29 262.89H435.42L431.7 272.52L427.42 261.77L423.42 272.46L419.74 262.89H416.86Z" fill="white"/>
<path d="M449.19 263.1C448.33 262.75 447.32 262.57 446.17 262.57C444.8 262.57 443.64 262.77 442.67 263.18C441.7 263.59 440.94 263.99 440.38 264.4L441.63 266.29C441.86 266.12 442.18 265.92 442.59 265.68C442.99 265.45 443.49 265.24 444.08 265.07C444.67 264.9 445.32 264.81 446.05 264.81C446.5 264.81 446.93 264.85 447.33 264.94C447.73 265.03 448.09 265.16 448.4 265.36C448.71 265.55 448.95 265.81 449.12 266.14C449.29 266.47 449.38 266.89 449.38 267.4V269.54C448.98 269.28 448.48 269.03 447.86 268.82C447.15 268.58 446.25 268.45 445.19 268.45C443.38 268.45 441.96 268.88 440.95 269.75C439.94 270.61 439.43 271.76 439.43 273.19C439.43 274.19 439.66 275.05 440.13 275.75C440.6 276.45 441.22 276.99 442 277.37C442.78 277.74 443.62 277.93 444.51 277.93C445.32 277.93 446.14 277.78 446.96 277.48C447.78 277.18 448.48 276.72 449.04 276.1C449.17 275.96 449.28 275.81 449.38 275.65V277.6H451.94V267.04C451.94 266.08 451.7 265.27 451.22 264.61C450.74 263.95 450.07 263.44 449.2 263.09L449.19 263.1ZM448.81 273.88C448.44 274.47 447.93 274.92 447.31 275.24C446.68 275.56 445.97 275.72 445.18 275.72C444.56 275.72 444.01 275.62 443.53 275.42C443.05 275.22 442.68 274.91 442.41 274.51C442.14 274.11 442.01 273.63 442.01 273.07C442.01 272.51 442.14 272.08 442.39 271.69C442.65 271.31 443.04 271.01 443.56 270.79C444.08 270.58 444.76 270.47 445.59 270.47C446.49 270.47 447.33 270.58 448.12 270.81C448.54 270.93 448.96 271.1 449.37 271.3V271.85C449.37 272.62 449.18 273.3 448.81 273.88Z" fill="white"/>
<path d="M456.25 262.89V277.61H458.81V268.65C458.81 267.95 458.88 267.32 459.02 266.76C459.16 266.21 459.41 265.77 459.77 265.45C460.13 265.13 460.64 264.97 461.27 264.97C461.7 264.97 462.05 265.03 462.33 265.15C462.61 265.27 462.92 265.45 463.26 265.71L464.67 263.6C464.29 263.2 463.87 262.92 463.41 262.78C462.95 262.64 462.45 262.57 461.92 262.57C461.24 262.57 460.56 262.84 459.9 263.37C459.49 263.7 459.13 264.12 458.81 264.59V262.89H456.25Z" fill="white"/>
<path d="M478.26 265.45C477.78 264.64 477.19 263.99 476.47 263.5C475.55 262.88 474.48 262.57 473.24 262.57C471.92 262.57 470.7 262.88 469.59 263.5C468.48 264.12 467.6 265 466.94 266.14C466.28 267.28 465.95 268.65 465.95 270.25C465.95 271.85 466.28 273.19 466.94 274.35C467.6 275.5 468.48 276.39 469.59 277.01C470.7 277.63 471.92 277.94 473.24 277.94C474.48 277.94 475.55 277.63 476.47 277.01C477.19 276.52 477.79 275.87 478.26 275.05V277.62H480.82V252.66H478.26V265.46V265.45ZM477.56 273.13C477.09 273.92 476.49 274.52 475.77 274.92C475.04 275.33 474.31 275.53 473.56 275.53C472.66 275.53 471.83 275.33 471.06 274.92C470.29 274.52 469.68 273.92 469.22 273.13C468.76 272.34 468.53 271.38 468.53 270.25C468.53 269.12 468.76 268.16 469.22 267.37C469.68 266.58 470.29 265.98 471.06 265.58C471.83 265.18 472.66 264.97 473.56 264.97C474.31 264.97 475.04 265.17 475.77 265.58C476.49 265.99 477.09 266.58 477.56 267.37C478.03 268.16 478.27 269.12 478.27 270.25C478.27 271.38 478.03 272.34 477.56 273.13Z" fill="white"/>
<path d="M487.27 262.98C486.53 263.26 485.94 263.68 485.48 264.26C485.02 264.84 484.79 265.56 484.79 266.44C484.79 267.32 485.01 268 485.45 268.57C485.89 269.14 486.43 269.59 487.08 269.95C487.73 270.31 488.37 270.61 489.02 270.86C489.6 271.07 490.14 271.3 490.65 271.55C491.16 271.8 491.58 272.09 491.91 272.45C492.24 272.8 492.41 273.23 492.41 273.75C492.41 274.33 492.2 274.78 491.79 275.11C491.37 275.44 490.8 275.61 490.08 275.61C489.48 275.61 488.93 275.5 488.43 275.27C487.93 275.04 487.49 274.74 487.1 274.36C486.72 273.98 486.38 273.56 486.08 273.11L484.06 274.36C484.34 274.94 484.75 275.5 485.29 276.06C485.83 276.61 486.5 277.07 487.29 277.42C488.08 277.77 488.97 277.95 489.95 277.95C491.47 277.95 492.69 277.52 493.61 276.67C494.54 275.82 495 274.75 495 273.47C495 272.6 494.79 271.88 494.38 271.33C493.97 270.78 493.41 270.3 492.7 269.91C492 269.52 491.22 269.15 490.36 268.81C489.85 268.6 489.36 268.37 488.89 268.14C488.42 267.91 488.04 267.64 487.74 267.34C487.44 267.04 487.29 266.7 487.29 266.32C487.29 265.83 487.48 265.47 487.87 265.23C488.25 265 488.71 264.88 489.25 264.88C490.02 264.88 490.71 265.06 491.31 265.42C491.92 265.78 492.42 266.24 492.83 266.8L494.88 265.49C494.58 264.94 494.17 264.45 493.63 264.02C493.09 263.59 492.48 263.25 491.79 263C491.1 262.74 490.36 262.62 489.57 262.62C488.78 262.62 488.02 262.76 487.28 263.04L487.27 262.98Z" fill="white"/>
<path d="M152.24 292.81H150.2V309.61H152.24V292.81Z" fill="white"/>
<path d="M164.96 309.61V302.65C164.96 301.32 164.62 300.27 163.94 299.49C163.26 298.71 162.33 298.33 161.17 298.33C160.45 298.33 159.81 298.49 159.26 298.81C158.71 299.13 158.25 299.63 157.88 300.3V298.57H155.96V309.61H157.88V302.89C157.88 302.35 158 301.87 158.23 301.45C158.46 301.03 158.79 300.71 159.21 300.48C159.63 300.25 160.13 300.13 160.69 300.13C161.46 300.13 162.04 300.36 162.44 300.83C162.84 301.29 163.04 301.98 163.04 302.89V309.61H164.96Z" fill="white"/>
<path d="M168.68 294.73V298.57H166.88V300.37H168.68V309.61H170.6V300.37H172.4V298.57H170.6V294.73H168.68Z" fill="white"/>
<path d="M181.63 299.01C180.85 298.55 179.92 298.33 178.83 298.33C177.74 298.33 176.79 298.57 175.96 299.05C175.14 299.53 174.5 300.2 174.04 301.07C173.58 301.93 173.35 302.94 173.35 304.09C173.35 305.24 173.57 306.23 174.01 307.09C174.45 307.95 175.07 308.63 175.86 309.12C176.65 309.61 177.56 309.85 178.58 309.85C179.76 309.85 180.79 309.61 181.66 309.14C182.53 308.67 183.26 307.97 183.83 307.04L182.27 306.06C181.87 306.73 181.38 307.23 180.81 307.56C180.24 307.89 179.57 308.05 178.82 308.05C178.07 308.05 177.43 307.89 176.9 307.57C176.37 307.25 175.97 306.79 175.7 306.18C175.49 305.72 175.39 305.17 175.34 304.57H184C184 304.57 184 304.46 184.01 304.34C184.02 304.22 184.02 304.1 184.02 303.99C184.02 302.82 183.81 301.81 183.4 300.97C182.98 300.12 182.39 299.47 181.61 299.01H181.63ZM176.95 300.48C177.47 300.17 178.1 300.01 178.83 300.01C179.45 300.01 180 300.15 180.46 300.42C180.92 300.69 181.29 301.07 181.55 301.55C181.77 301.95 181.87 302.42 181.91 302.94H175.4C175.47 302.53 175.58 302.15 175.74 301.82C176.02 301.24 176.42 300.79 176.94 300.48H176.95Z" fill="white"/>
<path d="M186.68 298.57V309.61H188.6V302.89C188.6 302.36 188.65 301.89 188.76 301.47C188.86 301.05 189.05 300.73 189.32 300.49C189.59 300.25 189.97 300.13 190.45 300.13C190.77 300.13 191.03 300.17 191.24 300.26C191.45 300.35 191.68 300.49 191.94 300.68L193 299.1C192.71 298.8 192.4 298.59 192.05 298.49C191.7 298.39 191.33 298.33 190.93 298.33C190.42 298.33 189.91 298.53 189.42 298.93C189.11 299.18 188.84 299.51 188.6 299.88V298.57H186.68Z" fill="white"/>
<path d="M194.91 298.57V309.61H196.83V302.89C196.83 302.35 196.95 301.87 197.18 301.45C197.41 301.03 197.74 300.71 198.16 300.48C198.58 300.25 199.08 300.13 199.64 300.13C200.41 300.13 200.99 300.36 201.39 300.83C201.79 301.29 201.99 301.98 201.99 302.89V309.61H203.91V302.65C203.91 301.32 203.57 300.27 202.89 299.49C202.21 298.71 201.28 298.33 200.12 298.33C199.4 298.33 198.76 298.49 198.21 298.81C197.66 299.13 197.2 299.63 196.83 300.3V298.57H194.91Z" fill="white"/>
<path d="M212.75 303.02C212.21 302.84 211.54 302.74 210.75 302.74C209.39 302.74 208.33 303.06 207.57 303.71C206.81 304.36 206.43 305.22 206.43 306.29C206.43 307.04 206.61 307.68 206.96 308.21C207.31 308.74 207.78 309.14 208.36 309.42C208.94 309.7 209.57 309.84 210.24 309.84C210.85 309.84 211.46 309.73 212.08 309.5C212.7 309.28 213.21 308.93 213.64 308.47C213.74 308.37 213.82 308.25 213.89 308.13V309.59H215.81V301.67C215.81 300.95 215.63 300.34 215.27 299.85C214.91 299.35 214.41 298.97 213.76 298.71C213.11 298.45 212.36 298.31 211.49 298.31C210.46 298.31 209.59 298.46 208.86 298.77C208.13 299.07 207.56 299.38 207.15 299.68L208.09 301.1C208.27 300.97 208.51 300.82 208.81 300.64C209.11 300.46 209.49 300.31 209.93 300.18C210.37 300.05 210.86 299.99 211.41 299.99C211.75 299.99 212.06 300.02 212.37 300.09C212.68 300.16 212.94 300.26 213.17 300.4C213.4 300.54 213.58 300.74 213.71 300.99C213.84 301.24 213.9 301.55 213.9 301.94V303.55C213.6 303.35 213.23 303.17 212.76 303.01L212.75 303.02ZM213.47 306.81C213.19 307.25 212.81 307.59 212.34 307.83C211.87 308.07 211.34 308.19 210.74 308.19C210.28 308.19 209.86 308.11 209.5 307.96C209.14 307.81 208.86 307.58 208.66 307.28C208.46 306.98 208.36 306.62 208.36 306.2C208.36 305.78 208.46 305.46 208.65 305.17C208.84 304.88 209.13 304.66 209.53 304.5C209.93 304.34 210.43 304.26 211.05 304.26C211.72 304.26 212.35 304.34 212.95 304.51C213.27 304.6 213.58 304.73 213.89 304.88V305.29C213.89 305.87 213.75 306.37 213.47 306.81Z" fill="white"/>
<path d="M219.17 294.73V298.57H217.37V300.37H219.17V309.61H221.09V300.37H222.89V298.57H221.09V294.73H219.17Z" fill="white"/>
<path d="M226.13 295.33C226.5 295.33 226.81 295.2 227.07 294.93C227.33 294.67 227.45 294.36 227.45 294.01C227.45 293.66 227.32 293.33 227.07 293.07C226.81 292.81 226.5 292.69 226.13 292.69C225.76 292.69 225.47 292.82 225.21 293.07C224.95 293.33 224.81 293.64 224.81 294.01C224.81 294.38 224.94 294.67 225.21 294.93C225.47 295.19 225.78 295.33 226.13 295.33Z" fill="white"/>
<path d="M227.09 298.57H225.17V309.61H227.09V298.57Z" fill="white"/>
<path d="M232.9 299.07C232.03 299.57 231.35 300.25 230.85 301.11C230.35 301.97 230.09 302.97 230.09 304.09C230.09 305.21 230.34 306.18 230.85 307.05C231.35 307.92 232.04 308.61 232.9 309.1C233.76 309.6 234.73 309.84 235.8 309.84C236.87 309.84 237.86 309.59 238.72 309.1C239.58 308.6 240.26 307.92 240.76 307.05C241.26 306.18 241.52 305.19 241.52 304.09C241.52 302.99 241.27 301.98 240.76 301.11C240.26 300.25 239.58 299.57 238.72 299.07C237.86 298.57 236.89 298.33 235.8 298.33C234.71 298.33 233.76 298.58 232.9 299.07ZM239.08 302.04C239.41 302.64 239.57 303.32 239.57 304.09C239.57 304.86 239.4 305.54 239.08 306.13C238.75 306.72 238.3 307.19 237.74 307.53C237.17 307.87 236.53 308.05 235.81 308.05C235.09 308.05 234.45 307.88 233.88 307.53C233.31 307.19 232.86 306.72 232.54 306.13C232.21 305.54 232.05 304.86 232.05 304.09C232.05 303.32 232.21 302.64 232.54 302.04C232.87 301.44 233.32 300.97 233.88 300.64C234.44 300.31 235.09 300.14 235.81 300.14C236.53 300.14 237.18 300.31 237.74 300.64C238.31 300.98 238.76 301.44 239.08 302.04Z" fill="white"/>
<path d="M244.16 298.57V309.61H246.08V302.89C246.08 302.35 246.2 301.87 246.43 301.45C246.66 301.03 246.99 300.71 247.41 300.48C247.83 300.25 248.33 300.13 248.89 300.13C249.66 300.13 250.24 300.36 250.64 300.83C251.04 301.29 251.24 301.98 251.24 302.89V309.61H253.16V302.65C253.16 301.32 252.82 300.27 252.14 299.49C251.46 298.71 250.54 298.33 249.37 298.33C248.65 298.33 248.01 298.49 247.46 298.81C246.91 299.13 246.45 299.63 246.08 300.3V298.57H244.16Z" fill="white"/>
<path d="M262 303.02C261.46 302.84 260.8 302.74 260 302.74C258.64 302.74 257.58 303.06 256.82 303.71C256.06 304.36 255.68 305.22 255.68 306.29C255.68 307.04 255.86 307.68 256.21 308.21C256.56 308.74 257.03 309.14 257.61 309.42C258.19 309.7 258.82 309.84 259.49 309.84C260.1 309.84 260.71 309.73 261.33 309.5C261.95 309.28 262.47 308.93 262.89 308.47C262.99 308.37 263.07 308.25 263.14 308.13V309.59H265.06V301.67C265.06 300.95 264.88 300.34 264.52 299.85C264.16 299.35 263.65 298.97 263.01 298.71C262.36 298.45 261.61 298.31 260.74 298.31C259.72 298.31 258.84 298.46 258.11 298.77C257.38 299.07 256.81 299.38 256.39 299.68L257.33 301.1C257.51 300.97 257.75 300.82 258.05 300.64C258.35 300.46 258.73 300.31 259.17 300.18C259.61 300.05 260.1 299.99 260.65 299.99C260.99 299.99 261.31 300.02 261.61 300.09C261.91 300.15 262.18 300.26 262.41 300.4C262.64 300.54 262.82 300.74 262.95 300.99C263.08 301.24 263.14 301.55 263.14 301.94V303.55C262.84 303.35 262.47 303.17 262 303.01V303.02ZM262.72 306.81C262.44 307.25 262.06 307.59 261.59 307.83C261.12 308.07 260.59 308.19 259.99 308.19C259.53 308.19 259.11 308.11 258.75 307.96C258.39 307.81 258.11 307.58 257.91 307.28C257.71 306.98 257.61 306.62 257.61 306.2C257.61 305.78 257.71 305.46 257.9 305.17C258.09 304.88 258.38 304.66 258.78 304.5C259.17 304.34 259.68 304.26 260.3 304.26C260.97 304.26 261.6 304.34 262.2 304.51C262.52 304.6 262.83 304.73 263.14 304.88V305.29C263.14 305.87 263 306.37 262.72 306.81Z" fill="white"/>
<path d="M270.22 290.89H268.3V309.61H270.22V290.89Z" fill="white"/>
<path d="M288.94 304.14L282.22 291.97L280.18 309.61H282.22L283.47 298.26L288.94 308.05L294.41 298.26L295.66 309.61H297.7L295.66 291.97L288.94 304.14Z" fill="white"/>
<path d="M305.7 303.02C305.16 302.84 304.5 302.74 303.7 302.74C302.34 302.74 301.28 303.06 300.52 303.71C299.76 304.36 299.38 305.22 299.38 306.29C299.38 307.04 299.56 307.68 299.91 308.21C300.26 308.74 300.73 309.14 301.31 309.42C301.89 309.7 302.52 309.84 303.19 309.84C303.8 309.84 304.41 309.73 305.03 309.5C305.65 309.28 306.17 308.93 306.59 308.47C306.69 308.37 306.77 308.25 306.84 308.13V309.59H308.76V301.67C308.76 300.95 308.58 300.34 308.22 299.85C307.86 299.35 307.35 298.97 306.71 298.71C306.06 298.45 305.31 298.31 304.44 298.31C303.42 298.31 302.54 298.46 301.81 298.77C301.08 299.07 300.51 299.38 300.09 299.68L301.03 301.1C301.21 300.97 301.45 300.82 301.75 300.64C302.05 300.46 302.43 300.31 302.87 300.18C303.31 300.05 303.8 299.99 304.35 299.99C304.69 299.99 305.01 300.02 305.31 300.09C305.61 300.15 305.88 300.26 306.11 300.4C306.34 300.54 306.52 300.74 306.65 300.99C306.78 301.24 306.84 301.55 306.84 301.94V303.55C306.54 303.35 306.17 303.17 305.7 303.01V303.02ZM306.42 306.81C306.14 307.25 305.76 307.59 305.29 307.83C304.82 308.07 304.29 308.19 303.69 308.19C303.23 308.19 302.81 308.11 302.45 307.96C302.09 307.81 301.81 307.58 301.61 307.28C301.41 306.98 301.31 306.62 301.31 306.2C301.31 305.78 301.41 305.46 301.6 305.17C301.79 304.88 302.08 304.66 302.48 304.5C302.87 304.34 303.38 304.26 304 304.26C304.67 304.26 305.3 304.34 305.9 304.51C306.22 304.6 306.53 304.73 306.84 304.88V305.29C306.84 305.87 306.7 306.37 306.42 306.81Z" fill="white"/>
<path d="M312 298.57V309.61H313.92V302.89C313.92 302.36 313.97 301.89 314.08 301.47C314.18 301.05 314.37 300.73 314.64 300.49C314.91 300.25 315.29 300.13 315.77 300.13C316.09 300.13 316.35 300.17 316.56 300.26C316.77 300.35 317 300.49 317.26 300.68L318.32 299.1C318.03 298.8 317.71 298.59 317.37 298.49C317.03 298.39 316.65 298.33 316.25 298.33C315.74 298.33 315.23 298.53 314.74 298.93C314.43 299.18 314.16 299.51 313.92 299.88V298.57H312Z" fill="white"/>
<path d="M328.52 298.57H326.12L322.04 302.44V290.89H320.12V309.61H322.04V304.01L326.6 309.61H328.99L323.71 303.13L328.52 298.57Z" fill="white"/>
<path d="M330.16 301.06C329.7 301.92 329.47 302.93 329.47 304.08C329.47 305.23 329.69 306.22 330.13 307.08C330.57 307.94 331.19 308.62 331.98 309.11C332.77 309.6 333.68 309.84 334.7 309.84C335.88 309.84 336.91 309.6 337.78 309.13C338.65 308.66 339.38 307.96 339.95 307.03L338.39 306.05C337.99 306.72 337.5 307.22 336.93 307.55C336.36 307.88 335.69 308.04 334.94 308.04C334.19 308.04 333.55 307.88 333.02 307.56C332.49 307.24 332.09 306.78 331.82 306.17C331.61 305.71 331.51 305.16 331.46 304.56H340.12C340.12 304.56 340.12 304.45 340.13 304.33C340.14 304.21 340.14 304.09 340.14 303.98C340.14 302.81 339.93 301.8 339.52 300.96C339.1 300.11 338.51 299.46 337.73 299C336.95 298.54 336.02 298.32 334.93 298.32C333.84 298.32 332.89 298.56 332.06 299.04C331.24 299.52 330.6 300.19 330.14 301.06H330.16ZM333.06 300.48C333.58 300.17 334.21 300.01 334.94 300.01C335.56 300.01 336.11 300.15 336.57 300.42C337.03 300.69 337.4 301.07 337.66 301.55C337.88 301.95 337.98 302.42 338.02 302.94H331.51C331.58 302.53 331.69 302.15 331.85 301.82C332.13 301.24 332.53 300.79 333.05 300.48H333.06Z" fill="white"/>
<path d="M342.91 294.73V298.57H341.12V300.37H342.91V309.61H344.83V300.37H346.63V298.57H344.83V294.73H342.91Z" fill="white"/>
<path d="M350.83 298.57H348.91V309.61H350.83V298.57Z" fill="white"/>
<path d="M350.81 293.07C350.55 292.81 350.24 292.69 349.87 292.69C349.5 292.69 349.21 292.82 348.95 293.07C348.68 293.33 348.55 293.64 348.55 294.01C348.55 294.38 348.68 294.67 348.95 294.93C349.21 295.19 349.52 295.33 349.87 295.33C350.22 295.33 350.55 295.2 350.81 294.93C351.07 294.67 351.19 294.36 351.19 294.01C351.19 293.66 351.06 293.33 350.81 293.07Z" fill="white"/>
<path d="M360 298.33C359.28 298.33 358.64 298.49 358.09 298.81C357.54 299.13 357.08 299.63 356.71 300.3V298.57H354.79V309.61H356.71V302.89C356.71 302.35 356.83 301.87 357.06 301.45C357.29 301.03 357.62 300.71 358.04 300.48C358.46 300.25 358.96 300.13 359.52 300.13C360.29 300.13 360.87 300.36 361.27 300.83C361.67 301.29 361.87 301.98 361.87 302.89V309.61H363.79V302.65C363.79 301.32 363.45 300.27 362.77 299.49C362.09 298.71 361.16 298.33 360 298.33Z" fill="white"/>
<path d="M375.13 311.64C374.77 312.22 374.32 312.65 373.77 312.92C373.23 313.19 372.67 313.33 372.12 313.33C371.4 313.33 370.77 313.19 370.25 312.91C369.73 312.63 369.31 312.26 369.03 311.81C368.74 311.35 368.6 310.86 368.6 310.33H366.66C366.66 311.27 366.89 312.11 367.36 312.84C367.82 313.57 368.47 314.13 369.29 314.53C370.11 314.93 371.06 315.13 372.14 315.13C373.07 315.13 373.95 314.91 374.78 314.48C375.61 314.05 376.29 313.4 376.82 312.55C377.35 311.69 377.61 310.63 377.61 309.37V298.57H375.69V300.49C375.33 299.88 374.89 299.4 374.35 299.03C373.66 298.57 372.85 298.33 371.93 298.33C370.94 298.33 370.03 298.56 369.19 299.03C368.36 299.49 367.69 300.15 367.2 301.01C366.71 301.87 366.46 302.89 366.46 304.09C366.46 305.29 366.71 306.3 367.2 307.16C367.7 308.02 368.36 308.69 369.19 309.15C370.02 309.61 370.93 309.85 371.93 309.85C372.86 309.85 373.67 309.62 374.35 309.15C374.89 308.79 375.34 308.29 375.69 307.68V309.36C375.69 310.29 375.51 311.04 375.15 311.63L375.13 311.64ZM375.15 306.25C374.8 306.84 374.35 307.29 373.81 307.59C373.27 307.89 372.71 308.05 372.15 308.05C371.48 308.05 370.85 307.9 370.28 307.59C369.7 307.29 369.24 306.84 368.9 306.25C368.56 305.66 368.38 304.94 368.38 304.09C368.38 303.24 368.55 302.52 368.9 301.93C369.24 301.34 369.7 300.89 370.28 300.59C370.86 300.29 371.48 300.13 372.15 300.13C372.57 300.13 372.98 300.22 373.4 300.39C373.82 300.56 374.19 300.82 374.54 301.16C374.88 301.5 375.16 301.91 375.37 302.4C375.58 302.89 375.68 303.45 375.68 304.09C375.68 304.94 375.5 305.66 375.15 306.25Z" fill="white"/>
<path d="M386.59 309.61H388.87L391 304.57H397.77L399.91 309.61H402.19L394.39 291.97L386.59 309.61ZM396.97 302.65H391.83L394.4 296.6L396.97 302.65Z" fill="white"/>
<path d="M408.85 307.72C408.54 307.97 408.11 308.09 407.57 308.09C407.12 308.09 406.71 308.01 406.33 307.84C405.95 307.67 405.62 307.44 405.33 307.16C405.04 306.87 404.79 306.56 404.56 306.22L403.05 307.16C403.26 307.59 403.57 308.02 403.97 308.43C404.37 308.84 404.88 309.19 405.47 309.45C406.06 309.71 406.73 309.85 407.46 309.85C408.59 309.85 409.51 309.53 410.21 308.89C410.91 308.25 411.25 307.45 411.25 306.49C411.25 305.83 411.09 305.3 410.78 304.88C410.47 304.46 410.05 304.11 409.52 303.81C408.99 303.51 408.41 303.24 407.77 302.98C407.39 302.82 407.02 302.65 406.67 302.48C406.32 302.3 406.03 302.1 405.81 301.88C405.59 301.66 405.47 301.4 405.47 301.11C405.47 300.74 405.61 300.47 405.9 300.29C406.19 300.11 406.53 300.03 406.93 300.03C407.51 300.03 408.02 300.17 408.48 300.44C408.94 300.71 409.32 301.06 409.62 301.47L411.16 300.49C410.94 300.07 410.62 299.71 410.22 299.39C409.82 299.07 409.36 298.81 408.84 298.62C408.32 298.43 407.76 298.33 407.17 298.33C406.58 298.33 406.01 298.43 405.46 298.64C404.91 298.85 404.46 299.17 404.11 299.6C403.77 300.03 403.59 300.58 403.59 301.23C403.59 301.88 403.75 302.4 404.08 302.83C404.41 303.26 404.82 303.6 405.3 303.86C405.78 304.12 406.27 304.35 406.75 304.54C407.18 304.7 407.59 304.87 407.97 305.06C408.35 305.25 408.67 305.47 408.92 305.73C409.17 305.99 409.29 306.32 409.29 306.7C409.29 307.13 409.13 307.47 408.82 307.72H408.85Z" fill="white"/>
<path d="M418.53 307.72C418.22 307.97 417.79 308.09 417.25 308.09C416.8 308.09 416.39 308.01 416.01 307.84C415.63 307.67 415.3 307.44 415.01 307.16C414.72 306.87 414.47 306.56 414.24 306.22L412.73 307.16C412.94 307.59 413.25 308.02 413.65 308.43C414.05 308.84 414.56 309.19 415.15 309.45C415.74 309.71 416.41 309.85 417.14 309.85C418.27 309.85 419.19 309.53 419.89 308.89C420.59 308.25 420.93 307.45 420.93 306.49C420.93 305.83 420.77 305.3 420.46 304.88C420.15 304.46 419.73 304.11 419.2 303.81C418.67 303.51 418.09 303.24 417.45 302.98C417.07 302.82 416.7 302.65 416.35 302.48C416 302.3 415.71 302.1 415.49 301.88C415.27 301.66 415.15 301.4 415.15 301.11C415.15 300.74 415.29 300.47 415.58 300.29C415.87 300.11 416.21 300.03 416.61 300.03C417.19 300.03 417.7 300.17 418.16 300.44C418.62 300.71 419 301.06 419.3 301.47L420.84 300.49C420.62 300.07 420.3 299.71 419.9 299.39C419.5 299.07 419.04 298.81 418.52 298.62C418 298.43 417.44 298.33 416.85 298.33C416.26 298.33 415.69 298.43 415.14 298.64C414.59 298.85 414.14 299.17 413.79 299.6C413.45 300.03 413.27 300.58 413.27 301.23C413.27 301.88 413.43 302.4 413.76 302.83C414.09 303.26 414.5 303.6 414.98 303.86C415.46 304.12 415.95 304.35 416.43 304.54C416.86 304.7 417.27 304.87 417.65 305.06C418.03 305.25 418.35 305.47 418.6 305.73C418.85 305.99 418.97 306.32 418.97 306.7C418.97 307.13 418.81 307.47 418.5 307.72H418.53Z" fill="white"/>
<path d="M431.12 299.07C430.26 298.57 429.29 298.33 428.2 298.33C427.11 298.33 426.16 298.58 425.3 299.07C424.43 299.57 423.75 300.25 423.25 301.11C422.75 301.97 422.49 302.97 422.49 304.09C422.49 305.21 422.74 306.18 423.25 307.05C423.75 307.92 424.44 308.61 425.3 309.1C426.16 309.6 427.13 309.84 428.2 309.84C429.27 309.84 430.26 309.59 431.12 309.1C431.98 308.6 432.66 307.92 433.16 307.05C433.66 306.18 433.92 305.19 433.92 304.09C433.92 302.99 433.67 301.98 433.16 301.11C432.66 300.25 431.98 299.57 431.12 299.07ZM431.49 306.13C431.16 306.72 430.71 307.19 430.15 307.53C429.58 307.87 428.94 308.05 428.22 308.05C427.5 308.05 426.86 307.88 426.29 307.53C425.72 307.19 425.27 306.72 424.95 306.13C424.62 305.54 424.46 304.86 424.46 304.09C424.46 303.32 424.62 302.64 424.95 302.04C425.28 301.44 425.73 300.97 426.29 300.64C426.85 300.31 427.5 300.14 428.22 300.14C428.94 300.14 429.59 300.31 430.15 300.64C430.72 300.98 431.17 301.44 431.49 302.04C431.82 302.64 431.98 303.32 431.98 304.09C431.98 304.86 431.81 305.54 431.49 306.13Z" fill="white"/>
<path d="M439.26 300.63C439.83 300.29 440.47 300.13 441.19 300.13C441.78 300.13 442.34 300.22 442.86 300.41C443.38 300.59 443.83 300.84 444.22 301.14C444.6 301.44 444.88 301.78 445.04 302.15V299.75C444.66 299.3 444.11 298.95 443.4 298.71C442.69 298.46 441.96 298.34 441.2 298.34C440.13 298.34 439.16 298.59 438.3 299.08C437.44 299.58 436.75 300.26 436.25 301.12C435.75 301.98 435.49 302.98 435.49 304.1C435.49 305.22 435.74 306.19 436.25 307.06C436.76 307.93 437.44 308.62 438.3 309.11C439.16 309.61 440.13 309.85 441.2 309.85C441.95 309.85 442.68 309.73 443.4 309.48C444.11 309.23 444.66 308.88 445.04 308.44V306.04C444.88 306.39 444.61 306.72 444.22 307.04C443.84 307.35 443.38 307.6 442.86 307.78C442.34 307.96 441.78 308.06 441.19 308.06C440.47 308.06 439.82 307.89 439.26 307.54C438.69 307.2 438.24 306.73 437.92 306.14C437.59 305.55 437.43 304.87 437.43 304.1C437.43 303.33 437.59 302.65 437.92 302.05C438.25 301.45 438.7 300.98 439.26 300.65V300.63Z" fill="white"/>
<path d="M450.29 293.07C450.03 292.81 449.72 292.69 449.35 292.69C448.98 292.69 448.69 292.82 448.43 293.07C448.17 293.33 448.03 293.64 448.03 294.01C448.03 294.38 448.16 294.67 448.43 294.93C448.69 295.19 449 295.33 449.35 295.33C449.72 295.33 450.03 295.2 450.29 294.93C450.55 294.67 450.67 294.36 450.67 294.01C450.67 293.66 450.54 293.33 450.29 293.07Z" fill="white"/>
<path d="M450.31 298.57H448.39V309.61H450.31V298.57Z" fill="white"/>
<path d="M459.52 303.02C458.98 302.84 458.31 302.74 457.52 302.74C456.16 302.74 455.1 303.06 454.34 303.71C453.58 304.36 453.2 305.22 453.2 306.29C453.2 307.04 453.38 307.68 453.73 308.21C454.08 308.74 454.55 309.14 455.13 309.42C455.71 309.7 456.34 309.84 457.01 309.84C457.62 309.84 458.23 309.73 458.85 309.5C459.47 309.28 459.98 308.93 460.41 308.47C460.51 308.37 460.59 308.25 460.66 308.13V309.59H462.58V301.67C462.58 300.95 462.4 300.34 462.04 299.85C461.68 299.35 461.18 298.97 460.53 298.71C459.88 298.45 459.13 298.31 458.26 298.31C457.23 298.31 456.36 298.46 455.63 298.77C454.9 299.07 454.33 299.38 453.92 299.68L454.86 301.1C455.04 300.97 455.28 300.82 455.58 300.64C455.88 300.46 456.26 300.31 456.7 300.18C457.14 300.05 457.63 299.99 458.18 299.99C458.52 299.99 458.83 300.02 459.14 300.09C459.45 300.16 459.71 300.26 459.94 300.4C460.17 300.54 460.35 300.74 460.48 300.99C460.61 301.24 460.67 301.55 460.67 301.94V303.55C460.37 303.35 460 303.17 459.53 303.01L459.52 303.02ZM460.24 306.81C459.96 307.25 459.58 307.59 459.11 307.83C458.64 308.07 458.11 308.19 457.51 308.19C457.05 308.19 456.63 308.11 456.27 307.96C455.91 307.81 455.63 307.58 455.43 307.28C455.23 306.98 455.13 306.62 455.13 306.2C455.13 305.78 455.23 305.46 455.42 305.17C455.61 304.88 455.9 304.66 456.3 304.5C456.7 304.34 457.2 304.26 457.82 304.26C458.49 304.26 459.12 304.34 459.72 304.51C460.04 304.6 460.35 304.73 460.66 304.88V305.29C460.66 305.87 460.52 306.37 460.24 306.81Z" fill="white"/>
<path d="M465.94 298.57H464.14V300.37H465.94V309.61H467.86V300.37H469.66V298.57H467.86V294.73H465.94V298.57Z" fill="white"/>
<path d="M473.86 298.57H471.94V309.61H473.86V298.57Z" fill="white"/>
<path d="M473.83 293.07C473.57 292.81 473.26 292.69 472.89 292.69C472.52 292.69 472.23 292.82 471.97 293.07C471.71 293.33 471.57 293.64 471.57 294.01C471.57 294.38 471.7 294.67 471.97 294.93C472.23 295.19 472.54 295.33 472.89 295.33C473.26 295.33 473.57 295.2 473.83 294.93C474.09 294.67 474.21 294.36 474.21 294.01C474.21 293.66 474.08 293.33 473.83 293.07Z" fill="white"/>
<path d="M485.48 299.07C484.62 298.57 483.65 298.33 482.56 298.33C481.47 298.33 480.52 298.58 479.66 299.07C478.79 299.57 478.11 300.25 477.61 301.11C477.11 301.97 476.85 302.97 476.85 304.09C476.85 305.21 477.1 306.18 477.61 307.05C478.11 307.92 478.8 308.61 479.66 309.1C480.52 309.6 481.49 309.84 482.56 309.84C483.63 309.84 484.62 309.59 485.48 309.1C486.34 308.6 487.02 307.92 487.52 307.05C488.02 306.18 488.28 305.19 488.28 304.09C488.28 302.99 488.03 301.98 487.52 301.11C487.02 300.25 486.34 299.57 485.48 299.07ZM485.85 306.13C485.52 306.72 485.07 307.19 484.51 307.53C483.94 307.87 483.3 308.05 482.58 308.05C481.86 308.05 481.22 307.88 480.65 307.53C480.08 307.19 479.63 306.72 479.31 306.13C478.98 305.54 478.82 304.86 478.82 304.09C478.82 303.32 478.98 302.64 479.31 302.04C479.64 301.44 480.09 300.97 480.65 300.64C481.21 300.31 481.86 300.14 482.58 300.14C483.3 300.14 483.95 300.31 484.51 300.64C485.08 300.98 485.53 301.44 485.85 302.04C486.18 302.64 486.34 303.32 486.34 304.09C486.34 304.86 486.17 305.54 485.85 306.13Z" fill="white"/>
<path d="M490.92 298.57V309.61H492.84V302.89C492.84 302.35 492.96 301.87 493.19 301.45C493.42 301.03 493.75 300.71 494.17 300.48C494.59 300.25 495.09 300.13 495.65 300.13C496.42 300.13 497 300.36 497.4 300.83C497.8 301.29 498 301.98 498 302.89V309.61H499.92V302.65C499.92 301.32 499.58 300.27 498.9 299.49C498.22 298.71 497.3 298.33 496.13 298.33C495.41 298.33 494.77 298.49 494.22 298.81C493.67 299.13 493.21 299.63 492.84 300.3V298.57H490.92Z" fill="white"/>
<path d="M258.14 104.61H266.25V78.26H275.51V71.01H248.92V78.26H258.14V104.61Z" fill="white"/>
<path d="M285.79 91.17C285.79 90.31 285.95 89.58 286.27 88.99C286.59 88.4 287.04 87.93 287.61 87.6C288.18 87.27 288.86 87.1 289.63 87.1C290.81 87.1 291.65 87.45 292.13 88.16C292.61 88.86 292.85 89.87 292.85 91.18V104.62H300.1V90.12C300.1 88.3 299.84 86.76 299.33 85.51C298.82 84.26 298.01 83.32 296.91 82.68C295.81 82.04 294.34 81.72 292.52 81.72C290.7 81.72 289.2 82.14 288.03 82.99C287.09 83.67 286.35 84.55 285.8 85.6V67.17H278.5V104.61H285.8V91.17H285.79Z" fill="white"/>
<path d="M310.34 103.67C312.21 104.61 314.43 105.09 316.99 105.09C319.81 105.09 322.2 104.55 324.17 103.46C326.14 102.37 327.7 100.74 328.85 98.56L322.37 96.98C321.83 97.94 321.1 98.66 320.19 99.14C319.28 99.62 318.18 99.86 316.9 99.86C315.78 99.86 314.84 99.61 314.07 99.12C313.3 98.62 312.73 97.9 312.34 96.94C312.12 96.4 311.97 95.78 311.88 95.12H328.71C328.77 94.9 328.81 94.62 328.81 94.28V93.25C328.81 90.88 328.35 88.87 327.42 87.2C326.49 85.54 325.15 84.26 323.39 83.38C321.63 82.5 319.47 82.06 316.91 82.06C314.35 82.06 312.13 82.52 310.26 83.45C308.39 84.38 306.96 85.71 305.96 87.43C304.97 89.16 304.47 91.21 304.47 93.57C304.47 95.93 304.98 97.94 306.01 99.67C307.03 101.4 308.48 102.73 310.35 103.68L310.34 103.67ZM314.01 87.62C314.75 87.14 315.66 86.9 316.75 86.9C317.61 86.9 318.37 87.09 319.01 87.48C319.65 87.86 320.15 88.41 320.5 89.11C320.78 89.68 320.95 90.34 321 91.08H312.01C312.1 90.62 312.21 90.19 312.36 89.81C312.73 88.83 313.28 88.11 314.02 87.63L314.01 87.62Z" fill="white"/>
<path d="M347.85 104.61H354.09L356.1 96.35H361.41L359.42 104.61H365.71L367.72 96.35H373.25V90.54H369.13L370.52 84.83H375.17V79.02H371.93L373.88 71H367.59L365.63 79.02H360.33L362.26 71H356.02L354.07 79.02H348.43V84.83H352.66L351.27 90.54H346.51V96.35H349.86L347.86 104.61H347.85ZM358.68 84.54H364.58L363.02 90.83H357.15L358.68 84.54Z" fill="white"/>
<path d="M388.41 104.61H396.23V70.38L380.1 73.65V80.7L388.41 78.64V104.61Z" fill="white"/>
<path d="M111.96 125.49C109.69 126.32 107.74 127.52 106.1 129.09C104.47 130.66 103.2 132.51 102.31 134.66C101.41 136.8 100.97 139.19 100.97 141.81C100.97 144.43 101.42 146.82 102.31 148.96C103.21 151.1 104.47 152.96 106.1 154.53C107.73 156.1 109.68 157.3 111.96 158.13C114.23 158.96 116.71 159.38 119.4 159.38C121.86 159.38 123.9 159.08 125.5 158.47C127.1 157.86 128.57 157.03 129.92 155.97V147.23C129.18 148 128.34 148.72 127.38 149.39C126.42 150.06 125.33 150.61 124.12 151.02C122.9 151.44 121.5 151.64 119.9 151.64C118.08 151.64 116.4 151.26 114.88 150.49C113.36 149.72 112.14 148.59 111.21 147.11C110.28 145.62 109.82 143.85 109.82 141.81C109.82 139.77 110.28 137.95 111.21 136.48C112.14 135.01 113.36 133.89 114.88 133.12C116.4 132.35 118.07 131.97 119.9 131.97C121.5 131.97 122.91 132.17 124.12 132.57C125.34 132.97 126.42 133.51 127.38 134.2C128.34 134.89 129.19 135.62 129.92 136.38V127.64C128.58 126.58 127.1 125.75 125.5 125.14C123.9 124.53 121.87 124.23 119.4 124.23C116.71 124.23 114.23 124.65 111.96 125.48V125.49Z" fill="white"/>
<path d="M142.96 147.71C142.96 146.65 143.1 145.76 143.39 145.02C143.68 144.28 144.09 143.72 144.64 143.34C145.18 142.96 145.81 142.76 146.51 142.76C147.15 142.76 147.69 142.87 148.12 143.1C148.55 143.32 148.96 143.63 149.34 144.01L152.46 137.82C152.08 137.24 151.52 136.8 150.78 136.48C150.04 136.16 149.28 136 148.48 136C147.26 136 146.1 136.4 144.98 137.2C144.2 137.76 143.53 138.46 142.96 139.3V136.53H135.81V158.61H142.96V147.71Z" fill="white"/>
<path d="M157.89 169.17H165.19L179.59 136.53H172.15L166.95 149.55L161.68 136.53H153.72L163.27 156.83L157.89 169.17Z" fill="white"/>
<path d="M189.19 155.06C189.86 156.23 190.72 157.19 191.76 157.91C193.15 158.89 194.81 159.37 196.73 159.37C198.65 159.37 200.26 158.92 201.84 158.03C203.42 157.14 204.72 155.81 205.73 154.05C206.74 152.29 207.24 150.13 207.24 147.57C207.24 145.01 206.74 142.81 205.73 141.07C204.72 139.33 203.43 138.01 201.84 137.11C200.26 136.21 198.55 135.77 196.73 135.77C194.81 135.77 193.15 136.26 191.76 137.23C190.72 137.96 189.87 138.91 189.19 140.07V136.53H181.94V169.17H189.19V155.06ZM189.96 144.59C190.47 143.79 191.12 143.19 191.9 142.79C192.68 142.39 193.49 142.19 194.32 142.19C195.28 142.19 196.16 142.4 196.96 142.81C197.76 143.23 198.4 143.83 198.88 144.63C199.36 145.43 199.6 146.41 199.6 147.56C199.6 148.71 199.36 149.69 198.88 150.49C198.4 151.29 197.76 151.9 196.96 152.31C196.16 152.73 195.28 152.93 194.32 152.93C193.49 152.93 192.68 152.73 191.9 152.33C191.12 151.93 190.47 151.33 189.96 150.53C189.45 149.73 189.19 148.74 189.19 147.55C189.19 146.36 189.45 145.37 189.96 144.57V144.59Z" fill="white"/>
<path d="M212.9 158.61H219.86V142.53H223.8V136.53H219.86V128.85H212.9V136.53H209.01V142.53H212.9V158.61Z" fill="white"/>
<path d="M231.71 157.65C233.63 158.61 235.79 159.09 238.19 159.09C240.59 159.09 242.74 158.61 244.65 157.65C246.55 156.69 248.06 155.35 249.16 153.62C250.26 151.89 250.82 149.88 250.82 147.57C250.82 145.26 250.27 143.2 249.16 141.47C248.06 139.74 246.55 138.4 244.65 137.44C242.75 136.48 240.59 136 238.19 136C235.79 136 233.63 136.48 231.71 137.44C229.79 138.4 228.29 139.74 227.2 141.47C226.11 143.2 225.57 145.23 225.57 147.57C225.57 149.91 226.11 151.89 227.2 153.62C228.29 155.35 229.79 156.69 231.71 157.65ZM233.73 144.59C234.21 143.76 234.83 143.12 235.6 142.67C236.37 142.22 237.23 142 238.19 142C239.15 142 239.97 142.22 240.76 142.67C241.54 143.12 242.17 143.76 242.63 144.59C243.09 145.42 243.33 146.41 243.33 147.57C243.33 148.73 243.1 149.71 242.63 150.52C242.16 151.33 241.54 151.97 240.76 152.42C239.98 152.87 239.12 153.09 238.19 153.09C237.26 153.09 236.37 152.87 235.6 152.42C234.83 151.97 234.21 151.34 233.73 150.52C233.25 149.7 233.01 148.72 233.01 147.57C233.01 146.42 233.25 145.43 233.73 144.59Z" fill="white"/>
<path d="M278.52 125.01H270.26V158.61H278.52V125.01Z" fill="white"/>
<path d="M309.43 141.69C310.42 140.04 310.92 138.15 310.92 136C310.92 133.85 310.42 131.91 309.43 130.26C308.44 128.61 306.98 127.32 305.06 126.4C303.14 125.47 300.74 125.01 297.86 125.01H285.62V158.61H293.73V146.95H296.18L303.43 158.61H312.93L304.16 145.91C304.46 145.79 304.78 145.69 305.06 145.55C306.98 144.62 308.44 143.33 309.43 141.69ZM293.73 131.87H297.28C298.37 131.87 299.3 132.05 300.09 132.4C300.87 132.75 301.47 133.26 301.89 133.91C302.31 134.57 302.51 135.36 302.51 136.29C302.51 137.22 302.3 138.01 301.89 138.67C301.47 139.33 300.87 139.82 300.09 140.16C299.3 140.5 298.37 140.66 297.28 140.66H293.73V131.88V131.87Z" fill="white"/>
<path d="M322.24 158.61L325.37 152.13H336.08L339.23 158.61H348.45L330.74 122.9L313.08 158.61H322.25H322.24ZM334.48 145.94H327.01L330.74 137.35L334.49 145.94H334.48Z" fill="white"/>
<path d="M371.44 125.01H366.35V158.61H374.46V146.95H378.01C380.86 146.95 383.25 146.51 385.19 145.63C387.13 144.75 388.59 143.49 389.58 141.84C390.57 140.19 391.07 138.25 391.07 136.01C391.07 133.77 390.57 131.74 389.58 130.11C388.59 128.48 387.12 127.22 385.19 126.34C383.25 125.46 380.86 125.02 378.01 125.02H371.43L371.44 125.01ZM378.02 131.68C379.65 131.68 380.93 132.05 381.86 132.78C382.79 133.52 383.25 134.59 383.25 136C383.25 137.41 382.79 138.43 381.86 139.17C380.93 139.91 379.65 140.27 378.02 140.27H374.47V131.68H378.02Z" fill="white"/>
<path d="M402.84 121.17H395.54V158.61H402.84V121.17Z" fill="white"/>
<path d="M421.84 146.56C421.07 146.18 420.15 145.86 419.08 145.6C418.01 145.34 416.8 145.22 415.46 145.22C412.71 145.22 410.58 145.84 409.08 147.07C407.58 148.3 406.82 149.97 406.82 152.09C406.82 153.59 407.18 154.87 407.9 155.93C408.62 156.99 409.58 157.78 410.78 158.31C411.98 158.84 413.28 159.1 414.69 159.1C416.1 159.1 417.41 158.85 418.63 158.36C419.85 157.86 420.84 157.13 421.61 156.15C421.76 155.96 421.88 155.76 421.99 155.56V158.62H428.95V143.07C428.95 141.53 428.5 140.24 427.61 139.18C426.72 138.12 425.5 137.32 423.96 136.76C422.42 136.2 420.68 135.92 418.73 135.92C416.65 135.92 414.73 136.19 412.97 136.74C411.21 137.28 409.71 137.86 408.46 138.47L410.91 143.32C411.23 143.13 411.74 142.88 412.45 142.58C413.15 142.28 413.98 142.01 414.92 141.79C415.86 141.57 416.83 141.45 417.82 141.45C418.49 141.45 419.09 141.51 419.62 141.64C420.15 141.77 420.59 141.98 420.94 142.26C421.29 142.55 421.56 142.89 421.73 143.29C421.91 143.69 421.99 144.16 421.99 144.71V146.66C421.99 146.66 421.9 146.61 421.85 146.58L421.84 146.56ZM421.31 152.27C420.86 152.97 420.28 153.5 419.58 153.85C418.88 154.2 418.11 154.38 417.28 154.38C416.7 154.38 416.18 154.28 415.7 154.07C415.22 153.86 414.84 153.56 414.55 153.16C414.26 152.76 414.12 152.27 414.12 151.7C414.12 151.16 414.25 150.7 414.5 150.33C414.76 149.96 415.14 149.68 415.65 149.49C416.16 149.3 416.85 149.2 417.71 149.2C418.83 149.2 419.89 149.35 420.9 149.66C421.27 149.77 421.62 149.92 421.96 150.08C421.91 150.93 421.7 151.67 421.31 152.28V152.27Z" fill="white"/>
<path d="M435.66 158.61H442.62V142.53H446.56V136.53H442.62V128.85H435.66V136.53H431.77V142.53H435.66V158.61Z" fill="white"/>
<path d="M450.45 158.61H457.41V142.53H462.74V136.53H457.41V130.19C457.41 129.42 457.51 128.8 457.7 128.32C457.89 127.84 458.16 127.49 458.49 127.26C458.83 127.04 459.23 126.92 459.71 126.92C460.13 126.92 460.52 127.02 460.89 127.21C461.26 127.4 461.6 127.71 461.92 128.12L464.85 122.79C464.53 122.47 464.1 122.13 463.55 121.76C463.01 121.39 462.34 121.07 461.56 120.8C460.78 120.53 459.84 120.39 458.75 120.39C456.93 120.39 455.4 120.71 454.17 121.35C452.94 121.99 452.01 122.9 451.39 124.09C450.77 125.27 450.45 126.7 450.45 128.36V136.52H447.67V142.52H450.45V158.6V158.61Z" fill="white"/>
<path d="M466.48 153.62C467.57 155.35 469.07 156.69 470.99 157.65C472.91 158.61 475.07 159.09 477.47 159.09C479.87 159.09 482.02 158.61 483.93 157.65C485.83 156.69 487.34 155.35 488.44 153.62C489.54 151.89 490.1 149.88 490.1 147.57C490.1 145.26 489.55 143.2 488.44 141.47C487.34 139.74 485.83 138.4 483.93 137.44C482.03 136.48 479.87 136 477.47 136C475.07 136 472.91 136.48 470.99 137.44C469.07 138.4 467.57 139.74 466.48 141.47C465.39 143.2 464.85 145.23 464.85 147.57C464.85 149.91 465.39 151.89 466.48 153.62ZM473.01 144.59C473.49 143.76 474.11 143.12 474.88 142.67C475.65 142.22 476.51 142 477.47 142C478.43 142 479.25 142.22 480.04 142.67C480.82 143.12 481.45 143.76 481.91 144.59C482.37 145.42 482.61 146.41 482.61 147.57C482.61 148.73 482.38 149.71 481.91 150.52C481.44 151.33 480.82 151.97 480.04 152.42C479.26 152.87 478.4 153.09 477.47 153.09C476.54 153.09 475.65 152.87 474.88 152.42C474.11 151.97 473.49 151.34 473.01 150.52C472.53 149.7 472.29 148.72 472.29 147.57C472.29 146.42 472.53 145.43 473.01 144.59Z" fill="white"/>
<path d="M501.57 147.71C501.57 146.65 501.71 145.76 502 145.02C502.29 144.28 502.7 143.72 503.25 143.34C503.79 142.96 504.42 142.76 505.12 142.76C505.76 142.76 506.3 142.87 506.73 143.1C507.16 143.32 507.57 143.63 507.95 144.01L511.07 137.82C510.69 137.24 510.13 136.8 509.39 136.48C508.65 136.16 507.89 136 507.09 136C505.87 136 504.71 136.4 503.59 137.2C502.81 137.76 502.14 138.46 501.57 139.3V136.53H494.42V158.61H501.57V147.71Z" fill="white"/>
<path d="M521.15 145.17C521.15 144.27 521.29 143.52 521.56 142.91C521.83 142.3 522.22 141.85 522.71 141.54C523.21 141.24 523.77 141.08 524.41 141.08C525.4 141.08 526.11 141.42 526.55 142.11C526.98 142.8 527.2 143.81 527.2 145.16V158.6H534.5V145.16C534.5 144.26 534.64 143.51 534.91 142.9C535.18 142.29 535.57 141.84 536.06 141.53C536.56 141.23 537.12 141.07 537.76 141.07C538.75 141.07 539.46 141.41 539.9 142.1C540.33 142.79 540.55 143.8 540.55 145.15V158.59H547.85V144.38C547.85 142.59 547.63 141.07 547.18 139.82C546.73 138.57 546 137.62 545 136.96C543.99 136.3 542.62 135.98 540.9 135.98C539.4 135.98 538.05 136.3 536.87 136.94C535.69 137.58 534.69 138.48 533.89 139.63C533.44 138.45 532.71 137.54 531.68 136.92C530.65 136.3 529.28 135.98 527.55 135.98C526.05 135.98 524.76 136.32 523.69 136.99C522.62 137.66 521.78 138.59 521.17 139.77V136.51H514.16V158.59H521.17V145.15L521.15 145.17Z" fill="white"/>
<path d="M211.65 186.16C212.83 186.16 213.83 185.79 214.65 185.06C215.47 184.32 215.87 183.38 215.87 182.23C215.87 181.08 215.46 180.14 214.65 179.42C213.83 178.7 212.83 178.34 211.65 178.34C210.47 178.34 209.51 178.7 208.67 179.42C207.84 180.14 207.42 181.08 207.42 182.23C207.42 183.38 207.84 184.33 208.67 185.06C209.5 185.8 210.49 186.16 211.65 186.16Z" fill="white"/>
<path d="M215.16 190.53H208.15V212.61H215.16V190.53Z" fill="white"/>
<path d="M221.11 190.53V212.61H228.41V199.17C228.41 198.31 228.57 197.57 228.89 196.96C229.21 196.35 229.66 195.89 230.23 195.57C230.81 195.25 231.48 195.09 232.25 195.09C233.4 195.09 234.23 195.44 234.72 196.15C235.22 196.85 235.46 197.86 235.46 199.17V212.61H243V198.4C243 195.74 242.38 193.68 241.13 192.21C239.88 190.74 237.88 190 235.13 190C233.5 190 232.13 190.34 231.03 191.01C229.93 191.68 229.05 192.63 228.41 193.84V190.53H221.11Z" fill="white"/>
<path d="M269.39 212.61L272.52 206.13H283.23L286.38 212.61H295.6L277.89 176.9L260.23 212.61H269.4H269.39ZM281.64 199.94H274.17L277.9 191.35L281.65 199.94H281.64Z" fill="white"/>
<path d="M329.22 190.98C328.21 190.32 326.84 190 325.12 190C323.62 190 322.27 190.32 321.09 190.96C319.91 191.6 318.91 192.5 318.11 193.65C317.66 192.47 316.93 191.56 315.9 190.94C314.87 190.32 313.5 190 311.77 190C310.27 190 308.98 190.34 307.91 191.01C306.84 191.68 306 192.61 305.39 193.79V190.53H298.38V212.61H305.39V199.17C305.39 198.27 305.53 197.52 305.8 196.91C306.07 196.3 306.46 195.85 306.95 195.54C307.45 195.24 308.01 195.08 308.65 195.08C309.64 195.08 310.35 195.42 310.79 196.11C311.22 196.8 311.44 197.81 311.44 199.16V212.6H318.74V199.16C318.74 198.26 318.88 197.51 319.15 196.9C319.42 196.29 319.81 195.84 320.3 195.53C320.8 195.23 321.36 195.07 322 195.07C322.99 195.07 323.7 195.41 324.14 196.1C324.57 196.79 324.79 197.8 324.79 199.15V212.59H332.09V198.38C332.09 196.59 331.87 195.07 331.42 193.82C330.97 192.57 330.24 191.62 329.24 190.96L329.22 190.98Z" fill="white"/>
<path d="M360.79 202.26V201.23C360.79 198.86 360.33 196.85 359.4 195.18C358.47 193.52 357.13 192.24 355.37 191.36C353.61 190.48 351.45 190.04 348.89 190.04C346.33 190.04 344.11 190.5 342.24 191.43C340.37 192.36 338.94 193.69 337.94 195.41C336.95 197.14 336.45 199.19 336.45 201.55C336.45 203.91 336.96 205.92 337.99 207.65C339.01 209.38 340.46 210.71 342.33 211.66C344.2 212.61 346.42 213.08 348.98 213.08C351.8 213.08 354.19 212.54 356.16 211.45C358.13 210.36 359.69 208.73 360.84 206.55L354.36 204.97C353.82 205.93 353.09 206.65 352.18 207.13C351.27 207.61 350.17 207.85 348.89 207.85C347.77 207.85 346.83 207.6 346.06 207.11C345.29 206.61 344.72 205.89 344.33 204.93C344.11 204.39 343.96 203.77 343.87 203.11H360.7C360.76 202.89 360.8 202.61 360.8 202.27L360.79 202.26ZM346 195.62C346.74 195.14 347.65 194.9 348.74 194.9C349.6 194.9 350.36 195.09 351 195.48C351.64 195.86 352.14 196.41 352.49 197.11C352.77 197.68 352.94 198.34 352.99 199.08H344C344.09 198.62 344.2 198.19 344.35 197.81C344.72 196.83 345.27 196.11 346.01 195.63L346 195.62Z" fill="white"/>
<path d="M365.25 190.53V212.61H372.4V201.71C372.4 200.65 372.54 199.76 372.83 199.02C373.12 198.28 373.53 197.72 374.08 197.34C374.62 196.96 375.25 196.76 375.95 196.76C376.59 196.76 377.13 196.87 377.56 197.1C377.99 197.32 378.4 197.63 378.78 198.01L381.9 191.82C381.52 191.24 380.96 190.8 380.22 190.48C379.48 190.16 378.72 190 377.92 190C376.7 190 375.54 190.4 374.42 191.2C373.64 191.76 372.97 192.46 372.4 193.3V190.53H365.25Z" fill="white"/>
<path d="M392.27 190.53H385.26V212.61H392.27V190.53Z" fill="white"/>
<path d="M388.77 178.34C387.62 178.34 386.63 178.7 385.79 179.42C384.96 180.14 384.54 181.08 384.54 182.23C384.54 183.38 384.96 184.33 385.79 185.06C386.62 185.8 387.61 186.16 388.77 186.16C389.93 186.16 390.95 185.79 391.77 185.06C392.59 184.32 392.99 183.38 392.99 182.23C392.99 181.08 392.58 180.14 391.77 179.42C390.95 178.7 389.95 178.34 388.77 178.34Z" fill="white"/>
<path d="M398.49 195.5C397.39 197.21 396.83 199.24 396.83 201.57C396.83 203.9 397.38 205.89 398.49 207.62C399.59 209.35 401.11 210.69 403.05 211.65C404.99 212.61 407.17 213.09 409.6 213.09C411.26 213.09 412.67 212.91 413.82 212.54C414.97 212.17 415.93 211.68 416.7 211.08V204.02C416.25 204.72 415.68 205.32 415 205.8C414.31 206.28 413.56 206.66 412.74 206.93C411.92 207.2 411.07 207.34 410.17 207.34C409.11 207.34 408.13 207.1 407.22 206.62C406.31 206.14 405.6 205.48 405.08 204.63C404.57 203.78 404.31 202.77 404.31 201.58C404.31 200.49 404.57 199.52 405.08 198.65C405.59 197.79 406.3 197.1 407.22 196.59C408.13 196.08 409.12 195.82 410.17 195.82C410.97 195.82 411.79 195.95 412.62 196.2C413.45 196.46 414.23 196.82 414.95 197.3C415.67 197.78 416.25 198.37 416.7 199.08V191.98C415.93 191.44 414.97 190.98 413.82 190.61C412.67 190.24 411.26 190.06 409.6 190.06C407.17 190.06 404.98 190.54 403.05 191.5C401.11 192.46 399.59 193.8 398.49 195.51V195.5Z" fill="white"/>
<path d="M435.28 200.56C434.51 200.18 433.59 199.86 432.52 199.6C431.45 199.34 430.24 199.22 428.9 199.22C426.15 199.22 424.02 199.84 422.52 201.07C421.02 202.3 420.26 203.97 420.26 206.09C420.26 207.59 420.62 208.87 421.34 209.93C422.06 210.99 423.02 211.78 424.22 212.31C425.42 212.84 426.72 213.1 428.13 213.1C429.54 213.1 430.85 212.85 432.07 212.36C433.29 211.86 434.28 211.13 435.05 210.15C435.2 209.96 435.32 209.76 435.43 209.56V212.62H442.39V197.07C442.39 195.53 441.94 194.24 441.05 193.18C440.16 192.12 438.94 191.32 437.4 190.76C435.86 190.2 434.12 189.92 432.17 189.92C430.09 189.92 428.17 190.19 426.41 190.74C424.65 191.28 423.15 191.86 421.9 192.47L424.35 197.32C424.67 197.13 425.18 196.88 425.89 196.58C426.59 196.28 427.42 196.01 428.36 195.79C429.3 195.57 430.27 195.45 431.26 195.45C431.93 195.45 432.53 195.51 433.06 195.64C433.59 195.77 434.03 195.98 434.38 196.26C434.73 196.55 435 196.89 435.17 197.29C435.35 197.69 435.43 198.16 435.43 198.71V200.66C435.43 200.66 435.34 200.61 435.29 200.58L435.28 200.56ZM434.75 206.27C434.3 206.97 433.72 207.5 433.02 207.85C432.32 208.2 431.55 208.38 430.72 208.38C430.14 208.38 429.62 208.28 429.14 208.07C428.66 207.86 428.28 207.56 427.99 207.16C427.7 206.76 427.56 206.27 427.56 205.7C427.56 205.16 427.69 204.7 427.94 204.33C428.2 203.96 428.58 203.68 429.09 203.49C429.6 203.3 430.29 203.2 431.15 203.2C432.27 203.2 433.33 203.35 434.34 203.66C434.71 203.77 435.06 203.92 435.4 204.08C435.35 204.93 435.14 205.67 434.75 206.28V206.27Z" fill="white"/>
</g>
<defs>
<clipPath id="clip0_348_1567">
<rect width="650" height="350" fill="white"/>
</clipPath>
</defs>
</svg>
